<?xml version="1.0" encoding="utf-8" standalone="no"?>
<!DOCTYPE svg PUBLIC "-//W3C//DTD SVG 1.1//EN"
  "http://www.w3.org/Graphics/SVG/1.1/DTD/svg11.dtd">
<!-- Created with matplotlib (https://matplotlib.org/) -->
<svg height="432pt" version="1.1" viewBox="0 0 432 432" width="432pt" xmlns="http://www.w3.org/2000/svg" xmlns:xlink="http://www.w3.org/1999/xlink">
 <metadata>
  <rdf:RDF xmlns:cc="http://creativecommons.org/ns#" xmlns:dc="http://purl.org/dc/elements/1.1/" xmlns:rdf="http://www.w3.org/1999/02/22-rdf-syntax-ns#">
   <cc:Work>
    <dc:type rdf:resource="http://purl.org/dc/dcmitype/StillImage"/>
    <dc:date>2021-03-01T22:27:35.334598</dc:date>
    <dc:format>image/svg+xml</dc:format>
    <dc:creator>
     <cc:Agent>
      <dc:title>Matplotlib v3.3.3, https://matplotlib.org/</dc:title>
     </cc:Agent>
    </dc:creator>
   </cc:Work>
  </rdf:RDF>
 </metadata>
 <defs>
  <style type="text/css">*{stroke-linecap:butt;stroke-linejoin:round;}</style>
 </defs>
 <g id="figure_1">
  <g id="patch_1">
   <path d="M 0 432 
L 432 432 
L 432 0 
L 0 0 
z
" style="fill:#ffffff;"/>
  </g>
  <g id="axes_1">
   <g id="patch_2">
    <path d="M 54 384.48 
L 388.8 384.48 
L 388.8 51.84 
L 54 51.84 
z
" style="fill:#eaeaf2;"/>
   </g>
   <g id="matplotlib.axis_1">
    <g id="xtick_1">
     <g id="line2d_1">
      <path clip-path="url(#pe90ab74bd4)" d="M 64.511528 384.48 
L 64.511528 51.84 
" style="fill:none;stroke:#ffffff;stroke-linecap:round;"/>
     </g>
     <g id="text_1">
      <!-- 0.0 -->
      <g style="fill:#262626;" transform="translate(55.764809 402.338281)scale(0.11 -0.11)">
       <defs>
        <path d="M 31.78125 66.40625 
Q 24.171875 66.40625 20.328125 58.90625 
Q 16.5 51.421875 16.5 36.375 
Q 16.5 21.390625 20.328125 13.890625 
Q 24.171875 6.390625 31.78125 6.390625 
Q 39.453125 6.390625 43.28125 13.890625 
Q 47.125 21.390625 47.125 36.375 
Q 47.125 51.421875 43.28125 58.90625 
Q 39.453125 66.40625 31.78125 66.40625 
z
M 31.78125 74.21875 
Q 44.046875 74.21875 50.515625 64.515625 
Q 56.984375 54.828125 56.984375 36.375 
Q 56.984375 17.96875 50.515625 8.265625 
Q 44.046875 -1.421875 31.78125 -1.421875 
Q 19.53125 -1.421875 13.0625 8.265625 
Q 6.59375 17.96875 6.59375 36.375 
Q 6.59375 54.828125 13.0625 64.515625 
Q 19.53125 74.21875 31.78125 74.21875 
z
" id="DejaVuSans-48"/>
        <path d="M 10.6875 12.40625 
L 21 12.40625 
L 21 0 
L 10.6875 0 
z
" id="DejaVuSans-46"/>
       </defs>
       <use xlink:href="#DejaVuSans-48"/>
       <use x="63.623047" xlink:href="#DejaVuSans-46"/>
       <use x="95.410156" xlink:href="#DejaVuSans-48"/>
      </g>
     </g>
    </g>
    <g id="xtick_2">
     <g id="line2d_2">
      <path clip-path="url(#pe90ab74bd4)" d="M 127.266917 384.48 
L 127.266917 51.84 
" style="fill:none;stroke:#ffffff;stroke-linecap:round;"/>
     </g>
     <g id="text_2">
      <!-- 0.2 -->
      <g style="fill:#262626;" transform="translate(118.520198 402.338281)scale(0.11 -0.11)">
       <defs>
        <path d="M 19.1875 8.296875 
L 53.609375 8.296875 
L 53.609375 0 
L 7.328125 0 
L 7.328125 8.296875 
Q 12.9375 14.109375 22.625 23.890625 
Q 32.328125 33.6875 34.8125 36.53125 
Q 39.546875 41.84375 41.421875 45.53125 
Q 43.3125 49.21875 43.3125 52.78125 
Q 43.3125 58.59375 39.234375 62.25 
Q 35.15625 65.921875 28.609375 65.921875 
Q 23.96875 65.921875 18.8125 64.3125 
Q 13.671875 62.703125 7.8125 59.421875 
L 7.8125 69.390625 
Q 13.765625 71.78125 18.9375 73 
Q 24.125 74.21875 28.421875 74.21875 
Q 39.75 74.21875 46.484375 68.546875 
Q 53.21875 62.890625 53.21875 53.421875 
Q 53.21875 48.921875 51.53125 44.890625 
Q 49.859375 40.875 45.40625 35.40625 
Q 44.1875 33.984375 37.640625 27.21875 
Q 31.109375 20.453125 19.1875 8.296875 
z
" id="DejaVuSans-50"/>
       </defs>
       <use xlink:href="#DejaVuSans-48"/>
       <use x="63.623047" xlink:href="#DejaVuSans-46"/>
       <use x="95.410156" xlink:href="#DejaVuSans-50"/>
      </g>
     </g>
    </g>
    <g id="xtick_3">
     <g id="line2d_3">
      <path clip-path="url(#pe90ab74bd4)" d="M 190.022306 384.48 
L 190.022306 51.84 
" style="fill:none;stroke:#ffffff;stroke-linecap:round;"/>
     </g>
     <g id="text_3">
      <!-- 0.4 -->
      <g style="fill:#262626;" transform="translate(181.275587 402.338281)scale(0.11 -0.11)">
       <defs>
        <path d="M 37.796875 64.3125 
L 12.890625 25.390625 
L 37.796875 25.390625 
z
M 35.203125 72.90625 
L 47.609375 72.90625 
L 47.609375 25.390625 
L 58.015625 25.390625 
L 58.015625 17.1875 
L 47.609375 17.1875 
L 47.609375 0 
L 37.796875 0 
L 37.796875 17.1875 
L 4.890625 17.1875 
L 4.890625 26.703125 
z
" id="DejaVuSans-52"/>
       </defs>
       <use xlink:href="#DejaVuSans-48"/>
       <use x="63.623047" xlink:href="#DejaVuSans-46"/>
       <use x="95.410156" xlink:href="#DejaVuSans-52"/>
      </g>
     </g>
    </g>
    <g id="xtick_4">
     <g id="line2d_4">
      <path clip-path="url(#pe90ab74bd4)" d="M 252.777694 384.48 
L 252.777694 51.84 
" style="fill:none;stroke:#ffffff;stroke-linecap:round;"/>
     </g>
     <g id="text_4">
      <!-- 0.6 -->
      <g style="fill:#262626;" transform="translate(244.030976 402.338281)scale(0.11 -0.11)">
       <defs>
        <path d="M 33.015625 40.375 
Q 26.375 40.375 22.484375 35.828125 
Q 18.609375 31.296875 18.609375 23.390625 
Q 18.609375 15.53125 22.484375 10.953125 
Q 26.375 6.390625 33.015625 6.390625 
Q 39.65625 6.390625 43.53125 10.953125 
Q 47.40625 15.53125 47.40625 23.390625 
Q 47.40625 31.296875 43.53125 35.828125 
Q 39.65625 40.375 33.015625 40.375 
z
M 52.59375 71.296875 
L 52.59375 62.3125 
Q 48.875 64.0625 45.09375 64.984375 
Q 41.3125 65.921875 37.59375 65.921875 
Q 27.828125 65.921875 22.671875 59.328125 
Q 17.53125 52.734375 16.796875 39.40625 
Q 19.671875 43.65625 24.015625 45.921875 
Q 28.375 48.1875 33.59375 48.1875 
Q 44.578125 48.1875 50.953125 41.515625 
Q 57.328125 34.859375 57.328125 23.390625 
Q 57.328125 12.15625 50.6875 5.359375 
Q 44.046875 -1.421875 33.015625 -1.421875 
Q 20.359375 -1.421875 13.671875 8.265625 
Q 6.984375 17.96875 6.984375 36.375 
Q 6.984375 53.65625 15.1875 63.9375 
Q 23.390625 74.21875 37.203125 74.21875 
Q 40.921875 74.21875 44.703125 73.484375 
Q 48.484375 72.75 52.59375 71.296875 
z
" id="DejaVuSans-54"/>
       </defs>
       <use xlink:href="#DejaVuSans-48"/>
       <use x="63.623047" xlink:href="#DejaVuSans-46"/>
       <use x="95.410156" xlink:href="#DejaVuSans-54"/>
      </g>
     </g>
    </g>
    <g id="xtick_5">
     <g id="line2d_5">
      <path clip-path="url(#pe90ab74bd4)" d="M 315.533083 384.48 
L 315.533083 51.84 
" style="fill:none;stroke:#ffffff;stroke-linecap:round;"/>
     </g>
     <g id="text_5">
      <!-- 0.8 -->
      <g style="fill:#262626;" transform="translate(306.786365 402.338281)scale(0.11 -0.11)">
       <defs>
        <path d="M 31.78125 34.625 
Q 24.75 34.625 20.71875 30.859375 
Q 16.703125 27.09375 16.703125 20.515625 
Q 16.703125 13.921875 20.71875 10.15625 
Q 24.75 6.390625 31.78125 6.390625 
Q 38.8125 6.390625 42.859375 10.171875 
Q 46.921875 13.96875 46.921875 20.515625 
Q 46.921875 27.09375 42.890625 30.859375 
Q 38.875 34.625 31.78125 34.625 
z
M 21.921875 38.8125 
Q 15.578125 40.375 12.03125 44.71875 
Q 8.5 49.078125 8.5 55.328125 
Q 8.5 64.0625 14.71875 69.140625 
Q 20.953125 74.21875 31.78125 74.21875 
Q 42.671875 74.21875 48.875 69.140625 
Q 55.078125 64.0625 55.078125 55.328125 
Q 55.078125 49.078125 51.53125 44.71875 
Q 48 40.375 41.703125 38.8125 
Q 48.828125 37.15625 52.796875 32.3125 
Q 56.78125 27.484375 56.78125 20.515625 
Q 56.78125 9.90625 50.3125 4.234375 
Q 43.84375 -1.421875 31.78125 -1.421875 
Q 19.734375 -1.421875 13.25 4.234375 
Q 6.78125 9.90625 6.78125 20.515625 
Q 6.78125 27.484375 10.78125 32.3125 
Q 14.796875 37.15625 21.921875 38.8125 
z
M 18.3125 54.390625 
Q 18.3125 48.734375 21.84375 45.5625 
Q 25.390625 42.390625 31.78125 42.390625 
Q 38.140625 42.390625 41.71875 45.5625 
Q 45.3125 48.734375 45.3125 54.390625 
Q 45.3125 60.0625 41.71875 63.234375 
Q 38.140625 66.40625 31.78125 66.40625 
Q 25.390625 66.40625 21.84375 63.234375 
Q 18.3125 60.0625 18.3125 54.390625 
z
" id="DejaVuSans-56"/>
       </defs>
       <use xlink:href="#DejaVuSans-48"/>
       <use x="63.623047" xlink:href="#DejaVuSans-46"/>
       <use x="95.410156" xlink:href="#DejaVuSans-56"/>
      </g>
     </g>
    </g>
    <g id="xtick_6">
     <g id="line2d_6">
      <path clip-path="url(#pe90ab74bd4)" d="M 378.288472 384.48 
L 378.288472 51.84 
" style="fill:none;stroke:#ffffff;stroke-linecap:round;"/>
     </g>
     <g id="text_6">
      <!-- 1.0 -->
      <g style="fill:#262626;" transform="translate(369.541754 402.338281)scale(0.11 -0.11)">
       <defs>
        <path d="M 12.40625 8.296875 
L 28.515625 8.296875 
L 28.515625 63.921875 
L 10.984375 60.40625 
L 10.984375 69.390625 
L 28.421875 72.90625 
L 38.28125 72.90625 
L 38.28125 8.296875 
L 54.390625 8.296875 
L 54.390625 0 
L 12.40625 0 
z
" id="DejaVuSans-49"/>
       </defs>
       <use xlink:href="#DejaVuSans-49"/>
       <use x="63.623047" xlink:href="#DejaVuSans-46"/>
       <use x="95.410156" xlink:href="#DejaVuSans-48"/>
      </g>
     </g>
    </g>
    <g id="text_7">
     <!-- $\rho$ -->
     <g style="fill:#262626;" transform="translate(217.56 417.719688)scale(0.12 -0.12)">
      <defs>
       <path d="M 18.796875 44.921875 
Q 22.703125 49.90625 30.953125 54.296875 
Q 34.1875 56 43.0625 56 
Q 53.03125 56 57.71875 48.09375 
Q 62.40625 40.1875 59.90625 27.296875 
Q 57.375 14.40625 49.609375 6.484375 
Q 41.84375 -1.421875 31.890625 -1.421875 
Q 25.875 -1.421875 22.015625 0.984375 
Q 18.171875 3.328125 16.3125 8.203125 
L 10.640625 -20.796875 
L 1.609375 -20.796875 
L 10.890625 26.8125 
Q 13.09375 38.09375 18.796875 44.921875 
z
M 50.59375 27.296875 
Q 52.484375 37.203125 49.515625 42.875 
Q 46.53125 48.484375 39.40625 48.484375 
Q 32.28125 48.484375 27.09375 42.875 
Q 21.921875 37.203125 20.015625 27.296875 
Q 18.0625 17.390625 21.046875 11.71875 
Q 24.03125 6.109375 31.15625 6.109375 
Q 38.28125 6.109375 43.453125 11.71875 
Q 48.640625 17.390625 50.59375 27.296875 
z
" id="DejaVuSans-Oblique-961"/>
      </defs>
      <use xlink:href="#DejaVuSans-Oblique-961"/>
     </g>
    </g>
   </g>
   <g id="matplotlib.axis_2">
    <g id="ytick_1">
     <g id="line2d_7">
      <path clip-path="url(#pe90ab74bd4)" d="M 54 342.925569 
L 388.8 342.925569 
" style="fill:none;stroke:#ffffff;stroke-linecap:round;"/>
     </g>
     <g id="text_8">
      <!-- −15 -->
      <g style="fill:#262626;" transform="translate(21.284844 347.10471)scale(0.11 -0.11)">
       <defs>
        <path d="M 10.59375 35.5 
L 73.1875 35.5 
L 73.1875 27.203125 
L 10.59375 27.203125 
z
" id="DejaVuSans-8722"/>
        <path d="M 10.796875 72.90625 
L 49.515625 72.90625 
L 49.515625 64.59375 
L 19.828125 64.59375 
L 19.828125 46.734375 
Q 21.96875 47.46875 24.109375 47.828125 
Q 26.265625 48.1875 28.421875 48.1875 
Q 40.625 48.1875 47.75 41.5 
Q 54.890625 34.8125 54.890625 23.390625 
Q 54.890625 11.625 47.5625 5.09375 
Q 40.234375 -1.421875 26.90625 -1.421875 
Q 22.3125 -1.421875 17.546875 -0.640625 
Q 12.796875 0.140625 7.71875 1.703125 
L 7.71875 11.625 
Q 12.109375 9.234375 16.796875 8.0625 
Q 21.484375 6.890625 26.703125 6.890625 
Q 35.15625 6.890625 40.078125 11.328125 
Q 45.015625 15.765625 45.015625 23.390625 
Q 45.015625 31 40.078125 35.4375 
Q 35.15625 39.890625 26.703125 39.890625 
Q 22.75 39.890625 18.8125 39.015625 
Q 14.890625 38.140625 10.796875 36.28125 
z
" id="DejaVuSans-53"/>
       </defs>
       <use xlink:href="#DejaVuSans-8722"/>
       <use x="83.789062" xlink:href="#DejaVuSans-49"/>
       <use x="147.412109" xlink:href="#DejaVuSans-53"/>
      </g>
     </g>
    </g>
    <g id="ytick_2">
     <g id="line2d_8">
      <path clip-path="url(#pe90ab74bd4)" d="M 54 298.112598 
L 388.8 298.112598 
" style="fill:none;stroke:#ffffff;stroke-linecap:round;"/>
     </g>
     <g id="text_9">
      <!-- −10 -->
      <g style="fill:#262626;" transform="translate(21.284844 302.291738)scale(0.11 -0.11)">
       <use xlink:href="#DejaVuSans-8722"/>
       <use x="83.789062" xlink:href="#DejaVuSans-49"/>
       <use x="147.412109" xlink:href="#DejaVuSans-48"/>
      </g>
     </g>
    </g>
    <g id="ytick_3">
     <g id="line2d_9">
      <path clip-path="url(#pe90ab74bd4)" d="M 54 253.299626 
L 388.8 253.299626 
" style="fill:none;stroke:#ffffff;stroke-linecap:round;"/>
     </g>
     <g id="text_10">
      <!-- −5 -->
      <g style="fill:#262626;" transform="translate(28.283594 257.478767)scale(0.11 -0.11)">
       <use xlink:href="#DejaVuSans-8722"/>
       <use x="83.789062" xlink:href="#DejaVuSans-53"/>
      </g>
     </g>
    </g>
    <g id="ytick_4">
     <g id="line2d_10">
      <path clip-path="url(#pe90ab74bd4)" d="M 54 208.486655 
L 388.8 208.486655 
" style="fill:none;stroke:#ffffff;stroke-linecap:round;"/>
     </g>
     <g id="text_11">
      <!-- 0 -->
      <g style="fill:#262626;" transform="translate(37.50125 212.665795)scale(0.11 -0.11)">
       <use xlink:href="#DejaVuSans-48"/>
      </g>
     </g>
    </g>
    <g id="ytick_5">
     <g id="line2d_11">
      <path clip-path="url(#pe90ab74bd4)" d="M 54 163.673683 
L 388.8 163.673683 
" style="fill:none;stroke:#ffffff;stroke-linecap:round;"/>
     </g>
     <g id="text_12">
      <!-- 5 -->
      <g style="fill:#262626;" transform="translate(37.50125 167.852824)scale(0.11 -0.11)">
       <use xlink:href="#DejaVuSans-53"/>
      </g>
     </g>
    </g>
    <g id="ytick_6">
     <g id="line2d_12">
      <path clip-path="url(#pe90ab74bd4)" d="M 54 118.860711 
L 388.8 118.860711 
" style="fill:none;stroke:#ffffff;stroke-linecap:round;"/>
     </g>
     <g id="text_13">
      <!-- 10 -->
      <g style="fill:#262626;" transform="translate(30.5025 123.039852)scale(0.11 -0.11)">
       <use xlink:href="#DejaVuSans-49"/>
       <use x="63.623047" xlink:href="#DejaVuSans-48"/>
      </g>
     </g>
    </g>
    <g id="ytick_7">
     <g id="line2d_13">
      <path clip-path="url(#pe90ab74bd4)" d="M 54 74.04774 
L 388.8 74.04774 
" style="fill:none;stroke:#ffffff;stroke-linecap:round;"/>
     </g>
     <g id="text_14">
      <!-- 15 -->
      <g style="fill:#262626;" transform="translate(30.5025 78.22688)scale(0.11 -0.11)">
       <use xlink:href="#DejaVuSans-49"/>
       <use x="63.623047" xlink:href="#DejaVuSans-53"/>
      </g>
     </g>
    </g>
   </g>
   <g id="line2d_14">
    <path clip-path="url(#pe90ab74bd4)" d="M 69.218182 66.96 
L 72.355951 123.989837 
L 75.493721 148.271409 
L 78.63149 162.930503 
L 81.76926 171.434139 
L 84.907029 177.393103 
L 88.044799 181.796884 
L 91.182568 184.208974 
L 94.320337 186.676872 
L 97.458107 189.078357 
L 100.595876 190.487708 
L 103.733646 191.649824 
L 106.871415 192.117243 
L 110.009185 192.37355 
L 113.146954 193.888253 
L 116.284724 194.948694 
L 119.422493 193.449079 
L 122.560262 190.947628 
L 125.698032 193.678482 
L 128.835801 195.925996 
L 131.973571 196.913739 
L 135.11134 195.756373 
L 138.24911 193.972406 
L 141.386879 194.487741 
L 144.524649 198.489468 
L 147.662418 195.589938 
L 150.800187 193.748911 
L 153.937957 198.752466 
L 157.075726 179.277268 
L 160.213496 273.37534 
L 163.351265 176.602757 
L 166.489035 190.207826 
L 169.626804 169.67239 
L 172.764574 179.213121 
L 175.902343 184.089775 
L 179.040112 178.009985 
L 182.177882 163.547009 
L 185.315651 186.089438 
L 188.453421 198.611251 
L 191.59119 198.141232 
L 194.72896 199.671739 
L 197.866729 202.200079 
L 201.004499 198.969326 
L 204.142268 193.893781 
L 207.280037 200.578666 
L 210.417807 369.36 
L 213.555576 213.181715 
L 216.693346 217.530282 
L 219.831115 204.605361 
L 222.968885 205.451686 
L 226.106654 201.524235 
L 229.244424 196.807323 
L 232.382193 191.982968 
L 235.519963 204.840388 
L 238.657732 201.124625 
L 241.795501 201.759101 
L 244.933271 206.738877 
L 248.07104 206.937794 
L 251.20881 205.478313 
L 254.346579 203.739705 
L 257.484349 206.564626 
L 260.622118 207.301793 
L 263.759888 207.601042 
L 266.897657 207.340196 
L 270.035426 207.735522 
L 273.173196 207.828868 
L 276.310965 207.701566 
L 279.448735 207.942164 
L 282.586504 207.976572 
L 285.724274 208.042646 
L 288.862043 208.092737 
L 291.999813 208.111666 
L 295.137582 208.162339 
L 298.275351 208.161791 
L 301.413121 208.191469 
L 304.55089 208.228426 
L 307.68866 208.261416 
L 310.826429 208.296151 
L 313.964199 208.312724 
L 317.101968 208.335028 
L 320.239738 208.33914 
L 323.377507 208.347605 
L 326.515276 208.356777 
L 329.653046 208.361787 
L 332.790815 208.385084 
L 335.928585 208.396977 
L 339.066354 208.399665 
L 342.204124 208.400331 
L 345.341893 208.409611 
L 348.479663 208.417921 
L 351.617432 208.422321 
L 354.755201 208.424366 
L 357.892971 208.428236 
L 361.03074 208.435882 
L 364.16851 208.437949 
L 367.306279 208.438657 
L 370.444049 208.443562 
L 373.581818 208.445829 
" style="fill:none;stroke:#4c72b0;stroke-dasharray:5.55,2.4;stroke-dashoffset:0;stroke-width:1.5;"/>
    <defs>
     <path d="M 0 3 
C 0.795609 3 1.55874 2.683901 2.12132 2.12132 
C 2.683901 1.55874 3 0.795609 3 0 
C 3 -0.795609 2.683901 -1.55874 2.12132 -2.12132 
C 1.55874 -2.683901 0.795609 -3 0 -3 
C -0.795609 -3 -1.55874 -2.683901 -2.12132 -2.12132 
C -2.683901 -1.55874 -3 -0.795609 -3 0 
C -3 0.795609 -2.683901 1.55874 -2.12132 2.12132 
C -1.55874 2.683901 -0.795609 3 0 3 
z
" id="m3fb0df3c57" style="stroke:#4c72b0;"/>
    </defs>
    <g clip-path="url(#pe90ab74bd4)">
     <use style="fill:#4c72b0;stroke:#4c72b0;" x="69.218182" xlink:href="#m3fb0df3c57" y="66.96"/>
     <use style="fill:#4c72b0;stroke:#4c72b0;" x="72.355951" xlink:href="#m3fb0df3c57" y="123.989837"/>
     <use style="fill:#4c72b0;stroke:#4c72b0;" x="75.493721" xlink:href="#m3fb0df3c57" y="148.271409"/>
     <use style="fill:#4c72b0;stroke:#4c72b0;" x="78.63149" xlink:href="#m3fb0df3c57" y="162.930503"/>
     <use style="fill:#4c72b0;stroke:#4c72b0;" x="81.76926" xlink:href="#m3fb0df3c57" y="171.434139"/>
     <use style="fill:#4c72b0;stroke:#4c72b0;" x="84.907029" xlink:href="#m3fb0df3c57" y="177.393103"/>
     <use style="fill:#4c72b0;stroke:#4c72b0;" x="88.044799" xlink:href="#m3fb0df3c57" y="181.796884"/>
     <use style="fill:#4c72b0;stroke:#4c72b0;" x="91.182568" xlink:href="#m3fb0df3c57" y="184.208974"/>
     <use style="fill:#4c72b0;stroke:#4c72b0;" x="94.320337" xlink:href="#m3fb0df3c57" y="186.676872"/>
     <use style="fill:#4c72b0;stroke:#4c72b0;" x="97.458107" xlink:href="#m3fb0df3c57" y="189.078357"/>
     <use style="fill:#4c72b0;stroke:#4c72b0;" x="100.595876" xlink:href="#m3fb0df3c57" y="190.487708"/>
     <use style="fill:#4c72b0;stroke:#4c72b0;" x="103.733646" xlink:href="#m3fb0df3c57" y="191.649824"/>
     <use style="fill:#4c72b0;stroke:#4c72b0;" x="106.871415" xlink:href="#m3fb0df3c57" y="192.117243"/>
     <use style="fill:#4c72b0;stroke:#4c72b0;" x="110.009185" xlink:href="#m3fb0df3c57" y="192.37355"/>
     <use style="fill:#4c72b0;stroke:#4c72b0;" x="113.146954" xlink:href="#m3fb0df3c57" y="193.888253"/>
     <use style="fill:#4c72b0;stroke:#4c72b0;" x="116.284724" xlink:href="#m3fb0df3c57" y="194.948694"/>
     <use style="fill:#4c72b0;stroke:#4c72b0;" x="119.422493" xlink:href="#m3fb0df3c57" y="193.449079"/>
     <use style="fill:#4c72b0;stroke:#4c72b0;" x="122.560262" xlink:href="#m3fb0df3c57" y="190.947628"/>
     <use style="fill:#4c72b0;stroke:#4c72b0;" x="125.698032" xlink:href="#m3fb0df3c57" y="193.678482"/>
     <use style="fill:#4c72b0;stroke:#4c72b0;" x="128.835801" xlink:href="#m3fb0df3c57" y="195.925996"/>
     <use style="fill:#4c72b0;stroke:#4c72b0;" x="131.973571" xlink:href="#m3fb0df3c57" y="196.913739"/>
     <use style="fill:#4c72b0;stroke:#4c72b0;" x="135.11134" xlink:href="#m3fb0df3c57" y="195.756373"/>
     <use style="fill:#4c72b0;stroke:#4c72b0;" x="138.24911" xlink:href="#m3fb0df3c57" y="193.972406"/>
     <use style="fill:#4c72b0;stroke:#4c72b0;" x="141.386879" xlink:href="#m3fb0df3c57" y="194.487741"/>
     <use style="fill:#4c72b0;stroke:#4c72b0;" x="144.524649" xlink:href="#m3fb0df3c57" y="198.489468"/>
     <use style="fill:#4c72b0;stroke:#4c72b0;" x="147.662418" xlink:href="#m3fb0df3c57" y="195.589938"/>
     <use style="fill:#4c72b0;stroke:#4c72b0;" x="150.800187" xlink:href="#m3fb0df3c57" y="193.748911"/>
     <use style="fill:#4c72b0;stroke:#4c72b0;" x="153.937957" xlink:href="#m3fb0df3c57" y="198.752466"/>
     <use style="fill:#4c72b0;stroke:#4c72b0;" x="157.075726" xlink:href="#m3fb0df3c57" y="179.277268"/>
     <use style="fill:#4c72b0;stroke:#4c72b0;" x="160.213496" xlink:href="#m3fb0df3c57" y="273.37534"/>
     <use style="fill:#4c72b0;stroke:#4c72b0;" x="163.351265" xlink:href="#m3fb0df3c57" y="176.602757"/>
     <use style="fill:#4c72b0;stroke:#4c72b0;" x="166.489035" xlink:href="#m3fb0df3c57" y="190.207826"/>
     <use style="fill:#4c72b0;stroke:#4c72b0;" x="169.626804" xlink:href="#m3fb0df3c57" y="169.67239"/>
     <use style="fill:#4c72b0;stroke:#4c72b0;" x="172.764574" xlink:href="#m3fb0df3c57" y="179.213121"/>
     <use style="fill:#4c72b0;stroke:#4c72b0;" x="175.902343" xlink:href="#m3fb0df3c57" y="184.089775"/>
     <use style="fill:#4c72b0;stroke:#4c72b0;" x="179.040112" xlink:href="#m3fb0df3c57" y="178.009985"/>
     <use style="fill:#4c72b0;stroke:#4c72b0;" x="182.177882" xlink:href="#m3fb0df3c57" y="163.547009"/>
     <use style="fill:#4c72b0;stroke:#4c72b0;" x="185.315651" xlink:href="#m3fb0df3c57" y="186.089438"/>
     <use style="fill:#4c72b0;stroke:#4c72b0;" x="188.453421" xlink:href="#m3fb0df3c57" y="198.611251"/>
     <use style="fill:#4c72b0;stroke:#4c72b0;" x="191.59119" xlink:href="#m3fb0df3c57" y="198.141232"/>
     <use style="fill:#4c72b0;stroke:#4c72b0;" x="194.72896" xlink:href="#m3fb0df3c57" y="199.671739"/>
     <use style="fill:#4c72b0;stroke:#4c72b0;" x="197.866729" xlink:href="#m3fb0df3c57" y="202.200079"/>
     <use style="fill:#4c72b0;stroke:#4c72b0;" x="201.004499" xlink:href="#m3fb0df3c57" y="198.969326"/>
     <use style="fill:#4c72b0;stroke:#4c72b0;" x="204.142268" xlink:href="#m3fb0df3c57" y="193.893781"/>
     <use style="fill:#4c72b0;stroke:#4c72b0;" x="207.280037" xlink:href="#m3fb0df3c57" y="200.578666"/>
     <use style="fill:#4c72b0;stroke:#4c72b0;" x="210.417807" xlink:href="#m3fb0df3c57" y="369.36"/>
     <use style="fill:#4c72b0;stroke:#4c72b0;" x="213.555576" xlink:href="#m3fb0df3c57" y="213.181715"/>
     <use style="fill:#4c72b0;stroke:#4c72b0;" x="216.693346" xlink:href="#m3fb0df3c57" y="217.530282"/>
     <use style="fill:#4c72b0;stroke:#4c72b0;" x="219.831115" xlink:href="#m3fb0df3c57" y="204.605361"/>
     <use style="fill:#4c72b0;stroke:#4c72b0;" x="222.968885" xlink:href="#m3fb0df3c57" y="205.451686"/>
     <use style="fill:#4c72b0;stroke:#4c72b0;" x="226.106654" xlink:href="#m3fb0df3c57" y="201.524235"/>
     <use style="fill:#4c72b0;stroke:#4c72b0;" x="229.244424" xlink:href="#m3fb0df3c57" y="196.807323"/>
     <use style="fill:#4c72b0;stroke:#4c72b0;" x="232.382193" xlink:href="#m3fb0df3c57" y="191.982968"/>
     <use style="fill:#4c72b0;stroke:#4c72b0;" x="235.519963" xlink:href="#m3fb0df3c57" y="204.840388"/>
     <use style="fill:#4c72b0;stroke:#4c72b0;" x="238.657732" xlink:href="#m3fb0df3c57" y="201.124625"/>
     <use style="fill:#4c72b0;stroke:#4c72b0;" x="241.795501" xlink:href="#m3fb0df3c57" y="201.759101"/>
     <use style="fill:#4c72b0;stroke:#4c72b0;" x="244.933271" xlink:href="#m3fb0df3c57" y="206.738877"/>
     <use style="fill:#4c72b0;stroke:#4c72b0;" x="248.07104" xlink:href="#m3fb0df3c57" y="206.937794"/>
     <use style="fill:#4c72b0;stroke:#4c72b0;" x="251.20881" xlink:href="#m3fb0df3c57" y="205.478313"/>
     <use style="fill:#4c72b0;stroke:#4c72b0;" x="254.346579" xlink:href="#m3fb0df3c57" y="203.739705"/>
     <use style="fill:#4c72b0;stroke:#4c72b0;" x="257.484349" xlink:href="#m3fb0df3c57" y="206.564626"/>
     <use style="fill:#4c72b0;stroke:#4c72b0;" x="260.622118" xlink:href="#m3fb0df3c57" y="207.301793"/>
     <use style="fill:#4c72b0;stroke:#4c72b0;" x="263.759888" xlink:href="#m3fb0df3c57" y="207.601042"/>
     <use style="fill:#4c72b0;stroke:#4c72b0;" x="266.897657" xlink:href="#m3fb0df3c57" y="207.340196"/>
     <use style="fill:#4c72b0;stroke:#4c72b0;" x="270.035426" xlink:href="#m3fb0df3c57" y="207.735522"/>
     <use style="fill:#4c72b0;stroke:#4c72b0;" x="273.173196" xlink:href="#m3fb0df3c57" y="207.828868"/>
     <use style="fill:#4c72b0;stroke:#4c72b0;" x="276.310965" xlink:href="#m3fb0df3c57" y="207.701566"/>
     <use style="fill:#4c72b0;stroke:#4c72b0;" x="279.448735" xlink:href="#m3fb0df3c57" y="207.942164"/>
     <use style="fill:#4c72b0;stroke:#4c72b0;" x="282.586504" xlink:href="#m3fb0df3c57" y="207.976572"/>
     <use style="fill:#4c72b0;stroke:#4c72b0;" x="285.724274" xlink:href="#m3fb0df3c57" y="208.042646"/>
     <use style="fill:#4c72b0;stroke:#4c72b0;" x="288.862043" xlink:href="#m3fb0df3c57" y="208.092737"/>
     <use style="fill:#4c72b0;stroke:#4c72b0;" x="291.999813" xlink:href="#m3fb0df3c57" y="208.111666"/>
     <use style="fill:#4c72b0;stroke:#4c72b0;" x="295.137582" xlink:href="#m3fb0df3c57" y="208.162339"/>
     <use style="fill:#4c72b0;stroke:#4c72b0;" x="298.275351" xlink:href="#m3fb0df3c57" y="208.161791"/>
     <use style="fill:#4c72b0;stroke:#4c72b0;" x="301.413121" xlink:href="#m3fb0df3c57" y="208.191469"/>
     <use style="fill:#4c72b0;stroke:#4c72b0;" x="304.55089" xlink:href="#m3fb0df3c57" y="208.228426"/>
     <use style="fill:#4c72b0;stroke:#4c72b0;" x="307.68866" xlink:href="#m3fb0df3c57" y="208.261416"/>
     <use style="fill:#4c72b0;stroke:#4c72b0;" x="310.826429" xlink:href="#m3fb0df3c57" y="208.296151"/>
     <use style="fill:#4c72b0;stroke:#4c72b0;" x="313.964199" xlink:href="#m3fb0df3c57" y="208.312724"/>
     <use style="fill:#4c72b0;stroke:#4c72b0;" x="317.101968" xlink:href="#m3fb0df3c57" y="208.335028"/>
     <use style="fill:#4c72b0;stroke:#4c72b0;" x="320.239738" xlink:href="#m3fb0df3c57" y="208.33914"/>
     <use style="fill:#4c72b0;stroke:#4c72b0;" x="323.377507" xlink:href="#m3fb0df3c57" y="208.347605"/>
     <use style="fill:#4c72b0;stroke:#4c72b0;" x="326.515276" xlink:href="#m3fb0df3c57" y="208.356777"/>
     <use style="fill:#4c72b0;stroke:#4c72b0;" x="329.653046" xlink:href="#m3fb0df3c57" y="208.361787"/>
     <use style="fill:#4c72b0;stroke:#4c72b0;" x="332.790815" xlink:href="#m3fb0df3c57" y="208.385084"/>
     <use style="fill:#4c72b0;stroke:#4c72b0;" x="335.928585" xlink:href="#m3fb0df3c57" y="208.396977"/>
     <use style="fill:#4c72b0;stroke:#4c72b0;" x="339.066354" xlink:href="#m3fb0df3c57" y="208.399665"/>
     <use style="fill:#4c72b0;stroke:#4c72b0;" x="342.204124" xlink:href="#m3fb0df3c57" y="208.400331"/>
     <use style="fill:#4c72b0;stroke:#4c72b0;" x="345.341893" xlink:href="#m3fb0df3c57" y="208.409611"/>
     <use style="fill:#4c72b0;stroke:#4c72b0;" x="348.479663" xlink:href="#m3fb0df3c57" y="208.417921"/>
     <use style="fill:#4c72b0;stroke:#4c72b0;" x="351.617432" xlink:href="#m3fb0df3c57" y="208.422321"/>
     <use style="fill:#4c72b0;stroke:#4c72b0;" x="354.755201" xlink:href="#m3fb0df3c57" y="208.424366"/>
     <use style="fill:#4c72b0;stroke:#4c72b0;" x="357.892971" xlink:href="#m3fb0df3c57" y="208.428236"/>
     <use style="fill:#4c72b0;stroke:#4c72b0;" x="361.03074" xlink:href="#m3fb0df3c57" y="208.435882"/>
     <use style="fill:#4c72b0;stroke:#4c72b0;" x="364.16851" xlink:href="#m3fb0df3c57" y="208.437949"/>
     <use style="fill:#4c72b0;stroke:#4c72b0;" x="367.306279" xlink:href="#m3fb0df3c57" y="208.438657"/>
     <use style="fill:#4c72b0;stroke:#4c72b0;" x="370.444049" xlink:href="#m3fb0df3c57" y="208.443562"/>
     <use style="fill:#4c72b0;stroke:#4c72b0;" x="373.581818" xlink:href="#m3fb0df3c57" y="208.445829"/>
    </g>
   </g>
   <g id="patch_3">
    <path d="M 54 384.48 
L 54 51.84 
" style="fill:none;stroke:#ffffff;stroke-linecap:square;stroke-linejoin:miter;stroke-width:1.25;"/>
   </g>
   <g id="patch_4">
    <path d="M 388.8 384.48 
L 388.8 51.84 
" style="fill:none;stroke:#ffffff;stroke-linecap:square;stroke-linejoin:miter;stroke-width:1.25;"/>
   </g>
   <g id="patch_5">
    <path d="M 54 384.48 
L 388.8 384.48 
" style="fill:none;stroke:#ffffff;stroke-linecap:square;stroke-linejoin:miter;stroke-width:1.25;"/>
   </g>
   <g id="patch_6">
    <path d="M 54 51.84 
L 388.8 51.84 
" style="fill:none;stroke:#ffffff;stroke-linecap:square;stroke-linejoin:miter;stroke-width:1.25;"/>
   </g>
   <g id="legend_1">
    <g id="patch_7">
     <path d="M 306.19 82.31 
L 381.1 82.31 
Q 383.3 82.31 383.3 80.11 
L 383.3 59.54 
Q 383.3 57.34 381.1 57.34 
L 306.19 57.34 
Q 303.99 57.34 303.99 59.54 
L 303.99 80.11 
Q 303.99 82.31 306.19 82.31 
z
" style="fill:#eaeaf2;opacity:0.8;stroke:#cccccc;stroke-linejoin:miter;"/>
    </g>
    <g id="line2d_15">
     <path d="M 308.39 69.44 
L 330.39 69.44 
" style="fill:none;stroke:#4c72b0;stroke-dasharray:5.55,2.4;stroke-dashoffset:0;stroke-width:1.5;"/>
    </g>
    <g id="line2d_16">
     <g>
      <use style="fill:#4c72b0;stroke:#4c72b0;" x="319.39" xlink:href="#m3fb0df3c57" y="69.44"/>
     </g>
    </g>
    <g id="text_15">
     <!-- $\frac{1}{\rho} \cdot \left( \frac{\partial \rho}{\partial P} \right)_{T}$ -->
     <g style="fill:#262626;" transform="translate(339.19 73.29)scale(0.11 -0.11)">
      <defs>
       <path d="M 10.6875 40.921875 
L 21 40.921875 
L 21 28.515625 
L 10.6875 28.515625 
z
" id="DejaVuSans-8901"/>
       <path d="M 50.296875 -24.296875 
L 50.296875 -27.90625 
Q 33.5 -12.09375 23.703125 11.40625 
Q 13.90625 34.90625 13.90625 64.296875 
Q 13.90625 93.796875 23.953125 118.640625 
Q 34 143.5 50.296875 156.59375 
L 50.296875 153.296875 
Q 38.90625 141.59375 31.15625 118.84375 
Q 23.40625 96.09375 23.40625 64.296875 
Q 23.40625 8.796875 50.296875 -24.296875 
z
" id="STIXSizeTwoSym-Regular-40"/>
       <path d="M 21.34375 -1.421875 
Q 14.453125 -1.421875 9.96875 2.734375 
Q 4.640625 7.671875 4.640625 16.609375 
Q 4.640625 25.875 9.328125 33.109375 
Q 14.15625 40.53125 22.859375 40.53125 
Q 28.5625 40.53125 33.0625 36.96875 
Q 35.6875 34.859375 37.5 31.34375 
Q 38.140625 35.296875 38.140625 39.796875 
Q 38.140625 46.390625 36.578125 50.203125 
Q 33.109375 58.640625 23.921875 58.640625 
Q 20.453125 58.640625 15.09375 56.5 
L 15.09375 64.703125 
Q 20.75 66.21875 25.828125 66.21875 
Q 38.921875 66.21875 44.484375 54.203125 
Q 47.078125 48.53125 47.078125 40.09375 
Q 47.078125 34.578125 45.84375 28.171875 
Q 42.78125 12.15625 34.8125 4.546875 
Q 28.5625 -1.421875 21.34375 -1.421875 
z
M 12.984375 15.140625 
Q 12.984375 10.25 15.140625 7.625 
Q 17.4375 4.828125 20.953125 4.828125 
Q 24.078125 4.828125 26.5625 7.03125 
Q 30.078125 10.0625 32.671875 14.984375 
Q 34.8125 19.046875 35.890625 23.390625 
Q 31.546875 33.890625 24.03125 33.890625 
Q 17.578125 33.890625 14.75 25.390625 
Q 12.984375 20.125 12.984375 15.140625 
z
" id="DejaVuSans-8706"/>
       <path d="M 16.890625 72.90625 
L 39.703125 72.90625 
Q 49.65625 72.90625 54.875 68.265625 
Q 60.109375 63.625 60.109375 54.6875 
Q 60.109375 42.671875 52.390625 35.984375 
Q 44.671875 29.296875 30.71875 29.296875 
L 18.3125 29.296875 
L 12.59375 0 
L 2.6875 0 
z
M 25.203125 64.796875 
L 19.921875 37.40625 
L 32.328125 37.40625 
Q 40.71875 37.40625 45.203125 41.703125 
Q 49.703125 46 49.703125 54 
Q 49.703125 59.125 46.65625 61.953125 
Q 43.609375 64.796875 38.09375 64.796875 
z
" id="DejaVuSans-Oblique-80"/>
       <path d="M 11.40625 153 
L 11.40625 156.59375 
Q 28.203125 140.796875 38 117.296875 
Q 47.796875 93.796875 47.796875 64.296875 
Q 47.796875 34.90625 37.75 10.046875 
Q 27.703125 -14.796875 11.40625 -27.90625 
L 11.40625 -24.59375 
Q 22.796875 -12.90625 30.546875 9.890625 
Q 38.296875 32.703125 38.296875 64.296875 
Q 38.296875 119.90625 11.40625 153 
z
" id="STIXSizeTwoSym-Regular-41"/>
       <path d="M 5.90625 72.90625 
L 67.578125 72.90625 
L 66.015625 64.59375 
L 39.984375 64.59375 
L 27.484375 0 
L 17.578125 0 
L 30.078125 64.59375 
L 4.296875 64.59375 
z
" id="DejaVuSans-Oblique-84"/>
      </defs>
      <use transform="translate(0 44.089063)scale(0.7)" xlink:href="#DejaVuSans-49"/>
      <use transform="translate(0 -26.360937)scale(0.7)" xlink:href="#DejaVuSans-Oblique-961"/>
      <use transform="translate(76.518555 0.292187)" xlink:href="#DejaVuSans-8901"/>
      <use transform="translate(127.788086 -17.425)scale(0.781521)" xlink:href="#STIXSizeTwoSym-Regular-40"/>
      <use transform="translate(173.803711 58.646875)scale(0.7)" xlink:href="#DejaVuSans-8706"/>
      <use transform="translate(210 58.646875)scale(0.7)" xlink:href="#DejaVuSans-Oblique-961"/>
      <use transform="translate(174.803711 -38.195312)scale(0.7)" xlink:href="#DejaVuSans-8706"/>
      <use transform="translate(211 -38.195312)scale(0.7)" xlink:href="#DejaVuSans-Oblique-80"/>
      <use transform="translate(266.933594 -17.425)scale(0.781521)" xlink:href="#STIXSizeTwoSym-Regular-41"/>
      <use transform="translate(315.390625 -16.114063)scale(0.7)" xlink:href="#DejaVuSans-Oblique-84"/>
      <path d="M 0 19.089063 
L 0 25.339063 
L 44.536133 25.339063 
L 44.536133 19.089063 
L 0 19.089063 
z
"/>
      <path d="M 173.803711 19.089063 
L 173.803711 25.339063 
L 254.433594 25.339063 
L 254.433594 19.089063 
L 173.803711 19.089063 
z
"/>
     </g>
    </g>
   </g>
  </g>
 </g>
 <defs>
  <clipPath id="pe90ab74bd4">
   <rect height="332.64" width="334.8" x="54" y="51.84"/>
  </clipPath>
 </defs>
</svg>
