<?xml version="1.0" encoding="utf-8" standalone="no"?>
<!DOCTYPE svg PUBLIC "-//W3C//DTD SVG 1.1//EN"
  "http://www.w3.org/Graphics/SVG/1.1/DTD/svg11.dtd">
<!-- Created with matplotlib (https://matplotlib.org/) -->
<svg height="432pt" version="1.1" viewBox="0 0 432 432" width="432pt" xmlns="http://www.w3.org/2000/svg" xmlns:xlink="http://www.w3.org/1999/xlink">
 <metadata>
  <rdf:RDF xmlns:cc="http://creativecommons.org/ns#" xmlns:dc="http://purl.org/dc/elements/1.1/" xmlns:rdf="http://www.w3.org/1999/02/22-rdf-syntax-ns#">
   <cc:Work>
    <dc:type rdf:resource="http://purl.org/dc/dcmitype/StillImage"/>
    <dc:date>2021-03-19T13:27:56.658156</dc:date>
    <dc:format>image/svg+xml</dc:format>
    <dc:creator>
     <cc:Agent>
      <dc:title>Matplotlib v3.3.3, https://matplotlib.org/</dc:title>
     </cc:Agent>
    </dc:creator>
   </cc:Work>
  </rdf:RDF>
 </metadata>
 <defs>
  <style type="text/css">*{stroke-linecap:butt;stroke-linejoin:round;}</style>
 </defs>
 <g id="figure_1">
  <g id="patch_1">
   <path d="M 0 432 
L 432 432 
L 432 0 
L 0 0 
z
" style="fill:#ffffff;"/>
  </g>
  <g id="axes_1">
   <g id="patch_2">
    <path d="M 54 384.48 
L 388.8 384.48 
L 388.8 51.84 
L 54 51.84 
z
" style="fill:#eaeaf2;"/>
   </g>
   <g id="matplotlib.axis_1">
    <g id="xtick_1">
     <g id="line2d_1">
      <path clip-path="url(#p02ca81a318)" d="M 69.218182 384.48 
L 69.218182 51.84 
" style="fill:none;stroke:#ffffff;stroke-linecap:round;"/>
     </g>
     <g id="text_1">
      <!-- 0.0 -->
      <g style="fill:#262626;" transform="translate(60.471463 402.338281)scale(0.11 -0.11)">
       <defs>
        <path d="M 31.78125 66.40625 
Q 24.171875 66.40625 20.328125 58.90625 
Q 16.5 51.421875 16.5 36.375 
Q 16.5 21.390625 20.328125 13.890625 
Q 24.171875 6.390625 31.78125 6.390625 
Q 39.453125 6.390625 43.28125 13.890625 
Q 47.125 21.390625 47.125 36.375 
Q 47.125 51.421875 43.28125 58.90625 
Q 39.453125 66.40625 31.78125 66.40625 
z
M 31.78125 74.21875 
Q 44.046875 74.21875 50.515625 64.515625 
Q 56.984375 54.828125 56.984375 36.375 
Q 56.984375 17.96875 50.515625 8.265625 
Q 44.046875 -1.421875 31.78125 -1.421875 
Q 19.53125 -1.421875 13.0625 8.265625 
Q 6.59375 17.96875 6.59375 36.375 
Q 6.59375 54.828125 13.0625 64.515625 
Q 19.53125 74.21875 31.78125 74.21875 
z
" id="DejaVuSans-48"/>
        <path d="M 10.6875 12.40625 
L 21 12.40625 
L 21 0 
L 10.6875 0 
z
" id="DejaVuSans-46"/>
       </defs>
       <use xlink:href="#DejaVuSans-48"/>
       <use x="63.623047" xlink:href="#DejaVuSans-46"/>
       <use x="95.410156" xlink:href="#DejaVuSans-48"/>
      </g>
     </g>
    </g>
    <g id="xtick_2">
     <g id="line2d_2">
      <path clip-path="url(#p02ca81a318)" d="M 133.976402 384.48 
L 133.976402 51.84 
" style="fill:none;stroke:#ffffff;stroke-linecap:round;"/>
     </g>
     <g id="text_2">
      <!-- 0.1 -->
      <g style="fill:#262626;" transform="translate(125.229684 402.338281)scale(0.11 -0.11)">
       <defs>
        <path d="M 12.40625 8.296875 
L 28.515625 8.296875 
L 28.515625 63.921875 
L 10.984375 60.40625 
L 10.984375 69.390625 
L 28.421875 72.90625 
L 38.28125 72.90625 
L 38.28125 8.296875 
L 54.390625 8.296875 
L 54.390625 0 
L 12.40625 0 
z
" id="DejaVuSans-49"/>
       </defs>
       <use xlink:href="#DejaVuSans-48"/>
       <use x="63.623047" xlink:href="#DejaVuSans-46"/>
       <use x="95.410156" xlink:href="#DejaVuSans-49"/>
      </g>
     </g>
    </g>
    <g id="xtick_3">
     <g id="line2d_3">
      <path clip-path="url(#p02ca81a318)" d="M 198.734623 384.48 
L 198.734623 51.84 
" style="fill:none;stroke:#ffffff;stroke-linecap:round;"/>
     </g>
     <g id="text_3">
      <!-- 0.2 -->
      <g style="fill:#262626;" transform="translate(189.987904 402.338281)scale(0.11 -0.11)">
       <defs>
        <path d="M 19.1875 8.296875 
L 53.609375 8.296875 
L 53.609375 0 
L 7.328125 0 
L 7.328125 8.296875 
Q 12.9375 14.109375 22.625 23.890625 
Q 32.328125 33.6875 34.8125 36.53125 
Q 39.546875 41.84375 41.421875 45.53125 
Q 43.3125 49.21875 43.3125 52.78125 
Q 43.3125 58.59375 39.234375 62.25 
Q 35.15625 65.921875 28.609375 65.921875 
Q 23.96875 65.921875 18.8125 64.3125 
Q 13.671875 62.703125 7.8125 59.421875 
L 7.8125 69.390625 
Q 13.765625 71.78125 18.9375 73 
Q 24.125 74.21875 28.421875 74.21875 
Q 39.75 74.21875 46.484375 68.546875 
Q 53.21875 62.890625 53.21875 53.421875 
Q 53.21875 48.921875 51.53125 44.890625 
Q 49.859375 40.875 45.40625 35.40625 
Q 44.1875 33.984375 37.640625 27.21875 
Q 31.109375 20.453125 19.1875 8.296875 
z
" id="DejaVuSans-50"/>
       </defs>
       <use xlink:href="#DejaVuSans-48"/>
       <use x="63.623047" xlink:href="#DejaVuSans-46"/>
       <use x="95.410156" xlink:href="#DejaVuSans-50"/>
      </g>
     </g>
    </g>
    <g id="xtick_4">
     <g id="line2d_4">
      <path clip-path="url(#p02ca81a318)" d="M 263.492843 384.48 
L 263.492843 51.84 
" style="fill:none;stroke:#ffffff;stroke-linecap:round;"/>
     </g>
     <g id="text_4">
      <!-- 0.3 -->
      <g style="fill:#262626;" transform="translate(254.746125 402.338281)scale(0.11 -0.11)">
       <defs>
        <path d="M 40.578125 39.3125 
Q 47.65625 37.796875 51.625 33 
Q 55.609375 28.21875 55.609375 21.1875 
Q 55.609375 10.40625 48.1875 4.484375 
Q 40.765625 -1.421875 27.09375 -1.421875 
Q 22.515625 -1.421875 17.65625 -0.515625 
Q 12.796875 0.390625 7.625 2.203125 
L 7.625 11.71875 
Q 11.71875 9.328125 16.59375 8.109375 
Q 21.484375 6.890625 26.8125 6.890625 
Q 36.078125 6.890625 40.9375 10.546875 
Q 45.796875 14.203125 45.796875 21.1875 
Q 45.796875 27.640625 41.28125 31.265625 
Q 36.765625 34.90625 28.71875 34.90625 
L 20.21875 34.90625 
L 20.21875 43.015625 
L 29.109375 43.015625 
Q 36.375 43.015625 40.234375 45.921875 
Q 44.09375 48.828125 44.09375 54.296875 
Q 44.09375 59.90625 40.109375 62.90625 
Q 36.140625 65.921875 28.71875 65.921875 
Q 24.65625 65.921875 20.015625 65.03125 
Q 15.375 64.15625 9.8125 62.3125 
L 9.8125 71.09375 
Q 15.4375 72.65625 20.34375 73.4375 
Q 25.25 74.21875 29.59375 74.21875 
Q 40.828125 74.21875 47.359375 69.109375 
Q 53.90625 64.015625 53.90625 55.328125 
Q 53.90625 49.265625 50.4375 45.09375 
Q 46.96875 40.921875 40.578125 39.3125 
z
" id="DejaVuSans-51"/>
       </defs>
       <use xlink:href="#DejaVuSans-48"/>
       <use x="63.623047" xlink:href="#DejaVuSans-46"/>
       <use x="95.410156" xlink:href="#DejaVuSans-51"/>
      </g>
     </g>
    </g>
    <g id="xtick_5">
     <g id="line2d_5">
      <path clip-path="url(#p02ca81a318)" d="M 328.251064 384.48 
L 328.251064 51.84 
" style="fill:none;stroke:#ffffff;stroke-linecap:round;"/>
     </g>
     <g id="text_5">
      <!-- 0.4 -->
      <g style="fill:#262626;" transform="translate(319.504345 402.338281)scale(0.11 -0.11)">
       <defs>
        <path d="M 37.796875 64.3125 
L 12.890625 25.390625 
L 37.796875 25.390625 
z
M 35.203125 72.90625 
L 47.609375 72.90625 
L 47.609375 25.390625 
L 58.015625 25.390625 
L 58.015625 17.1875 
L 47.609375 17.1875 
L 47.609375 0 
L 37.796875 0 
L 37.796875 17.1875 
L 4.890625 17.1875 
L 4.890625 26.703125 
z
" id="DejaVuSans-52"/>
       </defs>
       <use xlink:href="#DejaVuSans-48"/>
       <use x="63.623047" xlink:href="#DejaVuSans-46"/>
       <use x="95.410156" xlink:href="#DejaVuSans-52"/>
      </g>
     </g>
    </g>
    <g id="text_6">
     <!-- $t$ -->
     <g style="fill:#262626;" transform="translate(219 417.744062)scale(0.12 -0.12)">
      <defs>
       <path d="M 42.28125 54.6875 
L 40.921875 47.703125 
L 23 47.703125 
L 17.1875 18.015625 
Q 16.890625 16.359375 16.75 15.234375 
Q 16.609375 14.109375 16.609375 13.484375 
Q 16.609375 10.359375 18.484375 8.9375 
Q 20.359375 7.515625 24.515625 7.515625 
L 33.59375 7.515625 
L 32.078125 0 
L 23.484375 0 
Q 15.484375 0 11.546875 3.125 
Q 7.625 6.25 7.625 12.59375 
Q 7.625 13.71875 7.765625 15.0625 
Q 7.90625 16.40625 8.203125 18.015625 
L 14.015625 47.703125 
L 6.390625 47.703125 
L 7.8125 54.6875 
L 15.28125 54.6875 
L 18.3125 70.21875 
L 27.296875 70.21875 
L 24.3125 54.6875 
z
" id="DejaVuSans-Oblique-116"/>
      </defs>
      <use transform="translate(0 0.78125)" xlink:href="#DejaVuSans-Oblique-116"/>
     </g>
    </g>
   </g>
   <g id="matplotlib.axis_2">
    <g id="ytick_1">
     <g id="line2d_6">
      <path clip-path="url(#p02ca81a318)" d="M 54 362.595961 
L 388.8 362.595961 
" style="fill:none;stroke:#ffffff;stroke-linecap:round;"/>
     </g>
     <g id="text_7">
      <!-- 0.0 -->
      <g style="fill:#262626;" transform="translate(27.006563 366.775102)scale(0.11 -0.11)">
       <use xlink:href="#DejaVuSans-48"/>
       <use x="63.623047" xlink:href="#DejaVuSans-46"/>
       <use x="95.410156" xlink:href="#DejaVuSans-48"/>
      </g>
     </g>
    </g>
    <g id="ytick_2">
     <g id="line2d_7">
      <path clip-path="url(#p02ca81a318)" d="M 54 320.747124 
L 388.8 320.747124 
" style="fill:none;stroke:#ffffff;stroke-linecap:round;"/>
     </g>
     <g id="text_8">
      <!-- 0.1 -->
      <g style="fill:#262626;" transform="translate(27.006563 324.926265)scale(0.11 -0.11)">
       <use xlink:href="#DejaVuSans-48"/>
       <use x="63.623047" xlink:href="#DejaVuSans-46"/>
       <use x="95.410156" xlink:href="#DejaVuSans-49"/>
      </g>
     </g>
    </g>
    <g id="ytick_3">
     <g id="line2d_8">
      <path clip-path="url(#p02ca81a318)" d="M 54 278.898287 
L 388.8 278.898287 
" style="fill:none;stroke:#ffffff;stroke-linecap:round;"/>
     </g>
     <g id="text_9">
      <!-- 0.2 -->
      <g style="fill:#262626;" transform="translate(27.006563 283.077427)scale(0.11 -0.11)">
       <use xlink:href="#DejaVuSans-48"/>
       <use x="63.623047" xlink:href="#DejaVuSans-46"/>
       <use x="95.410156" xlink:href="#DejaVuSans-50"/>
      </g>
     </g>
    </g>
    <g id="ytick_4">
     <g id="line2d_9">
      <path clip-path="url(#p02ca81a318)" d="M 54 237.049449 
L 388.8 237.049449 
" style="fill:none;stroke:#ffffff;stroke-linecap:round;"/>
     </g>
     <g id="text_10">
      <!-- 0.3 -->
      <g style="fill:#262626;" transform="translate(27.006563 241.22859)scale(0.11 -0.11)">
       <use xlink:href="#DejaVuSans-48"/>
       <use x="63.623047" xlink:href="#DejaVuSans-46"/>
       <use x="95.410156" xlink:href="#DejaVuSans-51"/>
      </g>
     </g>
    </g>
    <g id="ytick_5">
     <g id="line2d_10">
      <path clip-path="url(#p02ca81a318)" d="M 54 195.200612 
L 388.8 195.200612 
" style="fill:none;stroke:#ffffff;stroke-linecap:round;"/>
     </g>
     <g id="text_11">
      <!-- 0.4 -->
      <g style="fill:#262626;" transform="translate(27.006563 199.379752)scale(0.11 -0.11)">
       <use xlink:href="#DejaVuSans-48"/>
       <use x="63.623047" xlink:href="#DejaVuSans-46"/>
       <use x="95.410156" xlink:href="#DejaVuSans-52"/>
      </g>
     </g>
    </g>
    <g id="ytick_6">
     <g id="line2d_11">
      <path clip-path="url(#p02ca81a318)" d="M 54 153.351774 
L 388.8 153.351774 
" style="fill:none;stroke:#ffffff;stroke-linecap:round;"/>
     </g>
     <g id="text_12">
      <!-- 0.5 -->
      <g style="fill:#262626;" transform="translate(27.006563 157.530915)scale(0.11 -0.11)">
       <defs>
        <path d="M 10.796875 72.90625 
L 49.515625 72.90625 
L 49.515625 64.59375 
L 19.828125 64.59375 
L 19.828125 46.734375 
Q 21.96875 47.46875 24.109375 47.828125 
Q 26.265625 48.1875 28.421875 48.1875 
Q 40.625 48.1875 47.75 41.5 
Q 54.890625 34.8125 54.890625 23.390625 
Q 54.890625 11.625 47.5625 5.09375 
Q 40.234375 -1.421875 26.90625 -1.421875 
Q 22.3125 -1.421875 17.546875 -0.640625 
Q 12.796875 0.140625 7.71875 1.703125 
L 7.71875 11.625 
Q 12.109375 9.234375 16.796875 8.0625 
Q 21.484375 6.890625 26.703125 6.890625 
Q 35.15625 6.890625 40.078125 11.328125 
Q 45.015625 15.765625 45.015625 23.390625 
Q 45.015625 31 40.078125 35.4375 
Q 35.15625 39.890625 26.703125 39.890625 
Q 22.75 39.890625 18.8125 39.015625 
Q 14.890625 38.140625 10.796875 36.28125 
z
" id="DejaVuSans-53"/>
       </defs>
       <use xlink:href="#DejaVuSans-48"/>
       <use x="63.623047" xlink:href="#DejaVuSans-46"/>
       <use x="95.410156" xlink:href="#DejaVuSans-53"/>
      </g>
     </g>
    </g>
    <g id="ytick_7">
     <g id="line2d_12">
      <path clip-path="url(#p02ca81a318)" d="M 54 111.502937 
L 388.8 111.502937 
" style="fill:none;stroke:#ffffff;stroke-linecap:round;"/>
     </g>
     <g id="text_13">
      <!-- 0.6 -->
      <g style="fill:#262626;" transform="translate(27.006563 115.682078)scale(0.11 -0.11)">
       <defs>
        <path d="M 33.015625 40.375 
Q 26.375 40.375 22.484375 35.828125 
Q 18.609375 31.296875 18.609375 23.390625 
Q 18.609375 15.53125 22.484375 10.953125 
Q 26.375 6.390625 33.015625 6.390625 
Q 39.65625 6.390625 43.53125 10.953125 
Q 47.40625 15.53125 47.40625 23.390625 
Q 47.40625 31.296875 43.53125 35.828125 
Q 39.65625 40.375 33.015625 40.375 
z
M 52.59375 71.296875 
L 52.59375 62.3125 
Q 48.875 64.0625 45.09375 64.984375 
Q 41.3125 65.921875 37.59375 65.921875 
Q 27.828125 65.921875 22.671875 59.328125 
Q 17.53125 52.734375 16.796875 39.40625 
Q 19.671875 43.65625 24.015625 45.921875 
Q 28.375 48.1875 33.59375 48.1875 
Q 44.578125 48.1875 50.953125 41.515625 
Q 57.328125 34.859375 57.328125 23.390625 
Q 57.328125 12.15625 50.6875 5.359375 
Q 44.046875 -1.421875 33.015625 -1.421875 
Q 20.359375 -1.421875 13.671875 8.265625 
Q 6.984375 17.96875 6.984375 36.375 
Q 6.984375 53.65625 15.1875 63.9375 
Q 23.390625 74.21875 37.203125 74.21875 
Q 40.921875 74.21875 44.703125 73.484375 
Q 48.484375 72.75 52.59375 71.296875 
z
" id="DejaVuSans-54"/>
       </defs>
       <use xlink:href="#DejaVuSans-48"/>
       <use x="63.623047" xlink:href="#DejaVuSans-46"/>
       <use x="95.410156" xlink:href="#DejaVuSans-54"/>
      </g>
     </g>
    </g>
    <g id="ytick_8">
     <g id="line2d_13">
      <path clip-path="url(#p02ca81a318)" d="M 54 69.6541 
L 388.8 69.6541 
" style="fill:none;stroke:#ffffff;stroke-linecap:round;"/>
     </g>
     <g id="text_14">
      <!-- 0.7 -->
      <g style="fill:#262626;" transform="translate(27.006563 73.83324)scale(0.11 -0.11)">
       <defs>
        <path d="M 8.203125 72.90625 
L 55.078125 72.90625 
L 55.078125 68.703125 
L 28.609375 0 
L 18.3125 0 
L 43.21875 64.59375 
L 8.203125 64.59375 
z
" id="DejaVuSans-55"/>
       </defs>
       <use xlink:href="#DejaVuSans-48"/>
       <use x="63.623047" xlink:href="#DejaVuSans-46"/>
       <use x="95.410156" xlink:href="#DejaVuSans-55"/>
      </g>
     </g>
    </g>
    <g id="text_15">
     <!-- $&lt;r^2(t)&gt;$ -->
     <g style="fill:#262626;" transform="translate(20.510937 245.52)rotate(-90)scale(0.12 -0.12)">
      <defs>
       <path d="M 73.1875 49.21875 
L 22.796875 31.296875 
L 73.1875 13.484375 
L 73.1875 4.59375 
L 10.59375 27.296875 
L 10.59375 35.40625 
L 73.1875 58.109375 
z
" id="DejaVuSans-60"/>
       <path d="M 44.578125 46.390625 
Q 43.21875 47.125 41.453125 47.515625 
Q 39.703125 47.90625 37.703125 47.90625 
Q 30.515625 47.90625 25.140625 42.453125 
Q 19.78125 37.015625 18.015625 27.875 
L 12.5 0 
L 3.515625 0 
L 14.203125 54.6875 
L 23.1875 54.6875 
L 21.484375 46.1875 
Q 25.046875 50.921875 30 53.453125 
Q 34.96875 56 40.578125 56 
Q 42.046875 56 43.453125 55.828125 
Q 44.875 55.671875 46.296875 55.28125 
z
" id="DejaVuSans-Oblique-114"/>
       <path d="M 31 75.875 
Q 24.46875 64.65625 21.28125 53.65625 
Q 18.109375 42.671875 18.109375 31.390625 
Q 18.109375 20.125 21.3125 9.0625 
Q 24.515625 -2 31 -13.1875 
L 23.1875 -13.1875 
Q 15.875 -1.703125 12.234375 9.375 
Q 8.59375 20.453125 8.59375 31.390625 
Q 8.59375 42.28125 12.203125 53.3125 
Q 15.828125 64.359375 23.1875 75.875 
z
" id="DejaVuSans-40"/>
       <path d="M 8.015625 75.875 
L 15.828125 75.875 
Q 23.140625 64.359375 26.78125 53.3125 
Q 30.421875 42.28125 30.421875 31.390625 
Q 30.421875 20.453125 26.78125 9.375 
Q 23.140625 -1.703125 15.828125 -13.1875 
L 8.015625 -13.1875 
Q 14.5 -2 17.703125 9.0625 
Q 20.90625 20.125 20.90625 31.390625 
Q 20.90625 42.671875 17.703125 53.65625 
Q 14.5 64.65625 8.015625 75.875 
z
" id="DejaVuSans-41"/>
       <path d="M 10.59375 49.21875 
L 10.59375 58.109375 
L 73.1875 35.40625 
L 73.1875 27.296875 
L 10.59375 4.59375 
L 10.59375 13.484375 
L 60.890625 31.296875 
z
" id="DejaVuSans-62"/>
      </defs>
      <use transform="translate(19.482422 0.765625)" xlink:href="#DejaVuSans-60"/>
      <use transform="translate(122.753906 0.765625)" xlink:href="#DejaVuSans-Oblique-114"/>
      <use transform="translate(168.517083 39.046875)scale(0.7)" xlink:href="#DejaVuSans-50"/>
      <use transform="translate(215.787591 0.765625)" xlink:href="#DejaVuSans-40"/>
      <use transform="translate(254.801263 0.765625)" xlink:href="#DejaVuSans-Oblique-116"/>
      <use transform="translate(294.010247 0.765625)" xlink:href="#DejaVuSans-41"/>
      <use transform="translate(352.506341 0.765625)" xlink:href="#DejaVuSans-62"/>
     </g>
    </g>
   </g>
   <g id="line2d_14">
    <path clip-path="url(#p02ca81a318)" d="M 69.218182 358.676217 
L 75.694004 351.707384 
L 82.169826 344.764503 
L 88.645648 337.95315 
L 95.12147 331.315301 
L 101.597292 324.870779 
L 108.073114 318.618501 
L 114.548936 312.440712 
L 121.024758 306.256736 
L 127.50058 300.061024 
L 133.976402 293.899348 
L 140.452224 287.875593 
L 146.928046 282.021313 
L 153.403868 276.323072 
L 159.879691 270.741025 
L 166.355513 265.17795 
L 172.831335 259.492971 
L 179.307157 253.759915 
L 185.782979 248.086147 
L 192.258801 242.409192 
L 198.734623 236.759818 
L 205.210445 231.167334 
L 211.686267 225.455131 
L 218.162089 219.690612 
L 224.637911 213.892565 
L 231.113733 207.985981 
L 237.589555 201.95154 
L 244.065377 195.967209 
L 250.541199 189.961751 
L 257.017021 183.817895 
L 263.492843 177.558564 
L 269.968665 171.225921 
L 276.444487 164.825833 
L 282.920309 158.410106 
L 289.396132 152.063822 
L 295.871954 145.755517 
L 302.347776 139.469733 
L 308.823598 133.105251 
L 315.29942 126.710421 
L 321.775242 120.201517 
L 328.251064 113.598634 
L 334.726886 106.946646 
L 341.202708 100.311767 
L 347.67853 93.592988 
L 354.154352 86.78514 
L 360.630174 79.996522 
L 367.105996 73.382835 
L 373.581818 66.96 
" style="fill:none;stroke:#4c72b0;stroke-linecap:round;stroke-width:1.5;"/>
   </g>
   <g id="line2d_15">
    <path clip-path="url(#p02ca81a318)" d="M 69.218182 369.36 
L 75.694004 362.951359 
L 82.169826 356.542719 
L 88.645648 350.134078 
L 95.12147 343.725437 
L 101.597292 337.316797 
L 108.073114 330.908156 
L 114.548936 324.499515 
L 121.024758 318.090875 
L 127.50058 311.682234 
L 133.976402 305.273593 
L 140.452224 298.864953 
L 146.928046 292.456312 
L 153.403868 286.047671 
L 159.879691 279.639031 
L 166.355513 273.23039 
L 172.831335 266.821749 
L 179.307157 260.413109 
L 185.782979 254.004468 
L 192.258801 247.595827 
L 198.734623 241.187187 
L 205.210445 234.778546 
L 211.686267 228.369905 
L 218.162089 221.961265 
L 224.637911 215.552624 
L 231.113733 209.143984 
L 237.589555 202.735343 
L 244.065377 196.326702 
L 250.541199 189.918062 
L 257.017021 183.509421 
L 263.492843 177.10078 
L 269.968665 170.69214 
L 276.444487 164.283499 
L 282.920309 157.874858 
L 289.396132 151.466218 
L 295.871954 145.057577 
L 302.347776 138.648936 
L 308.823598 132.240296 
L 315.29942 125.831655 
L 321.775242 119.423014 
L 328.251064 113.014374 
L 334.726886 106.605733 
L 341.202708 100.197092 
L 347.67853 93.788452 
L 354.154352 87.379811 
L 360.630174 80.97117 
L 367.105996 74.56253 
L 373.581818 68.153889 
" style="fill:none;stroke:#dd8452;stroke-linecap:round;stroke-width:1.5;"/>
   </g>
   <g id="patch_3">
    <path d="M 54 384.48 
L 54 51.84 
" style="fill:none;stroke:#ffffff;stroke-linecap:square;stroke-linejoin:miter;stroke-width:1.25;"/>
   </g>
   <g id="patch_4">
    <path d="M 388.8 384.48 
L 388.8 51.84 
" style="fill:none;stroke:#ffffff;stroke-linecap:square;stroke-linejoin:miter;stroke-width:1.25;"/>
   </g>
   <g id="patch_5">
    <path d="M 54 384.48 
L 388.8 384.48 
" style="fill:none;stroke:#ffffff;stroke-linecap:square;stroke-linejoin:miter;stroke-width:1.25;"/>
   </g>
   <g id="patch_6">
    <path d="M 54 51.84 
L 388.8 51.84 
" style="fill:none;stroke:#ffffff;stroke-linecap:square;stroke-linejoin:miter;stroke-width:1.25;"/>
   </g>
   <g id="legend_1">
    <g id="patch_7">
     <path d="M 61.7 76.785937 
L 268.39 76.785937 
Q 270.59 76.785937 270.59 74.585938 
L 270.59 59.54 
Q 270.59 57.34 268.39 57.34 
L 61.7 57.34 
Q 59.5 57.34 59.5 59.54 
L 59.5 74.585938 
Q 59.5 76.785937 61.7 76.785937 
z
" style="fill:#eaeaf2;opacity:0.8;stroke:#cccccc;stroke-linejoin:miter;"/>
    </g>
    <g id="line2d_16">
     <path d="M 63.9 66.248281 
L 85.9 66.248281 
" style="fill:none;stroke:#dd8452;stroke-linecap:round;stroke-width:1.5;"/>
    </g>
    <g id="line2d_17"/>
    <g id="text_16">
     <!-- Линейная асимтота $D = 0.255$ -->
     <g style="fill:#262626;" transform="translate(94.7 70.098281)scale(0.11 -0.11)">
      <defs>
       <path d="M 4.109375 0 
L 4.109375 8.296875 
Q 14.703125 10.59375 17.71875 18.609375 
Q 21.96875 31.203125 21.96875 60.5 
L 21.96875 72.90625 
L 65.328125 72.90625 
L 65.328125 0 
L 55.46875 0 
L 55.46875 64.59375 
L 31.78125 64.59375 
L 31.78125 55.609375 
Q 31.78125 27.984375 26.8125 15.09375 
Q 22.015625 2.734375 4.109375 0 
z
" id="DejaVuSans-1051"/>
       <path d="M 55.90625 54.6875 
L 55.90625 0 
L 46.96875 0 
L 46.96875 43.890625 
L 20.609375 0 
L 9.078125 0 
L 9.078125 54.6875 
L 18.015625 54.6875 
L 18.015625 10.890625 
L 44.34375 54.6875 
z
" id="DejaVuSans-1080"/>
       <path d="M 9.078125 54.6875 
L 18.109375 54.6875 
L 18.109375 32.375 
L 47.265625 32.375 
L 47.265625 54.6875 
L 56.296875 54.6875 
L 56.296875 0 
L 47.265625 0 
L 47.265625 25.203125 
L 18.109375 25.203125 
L 18.109375 0 
L 9.078125 0 
z
" id="DejaVuSans-1085"/>
       <path d="M 56.203125 29.59375 
L 56.203125 25.203125 
L 14.890625 25.203125 
Q 15.484375 15.921875 20.484375 11.0625 
Q 25.484375 6.203125 34.421875 6.203125 
Q 39.59375 6.203125 44.453125 7.46875 
Q 49.3125 8.734375 54.109375 11.28125 
L 54.109375 2.78125 
Q 49.265625 0.734375 44.1875 -0.34375 
Q 39.109375 -1.421875 33.890625 -1.421875 
Q 20.796875 -1.421875 13.15625 6.1875 
Q 5.515625 13.8125 5.515625 26.8125 
Q 5.515625 40.234375 12.765625 48.109375 
Q 20.015625 56 32.328125 56 
Q 43.359375 56 49.78125 48.890625 
Q 56.203125 41.796875 56.203125 29.59375 
z
M 47.21875 32.234375 
Q 47.125 39.59375 43.09375 43.984375 
Q 39.0625 48.390625 32.421875 48.390625 
Q 24.90625 48.390625 20.390625 44.140625 
Q 15.875 39.890625 15.1875 32.171875 
z
" id="DejaVuSans-1077"/>
       <path d="M 55.90625 54.6875 
L 55.90625 0 
L 46.96875 0 
L 46.96875 43.890625 
L 20.609375 0 
L 9.078125 0 
L 9.078125 54.6875 
L 18.015625 54.6875 
L 18.015625 10.890625 
L 44.34375 54.6875 
z
M 17.21875 75.515625 
L 22.984375 75.515625 
Q 23.515625 71.859375 25.875 70.015625 
Q 28.25 68.1875 32.5 68.1875 
Q 36.703125 68.1875 39.046875 70 
Q 41.390625 71.8125 42.015625 75.515625 
L 47.78125 75.515625 
Q 47.296875 68.53125 43.4375 65.015625 
Q 39.578125 61.5 32.5 61.5 
Q 25.421875 61.5 21.5625 65.015625 
Q 17.703125 68.53125 17.21875 75.515625 
z
" id="DejaVuSans-1081"/>
       <path d="M 34.28125 27.484375 
Q 23.390625 27.484375 19.1875 25 
Q 14.984375 22.515625 14.984375 16.5 
Q 14.984375 11.71875 18.140625 8.90625 
Q 21.296875 6.109375 26.703125 6.109375 
Q 34.1875 6.109375 38.703125 11.40625 
Q 43.21875 16.703125 43.21875 25.484375 
L 43.21875 27.484375 
z
M 52.203125 31.203125 
L 52.203125 0 
L 43.21875 0 
L 43.21875 8.296875 
Q 40.140625 3.328125 35.546875 0.953125 
Q 30.953125 -1.421875 24.3125 -1.421875 
Q 15.921875 -1.421875 10.953125 3.296875 
Q 6 8.015625 6 15.921875 
Q 6 25.140625 12.171875 29.828125 
Q 18.359375 34.515625 30.609375 34.515625 
L 43.21875 34.515625 
L 43.21875 35.40625 
Q 43.21875 41.609375 39.140625 45 
Q 35.0625 48.390625 27.6875 48.390625 
Q 23 48.390625 18.546875 47.265625 
Q 14.109375 46.140625 10.015625 43.890625 
L 10.015625 52.203125 
Q 14.9375 54.109375 19.578125 55.046875 
Q 24.21875 56 28.609375 56 
Q 40.484375 56 46.34375 49.84375 
Q 52.203125 43.703125 52.203125 31.203125 
z
" id="DejaVuSans-1072"/>
       <path d="M 18.453125 38.921875 
Q 18.453125 34.859375 21.578125 32.5625 
Q 24.703125 30.28125 30.515625 30.28125 
L 42.625 30.28125 
L 42.625 47.515625 
L 30.515625 47.515625 
Q 24.703125 47.515625 21.578125 45.265625 
Q 18.453125 43.015625 18.453125 38.921875 
z
M 5.671875 0 
L 22.359375 23.96875 
Q 16.703125 25.25 12.9375 28.59375 
Q 9.1875 31.9375 9.1875 38.921875 
Q 9.1875 46.828125 14.421875 50.75 
Q 19.671875 54.6875 30.28125 54.6875 
L 51.65625 54.6875 
L 51.65625 0 
L 42.625 0 
L 42.625 23.09375 
L 31.453125 23.09375 
L 15.328125 0 
z
" id="DejaVuSans-1103"/>
       <path id="DejaVuSans-32"/>
       <path d="M 48.78125 52.59375 
L 48.78125 44.1875 
Q 44.96875 46.296875 41.140625 47.34375 
Q 37.3125 48.390625 33.40625 48.390625 
Q 24.65625 48.390625 19.8125 42.84375 
Q 14.984375 37.3125 14.984375 27.296875 
Q 14.984375 17.28125 19.8125 11.734375 
Q 24.65625 6.203125 33.40625 6.203125 
Q 37.3125 6.203125 41.140625 7.25 
Q 44.96875 8.296875 48.78125 10.40625 
L 48.78125 2.09375 
Q 45.015625 0.34375 40.984375 -0.53125 
Q 36.96875 -1.421875 32.421875 -1.421875 
Q 20.0625 -1.421875 12.78125 6.34375 
Q 5.515625 14.109375 5.515625 27.296875 
Q 5.515625 40.671875 12.859375 48.328125 
Q 20.21875 56 33.015625 56 
Q 37.15625 56 41.109375 55.140625 
Q 45.0625 54.296875 48.78125 52.59375 
z
" id="DejaVuSans-1089"/>
       <path d="M 9.078125 54.6875 
L 22.21875 54.6875 
L 37.75 18.0625 
L 53.328125 54.6875 
L 66.359375 54.6875 
L 66.359375 0 
L 57.328125 0 
L 57.328125 46.09375 
L 42.234375 10.5 
L 33.25 10.5 
L 18.109375 46.09375 
L 18.109375 0 
L 9.078125 0 
z
" id="DejaVuSans-1084"/>
       <path d="M 2.9375 54.6875 
L 55.328125 54.6875 
L 55.328125 47.515625 
L 33.546875 47.515625 
L 33.546875 0 
L 24.703125 0 
L 24.703125 47.515625 
L 2.9375 47.515625 
z
" id="DejaVuSans-1090"/>
       <path d="M 30.609375 48.390625 
Q 23.390625 48.390625 19.1875 42.75 
Q 14.984375 37.109375 14.984375 27.296875 
Q 14.984375 17.484375 19.15625 11.84375 
Q 23.34375 6.203125 30.609375 6.203125 
Q 37.796875 6.203125 41.984375 11.859375 
Q 46.1875 17.53125 46.1875 27.296875 
Q 46.1875 37.015625 41.984375 42.703125 
Q 37.796875 48.390625 30.609375 48.390625 
z
M 30.609375 56 
Q 42.328125 56 49.015625 48.375 
Q 55.71875 40.765625 55.71875 27.296875 
Q 55.71875 13.875 49.015625 6.21875 
Q 42.328125 -1.421875 30.609375 -1.421875 
Q 18.84375 -1.421875 12.171875 6.21875 
Q 5.515625 13.875 5.515625 27.296875 
Q 5.515625 40.765625 12.171875 48.375 
Q 18.84375 56 30.609375 56 
z
" id="DejaVuSans-1086"/>
       <path d="M 16.890625 72.90625 
L 38.09375 72.90625 
Q 54.984375 72.90625 63.59375 65.75 
Q 72.21875 58.59375 72.21875 44.484375 
Q 72.21875 35.15625 68.9375 26.53125 
Q 65.671875 17.921875 59.90625 12.015625 
Q 54.109375 5.953125 45.171875 2.96875 
Q 36.234375 0 24.03125 0 
L 2.6875 0 
z
M 25.203125 64.796875 
L 14.203125 8.109375 
L 27.09375 8.109375 
Q 43.65625 8.109375 52.734375 17.625 
Q 61.8125 27.15625 61.8125 44.484375 
Q 61.8125 54.984375 55.953125 59.890625 
Q 50.09375 64.796875 37.59375 64.796875 
z
" id="DejaVuSans-Oblique-68"/>
       <path d="M 10.59375 45.40625 
L 73.1875 45.40625 
L 73.1875 37.203125 
L 10.59375 37.203125 
z
M 10.59375 25.484375 
L 73.1875 25.484375 
L 73.1875 17.1875 
L 10.59375 17.1875 
z
" id="DejaVuSans-61"/>
      </defs>
      <use transform="translate(0 0.484375)" xlink:href="#DejaVuSans-1051"/>
      <use transform="translate(75.195312 0.484375)" xlink:href="#DejaVuSans-1080"/>
      <use transform="translate(140.185547 0.484375)" xlink:href="#DejaVuSans-1085"/>
      <use transform="translate(205.566406 0.484375)" xlink:href="#DejaVuSans-1077"/>
      <use transform="translate(267.089844 0.484375)" xlink:href="#DejaVuSans-1081"/>
      <use transform="translate(332.080078 0.484375)" xlink:href="#DejaVuSans-1085"/>
      <use transform="translate(397.460938 0.484375)" xlink:href="#DejaVuSans-1072"/>
      <use transform="translate(458.740234 0.484375)" xlink:href="#DejaVuSans-1103"/>
      <use transform="translate(518.896484 0.484375)" xlink:href="#DejaVuSans-32"/>
      <use transform="translate(550.683594 0.484375)" xlink:href="#DejaVuSans-1072"/>
      <use transform="translate(611.962891 0.484375)" xlink:href="#DejaVuSans-1089"/>
      <use transform="translate(666.943359 0.484375)" xlink:href="#DejaVuSans-1080"/>
      <use transform="translate(731.933594 0.484375)" xlink:href="#DejaVuSans-1084"/>
      <use transform="translate(807.373047 0.484375)" xlink:href="#DejaVuSans-1090"/>
      <use transform="translate(865.625 0.484375)" xlink:href="#DejaVuSans-1086"/>
      <use transform="translate(926.806641 0.484375)" xlink:href="#DejaVuSans-1090"/>
      <use transform="translate(985.058594 0.484375)" xlink:href="#DejaVuSans-1072"/>
      <use transform="translate(1046.337891 0.484375)" xlink:href="#DejaVuSans-32"/>
      <use transform="translate(1078.125 0.484375)" xlink:href="#DejaVuSans-Oblique-68"/>
      <use transform="translate(1174.609375 0.484375)" xlink:href="#DejaVuSans-61"/>
      <use transform="translate(1277.880859 0.484375)" xlink:href="#DejaVuSans-48"/>
      <use transform="translate(1341.503906 0.484375)" xlink:href="#DejaVuSans-46"/>
      <use transform="translate(1367.791016 0.484375)" xlink:href="#DejaVuSans-50"/>
      <use transform="translate(1431.414062 0.484375)" xlink:href="#DejaVuSans-53"/>
      <use transform="translate(1495.037109 0.484375)" xlink:href="#DejaVuSans-53"/>
     </g>
    </g>
   </g>
  </g>
 </g>
 <defs>
  <clipPath id="p02ca81a318">
   <rect height="332.64" width="334.8" x="54" y="51.84"/>
  </clipPath>
 </defs>
</svg>
