<?xml version="1.0" encoding="utf-8" standalone="no"?>
<!DOCTYPE svg PUBLIC "-//W3C//DTD SVG 1.1//EN"
  "http://www.w3.org/Graphics/SVG/1.1/DTD/svg11.dtd">
<!-- Created with matplotlib (https://matplotlib.org/) -->
<svg height="432pt" version="1.1" viewBox="0 0 432 432" width="432pt" xmlns="http://www.w3.org/2000/svg" xmlns:xlink="http://www.w3.org/1999/xlink">
 <metadata>
  <rdf:RDF xmlns:cc="http://creativecommons.org/ns#" xmlns:dc="http://purl.org/dc/elements/1.1/" xmlns:rdf="http://www.w3.org/1999/02/22-rdf-syntax-ns#">
   <cc:Work>
    <dc:type rdf:resource="http://purl.org/dc/dcmitype/StillImage"/>
    <dc:date>2021-03-22T17:46:42.127235</dc:date>
    <dc:format>image/svg+xml</dc:format>
    <dc:creator>
     <cc:Agent>
      <dc:title>Matplotlib v3.3.3, https://matplotlib.org/</dc:title>
     </cc:Agent>
    </dc:creator>
   </cc:Work>
  </rdf:RDF>
 </metadata>
 <defs>
  <style type="text/css">*{stroke-linecap:butt;stroke-linejoin:round;}</style>
 </defs>
 <g id="figure_1">
  <g id="patch_1">
   <path d="M 0 432 
L 432 432 
L 432 0 
L 0 0 
z
" style="fill:#ffffff;"/>
  </g>
  <g id="axes_1">
   <g id="patch_2">
    <path d="M 54 384.48 
L 388.8 384.48 
L 388.8 51.84 
L 54 51.84 
z
" style="fill:#eaeaf2;"/>
   </g>
   <g id="matplotlib.axis_1">
    <g id="xtick_1">
     <g id="line2d_1">
      <path clip-path="url(#pfe20862c50)" d="M 69.218182 384.48 
L 69.218182 51.84 
" style="fill:none;stroke:#ffffff;stroke-linecap:round;"/>
     </g>
     <g id="text_1">
      <!-- 0.0 -->
      <g style="fill:#262626;" transform="translate(60.471463 402.338281)scale(0.11 -0.11)">
       <defs>
        <path d="M 31.78125 66.40625 
Q 24.171875 66.40625 20.328125 58.90625 
Q 16.5 51.421875 16.5 36.375 
Q 16.5 21.390625 20.328125 13.890625 
Q 24.171875 6.390625 31.78125 6.390625 
Q 39.453125 6.390625 43.28125 13.890625 
Q 47.125 21.390625 47.125 36.375 
Q 47.125 51.421875 43.28125 58.90625 
Q 39.453125 66.40625 31.78125 66.40625 
z
M 31.78125 74.21875 
Q 44.046875 74.21875 50.515625 64.515625 
Q 56.984375 54.828125 56.984375 36.375 
Q 56.984375 17.96875 50.515625 8.265625 
Q 44.046875 -1.421875 31.78125 -1.421875 
Q 19.53125 -1.421875 13.0625 8.265625 
Q 6.59375 17.96875 6.59375 36.375 
Q 6.59375 54.828125 13.0625 64.515625 
Q 19.53125 74.21875 31.78125 74.21875 
z
" id="DejaVuSans-48"/>
        <path d="M 10.6875 12.40625 
L 21 12.40625 
L 21 0 
L 10.6875 0 
z
" id="DejaVuSans-46"/>
       </defs>
       <use xlink:href="#DejaVuSans-48"/>
       <use x="63.623047" xlink:href="#DejaVuSans-46"/>
       <use x="95.410156" xlink:href="#DejaVuSans-48"/>
      </g>
     </g>
    </g>
    <g id="xtick_2">
     <g id="line2d_2">
      <path clip-path="url(#pfe20862c50)" d="M 133.976402 384.48 
L 133.976402 51.84 
" style="fill:none;stroke:#ffffff;stroke-linecap:round;"/>
     </g>
     <g id="text_2">
      <!-- 0.1 -->
      <g style="fill:#262626;" transform="translate(125.229684 402.338281)scale(0.11 -0.11)">
       <defs>
        <path d="M 12.40625 8.296875 
L 28.515625 8.296875 
L 28.515625 63.921875 
L 10.984375 60.40625 
L 10.984375 69.390625 
L 28.421875 72.90625 
L 38.28125 72.90625 
L 38.28125 8.296875 
L 54.390625 8.296875 
L 54.390625 0 
L 12.40625 0 
z
" id="DejaVuSans-49"/>
       </defs>
       <use xlink:href="#DejaVuSans-48"/>
       <use x="63.623047" xlink:href="#DejaVuSans-46"/>
       <use x="95.410156" xlink:href="#DejaVuSans-49"/>
      </g>
     </g>
    </g>
    <g id="xtick_3">
     <g id="line2d_3">
      <path clip-path="url(#pfe20862c50)" d="M 198.734623 384.48 
L 198.734623 51.84 
" style="fill:none;stroke:#ffffff;stroke-linecap:round;"/>
     </g>
     <g id="text_3">
      <!-- 0.2 -->
      <g style="fill:#262626;" transform="translate(189.987904 402.338281)scale(0.11 -0.11)">
       <defs>
        <path d="M 19.1875 8.296875 
L 53.609375 8.296875 
L 53.609375 0 
L 7.328125 0 
L 7.328125 8.296875 
Q 12.9375 14.109375 22.625 23.890625 
Q 32.328125 33.6875 34.8125 36.53125 
Q 39.546875 41.84375 41.421875 45.53125 
Q 43.3125 49.21875 43.3125 52.78125 
Q 43.3125 58.59375 39.234375 62.25 
Q 35.15625 65.921875 28.609375 65.921875 
Q 23.96875 65.921875 18.8125 64.3125 
Q 13.671875 62.703125 7.8125 59.421875 
L 7.8125 69.390625 
Q 13.765625 71.78125 18.9375 73 
Q 24.125 74.21875 28.421875 74.21875 
Q 39.75 74.21875 46.484375 68.546875 
Q 53.21875 62.890625 53.21875 53.421875 
Q 53.21875 48.921875 51.53125 44.890625 
Q 49.859375 40.875 45.40625 35.40625 
Q 44.1875 33.984375 37.640625 27.21875 
Q 31.109375 20.453125 19.1875 8.296875 
z
" id="DejaVuSans-50"/>
       </defs>
       <use xlink:href="#DejaVuSans-48"/>
       <use x="63.623047" xlink:href="#DejaVuSans-46"/>
       <use x="95.410156" xlink:href="#DejaVuSans-50"/>
      </g>
     </g>
    </g>
    <g id="xtick_4">
     <g id="line2d_4">
      <path clip-path="url(#pfe20862c50)" d="M 263.492843 384.48 
L 263.492843 51.84 
" style="fill:none;stroke:#ffffff;stroke-linecap:round;"/>
     </g>
     <g id="text_4">
      <!-- 0.3 -->
      <g style="fill:#262626;" transform="translate(254.746125 402.338281)scale(0.11 -0.11)">
       <defs>
        <path d="M 40.578125 39.3125 
Q 47.65625 37.796875 51.625 33 
Q 55.609375 28.21875 55.609375 21.1875 
Q 55.609375 10.40625 48.1875 4.484375 
Q 40.765625 -1.421875 27.09375 -1.421875 
Q 22.515625 -1.421875 17.65625 -0.515625 
Q 12.796875 0.390625 7.625 2.203125 
L 7.625 11.71875 
Q 11.71875 9.328125 16.59375 8.109375 
Q 21.484375 6.890625 26.8125 6.890625 
Q 36.078125 6.890625 40.9375 10.546875 
Q 45.796875 14.203125 45.796875 21.1875 
Q 45.796875 27.640625 41.28125 31.265625 
Q 36.765625 34.90625 28.71875 34.90625 
L 20.21875 34.90625 
L 20.21875 43.015625 
L 29.109375 43.015625 
Q 36.375 43.015625 40.234375 45.921875 
Q 44.09375 48.828125 44.09375 54.296875 
Q 44.09375 59.90625 40.109375 62.90625 
Q 36.140625 65.921875 28.71875 65.921875 
Q 24.65625 65.921875 20.015625 65.03125 
Q 15.375 64.15625 9.8125 62.3125 
L 9.8125 71.09375 
Q 15.4375 72.65625 20.34375 73.4375 
Q 25.25 74.21875 29.59375 74.21875 
Q 40.828125 74.21875 47.359375 69.109375 
Q 53.90625 64.015625 53.90625 55.328125 
Q 53.90625 49.265625 50.4375 45.09375 
Q 46.96875 40.921875 40.578125 39.3125 
z
" id="DejaVuSans-51"/>
       </defs>
       <use xlink:href="#DejaVuSans-48"/>
       <use x="63.623047" xlink:href="#DejaVuSans-46"/>
       <use x="95.410156" xlink:href="#DejaVuSans-51"/>
      </g>
     </g>
    </g>
    <g id="xtick_5">
     <g id="line2d_5">
      <path clip-path="url(#pfe20862c50)" d="M 328.251064 384.48 
L 328.251064 51.84 
" style="fill:none;stroke:#ffffff;stroke-linecap:round;"/>
     </g>
     <g id="text_5">
      <!-- 0.4 -->
      <g style="fill:#262626;" transform="translate(319.504345 402.338281)scale(0.11 -0.11)">
       <defs>
        <path d="M 37.796875 64.3125 
L 12.890625 25.390625 
L 37.796875 25.390625 
z
M 35.203125 72.90625 
L 47.609375 72.90625 
L 47.609375 25.390625 
L 58.015625 25.390625 
L 58.015625 17.1875 
L 47.609375 17.1875 
L 47.609375 0 
L 37.796875 0 
L 37.796875 17.1875 
L 4.890625 17.1875 
L 4.890625 26.703125 
z
" id="DejaVuSans-52"/>
       </defs>
       <use xlink:href="#DejaVuSans-48"/>
       <use x="63.623047" xlink:href="#DejaVuSans-46"/>
       <use x="95.410156" xlink:href="#DejaVuSans-52"/>
      </g>
     </g>
    </g>
    <g id="text_6">
     <!-- $t$ -->
     <g style="fill:#262626;" transform="translate(219 417.744062)scale(0.12 -0.12)">
      <defs>
       <path d="M 42.28125 54.6875 
L 40.921875 47.703125 
L 23 47.703125 
L 17.1875 18.015625 
Q 16.890625 16.359375 16.75 15.234375 
Q 16.609375 14.109375 16.609375 13.484375 
Q 16.609375 10.359375 18.484375 8.9375 
Q 20.359375 7.515625 24.515625 7.515625 
L 33.59375 7.515625 
L 32.078125 0 
L 23.484375 0 
Q 15.484375 0 11.546875 3.125 
Q 7.625 6.25 7.625 12.59375 
Q 7.625 13.71875 7.765625 15.0625 
Q 7.90625 16.40625 8.203125 18.015625 
L 14.015625 47.703125 
L 6.390625 47.703125 
L 7.8125 54.6875 
L 15.28125 54.6875 
L 18.3125 70.21875 
L 27.296875 70.21875 
L 24.3125 54.6875 
z
" id="DejaVuSans-Oblique-116"/>
      </defs>
      <use transform="translate(0 0.78125)" xlink:href="#DejaVuSans-Oblique-116"/>
     </g>
    </g>
   </g>
   <g id="matplotlib.axis_2">
    <g id="ytick_1">
     <g id="line2d_6">
      <path clip-path="url(#pfe20862c50)" d="M 54 371.333003 
L 388.8 371.333003 
" style="fill:none;stroke:#ffffff;stroke-linecap:round;"/>
     </g>
     <g id="text_7">
      <!-- 0.0 -->
      <g style="fill:#262626;" transform="translate(27.006563 375.512143)scale(0.11 -0.11)">
       <use xlink:href="#DejaVuSans-48"/>
       <use x="63.623047" xlink:href="#DejaVuSans-46"/>
       <use x="95.410156" xlink:href="#DejaVuSans-48"/>
      </g>
     </g>
    </g>
    <g id="ytick_2">
     <g id="line2d_7">
      <path clip-path="url(#pfe20862c50)" d="M 54 315.57243 
L 388.8 315.57243 
" style="fill:none;stroke:#ffffff;stroke-linecap:round;"/>
     </g>
     <g id="text_8">
      <!-- 0.2 -->
      <g style="fill:#262626;" transform="translate(27.006563 319.75157)scale(0.11 -0.11)">
       <use xlink:href="#DejaVuSans-48"/>
       <use x="63.623047" xlink:href="#DejaVuSans-46"/>
       <use x="95.410156" xlink:href="#DejaVuSans-50"/>
      </g>
     </g>
    </g>
    <g id="ytick_3">
     <g id="line2d_8">
      <path clip-path="url(#pfe20862c50)" d="M 54 259.811857 
L 388.8 259.811857 
" style="fill:none;stroke:#ffffff;stroke-linecap:round;"/>
     </g>
     <g id="text_9">
      <!-- 0.4 -->
      <g style="fill:#262626;" transform="translate(27.006563 263.990997)scale(0.11 -0.11)">
       <use xlink:href="#DejaVuSans-48"/>
       <use x="63.623047" xlink:href="#DejaVuSans-46"/>
       <use x="95.410156" xlink:href="#DejaVuSans-52"/>
      </g>
     </g>
    </g>
    <g id="ytick_4">
     <g id="line2d_9">
      <path clip-path="url(#pfe20862c50)" d="M 54 204.051284 
L 388.8 204.051284 
" style="fill:none;stroke:#ffffff;stroke-linecap:round;"/>
     </g>
     <g id="text_10">
      <!-- 0.6 -->
      <g style="fill:#262626;" transform="translate(27.006563 208.230424)scale(0.11 -0.11)">
       <defs>
        <path d="M 33.015625 40.375 
Q 26.375 40.375 22.484375 35.828125 
Q 18.609375 31.296875 18.609375 23.390625 
Q 18.609375 15.53125 22.484375 10.953125 
Q 26.375 6.390625 33.015625 6.390625 
Q 39.65625 6.390625 43.53125 10.953125 
Q 47.40625 15.53125 47.40625 23.390625 
Q 47.40625 31.296875 43.53125 35.828125 
Q 39.65625 40.375 33.015625 40.375 
z
M 52.59375 71.296875 
L 52.59375 62.3125 
Q 48.875 64.0625 45.09375 64.984375 
Q 41.3125 65.921875 37.59375 65.921875 
Q 27.828125 65.921875 22.671875 59.328125 
Q 17.53125 52.734375 16.796875 39.40625 
Q 19.671875 43.65625 24.015625 45.921875 
Q 28.375 48.1875 33.59375 48.1875 
Q 44.578125 48.1875 50.953125 41.515625 
Q 57.328125 34.859375 57.328125 23.390625 
Q 57.328125 12.15625 50.6875 5.359375 
Q 44.046875 -1.421875 33.015625 -1.421875 
Q 20.359375 -1.421875 13.671875 8.265625 
Q 6.984375 17.96875 6.984375 36.375 
Q 6.984375 53.65625 15.1875 63.9375 
Q 23.390625 74.21875 37.203125 74.21875 
Q 40.921875 74.21875 44.703125 73.484375 
Q 48.484375 72.75 52.59375 71.296875 
z
" id="DejaVuSans-54"/>
       </defs>
       <use xlink:href="#DejaVuSans-48"/>
       <use x="63.623047" xlink:href="#DejaVuSans-46"/>
       <use x="95.410156" xlink:href="#DejaVuSans-54"/>
      </g>
     </g>
    </g>
    <g id="ytick_5">
     <g id="line2d_10">
      <path clip-path="url(#pfe20862c50)" d="M 54 148.290711 
L 388.8 148.290711 
" style="fill:none;stroke:#ffffff;stroke-linecap:round;"/>
     </g>
     <g id="text_11">
      <!-- 0.8 -->
      <g style="fill:#262626;" transform="translate(27.006563 152.469851)scale(0.11 -0.11)">
       <defs>
        <path d="M 31.78125 34.625 
Q 24.75 34.625 20.71875 30.859375 
Q 16.703125 27.09375 16.703125 20.515625 
Q 16.703125 13.921875 20.71875 10.15625 
Q 24.75 6.390625 31.78125 6.390625 
Q 38.8125 6.390625 42.859375 10.171875 
Q 46.921875 13.96875 46.921875 20.515625 
Q 46.921875 27.09375 42.890625 30.859375 
Q 38.875 34.625 31.78125 34.625 
z
M 21.921875 38.8125 
Q 15.578125 40.375 12.03125 44.71875 
Q 8.5 49.078125 8.5 55.328125 
Q 8.5 64.0625 14.71875 69.140625 
Q 20.953125 74.21875 31.78125 74.21875 
Q 42.671875 74.21875 48.875 69.140625 
Q 55.078125 64.0625 55.078125 55.328125 
Q 55.078125 49.078125 51.53125 44.71875 
Q 48 40.375 41.703125 38.8125 
Q 48.828125 37.15625 52.796875 32.3125 
Q 56.78125 27.484375 56.78125 20.515625 
Q 56.78125 9.90625 50.3125 4.234375 
Q 43.84375 -1.421875 31.78125 -1.421875 
Q 19.734375 -1.421875 13.25 4.234375 
Q 6.78125 9.90625 6.78125 20.515625 
Q 6.78125 27.484375 10.78125 32.3125 
Q 14.796875 37.15625 21.921875 38.8125 
z
M 18.3125 54.390625 
Q 18.3125 48.734375 21.84375 45.5625 
Q 25.390625 42.390625 31.78125 42.390625 
Q 38.140625 42.390625 41.71875 45.5625 
Q 45.3125 48.734375 45.3125 54.390625 
Q 45.3125 60.0625 41.71875 63.234375 
Q 38.140625 66.40625 31.78125 66.40625 
Q 25.390625 66.40625 21.84375 63.234375 
Q 18.3125 60.0625 18.3125 54.390625 
z
" id="DejaVuSans-56"/>
       </defs>
       <use xlink:href="#DejaVuSans-48"/>
       <use x="63.623047" xlink:href="#DejaVuSans-46"/>
       <use x="95.410156" xlink:href="#DejaVuSans-56"/>
      </g>
     </g>
    </g>
    <g id="ytick_6">
     <g id="line2d_11">
      <path clip-path="url(#pfe20862c50)" d="M 54 92.530138 
L 388.8 92.530138 
" style="fill:none;stroke:#ffffff;stroke-linecap:round;"/>
     </g>
     <g id="text_12">
      <!-- 1.0 -->
      <g style="fill:#262626;" transform="translate(27.006563 96.709278)scale(0.11 -0.11)">
       <use xlink:href="#DejaVuSans-49"/>
       <use x="63.623047" xlink:href="#DejaVuSans-46"/>
       <use x="95.410156" xlink:href="#DejaVuSans-48"/>
      </g>
     </g>
    </g>
    <g id="text_13">
     <!-- $&lt;r^2(t)&gt;$ -->
     <g style="fill:#262626;" transform="translate(20.510937 245.52)rotate(-90)scale(0.12 -0.12)">
      <defs>
       <path d="M 73.1875 49.21875 
L 22.796875 31.296875 
L 73.1875 13.484375 
L 73.1875 4.59375 
L 10.59375 27.296875 
L 10.59375 35.40625 
L 73.1875 58.109375 
z
" id="DejaVuSans-60"/>
       <path d="M 44.578125 46.390625 
Q 43.21875 47.125 41.453125 47.515625 
Q 39.703125 47.90625 37.703125 47.90625 
Q 30.515625 47.90625 25.140625 42.453125 
Q 19.78125 37.015625 18.015625 27.875 
L 12.5 0 
L 3.515625 0 
L 14.203125 54.6875 
L 23.1875 54.6875 
L 21.484375 46.1875 
Q 25.046875 50.921875 30 53.453125 
Q 34.96875 56 40.578125 56 
Q 42.046875 56 43.453125 55.828125 
Q 44.875 55.671875 46.296875 55.28125 
z
" id="DejaVuSans-Oblique-114"/>
       <path d="M 31 75.875 
Q 24.46875 64.65625 21.28125 53.65625 
Q 18.109375 42.671875 18.109375 31.390625 
Q 18.109375 20.125 21.3125 9.0625 
Q 24.515625 -2 31 -13.1875 
L 23.1875 -13.1875 
Q 15.875 -1.703125 12.234375 9.375 
Q 8.59375 20.453125 8.59375 31.390625 
Q 8.59375 42.28125 12.203125 53.3125 
Q 15.828125 64.359375 23.1875 75.875 
z
" id="DejaVuSans-40"/>
       <path d="M 8.015625 75.875 
L 15.828125 75.875 
Q 23.140625 64.359375 26.78125 53.3125 
Q 30.421875 42.28125 30.421875 31.390625 
Q 30.421875 20.453125 26.78125 9.375 
Q 23.140625 -1.703125 15.828125 -13.1875 
L 8.015625 -13.1875 
Q 14.5 -2 17.703125 9.0625 
Q 20.90625 20.125 20.90625 31.390625 
Q 20.90625 42.671875 17.703125 53.65625 
Q 14.5 64.65625 8.015625 75.875 
z
" id="DejaVuSans-41"/>
       <path d="M 10.59375 49.21875 
L 10.59375 58.109375 
L 73.1875 35.40625 
L 73.1875 27.296875 
L 10.59375 4.59375 
L 10.59375 13.484375 
L 60.890625 31.296875 
z
" id="DejaVuSans-62"/>
      </defs>
      <use transform="translate(19.482422 0.765625)" xlink:href="#DejaVuSans-60"/>
      <use transform="translate(122.753906 0.765625)" xlink:href="#DejaVuSans-Oblique-114"/>
      <use transform="translate(168.517083 39.046875)scale(0.7)" xlink:href="#DejaVuSans-50"/>
      <use transform="translate(215.787591 0.765625)" xlink:href="#DejaVuSans-40"/>
      <use transform="translate(254.801263 0.765625)" xlink:href="#DejaVuSans-Oblique-116"/>
      <use transform="translate(294.010247 0.765625)" xlink:href="#DejaVuSans-41"/>
      <use transform="translate(352.506341 0.765625)" xlink:href="#DejaVuSans-62"/>
     </g>
    </g>
   </g>
   <g id="line2d_12">
    <path clip-path="url(#pfe20862c50)" d="M 69.218182 369.36 
L 75.694004 365.228597 
L 82.169826 360.652969 
L 88.645648 355.983644 
L 95.12147 351.283229 
L 101.597292 346.571413 
L 108.073114 341.853356 
L 114.548936 337.126787 
L 121.024758 332.353784 
L 127.50058 327.546702 
L 133.976402 322.725042 
L 140.452224 317.879881 
L 146.928046 313.003108 
L 153.403868 308.071428 
L 159.879691 303.072371 
L 166.355513 298.002781 
L 172.831335 292.870573 
L 179.307157 287.743473 
L 185.782979 282.692287 
L 192.258801 277.725164 
L 198.734623 272.806513 
L 205.210445 267.902398 
L 211.686267 263.029138 
L 218.162089 258.221123 
L 224.637911 253.4167 
L 231.113733 248.569562 
L 237.589555 243.754856 
L 244.065377 238.994202 
L 250.541199 234.243268 
L 257.017021 229.519862 
L 263.492843 224.842196 
L 269.968665 220.233793 
L 276.444487 215.620914 
L 282.920309 211.033962 
L 289.396132 206.549964 
L 295.871954 202.196454 
L 302.347776 197.947011 
L 308.823598 193.742589 
L 315.29942 189.572635 
L 321.775242 185.466733 
L 328.251064 181.38353 
L 334.726886 177.363993 
L 341.202708 173.432271 
L 347.67853 169.511198 
L 354.154352 165.599602 
L 360.630174 161.72315 
L 367.105996 157.845716 
L 373.581818 153.950169 
" style="fill:none;stroke:#4c72b0;stroke-linecap:round;stroke-width:1.5;"/>
   </g>
   <g id="line2d_13">
    <path clip-path="url(#pfe20862c50)" d="M 69.218182 368.61353 
L 75.694004 363.072485 
L 82.169826 356.91852 
L 88.645648 350.568379 
L 95.12147 344.146687 
L 101.597292 337.732899 
L 108.073114 331.36378 
L 114.548936 325.010899 
L 121.024758 318.609705 
L 127.50058 312.109153 
L 133.976402 305.504398 
L 140.452224 298.806241 
L 146.928046 292.006584 
L 153.403868 285.182943 
L 159.879691 278.321277 
L 166.355513 271.380752 
L 172.831335 264.363338 
L 179.307157 257.332482 
L 185.782979 250.316879 
L 192.258801 243.30842 
L 198.734623 236.299687 
L 205.210445 229.324443 
L 211.686267 222.449594 
L 218.162089 215.671225 
L 224.637911 208.923223 
L 231.113733 202.235916 
L 237.589555 195.561728 
L 244.065377 188.88116 
L 250.541199 182.17635 
L 257.017021 175.536737 
L 263.492843 168.98161 
L 269.968665 162.531831 
L 276.444487 156.202285 
L 282.920309 149.968463 
L 289.396132 143.906928 
L 295.871954 138.009259 
L 302.347776 132.150871 
L 308.823598 126.24517 
L 315.29942 120.316609 
L 321.775242 114.407579 
L 328.251064 108.483609 
L 334.726886 102.538648 
L 341.202708 96.521722 
L 347.67853 90.527499 
L 354.154352 84.560769 
L 360.630174 78.595828 
L 367.105996 72.723357 
L 373.581818 66.96 
" style="fill:none;stroke:#dd8452;stroke-linecap:round;stroke-width:1.5;"/>
   </g>
   <g id="line2d_14">
    <path clip-path="url(#pfe20862c50)" d="M 69.218182 368.665765 
L 75.694004 363.308266 
L 82.169826 357.46288 
L 88.645648 351.53312 
L 95.12147 345.572589 
L 101.597292 339.560648 
L 108.073114 333.531827 
L 114.548936 327.490687 
L 121.024758 321.435031 
L 127.50058 315.369361 
L 133.976402 309.259548 
L 140.452224 303.130079 
L 146.928046 296.995453 
L 153.403868 290.818145 
L 159.879691 284.576764 
L 166.355513 278.266317 
L 172.831335 271.926796 
L 179.307157 265.588695 
L 185.782979 259.243481 
L 192.258801 252.923343 
L 198.734623 246.635605 
L 205.210445 240.345348 
L 211.686267 234.074133 
L 218.162089 227.849481 
L 224.637911 221.624917 
L 231.113733 215.36924 
L 237.589555 208.982527 
L 244.065377 202.499059 
L 250.541199 196.026467 
L 257.017021 189.594521 
L 263.492843 183.178245 
L 269.968665 176.650141 
L 276.444487 169.984667 
L 282.920309 163.254633 
L 289.396132 156.496448 
L 295.871954 149.880075 
L 302.347776 143.410669 
L 308.823598 137.032396 
L 315.29942 130.650067 
L 321.775242 124.312077 
L 328.251064 118.042759 
L 334.726886 111.837275 
L 341.202708 105.663244 
L 347.67853 99.422876 
L 354.154352 93.128811 
L 360.630174 86.895461 
L 367.105996 80.765174 
L 373.581818 74.770208 
" style="fill:none;stroke:#55a868;stroke-linecap:round;stroke-width:1.5;"/>
   </g>
   <g id="patch_3">
    <path d="M 54 384.48 
L 54 51.84 
" style="fill:none;stroke:#ffffff;stroke-linecap:square;stroke-linejoin:miter;stroke-width:1.25;"/>
   </g>
   <g id="patch_4">
    <path d="M 388.8 384.48 
L 388.8 51.84 
" style="fill:none;stroke:#ffffff;stroke-linecap:square;stroke-linejoin:miter;stroke-width:1.25;"/>
   </g>
   <g id="patch_5">
    <path d="M 54 384.48 
L 388.8 384.48 
" style="fill:none;stroke:#ffffff;stroke-linecap:square;stroke-linejoin:miter;stroke-width:1.25;"/>
   </g>
   <g id="patch_6">
    <path d="M 54 51.84 
L 388.8 51.84 
" style="fill:none;stroke:#ffffff;stroke-linecap:square;stroke-linejoin:miter;stroke-width:1.25;"/>
   </g>
   <g id="legend_1">
    <g id="patch_7">
     <path d="M 61.7 109.144844 
L 237.92 109.144844 
Q 240.12 109.144844 240.12 106.944844 
L 240.12 59.54 
Q 240.12 57.34 237.92 57.34 
L 61.7 57.34 
Q 59.5 57.34 59.5 59.54 
L 59.5 106.944844 
Q 59.5 109.144844 61.7 109.144844 
z
" style="fill:#eaeaf2;opacity:0.8;stroke:#cccccc;stroke-linejoin:miter;"/>
    </g>
    <g id="line2d_15">
     <path d="M 63.9 66.248281 
L 85.9 66.248281 
" style="fill:none;stroke:#4c72b0;stroke-linecap:round;stroke-width:1.5;"/>
    </g>
    <g id="line2d_16"/>
    <g id="text_14">
     <!-- $D = 0.258$, $ T = 1.0, \rho = 0.7 $ -->
     <g style="fill:#262626;" transform="translate(94.7 70.098281)scale(0.11 -0.11)">
      <defs>
       <path d="M 16.890625 72.90625 
L 38.09375 72.90625 
Q 54.984375 72.90625 63.59375 65.75 
Q 72.21875 58.59375 72.21875 44.484375 
Q 72.21875 35.15625 68.9375 26.53125 
Q 65.671875 17.921875 59.90625 12.015625 
Q 54.109375 5.953125 45.171875 2.96875 
Q 36.234375 0 24.03125 0 
L 2.6875 0 
z
M 25.203125 64.796875 
L 14.203125 8.109375 
L 27.09375 8.109375 
Q 43.65625 8.109375 52.734375 17.625 
Q 61.8125 27.15625 61.8125 44.484375 
Q 61.8125 54.984375 55.953125 59.890625 
Q 50.09375 64.796875 37.59375 64.796875 
z
" id="DejaVuSans-Oblique-68"/>
       <path d="M 10.59375 45.40625 
L 73.1875 45.40625 
L 73.1875 37.203125 
L 10.59375 37.203125 
z
M 10.59375 25.484375 
L 73.1875 25.484375 
L 73.1875 17.1875 
L 10.59375 17.1875 
z
" id="DejaVuSans-61"/>
       <path d="M 10.796875 72.90625 
L 49.515625 72.90625 
L 49.515625 64.59375 
L 19.828125 64.59375 
L 19.828125 46.734375 
Q 21.96875 47.46875 24.109375 47.828125 
Q 26.265625 48.1875 28.421875 48.1875 
Q 40.625 48.1875 47.75 41.5 
Q 54.890625 34.8125 54.890625 23.390625 
Q 54.890625 11.625 47.5625 5.09375 
Q 40.234375 -1.421875 26.90625 -1.421875 
Q 22.3125 -1.421875 17.546875 -0.640625 
Q 12.796875 0.140625 7.71875 1.703125 
L 7.71875 11.625 
Q 12.109375 9.234375 16.796875 8.0625 
Q 21.484375 6.890625 26.703125 6.890625 
Q 35.15625 6.890625 40.078125 11.328125 
Q 45.015625 15.765625 45.015625 23.390625 
Q 45.015625 31 40.078125 35.4375 
Q 35.15625 39.890625 26.703125 39.890625 
Q 22.75 39.890625 18.8125 39.015625 
Q 14.890625 38.140625 10.796875 36.28125 
z
" id="DejaVuSans-53"/>
       <path d="M 11.71875 12.40625 
L 22.015625 12.40625 
L 22.015625 4 
L 14.015625 -11.625 
L 7.71875 -11.625 
L 11.71875 4 
z
" id="DejaVuSans-44"/>
       <path id="DejaVuSans-32"/>
       <path d="M 5.90625 72.90625 
L 67.578125 72.90625 
L 66.015625 64.59375 
L 39.984375 64.59375 
L 27.484375 0 
L 17.578125 0 
L 30.078125 64.59375 
L 4.296875 64.59375 
z
" id="DejaVuSans-Oblique-84"/>
       <path d="M 18.796875 44.921875 
Q 22.703125 49.90625 30.953125 54.296875 
Q 34.1875 56 43.0625 56 
Q 53.03125 56 57.71875 48.09375 
Q 62.40625 40.1875 59.90625 27.296875 
Q 57.375 14.40625 49.609375 6.484375 
Q 41.84375 -1.421875 31.890625 -1.421875 
Q 25.875 -1.421875 22.015625 0.984375 
Q 18.171875 3.328125 16.3125 8.203125 
L 10.640625 -20.796875 
L 1.609375 -20.796875 
L 10.890625 26.8125 
Q 13.09375 38.09375 18.796875 44.921875 
z
M 50.59375 27.296875 
Q 52.484375 37.203125 49.515625 42.875 
Q 46.53125 48.484375 39.40625 48.484375 
Q 32.28125 48.484375 27.09375 42.875 
Q 21.921875 37.203125 20.015625 27.296875 
Q 18.0625 17.390625 21.046875 11.71875 
Q 24.03125 6.109375 31.15625 6.109375 
Q 38.28125 6.109375 43.453125 11.71875 
Q 48.640625 17.390625 50.59375 27.296875 
z
" id="DejaVuSans-Oblique-961"/>
       <path d="M 8.203125 72.90625 
L 55.078125 72.90625 
L 55.078125 68.703125 
L 28.609375 0 
L 18.3125 0 
L 43.21875 64.59375 
L 8.203125 64.59375 
z
" id="DejaVuSans-55"/>
      </defs>
      <use transform="translate(0 0.78125)" xlink:href="#DejaVuSans-Oblique-68"/>
      <use transform="translate(96.484375 0.78125)" xlink:href="#DejaVuSans-61"/>
      <use transform="translate(199.755859 0.78125)" xlink:href="#DejaVuSans-48"/>
      <use transform="translate(263.378906 0.78125)" xlink:href="#DejaVuSans-46"/>
      <use transform="translate(289.666016 0.78125)" xlink:href="#DejaVuSans-50"/>
      <use transform="translate(353.289062 0.78125)" xlink:href="#DejaVuSans-53"/>
      <use transform="translate(416.912109 0.78125)" xlink:href="#DejaVuSans-56"/>
      <use transform="translate(480.535156 0.78125)" xlink:href="#DejaVuSans-44"/>
      <use transform="translate(512.322266 0.78125)" xlink:href="#DejaVuSans-32"/>
      <use transform="translate(544.109375 0.78125)" xlink:href="#DejaVuSans-Oblique-84"/>
      <use transform="translate(624.675781 0.78125)" xlink:href="#DejaVuSans-61"/>
      <use transform="translate(727.947266 0.78125)" xlink:href="#DejaVuSans-49"/>
      <use transform="translate(791.570312 0.78125)" xlink:href="#DejaVuSans-46"/>
      <use transform="translate(823.357422 0.78125)" xlink:href="#DejaVuSans-48"/>
      <use transform="translate(886.980469 0.78125)" xlink:href="#DejaVuSans-44"/>
      <use transform="translate(938.25 0.78125)" xlink:href="#DejaVuSans-Oblique-961"/>
      <use transform="translate(1021.208984 0.78125)" xlink:href="#DejaVuSans-61"/>
      <use transform="translate(1124.480469 0.78125)" xlink:href="#DejaVuSans-48"/>
      <use transform="translate(1188.103516 0.78125)" xlink:href="#DejaVuSans-46"/>
      <use transform="translate(1212.140625 0.78125)" xlink:href="#DejaVuSans-55"/>
     </g>
    </g>
    <g id="line2d_17">
     <path d="M 63.9 82.416562 
L 85.9 82.416562 
" style="fill:none;stroke:#dd8452;stroke-linecap:round;stroke-width:1.5;"/>
    </g>
    <g id="line2d_18"/>
    <g id="text_15">
     <!-- $D = 0.366$, $ T = 1.5, \rho = 0.7 $ -->
     <g style="fill:#262626;" transform="translate(94.7 86.266562)scale(0.11 -0.11)">
      <use transform="translate(0 0.78125)" xlink:href="#DejaVuSans-Oblique-68"/>
      <use transform="translate(96.484375 0.78125)" xlink:href="#DejaVuSans-61"/>
      <use transform="translate(199.755859 0.78125)" xlink:href="#DejaVuSans-48"/>
      <use transform="translate(263.378906 0.78125)" xlink:href="#DejaVuSans-46"/>
      <use transform="translate(295.166016 0.78125)" xlink:href="#DejaVuSans-51"/>
      <use transform="translate(358.789062 0.78125)" xlink:href="#DejaVuSans-54"/>
      <use transform="translate(422.412109 0.78125)" xlink:href="#DejaVuSans-54"/>
      <use transform="translate(486.035156 0.78125)" xlink:href="#DejaVuSans-44"/>
      <use transform="translate(517.822266 0.78125)" xlink:href="#DejaVuSans-32"/>
      <use transform="translate(549.609375 0.78125)" xlink:href="#DejaVuSans-Oblique-84"/>
      <use transform="translate(630.175781 0.78125)" xlink:href="#DejaVuSans-61"/>
      <use transform="translate(733.447266 0.78125)" xlink:href="#DejaVuSans-49"/>
      <use transform="translate(797.070312 0.78125)" xlink:href="#DejaVuSans-46"/>
      <use transform="translate(828.857422 0.78125)" xlink:href="#DejaVuSans-53"/>
      <use transform="translate(892.480469 0.78125)" xlink:href="#DejaVuSans-44"/>
      <use transform="translate(943.75 0.78125)" xlink:href="#DejaVuSans-Oblique-961"/>
      <use transform="translate(1026.708984 0.78125)" xlink:href="#DejaVuSans-61"/>
      <use transform="translate(1129.980469 0.78125)" xlink:href="#DejaVuSans-48"/>
      <use transform="translate(1193.603516 0.78125)" xlink:href="#DejaVuSans-46"/>
      <use transform="translate(1217.640625 0.78125)" xlink:href="#DejaVuSans-55"/>
     </g>
    </g>
    <g id="line2d_19">
     <path d="M 63.9 98.584844 
L 85.9 98.584844 
" style="fill:none;stroke:#55a868;stroke-linecap:round;stroke-width:1.5;"/>
    </g>
    <g id="line2d_20"/>
    <g id="text_16">
     <!-- $D = 0.384$, $ T = 2.0, \rho = 0.7 $ -->
     <g style="fill:#262626;" transform="translate(94.7 102.434844)scale(0.11 -0.11)">
      <use transform="translate(0 0.78125)" xlink:href="#DejaVuSans-Oblique-68"/>
      <use transform="translate(96.484375 0.78125)" xlink:href="#DejaVuSans-61"/>
      <use transform="translate(199.755859 0.78125)" xlink:href="#DejaVuSans-48"/>
      <use transform="translate(263.378906 0.78125)" xlink:href="#DejaVuSans-46"/>
      <use transform="translate(295.166016 0.78125)" xlink:href="#DejaVuSans-51"/>
      <use transform="translate(358.789062 0.78125)" xlink:href="#DejaVuSans-56"/>
      <use transform="translate(422.412109 0.78125)" xlink:href="#DejaVuSans-52"/>
      <use transform="translate(486.035156 0.78125)" xlink:href="#DejaVuSans-44"/>
      <use transform="translate(517.822266 0.78125)" xlink:href="#DejaVuSans-32"/>
      <use transform="translate(549.609375 0.78125)" xlink:href="#DejaVuSans-Oblique-84"/>
      <use transform="translate(630.175781 0.78125)" xlink:href="#DejaVuSans-61"/>
      <use transform="translate(733.447266 0.78125)" xlink:href="#DejaVuSans-50"/>
      <use transform="translate(797.070312 0.78125)" xlink:href="#DejaVuSans-46"/>
      <use transform="translate(828.857422 0.78125)" xlink:href="#DejaVuSans-48"/>
      <use transform="translate(892.480469 0.78125)" xlink:href="#DejaVuSans-44"/>
      <use transform="translate(943.75 0.78125)" xlink:href="#DejaVuSans-Oblique-961"/>
      <use transform="translate(1026.708984 0.78125)" xlink:href="#DejaVuSans-61"/>
      <use transform="translate(1129.980469 0.78125)" xlink:href="#DejaVuSans-48"/>
      <use transform="translate(1193.603516 0.78125)" xlink:href="#DejaVuSans-46"/>
      <use transform="translate(1217.640625 0.78125)" xlink:href="#DejaVuSans-55"/>
     </g>
    </g>
   </g>
  </g>
 </g>
 <defs>
  <clipPath id="pfe20862c50">
   <rect height="332.64" width="334.8" x="54" y="51.84"/>
  </clipPath>
 </defs>
</svg>
