<?xml version="1.0" encoding="utf-8" standalone="no"?>
<!DOCTYPE svg PUBLIC "-//W3C//DTD SVG 1.1//EN"
  "http://www.w3.org/Graphics/SVG/1.1/DTD/svg11.dtd">
<!-- Created with matplotlib (https://matplotlib.org/) -->
<svg height="432pt" version="1.1" viewBox="0 0 432 432" width="432pt" xmlns="http://www.w3.org/2000/svg" xmlns:xlink="http://www.w3.org/1999/xlink">
 <metadata>
  <rdf:RDF xmlns:cc="http://creativecommons.org/ns#" xmlns:dc="http://purl.org/dc/elements/1.1/" xmlns:rdf="http://www.w3.org/1999/02/22-rdf-syntax-ns#">
   <cc:Work>
    <dc:type rdf:resource="http://purl.org/dc/dcmitype/StillImage"/>
    <dc:date>2021-03-29T13:38:49.392533</dc:date>
    <dc:format>image/svg+xml</dc:format>
    <dc:creator>
     <cc:Agent>
      <dc:title>Matplotlib v3.3.3, https://matplotlib.org/</dc:title>
     </cc:Agent>
    </dc:creator>
   </cc:Work>
  </rdf:RDF>
 </metadata>
 <defs>
  <style type="text/css">*{stroke-linecap:butt;stroke-linejoin:round;}</style>
 </defs>
 <g id="figure_1">
  <g id="patch_1">
   <path d="M 0 432 
L 432 432 
L 432 0 
L 0 0 
z
" style="fill:#ffffff;"/>
  </g>
  <g id="axes_1">
   <g id="patch_2">
    <path d="M 54 384.48 
L 388.8 384.48 
L 388.8 51.84 
L 54 51.84 
z
" style="fill:#eaeaf2;"/>
   </g>
   <g id="matplotlib.axis_1">
    <g id="xtick_1">
     <g id="line2d_1">
      <path clip-path="url(#p64d350ab4a)" d="M 69.218182 384.48 
L 69.218182 51.84 
" style="fill:none;stroke:#ffffff;stroke-linecap:round;"/>
     </g>
     <g id="text_1">
      <!-- 0 -->
      <g style="fill:#262626;" transform="translate(65.718807 402.338281)scale(0.11 -0.11)">
       <defs>
        <path d="M 31.78125 66.40625 
Q 24.171875 66.40625 20.328125 58.90625 
Q 16.5 51.421875 16.5 36.375 
Q 16.5 21.390625 20.328125 13.890625 
Q 24.171875 6.390625 31.78125 6.390625 
Q 39.453125 6.390625 43.28125 13.890625 
Q 47.125 21.390625 47.125 36.375 
Q 47.125 51.421875 43.28125 58.90625 
Q 39.453125 66.40625 31.78125 66.40625 
z
M 31.78125 74.21875 
Q 44.046875 74.21875 50.515625 64.515625 
Q 56.984375 54.828125 56.984375 36.375 
Q 56.984375 17.96875 50.515625 8.265625 
Q 44.046875 -1.421875 31.78125 -1.421875 
Q 19.53125 -1.421875 13.0625 8.265625 
Q 6.59375 17.96875 6.59375 36.375 
Q 6.59375 54.828125 13.0625 64.515625 
Q 19.53125 74.21875 31.78125 74.21875 
z
" id="DejaVuSans-48"/>
       </defs>
       <use xlink:href="#DejaVuSans-48"/>
      </g>
     </g>
    </g>
    <g id="xtick_2">
     <g id="line2d_2">
      <path clip-path="url(#p64d350ab4a)" d="M 131.973571 384.48 
L 131.973571 51.84 
" style="fill:none;stroke:#ffffff;stroke-linecap:round;"/>
     </g>
     <g id="text_2">
      <!-- 2 -->
      <g style="fill:#262626;" transform="translate(128.474196 402.338281)scale(0.11 -0.11)">
       <defs>
        <path d="M 19.1875 8.296875 
L 53.609375 8.296875 
L 53.609375 0 
L 7.328125 0 
L 7.328125 8.296875 
Q 12.9375 14.109375 22.625 23.890625 
Q 32.328125 33.6875 34.8125 36.53125 
Q 39.546875 41.84375 41.421875 45.53125 
Q 43.3125 49.21875 43.3125 52.78125 
Q 43.3125 58.59375 39.234375 62.25 
Q 35.15625 65.921875 28.609375 65.921875 
Q 23.96875 65.921875 18.8125 64.3125 
Q 13.671875 62.703125 7.8125 59.421875 
L 7.8125 69.390625 
Q 13.765625 71.78125 18.9375 73 
Q 24.125 74.21875 28.421875 74.21875 
Q 39.75 74.21875 46.484375 68.546875 
Q 53.21875 62.890625 53.21875 53.421875 
Q 53.21875 48.921875 51.53125 44.890625 
Q 49.859375 40.875 45.40625 35.40625 
Q 44.1875 33.984375 37.640625 27.21875 
Q 31.109375 20.453125 19.1875 8.296875 
z
" id="DejaVuSans-50"/>
       </defs>
       <use xlink:href="#DejaVuSans-50"/>
      </g>
     </g>
    </g>
    <g id="xtick_3">
     <g id="line2d_3">
      <path clip-path="url(#p64d350ab4a)" d="M 194.72896 384.48 
L 194.72896 51.84 
" style="fill:none;stroke:#ffffff;stroke-linecap:round;"/>
     </g>
     <g id="text_3">
      <!-- 4 -->
      <g style="fill:#262626;" transform="translate(191.229585 402.338281)scale(0.11 -0.11)">
       <defs>
        <path d="M 37.796875 64.3125 
L 12.890625 25.390625 
L 37.796875 25.390625 
z
M 35.203125 72.90625 
L 47.609375 72.90625 
L 47.609375 25.390625 
L 58.015625 25.390625 
L 58.015625 17.1875 
L 47.609375 17.1875 
L 47.609375 0 
L 37.796875 0 
L 37.796875 17.1875 
L 4.890625 17.1875 
L 4.890625 26.703125 
z
" id="DejaVuSans-52"/>
       </defs>
       <use xlink:href="#DejaVuSans-52"/>
      </g>
     </g>
    </g>
    <g id="xtick_4">
     <g id="line2d_4">
      <path clip-path="url(#p64d350ab4a)" d="M 257.484349 384.48 
L 257.484349 51.84 
" style="fill:none;stroke:#ffffff;stroke-linecap:round;"/>
     </g>
     <g id="text_4">
      <!-- 6 -->
      <g style="fill:#262626;" transform="translate(253.984974 402.338281)scale(0.11 -0.11)">
       <defs>
        <path d="M 33.015625 40.375 
Q 26.375 40.375 22.484375 35.828125 
Q 18.609375 31.296875 18.609375 23.390625 
Q 18.609375 15.53125 22.484375 10.953125 
Q 26.375 6.390625 33.015625 6.390625 
Q 39.65625 6.390625 43.53125 10.953125 
Q 47.40625 15.53125 47.40625 23.390625 
Q 47.40625 31.296875 43.53125 35.828125 
Q 39.65625 40.375 33.015625 40.375 
z
M 52.59375 71.296875 
L 52.59375 62.3125 
Q 48.875 64.0625 45.09375 64.984375 
Q 41.3125 65.921875 37.59375 65.921875 
Q 27.828125 65.921875 22.671875 59.328125 
Q 17.53125 52.734375 16.796875 39.40625 
Q 19.671875 43.65625 24.015625 45.921875 
Q 28.375 48.1875 33.59375 48.1875 
Q 44.578125 48.1875 50.953125 41.515625 
Q 57.328125 34.859375 57.328125 23.390625 
Q 57.328125 12.15625 50.6875 5.359375 
Q 44.046875 -1.421875 33.015625 -1.421875 
Q 20.359375 -1.421875 13.671875 8.265625 
Q 6.984375 17.96875 6.984375 36.375 
Q 6.984375 53.65625 15.1875 63.9375 
Q 23.390625 74.21875 37.203125 74.21875 
Q 40.921875 74.21875 44.703125 73.484375 
Q 48.484375 72.75 52.59375 71.296875 
z
" id="DejaVuSans-54"/>
       </defs>
       <use xlink:href="#DejaVuSans-54"/>
      </g>
     </g>
    </g>
    <g id="xtick_5">
     <g id="line2d_5">
      <path clip-path="url(#p64d350ab4a)" d="M 320.239738 384.48 
L 320.239738 51.84 
" style="fill:none;stroke:#ffffff;stroke-linecap:round;"/>
     </g>
     <g id="text_5">
      <!-- 8 -->
      <g style="fill:#262626;" transform="translate(316.740363 402.338281)scale(0.11 -0.11)">
       <defs>
        <path d="M 31.78125 34.625 
Q 24.75 34.625 20.71875 30.859375 
Q 16.703125 27.09375 16.703125 20.515625 
Q 16.703125 13.921875 20.71875 10.15625 
Q 24.75 6.390625 31.78125 6.390625 
Q 38.8125 6.390625 42.859375 10.171875 
Q 46.921875 13.96875 46.921875 20.515625 
Q 46.921875 27.09375 42.890625 30.859375 
Q 38.875 34.625 31.78125 34.625 
z
M 21.921875 38.8125 
Q 15.578125 40.375 12.03125 44.71875 
Q 8.5 49.078125 8.5 55.328125 
Q 8.5 64.0625 14.71875 69.140625 
Q 20.953125 74.21875 31.78125 74.21875 
Q 42.671875 74.21875 48.875 69.140625 
Q 55.078125 64.0625 55.078125 55.328125 
Q 55.078125 49.078125 51.53125 44.71875 
Q 48 40.375 41.703125 38.8125 
Q 48.828125 37.15625 52.796875 32.3125 
Q 56.78125 27.484375 56.78125 20.515625 
Q 56.78125 9.90625 50.3125 4.234375 
Q 43.84375 -1.421875 31.78125 -1.421875 
Q 19.734375 -1.421875 13.25 4.234375 
Q 6.78125 9.90625 6.78125 20.515625 
Q 6.78125 27.484375 10.78125 32.3125 
Q 14.796875 37.15625 21.921875 38.8125 
z
M 18.3125 54.390625 
Q 18.3125 48.734375 21.84375 45.5625 
Q 25.390625 42.390625 31.78125 42.390625 
Q 38.140625 42.390625 41.71875 45.5625 
Q 45.3125 48.734375 45.3125 54.390625 
Q 45.3125 60.0625 41.71875 63.234375 
Q 38.140625 66.40625 31.78125 66.40625 
Q 25.390625 66.40625 21.84375 63.234375 
Q 18.3125 60.0625 18.3125 54.390625 
z
" id="DejaVuSans-56"/>
       </defs>
       <use xlink:href="#DejaVuSans-56"/>
      </g>
     </g>
    </g>
    <g id="xtick_6">
     <g id="line2d_6">
      <path clip-path="url(#p64d350ab4a)" d="M 382.995127 384.48 
L 382.995127 51.84 
" style="fill:none;stroke:#ffffff;stroke-linecap:round;"/>
     </g>
     <g id="text_6">
      <!-- 10 -->
      <g style="fill:#262626;" transform="translate(375.996377 402.338281)scale(0.11 -0.11)">
       <defs>
        <path d="M 12.40625 8.296875 
L 28.515625 8.296875 
L 28.515625 63.921875 
L 10.984375 60.40625 
L 10.984375 69.390625 
L 28.421875 72.90625 
L 38.28125 72.90625 
L 38.28125 8.296875 
L 54.390625 8.296875 
L 54.390625 0 
L 12.40625 0 
z
" id="DejaVuSans-49"/>
       </defs>
       <use xlink:href="#DejaVuSans-49"/>
       <use x="63.623047" xlink:href="#DejaVuSans-48"/>
      </g>
     </g>
    </g>
    <g id="text_7">
     <!-- $t$ -->
     <g style="fill:#262626;" transform="translate(219 417.744062)scale(0.12 -0.12)">
      <defs>
       <path d="M 42.28125 54.6875 
L 40.921875 47.703125 
L 23 47.703125 
L 17.1875 18.015625 
Q 16.890625 16.359375 16.75 15.234375 
Q 16.609375 14.109375 16.609375 13.484375 
Q 16.609375 10.359375 18.484375 8.9375 
Q 20.359375 7.515625 24.515625 7.515625 
L 33.59375 7.515625 
L 32.078125 0 
L 23.484375 0 
Q 15.484375 0 11.546875 3.125 
Q 7.625 6.25 7.625 12.59375 
Q 7.625 13.71875 7.765625 15.0625 
Q 7.90625 16.40625 8.203125 18.015625 
L 14.015625 47.703125 
L 6.390625 47.703125 
L 7.8125 54.6875 
L 15.28125 54.6875 
L 18.3125 70.21875 
L 27.296875 70.21875 
L 24.3125 54.6875 
z
" id="DejaVuSans-Oblique-116"/>
      </defs>
      <use transform="translate(0 0.78125)" xlink:href="#DejaVuSans-Oblique-116"/>
     </g>
    </g>
   </g>
   <g id="matplotlib.axis_2">
    <g id="ytick_1">
     <g id="line2d_7">
      <path clip-path="url(#p64d350ab4a)" d="M 54 370.105063 
L 388.8 370.105063 
" style="fill:none;stroke:#ffffff;stroke-linecap:round;"/>
     </g>
     <g id="text_8">
      <!-- 0 -->
      <g style="fill:#262626;" transform="translate(37.50125 374.284204)scale(0.11 -0.11)">
       <use xlink:href="#DejaVuSans-48"/>
      </g>
     </g>
    </g>
    <g id="ytick_2">
     <g id="line2d_8">
      <path clip-path="url(#p64d350ab4a)" d="M 54 300.917504 
L 388.8 300.917504 
" style="fill:none;stroke:#ffffff;stroke-linecap:round;"/>
     </g>
     <g id="text_9">
      <!-- 2 -->
      <g style="fill:#262626;" transform="translate(37.50125 305.096645)scale(0.11 -0.11)">
       <use xlink:href="#DejaVuSans-50"/>
      </g>
     </g>
    </g>
    <g id="ytick_3">
     <g id="line2d_9">
      <path clip-path="url(#p64d350ab4a)" d="M 54 231.729945 
L 388.8 231.729945 
" style="fill:none;stroke:#ffffff;stroke-linecap:round;"/>
     </g>
     <g id="text_10">
      <!-- 4 -->
      <g style="fill:#262626;" transform="translate(37.50125 235.909086)scale(0.11 -0.11)">
       <use xlink:href="#DejaVuSans-52"/>
      </g>
     </g>
    </g>
    <g id="ytick_4">
     <g id="line2d_10">
      <path clip-path="url(#p64d350ab4a)" d="M 54 162.542386 
L 388.8 162.542386 
" style="fill:none;stroke:#ffffff;stroke-linecap:round;"/>
     </g>
     <g id="text_11">
      <!-- 6 -->
      <g style="fill:#262626;" transform="translate(37.50125 166.721526)scale(0.11 -0.11)">
       <use xlink:href="#DejaVuSans-54"/>
      </g>
     </g>
    </g>
    <g id="ytick_5">
     <g id="line2d_11">
      <path clip-path="url(#p64d350ab4a)" d="M 54 93.354827 
L 388.8 93.354827 
" style="fill:none;stroke:#ffffff;stroke-linecap:round;"/>
     </g>
     <g id="text_12">
      <!-- 8 -->
      <g style="fill:#262626;" transform="translate(37.50125 97.533967)scale(0.11 -0.11)">
       <use xlink:href="#DejaVuSans-56"/>
      </g>
     </g>
    </g>
    <g id="text_13">
     <!-- $&lt;r^2(t)&gt;$ -->
     <g style="fill:#262626;" transform="translate(31.005625 245.52)rotate(-90)scale(0.12 -0.12)">
      <defs>
       <path d="M 73.1875 49.21875 
L 22.796875 31.296875 
L 73.1875 13.484375 
L 73.1875 4.59375 
L 10.59375 27.296875 
L 10.59375 35.40625 
L 73.1875 58.109375 
z
" id="DejaVuSans-60"/>
       <path d="M 44.578125 46.390625 
Q 43.21875 47.125 41.453125 47.515625 
Q 39.703125 47.90625 37.703125 47.90625 
Q 30.515625 47.90625 25.140625 42.453125 
Q 19.78125 37.015625 18.015625 27.875 
L 12.5 0 
L 3.515625 0 
L 14.203125 54.6875 
L 23.1875 54.6875 
L 21.484375 46.1875 
Q 25.046875 50.921875 30 53.453125 
Q 34.96875 56 40.578125 56 
Q 42.046875 56 43.453125 55.828125 
Q 44.875 55.671875 46.296875 55.28125 
z
" id="DejaVuSans-Oblique-114"/>
       <path d="M 31 75.875 
Q 24.46875 64.65625 21.28125 53.65625 
Q 18.109375 42.671875 18.109375 31.390625 
Q 18.109375 20.125 21.3125 9.0625 
Q 24.515625 -2 31 -13.1875 
L 23.1875 -13.1875 
Q 15.875 -1.703125 12.234375 9.375 
Q 8.59375 20.453125 8.59375 31.390625 
Q 8.59375 42.28125 12.203125 53.3125 
Q 15.828125 64.359375 23.1875 75.875 
z
" id="DejaVuSans-40"/>
       <path d="M 8.015625 75.875 
L 15.828125 75.875 
Q 23.140625 64.359375 26.78125 53.3125 
Q 30.421875 42.28125 30.421875 31.390625 
Q 30.421875 20.453125 26.78125 9.375 
Q 23.140625 -1.703125 15.828125 -13.1875 
L 8.015625 -13.1875 
Q 14.5 -2 17.703125 9.0625 
Q 20.90625 20.125 20.90625 31.390625 
Q 20.90625 42.671875 17.703125 53.65625 
Q 14.5 64.65625 8.015625 75.875 
z
" id="DejaVuSans-41"/>
       <path d="M 10.59375 49.21875 
L 10.59375 58.109375 
L 73.1875 35.40625 
L 73.1875 27.296875 
L 10.59375 4.59375 
L 10.59375 13.484375 
L 60.890625 31.296875 
z
" id="DejaVuSans-62"/>
      </defs>
      <use transform="translate(19.482422 0.765625)" xlink:href="#DejaVuSans-60"/>
      <use transform="translate(122.753906 0.765625)" xlink:href="#DejaVuSans-Oblique-114"/>
      <use transform="translate(168.517083 39.046875)scale(0.7)" xlink:href="#DejaVuSans-50"/>
      <use transform="translate(215.787591 0.765625)" xlink:href="#DejaVuSans-40"/>
      <use transform="translate(254.801263 0.765625)" xlink:href="#DejaVuSans-Oblique-116"/>
      <use transform="translate(294.010247 0.765625)" xlink:href="#DejaVuSans-41"/>
      <use transform="translate(352.506341 0.765625)" xlink:href="#DejaVuSans-62"/>
     </g>
    </g>
   </g>
   <g id="line2d_12">
    <path clip-path="url(#p64d350ab4a)" d="M 69.218182 369.36 
L 72.355951 367.807535 
L 75.493721 366.103212 
L 78.63149 364.37418 
L 81.76926 362.627317 
L 84.907029 360.867644 
L 88.044799 359.095413 
L 91.182568 357.314587 
L 94.320337 355.524304 
L 97.458107 353.725355 
L 100.595876 351.928521 
L 103.733646 350.14099 
L 106.871415 348.358818 
L 110.009185 346.579222 
L 113.146954 344.796043 
L 116.284724 343.001828 
L 119.422493 341.197209 
L 122.560262 339.39636 
L 125.698032 337.612045 
L 128.835801 335.846046 
L 131.973571 334.091514 
L 135.11134 332.336766 
L 138.24911 330.577182 
L 141.386879 328.814934 
L 144.524649 327.052048 
L 147.662418 325.283361 
L 150.800187 323.51653 
L 153.937957 321.750041 
L 157.075726 319.97253 
L 160.213496 318.182421 
L 163.351265 316.385846 
L 166.489035 314.600488 
L 169.626804 312.825929 
L 172.764574 311.059505 
L 175.902343 309.296737 
L 179.040112 307.532766 
L 182.177882 305.766166 
L 185.315651 303.98837 
L 188.453421 302.203059 
L 191.59119 300.415159 
L 194.72896 298.614101 
L 197.866729 296.820372 
L 201.004499 295.046597 
L 204.142268 293.277382 
L 207.280037 291.500258 
L 210.417807 289.715469 
L 213.555576 287.913872 
L 216.693346 286.10024 
L 219.831115 284.258514 
L 222.968885 282.382033 
L 226.106654 280.484659 
L 229.244424 278.585219 
L 232.382193 276.708938 
L 235.519963 274.841796 
L 238.657732 272.970211 
L 241.795501 271.109332 
L 244.933271 269.26468 
L 248.07104 267.426265 
L 251.20881 265.588585 
L 254.346579 263.74693 
L 257.484349 261.916593 
L 260.622118 260.091513 
L 263.759888 258.26362 
L 266.897657 256.443216 
L 270.035426 254.633139 
L 273.173196 252.835667 
L 276.310965 251.031838 
L 279.448735 249.216991 
L 282.586504 247.387603 
L 285.724274 245.55252 
L 288.862043 243.726686 
L 291.999813 241.908253 
L 295.137582 240.080883 
L 298.275351 238.25057 
L 301.413121 236.426591 
L 304.55089 234.604943 
L 307.68866 232.769283 
L 310.826429 230.920789 
L 313.964199 229.067803 
L 317.101968 227.212264 
L 320.239738 225.362427 
L 323.377507 223.519075 
L 326.515276 221.683243 
L 329.653046 219.821541 
L 332.790815 217.925178 
L 335.928585 216.023748 
L 339.066354 214.114627 
L 342.204124 212.188325 
L 345.341893 210.249122 
L 348.479663 208.301366 
L 351.617432 206.343379 
L 354.755201 204.376188 
L 357.892971 202.41423 
L 361.03074 200.468501 
L 364.16851 198.544862 
L 367.306279 196.645775 
L 370.444049 194.768744 
L 373.581818 192.899297 
" style="fill:none;stroke:#4c72b0;stroke-linecap:round;stroke-width:1.5;"/>
   </g>
   <g id="line2d_13">
    <path clip-path="url(#p64d350ab4a)" d="M 317.101968 384.48 
L 317.101968 51.84 
" style="fill:none;stroke:#4c72b0;stroke-linecap:round;stroke-width:1.5;"/>
   </g>
   <g id="line2d_14">
    <path clip-path="url(#p64d350ab4a)" d="M 69.218182 369.075809 
L 72.355951 367.001247 
L 75.493721 364.728546 
L 78.63149 362.38722 
L 81.76926 360.006238 
L 84.907029 357.610812 
L 88.044799 355.209893 
L 91.182568 352.799274 
L 94.320337 350.373436 
L 97.458107 347.927551 
L 100.595876 345.459665 
L 103.733646 342.975101 
L 106.871415 340.474833 
L 110.009185 337.969266 
L 113.146954 335.46466 
L 116.284724 332.95802 
L 119.422493 330.44869 
L 122.560262 327.944147 
L 125.698032 325.445672 
L 128.835801 322.953455 
L 131.973571 320.466536 
L 135.11134 317.985153 
L 138.24911 315.511929 
L 141.386879 313.055866 
L 144.524649 310.616908 
L 147.662418 308.204581 
L 150.800187 305.800673 
L 153.937957 303.39182 
L 157.075726 300.965627 
L 160.213496 298.55188 
L 163.351265 296.161882 
L 166.489035 293.788995 
L 169.626804 291.437847 
L 172.764574 289.114648 
L 175.902343 286.836295 
L 179.040112 284.584614 
L 182.177882 282.334224 
L 185.315651 280.078516 
L 188.453421 277.827549 
L 191.59119 275.577317 
L 194.72896 273.322453 
L 197.866729 271.050333 
L 201.004499 268.746067 
L 204.142268 266.433206 
L 207.280037 264.121367 
L 210.417807 261.818077 
L 213.555576 259.531813 
L 216.693346 257.257149 
L 219.831115 254.985275 
L 222.968885 252.700947 
L 226.106654 250.405382 
L 229.244424 248.102181 
L 232.382193 245.772087 
L 235.519963 243.398353 
L 238.657732 240.980972 
L 241.795501 238.541805 
L 244.933271 236.110612 
L 248.07104 233.710923 
L 251.20881 231.345772 
L 254.346579 228.995565 
L 257.484349 226.657732 
L 260.622118 224.326997 
L 263.759888 221.9848 
L 266.897657 219.630914 
L 270.035426 217.278949 
L 273.173196 214.938989 
L 276.310965 212.588166 
L 279.448735 210.216679 
L 282.586504 207.835924 
L 285.724274 205.454766 
L 288.862043 203.072613 
L 291.999813 200.703553 
L 295.137582 198.346067 
L 298.275351 196.015624 
L 301.413121 193.7066 
L 304.55089 191.416531 
L 307.68866 189.141421 
L 310.826429 186.859847 
L 313.964199 184.558559 
L 317.101968 182.234893 
L 320.239738 179.89145 
L 323.377507 177.514352 
L 326.515276 175.099526 
L 329.653046 172.677143 
L 332.790815 170.261554 
L 335.928585 167.848065 
L 339.066354 165.391295 
L 342.204124 162.92556 
L 345.341893 160.476875 
L 348.479663 158.036364 
L 351.617432 155.590476 
L 354.755201 153.141386 
L 357.892971 150.66109 
L 361.03074 148.158242 
L 364.16851 145.625791 
L 367.306279 143.060085 
L 370.444049 140.480591 
L 373.581818 137.870355 
" style="fill:none;stroke:#dd8452;stroke-linecap:round;stroke-width:1.5;"/>
   </g>
   <g id="line2d_15">
    <path clip-path="url(#p64d350ab4a)" d="M 317.101968 384.48 
L 317.101968 51.84 
" style="fill:none;stroke:#4c72b0;stroke-linecap:round;stroke-width:1.5;"/>
   </g>
   <g id="line2d_16">
    <path clip-path="url(#p64d350ab4a)" d="M 69.218182 368.797526 
L 72.355951 366.232333 
L 75.493721 363.434927 
L 78.63149 360.55936 
L 81.76926 357.651924 
L 84.907029 354.716724 
L 88.044799 351.768434 
L 91.182568 348.825646 
L 94.320337 345.89076 
L 97.458107 342.953726 
L 100.595876 340.029662 
L 103.733646 337.131924 
L 106.871415 334.238581 
L 110.009185 331.363188 
L 113.146954 328.492517 
L 116.284724 325.60334 
L 119.422493 322.688534 
L 122.560262 319.762734 
L 125.698032 316.840741 
L 128.835801 313.914449 
L 131.973571 310.961412 
L 135.11134 307.990664 
L 138.24911 305.010364 
L 141.386879 302.003567 
L 144.524649 298.967521 
L 147.662418 295.899258 
L 150.800187 292.810369 
L 153.937957 289.707714 
L 157.075726 286.597964 
L 160.213496 283.439326 
L 163.351265 280.248264 
L 166.489035 277.055162 
L 169.626804 273.863862 
L 172.764574 270.68655 
L 175.902343 267.516605 
L 179.040112 264.358661 
L 182.177882 261.216212 
L 185.315651 258.080319 
L 188.453421 254.934852 
L 191.59119 251.7869 
L 194.72896 248.643305 
L 197.866729 245.510538 
L 201.004499 242.360655 
L 204.142268 239.174306 
L 207.280037 235.968347 
L 210.417807 232.778827 
L 213.555576 229.617944 
L 216.693346 226.456115 
L 219.831115 223.273302 
L 222.968885 220.081791 
L 226.106654 216.882547 
L 229.244424 213.674782 
L 232.382193 210.463233 
L 235.519963 207.247678 
L 238.657732 204.04851 
L 241.795501 200.85805 
L 244.933271 197.634603 
L 248.07104 194.409272 
L 251.20881 191.225986 
L 254.346579 188.063624 
L 257.484349 184.923346 
L 260.622118 181.780453 
L 263.759888 178.660636 
L 266.897657 175.558463 
L 270.035426 172.481463 
L 273.173196 169.405267 
L 276.310965 166.324191 
L 279.448735 163.21322 
L 282.586504 160.074403 
L 285.724274 156.907303 
L 288.862043 153.706784 
L 291.999813 150.465387 
L 295.137582 147.192772 
L 298.275351 143.932411 
L 301.413121 140.682122 
L 304.55089 137.416082 
L 307.68866 134.122921 
L 310.826429 130.845252 
L 313.964199 127.578443 
L 317.101968 124.321485 
L 320.239738 121.09924 
L 323.377507 117.915798 
L 326.515276 114.742299 
L 329.653046 111.550965 
L 332.790815 108.360634 
L 335.928585 105.185798 
L 339.066354 102.024364 
L 342.204124 98.846236 
L 345.341893 95.688222 
L 348.479663 92.533233 
L 351.617432 89.389934 
L 354.755201 86.241903 
L 357.892971 83.041066 
L 361.03074 79.811725 
L 364.16851 76.605264 
L 367.306279 73.421698 
L 370.444049 70.22137 
L 373.581818 66.96 
" style="fill:none;stroke:#55a868;stroke-linecap:round;stroke-width:1.5;"/>
   </g>
   <g id="line2d_17">
    <path clip-path="url(#p64d350ab4a)" d="M 317.101968 384.48 
L 317.101968 51.84 
" style="fill:none;stroke:#4c72b0;stroke-linecap:round;stroke-width:1.5;"/>
   </g>
   <g id="patch_3">
    <path d="M 54 384.48 
L 54 51.84 
" style="fill:none;stroke:#ffffff;stroke-linecap:square;stroke-linejoin:miter;stroke-width:1.25;"/>
   </g>
   <g id="patch_4">
    <path d="M 388.8 384.48 
L 388.8 51.84 
" style="fill:none;stroke:#ffffff;stroke-linecap:square;stroke-linejoin:miter;stroke-width:1.25;"/>
   </g>
   <g id="patch_5">
    <path d="M 54 384.48 
L 388.8 384.48 
" style="fill:none;stroke:#ffffff;stroke-linecap:square;stroke-linejoin:miter;stroke-width:1.25;"/>
   </g>
   <g id="patch_6">
    <path d="M 54 51.84 
L 388.8 51.84 
" style="fill:none;stroke:#ffffff;stroke-linecap:square;stroke-linejoin:miter;stroke-width:1.25;"/>
   </g>
   <g id="legend_1">
    <g id="patch_7">
     <path d="M 61.7 109.144844 
L 237.92 109.144844 
Q 240.12 109.144844 240.12 106.944844 
L 240.12 59.54 
Q 240.12 57.34 237.92 57.34 
L 61.7 57.34 
Q 59.5 57.34 59.5 59.54 
L 59.5 106.944844 
Q 59.5 109.144844 61.7 109.144844 
z
" style="fill:#eaeaf2;opacity:0.8;stroke:#cccccc;stroke-linejoin:miter;"/>
    </g>
    <g id="line2d_18">
     <path d="M 63.9 66.248281 
L 85.9 66.248281 
" style="fill:none;stroke:#4c72b0;stroke-linecap:round;stroke-width:1.5;"/>
    </g>
    <g id="line2d_19"/>
    <g id="text_14">
     <!-- $D = 0.092$, $ T = 1.0, \rho = 0.7 $ -->
     <g style="fill:#262626;" transform="translate(94.7 70.098281)scale(0.11 -0.11)">
      <defs>
       <path d="M 16.890625 72.90625 
L 38.09375 72.90625 
Q 54.984375 72.90625 63.59375 65.75 
Q 72.21875 58.59375 72.21875 44.484375 
Q 72.21875 35.15625 68.9375 26.53125 
Q 65.671875 17.921875 59.90625 12.015625 
Q 54.109375 5.953125 45.171875 2.96875 
Q 36.234375 0 24.03125 0 
L 2.6875 0 
z
M 25.203125 64.796875 
L 14.203125 8.109375 
L 27.09375 8.109375 
Q 43.65625 8.109375 52.734375 17.625 
Q 61.8125 27.15625 61.8125 44.484375 
Q 61.8125 54.984375 55.953125 59.890625 
Q 50.09375 64.796875 37.59375 64.796875 
z
" id="DejaVuSans-Oblique-68"/>
       <path d="M 10.59375 45.40625 
L 73.1875 45.40625 
L 73.1875 37.203125 
L 10.59375 37.203125 
z
M 10.59375 25.484375 
L 73.1875 25.484375 
L 73.1875 17.1875 
L 10.59375 17.1875 
z
" id="DejaVuSans-61"/>
       <path d="M 10.6875 12.40625 
L 21 12.40625 
L 21 0 
L 10.6875 0 
z
" id="DejaVuSans-46"/>
       <path d="M 10.984375 1.515625 
L 10.984375 10.5 
Q 14.703125 8.734375 18.5 7.8125 
Q 22.3125 6.890625 25.984375 6.890625 
Q 35.75 6.890625 40.890625 13.453125 
Q 46.046875 20.015625 46.78125 33.40625 
Q 43.953125 29.203125 39.59375 26.953125 
Q 35.25 24.703125 29.984375 24.703125 
Q 19.046875 24.703125 12.671875 31.3125 
Q 6.296875 37.9375 6.296875 49.421875 
Q 6.296875 60.640625 12.9375 67.421875 
Q 19.578125 74.21875 30.609375 74.21875 
Q 43.265625 74.21875 49.921875 64.515625 
Q 56.59375 54.828125 56.59375 36.375 
Q 56.59375 19.140625 48.40625 8.859375 
Q 40.234375 -1.421875 26.421875 -1.421875 
Q 22.703125 -1.421875 18.890625 -0.6875 
Q 15.09375 0.046875 10.984375 1.515625 
z
M 30.609375 32.421875 
Q 37.25 32.421875 41.125 36.953125 
Q 45.015625 41.5 45.015625 49.421875 
Q 45.015625 57.28125 41.125 61.84375 
Q 37.25 66.40625 30.609375 66.40625 
Q 23.96875 66.40625 20.09375 61.84375 
Q 16.21875 57.28125 16.21875 49.421875 
Q 16.21875 41.5 20.09375 36.953125 
Q 23.96875 32.421875 30.609375 32.421875 
z
" id="DejaVuSans-57"/>
       <path d="M 11.71875 12.40625 
L 22.015625 12.40625 
L 22.015625 4 
L 14.015625 -11.625 
L 7.71875 -11.625 
L 11.71875 4 
z
" id="DejaVuSans-44"/>
       <path id="DejaVuSans-32"/>
       <path d="M 5.90625 72.90625 
L 67.578125 72.90625 
L 66.015625 64.59375 
L 39.984375 64.59375 
L 27.484375 0 
L 17.578125 0 
L 30.078125 64.59375 
L 4.296875 64.59375 
z
" id="DejaVuSans-Oblique-84"/>
       <path d="M 18.796875 44.921875 
Q 22.703125 49.90625 30.953125 54.296875 
Q 34.1875 56 43.0625 56 
Q 53.03125 56 57.71875 48.09375 
Q 62.40625 40.1875 59.90625 27.296875 
Q 57.375 14.40625 49.609375 6.484375 
Q 41.84375 -1.421875 31.890625 -1.421875 
Q 25.875 -1.421875 22.015625 0.984375 
Q 18.171875 3.328125 16.3125 8.203125 
L 10.640625 -20.796875 
L 1.609375 -20.796875 
L 10.890625 26.8125 
Q 13.09375 38.09375 18.796875 44.921875 
z
M 50.59375 27.296875 
Q 52.484375 37.203125 49.515625 42.875 
Q 46.53125 48.484375 39.40625 48.484375 
Q 32.28125 48.484375 27.09375 42.875 
Q 21.921875 37.203125 20.015625 27.296875 
Q 18.0625 17.390625 21.046875 11.71875 
Q 24.03125 6.109375 31.15625 6.109375 
Q 38.28125 6.109375 43.453125 11.71875 
Q 48.640625 17.390625 50.59375 27.296875 
z
" id="DejaVuSans-Oblique-961"/>
       <path d="M 8.203125 72.90625 
L 55.078125 72.90625 
L 55.078125 68.703125 
L 28.609375 0 
L 18.3125 0 
L 43.21875 64.59375 
L 8.203125 64.59375 
z
" id="DejaVuSans-55"/>
      </defs>
      <use transform="translate(0 0.78125)" xlink:href="#DejaVuSans-Oblique-68"/>
      <use transform="translate(96.484375 0.78125)" xlink:href="#DejaVuSans-61"/>
      <use transform="translate(199.755859 0.78125)" xlink:href="#DejaVuSans-48"/>
      <use transform="translate(263.378906 0.78125)" xlink:href="#DejaVuSans-46"/>
      <use transform="translate(295.166016 0.78125)" xlink:href="#DejaVuSans-48"/>
      <use transform="translate(358.789062 0.78125)" xlink:href="#DejaVuSans-57"/>
      <use transform="translate(420.662109 0.78125)" xlink:href="#DejaVuSans-50"/>
      <use transform="translate(484.285156 0.78125)" xlink:href="#DejaVuSans-44"/>
      <use transform="translate(516.072266 0.78125)" xlink:href="#DejaVuSans-32"/>
      <use transform="translate(547.859375 0.78125)" xlink:href="#DejaVuSans-Oblique-84"/>
      <use transform="translate(628.425781 0.78125)" xlink:href="#DejaVuSans-61"/>
      <use transform="translate(731.697266 0.78125)" xlink:href="#DejaVuSans-49"/>
      <use transform="translate(795.320312 0.78125)" xlink:href="#DejaVuSans-46"/>
      <use transform="translate(827.107422 0.78125)" xlink:href="#DejaVuSans-48"/>
      <use transform="translate(890.730469 0.78125)" xlink:href="#DejaVuSans-44"/>
      <use transform="translate(942 0.78125)" xlink:href="#DejaVuSans-Oblique-961"/>
      <use transform="translate(1024.958984 0.78125)" xlink:href="#DejaVuSans-61"/>
      <use transform="translate(1128.230469 0.78125)" xlink:href="#DejaVuSans-48"/>
      <use transform="translate(1191.853516 0.78125)" xlink:href="#DejaVuSans-46"/>
      <use transform="translate(1215.890625 0.78125)" xlink:href="#DejaVuSans-55"/>
     </g>
    </g>
    <g id="line2d_20">
     <path d="M 63.9 82.416562 
L 85.9 82.416562 
" style="fill:none;stroke:#dd8452;stroke-linecap:round;stroke-width:1.5;"/>
    </g>
    <g id="line2d_21"/>
    <g id="text_15">
     <!-- $D = 0.119$, $ T = 1.5, \rho = 0.7 $ -->
     <g style="fill:#262626;" transform="translate(94.7 86.266562)scale(0.11 -0.11)">
      <defs>
       <path d="M 10.796875 72.90625 
L 49.515625 72.90625 
L 49.515625 64.59375 
L 19.828125 64.59375 
L 19.828125 46.734375 
Q 21.96875 47.46875 24.109375 47.828125 
Q 26.265625 48.1875 28.421875 48.1875 
Q 40.625 48.1875 47.75 41.5 
Q 54.890625 34.8125 54.890625 23.390625 
Q 54.890625 11.625 47.5625 5.09375 
Q 40.234375 -1.421875 26.90625 -1.421875 
Q 22.3125 -1.421875 17.546875 -0.640625 
Q 12.796875 0.140625 7.71875 1.703125 
L 7.71875 11.625 
Q 12.109375 9.234375 16.796875 8.0625 
Q 21.484375 6.890625 26.703125 6.890625 
Q 35.15625 6.890625 40.078125 11.328125 
Q 45.015625 15.765625 45.015625 23.390625 
Q 45.015625 31 40.078125 35.4375 
Q 35.15625 39.890625 26.703125 39.890625 
Q 22.75 39.890625 18.8125 39.015625 
Q 14.890625 38.140625 10.796875 36.28125 
z
" id="DejaVuSans-53"/>
      </defs>
      <use transform="translate(0 0.78125)" xlink:href="#DejaVuSans-Oblique-68"/>
      <use transform="translate(96.484375 0.78125)" xlink:href="#DejaVuSans-61"/>
      <use transform="translate(199.755859 0.78125)" xlink:href="#DejaVuSans-48"/>
      <use transform="translate(263.378906 0.78125)" xlink:href="#DejaVuSans-46"/>
      <use transform="translate(295.166016 0.78125)" xlink:href="#DejaVuSans-49"/>
      <use transform="translate(358.789062 0.78125)" xlink:href="#DejaVuSans-49"/>
      <use transform="translate(422.412109 0.78125)" xlink:href="#DejaVuSans-57"/>
      <use transform="translate(486.035156 0.78125)" xlink:href="#DejaVuSans-44"/>
      <use transform="translate(517.822266 0.78125)" xlink:href="#DejaVuSans-32"/>
      <use transform="translate(549.609375 0.78125)" xlink:href="#DejaVuSans-Oblique-84"/>
      <use transform="translate(630.175781 0.78125)" xlink:href="#DejaVuSans-61"/>
      <use transform="translate(733.447266 0.78125)" xlink:href="#DejaVuSans-49"/>
      <use transform="translate(797.070312 0.78125)" xlink:href="#DejaVuSans-46"/>
      <use transform="translate(828.857422 0.78125)" xlink:href="#DejaVuSans-53"/>
      <use transform="translate(892.480469 0.78125)" xlink:href="#DejaVuSans-44"/>
      <use transform="translate(943.75 0.78125)" xlink:href="#DejaVuSans-Oblique-961"/>
      <use transform="translate(1026.708984 0.78125)" xlink:href="#DejaVuSans-61"/>
      <use transform="translate(1129.980469 0.78125)" xlink:href="#DejaVuSans-48"/>
      <use transform="translate(1193.603516 0.78125)" xlink:href="#DejaVuSans-46"/>
      <use transform="translate(1217.640625 0.78125)" xlink:href="#DejaVuSans-55"/>
     </g>
    </g>
    <g id="line2d_22">
     <path d="M 63.9 98.584844 
L 85.9 98.584844 
" style="fill:none;stroke:#55a868;stroke-linecap:round;stroke-width:1.5;"/>
    </g>
    <g id="line2d_23"/>
    <g id="text_16">
     <!-- $D = 0.153$, $ T = 2.0, \rho = 0.7 $ -->
     <g style="fill:#262626;" transform="translate(94.7 102.434844)scale(0.11 -0.11)">
      <defs>
       <path d="M 40.578125 39.3125 
Q 47.65625 37.796875 51.625 33 
Q 55.609375 28.21875 55.609375 21.1875 
Q 55.609375 10.40625 48.1875 4.484375 
Q 40.765625 -1.421875 27.09375 -1.421875 
Q 22.515625 -1.421875 17.65625 -0.515625 
Q 12.796875 0.390625 7.625 2.203125 
L 7.625 11.71875 
Q 11.71875 9.328125 16.59375 8.109375 
Q 21.484375 6.890625 26.8125 6.890625 
Q 36.078125 6.890625 40.9375 10.546875 
Q 45.796875 14.203125 45.796875 21.1875 
Q 45.796875 27.640625 41.28125 31.265625 
Q 36.765625 34.90625 28.71875 34.90625 
L 20.21875 34.90625 
L 20.21875 43.015625 
L 29.109375 43.015625 
Q 36.375 43.015625 40.234375 45.921875 
Q 44.09375 48.828125 44.09375 54.296875 
Q 44.09375 59.90625 40.109375 62.90625 
Q 36.140625 65.921875 28.71875 65.921875 
Q 24.65625 65.921875 20.015625 65.03125 
Q 15.375 64.15625 9.8125 62.3125 
L 9.8125 71.09375 
Q 15.4375 72.65625 20.34375 73.4375 
Q 25.25 74.21875 29.59375 74.21875 
Q 40.828125 74.21875 47.359375 69.109375 
Q 53.90625 64.015625 53.90625 55.328125 
Q 53.90625 49.265625 50.4375 45.09375 
Q 46.96875 40.921875 40.578125 39.3125 
z
" id="DejaVuSans-51"/>
      </defs>
      <use transform="translate(0 0.78125)" xlink:href="#DejaVuSans-Oblique-68"/>
      <use transform="translate(96.484375 0.78125)" xlink:href="#DejaVuSans-61"/>
      <use transform="translate(199.755859 0.78125)" xlink:href="#DejaVuSans-48"/>
      <use transform="translate(263.378906 0.78125)" xlink:href="#DejaVuSans-46"/>
      <use transform="translate(295.166016 0.78125)" xlink:href="#DejaVuSans-49"/>
      <use transform="translate(358.789062 0.78125)" xlink:href="#DejaVuSans-53"/>
      <use transform="translate(422.412109 0.78125)" xlink:href="#DejaVuSans-51"/>
      <use transform="translate(486.035156 0.78125)" xlink:href="#DejaVuSans-44"/>
      <use transform="translate(517.822266 0.78125)" xlink:href="#DejaVuSans-32"/>
      <use transform="translate(549.609375 0.78125)" xlink:href="#DejaVuSans-Oblique-84"/>
      <use transform="translate(630.175781 0.78125)" xlink:href="#DejaVuSans-61"/>
      <use transform="translate(733.447266 0.78125)" xlink:href="#DejaVuSans-50"/>
      <use transform="translate(797.070312 0.78125)" xlink:href="#DejaVuSans-46"/>
      <use transform="translate(828.857422 0.78125)" xlink:href="#DejaVuSans-48"/>
      <use transform="translate(892.480469 0.78125)" xlink:href="#DejaVuSans-44"/>
      <use transform="translate(943.75 0.78125)" xlink:href="#DejaVuSans-Oblique-961"/>
      <use transform="translate(1026.708984 0.78125)" xlink:href="#DejaVuSans-61"/>
      <use transform="translate(1129.980469 0.78125)" xlink:href="#DejaVuSans-48"/>
      <use transform="translate(1193.603516 0.78125)" xlink:href="#DejaVuSans-46"/>
      <use transform="translate(1217.640625 0.78125)" xlink:href="#DejaVuSans-55"/>
     </g>
    </g>
   </g>
  </g>
 </g>
 <defs>
  <clipPath id="p64d350ab4a">
   <rect height="332.64" width="334.8" x="54" y="51.84"/>
  </clipPath>
 </defs>
</svg>
