<?xml version="1.0" encoding="utf-8" standalone="no"?>
<!DOCTYPE svg PUBLIC "-//W3C//DTD SVG 1.1//EN"
  "http://www.w3.org/Graphics/SVG/1.1/DTD/svg11.dtd">
<!-- Created with matplotlib (https://matplotlib.org/) -->
<svg height="432pt" version="1.1" viewBox="0 0 432 432" width="432pt" xmlns="http://www.w3.org/2000/svg" xmlns:xlink="http://www.w3.org/1999/xlink">
 <metadata>
  <rdf:RDF xmlns:cc="http://creativecommons.org/ns#" xmlns:dc="http://purl.org/dc/elements/1.1/" xmlns:rdf="http://www.w3.org/1999/02/22-rdf-syntax-ns#">
   <cc:Work>
    <dc:type rdf:resource="http://purl.org/dc/dcmitype/StillImage"/>
    <dc:date>2021-03-18T22:00:20.120435</dc:date>
    <dc:format>image/svg+xml</dc:format>
    <dc:creator>
     <cc:Agent>
      <dc:title>Matplotlib v3.3.3, https://matplotlib.org/</dc:title>
     </cc:Agent>
    </dc:creator>
   </cc:Work>
  </rdf:RDF>
 </metadata>
 <defs>
  <style type="text/css">*{stroke-linecap:butt;stroke-linejoin:round;}</style>
 </defs>
 <g id="figure_1">
  <g id="patch_1">
   <path d="M 0 432 
L 432 432 
L 432 0 
L 0 0 
z
" style="fill:#ffffff;"/>
  </g>
  <g id="axes_1">
   <g id="patch_2">
    <path d="M 54 384.48 
L 388.8 384.48 
L 388.8 51.84 
L 54 51.84 
z
" style="fill:#eaeaf2;"/>
   </g>
   <g id="matplotlib.axis_1">
    <g id="xtick_1">
     <g id="line2d_1">
      <path clip-path="url(#p6b1783a2d7)" d="M 69.218182 384.48 
L 69.218182 51.84 
" style="fill:none;stroke:#ffffff;stroke-linecap:round;"/>
     </g>
     <g id="text_1">
      <!-- 0 -->
      <g style="fill:#262626;" transform="translate(65.718807 402.338281)scale(0.11 -0.11)">
       <defs>
        <path d="M 31.78125 66.40625 
Q 24.171875 66.40625 20.328125 58.90625 
Q 16.5 51.421875 16.5 36.375 
Q 16.5 21.390625 20.328125 13.890625 
Q 24.171875 6.390625 31.78125 6.390625 
Q 39.453125 6.390625 43.28125 13.890625 
Q 47.125 21.390625 47.125 36.375 
Q 47.125 51.421875 43.28125 58.90625 
Q 39.453125 66.40625 31.78125 66.40625 
z
M 31.78125 74.21875 
Q 44.046875 74.21875 50.515625 64.515625 
Q 56.984375 54.828125 56.984375 36.375 
Q 56.984375 17.96875 50.515625 8.265625 
Q 44.046875 -1.421875 31.78125 -1.421875 
Q 19.53125 -1.421875 13.0625 8.265625 
Q 6.59375 17.96875 6.59375 36.375 
Q 6.59375 54.828125 13.0625 64.515625 
Q 19.53125 74.21875 31.78125 74.21875 
z
" id="DejaVuSans-48"/>
       </defs>
       <use xlink:href="#DejaVuSans-48"/>
      </g>
     </g>
    </g>
    <g id="xtick_2">
     <g id="line2d_2">
      <path clip-path="url(#p6b1783a2d7)" d="M 129.915071 384.48 
L 129.915071 51.84 
" style="fill:none;stroke:#ffffff;stroke-linecap:round;"/>
     </g>
     <g id="text_2">
      <!-- 1 -->
      <g style="fill:#262626;" transform="translate(126.415696 402.338281)scale(0.11 -0.11)">
       <defs>
        <path d="M 12.40625 8.296875 
L 28.515625 8.296875 
L 28.515625 63.921875 
L 10.984375 60.40625 
L 10.984375 69.390625 
L 28.421875 72.90625 
L 38.28125 72.90625 
L 38.28125 8.296875 
L 54.390625 8.296875 
L 54.390625 0 
L 12.40625 0 
z
" id="DejaVuSans-49"/>
       </defs>
       <use xlink:href="#DejaVuSans-49"/>
      </g>
     </g>
    </g>
    <g id="xtick_3">
     <g id="line2d_3">
      <path clip-path="url(#p6b1783a2d7)" d="M 190.611959 384.48 
L 190.611959 51.84 
" style="fill:none;stroke:#ffffff;stroke-linecap:round;"/>
     </g>
     <g id="text_3">
      <!-- 2 -->
      <g style="fill:#262626;" transform="translate(187.112584 402.338281)scale(0.11 -0.11)">
       <defs>
        <path d="M 19.1875 8.296875 
L 53.609375 8.296875 
L 53.609375 0 
L 7.328125 0 
L 7.328125 8.296875 
Q 12.9375 14.109375 22.625 23.890625 
Q 32.328125 33.6875 34.8125 36.53125 
Q 39.546875 41.84375 41.421875 45.53125 
Q 43.3125 49.21875 43.3125 52.78125 
Q 43.3125 58.59375 39.234375 62.25 
Q 35.15625 65.921875 28.609375 65.921875 
Q 23.96875 65.921875 18.8125 64.3125 
Q 13.671875 62.703125 7.8125 59.421875 
L 7.8125 69.390625 
Q 13.765625 71.78125 18.9375 73 
Q 24.125 74.21875 28.421875 74.21875 
Q 39.75 74.21875 46.484375 68.546875 
Q 53.21875 62.890625 53.21875 53.421875 
Q 53.21875 48.921875 51.53125 44.890625 
Q 49.859375 40.875 45.40625 35.40625 
Q 44.1875 33.984375 37.640625 27.21875 
Q 31.109375 20.453125 19.1875 8.296875 
z
" id="DejaVuSans-50"/>
       </defs>
       <use xlink:href="#DejaVuSans-50"/>
      </g>
     </g>
    </g>
    <g id="xtick_4">
     <g id="line2d_4">
      <path clip-path="url(#p6b1783a2d7)" d="M 251.308848 384.48 
L 251.308848 51.84 
" style="fill:none;stroke:#ffffff;stroke-linecap:round;"/>
     </g>
     <g id="text_4">
      <!-- 3 -->
      <g style="fill:#262626;" transform="translate(247.809473 402.338281)scale(0.11 -0.11)">
       <defs>
        <path d="M 40.578125 39.3125 
Q 47.65625 37.796875 51.625 33 
Q 55.609375 28.21875 55.609375 21.1875 
Q 55.609375 10.40625 48.1875 4.484375 
Q 40.765625 -1.421875 27.09375 -1.421875 
Q 22.515625 -1.421875 17.65625 -0.515625 
Q 12.796875 0.390625 7.625 2.203125 
L 7.625 11.71875 
Q 11.71875 9.328125 16.59375 8.109375 
Q 21.484375 6.890625 26.8125 6.890625 
Q 36.078125 6.890625 40.9375 10.546875 
Q 45.796875 14.203125 45.796875 21.1875 
Q 45.796875 27.640625 41.28125 31.265625 
Q 36.765625 34.90625 28.71875 34.90625 
L 20.21875 34.90625 
L 20.21875 43.015625 
L 29.109375 43.015625 
Q 36.375 43.015625 40.234375 45.921875 
Q 44.09375 48.828125 44.09375 54.296875 
Q 44.09375 59.90625 40.109375 62.90625 
Q 36.140625 65.921875 28.71875 65.921875 
Q 24.65625 65.921875 20.015625 65.03125 
Q 15.375 64.15625 9.8125 62.3125 
L 9.8125 71.09375 
Q 15.4375 72.65625 20.34375 73.4375 
Q 25.25 74.21875 29.59375 74.21875 
Q 40.828125 74.21875 47.359375 69.109375 
Q 53.90625 64.015625 53.90625 55.328125 
Q 53.90625 49.265625 50.4375 45.09375 
Q 46.96875 40.921875 40.578125 39.3125 
z
" id="DejaVuSans-51"/>
       </defs>
       <use xlink:href="#DejaVuSans-51"/>
      </g>
     </g>
    </g>
    <g id="xtick_5">
     <g id="line2d_5">
      <path clip-path="url(#p6b1783a2d7)" d="M 312.005737 384.48 
L 312.005737 51.84 
" style="fill:none;stroke:#ffffff;stroke-linecap:round;"/>
     </g>
     <g id="text_5">
      <!-- 4 -->
      <g style="fill:#262626;" transform="translate(308.506362 402.338281)scale(0.11 -0.11)">
       <defs>
        <path d="M 37.796875 64.3125 
L 12.890625 25.390625 
L 37.796875 25.390625 
z
M 35.203125 72.90625 
L 47.609375 72.90625 
L 47.609375 25.390625 
L 58.015625 25.390625 
L 58.015625 17.1875 
L 47.609375 17.1875 
L 47.609375 0 
L 37.796875 0 
L 37.796875 17.1875 
L 4.890625 17.1875 
L 4.890625 26.703125 
z
" id="DejaVuSans-52"/>
       </defs>
       <use xlink:href="#DejaVuSans-52"/>
      </g>
     </g>
    </g>
    <g id="xtick_6">
     <g id="line2d_6">
      <path clip-path="url(#p6b1783a2d7)" d="M 372.702626 384.48 
L 372.702626 51.84 
" style="fill:none;stroke:#ffffff;stroke-linecap:round;"/>
     </g>
     <g id="text_6">
      <!-- 5 -->
      <g style="fill:#262626;" transform="translate(369.203251 402.338281)scale(0.11 -0.11)">
       <defs>
        <path d="M 10.796875 72.90625 
L 49.515625 72.90625 
L 49.515625 64.59375 
L 19.828125 64.59375 
L 19.828125 46.734375 
Q 21.96875 47.46875 24.109375 47.828125 
Q 26.265625 48.1875 28.421875 48.1875 
Q 40.625 48.1875 47.75 41.5 
Q 54.890625 34.8125 54.890625 23.390625 
Q 54.890625 11.625 47.5625 5.09375 
Q 40.234375 -1.421875 26.90625 -1.421875 
Q 22.3125 -1.421875 17.546875 -0.640625 
Q 12.796875 0.140625 7.71875 1.703125 
L 7.71875 11.625 
Q 12.109375 9.234375 16.796875 8.0625 
Q 21.484375 6.890625 26.703125 6.890625 
Q 35.15625 6.890625 40.078125 11.328125 
Q 45.015625 15.765625 45.015625 23.390625 
Q 45.015625 31 40.078125 35.4375 
Q 35.15625 39.890625 26.703125 39.890625 
Q 22.75 39.890625 18.8125 39.015625 
Q 14.890625 38.140625 10.796875 36.28125 
z
" id="DejaVuSans-53"/>
       </defs>
       <use xlink:href="#DejaVuSans-53"/>
      </g>
     </g>
    </g>
    <g id="text_7">
     <!-- $r$ -->
     <g style="fill:#262626;" transform="translate(218.88 417.744062)scale(0.12 -0.12)">
      <defs>
       <path d="M 44.578125 46.390625 
Q 43.21875 47.125 41.453125 47.515625 
Q 39.703125 47.90625 37.703125 47.90625 
Q 30.515625 47.90625 25.140625 42.453125 
Q 19.78125 37.015625 18.015625 27.875 
L 12.5 0 
L 3.515625 0 
L 14.203125 54.6875 
L 23.1875 54.6875 
L 21.484375 46.1875 
Q 25.046875 50.921875 30 53.453125 
Q 34.96875 56 40.578125 56 
Q 42.046875 56 43.453125 55.828125 
Q 44.875 55.671875 46.296875 55.28125 
z
" id="DejaVuSans-Oblique-114"/>
      </defs>
      <use xlink:href="#DejaVuSans-Oblique-114"/>
     </g>
    </g>
   </g>
   <g id="matplotlib.axis_2">
    <g id="ytick_1">
     <g id="line2d_7">
      <path clip-path="url(#p6b1783a2d7)" d="M 54 369.36 
L 388.8 369.36 
" style="fill:none;stroke:#ffffff;stroke-linecap:round;"/>
     </g>
     <g id="text_8">
      <!-- 0.0 -->
      <g style="fill:#262626;" transform="translate(27.006563 373.539141)scale(0.11 -0.11)">
       <defs>
        <path d="M 10.6875 12.40625 
L 21 12.40625 
L 21 0 
L 10.6875 0 
z
" id="DejaVuSans-46"/>
       </defs>
       <use xlink:href="#DejaVuSans-48"/>
       <use x="63.623047" xlink:href="#DejaVuSans-46"/>
       <use x="95.410156" xlink:href="#DejaVuSans-48"/>
      </g>
     </g>
    </g>
    <g id="ytick_2">
     <g id="line2d_8">
      <path clip-path="url(#p6b1783a2d7)" d="M 54 327.610261 
L 388.8 327.610261 
" style="fill:none;stroke:#ffffff;stroke-linecap:round;"/>
     </g>
     <g id="text_9">
      <!-- 2.5 -->
      <g style="fill:#262626;" transform="translate(27.006563 331.789402)scale(0.11 -0.11)">
       <use xlink:href="#DejaVuSans-50"/>
       <use x="63.623047" xlink:href="#DejaVuSans-46"/>
       <use x="95.410156" xlink:href="#DejaVuSans-53"/>
      </g>
     </g>
    </g>
    <g id="ytick_3">
     <g id="line2d_9">
      <path clip-path="url(#p6b1783a2d7)" d="M 54 285.860523 
L 388.8 285.860523 
" style="fill:none;stroke:#ffffff;stroke-linecap:round;"/>
     </g>
     <g id="text_10">
      <!-- 5.0 -->
      <g style="fill:#262626;" transform="translate(27.006563 290.039664)scale(0.11 -0.11)">
       <use xlink:href="#DejaVuSans-53"/>
       <use x="63.623047" xlink:href="#DejaVuSans-46"/>
       <use x="95.410156" xlink:href="#DejaVuSans-48"/>
      </g>
     </g>
    </g>
    <g id="ytick_4">
     <g id="line2d_10">
      <path clip-path="url(#p6b1783a2d7)" d="M 54 244.110784 
L 388.8 244.110784 
" style="fill:none;stroke:#ffffff;stroke-linecap:round;"/>
     </g>
     <g id="text_11">
      <!-- 7.5 -->
      <g style="fill:#262626;" transform="translate(27.006563 248.289925)scale(0.11 -0.11)">
       <defs>
        <path d="M 8.203125 72.90625 
L 55.078125 72.90625 
L 55.078125 68.703125 
L 28.609375 0 
L 18.3125 0 
L 43.21875 64.59375 
L 8.203125 64.59375 
z
" id="DejaVuSans-55"/>
       </defs>
       <use xlink:href="#DejaVuSans-55"/>
       <use x="63.623047" xlink:href="#DejaVuSans-46"/>
       <use x="95.410156" xlink:href="#DejaVuSans-53"/>
      </g>
     </g>
    </g>
    <g id="ytick_5">
     <g id="line2d_11">
      <path clip-path="url(#p6b1783a2d7)" d="M 54 202.361046 
L 388.8 202.361046 
" style="fill:none;stroke:#ffffff;stroke-linecap:round;"/>
     </g>
     <g id="text_12">
      <!-- 10.0 -->
      <g style="fill:#262626;" transform="translate(20.007812 206.540186)scale(0.11 -0.11)">
       <use xlink:href="#DejaVuSans-49"/>
       <use x="63.623047" xlink:href="#DejaVuSans-48"/>
       <use x="127.246094" xlink:href="#DejaVuSans-46"/>
       <use x="159.033203" xlink:href="#DejaVuSans-48"/>
      </g>
     </g>
    </g>
    <g id="ytick_6">
     <g id="line2d_12">
      <path clip-path="url(#p6b1783a2d7)" d="M 54 160.611307 
L 388.8 160.611307 
" style="fill:none;stroke:#ffffff;stroke-linecap:round;"/>
     </g>
     <g id="text_13">
      <!-- 12.5 -->
      <g style="fill:#262626;" transform="translate(20.007812 164.790448)scale(0.11 -0.11)">
       <use xlink:href="#DejaVuSans-49"/>
       <use x="63.623047" xlink:href="#DejaVuSans-50"/>
       <use x="127.246094" xlink:href="#DejaVuSans-46"/>
       <use x="159.033203" xlink:href="#DejaVuSans-53"/>
      </g>
     </g>
    </g>
    <g id="ytick_7">
     <g id="line2d_13">
      <path clip-path="url(#p6b1783a2d7)" d="M 54 118.861569 
L 388.8 118.861569 
" style="fill:none;stroke:#ffffff;stroke-linecap:round;"/>
     </g>
     <g id="text_14">
      <!-- 15.0 -->
      <g style="fill:#262626;" transform="translate(20.007812 123.040709)scale(0.11 -0.11)">
       <use xlink:href="#DejaVuSans-49"/>
       <use x="63.623047" xlink:href="#DejaVuSans-53"/>
       <use x="127.246094" xlink:href="#DejaVuSans-46"/>
       <use x="159.033203" xlink:href="#DejaVuSans-48"/>
      </g>
     </g>
    </g>
    <g id="ytick_8">
     <g id="line2d_14">
      <path clip-path="url(#p6b1783a2d7)" d="M 54 77.11183 
L 388.8 77.11183 
" style="fill:none;stroke:#ffffff;stroke-linecap:round;"/>
     </g>
     <g id="text_15">
      <!-- 17.5 -->
      <g style="fill:#262626;" transform="translate(20.007812 81.290971)scale(0.11 -0.11)">
       <use xlink:href="#DejaVuSans-49"/>
       <use x="63.623047" xlink:href="#DejaVuSans-55"/>
       <use x="127.246094" xlink:href="#DejaVuSans-46"/>
       <use x="159.033203" xlink:href="#DejaVuSans-53"/>
      </g>
     </g>
    </g>
    <g id="text_16">
     <!-- $g(r)$ -->
     <g style="fill:#262626;" transform="translate(13.487813 229.14)rotate(-90)scale(0.12 -0.12)">
      <defs>
       <path d="M 59.625 54.6875 
L 50.296875 6.78125 
Q 47.609375 -7.125 40.015625 -13.953125 
Q 32.421875 -20.796875 19.578125 -20.796875 
Q 14.84375 -20.796875 10.78125 -20.09375 
Q 6.734375 -19.390625 3.21875 -17.921875 
L 4.890625 -9.1875 
Q 8.203125 -11.328125 11.90625 -12.34375 
Q 15.625 -13.375 19.828125 -13.375 
Q 28.375 -13.375 33.859375 -8.703125 
Q 39.359375 -4.046875 41.109375 4.6875 
L 41.890625 8.796875 
Q 38.140625 4.5 33.15625 2.25 
Q 28.171875 0 22.40625 0 
Q 14.109375 0 9.34375 5.484375 
Q 4.59375 10.984375 4.59375 20.609375 
Q 4.59375 28.171875 7.46875 35.421875 
Q 10.359375 42.671875 15.578125 48.296875 
Q 19.046875 52 23.65625 54 
Q 28.265625 56 33.296875 56 
Q 38.8125 56 42.90625 53.4375 
Q 47.015625 50.875 49.03125 46.1875 
L 50.59375 54.6875 
z
M 46.09375 34.625 
Q 46.09375 41.265625 42.96875 44.875 
Q 39.84375 48.484375 34.078125 48.484375 
Q 30.515625 48.484375 27.296875 47.0625 
Q 24.078125 45.65625 21.78125 43.109375 
Q 18.0625 38.921875 15.984375 33.234375 
Q 13.921875 27.546875 13.921875 21.484375 
Q 13.921875 14.75 17.0625 11.125 
Q 20.21875 7.515625 26.125 7.515625 
Q 34.671875 7.515625 40.375 15.25 
Q 46.09375 23 46.09375 34.625 
z
" id="DejaVuSans-Oblique-103"/>
       <path d="M 31 75.875 
Q 24.46875 64.65625 21.28125 53.65625 
Q 18.109375 42.671875 18.109375 31.390625 
Q 18.109375 20.125 21.3125 9.0625 
Q 24.515625 -2 31 -13.1875 
L 23.1875 -13.1875 
Q 15.875 -1.703125 12.234375 9.375 
Q 8.59375 20.453125 8.59375 31.390625 
Q 8.59375 42.28125 12.203125 53.3125 
Q 15.828125 64.359375 23.1875 75.875 
z
" id="DejaVuSans-40"/>
       <path d="M 8.015625 75.875 
L 15.828125 75.875 
Q 23.140625 64.359375 26.78125 53.3125 
Q 30.421875 42.28125 30.421875 31.390625 
Q 30.421875 20.453125 26.78125 9.375 
Q 23.140625 -1.703125 15.828125 -13.1875 
L 8.015625 -13.1875 
Q 14.5 -2 17.703125 9.0625 
Q 20.90625 20.125 20.90625 31.390625 
Q 20.90625 42.671875 17.703125 53.65625 
Q 14.5 64.65625 8.015625 75.875 
z
" id="DejaVuSans-41"/>
      </defs>
      <use transform="translate(0 0.125)" xlink:href="#DejaVuSans-Oblique-103"/>
      <use transform="translate(63.476562 0.125)" xlink:href="#DejaVuSans-40"/>
      <use transform="translate(102.490234 0.125)" xlink:href="#DejaVuSans-Oblique-114"/>
      <use transform="translate(143.603516 0.125)" xlink:href="#DejaVuSans-41"/>
     </g>
    </g>
   </g>
   <g id="line2d_15">
    <path clip-path="url(#p6b1783a2d7)" d="M 69.218182 369.36 
L 102.866423 369.36 
L 104.395889 368.166453 
L 105.925354 369.36 
L 124.27894 369.36 
L 125.808406 366.547428 
L 127.337871 356.018151 
L 128.867337 335.560269 
L 130.396802 321.936834 
L 131.926268 304.674023 
L 133.455733 293.813718 
L 134.985199 299.685638 
L 136.514664 299.452843 
L 138.04413 287.526054 
L 139.573595 306.556301 
L 141.103061 308.880564 
L 142.632526 303.78208 
L 144.161992 66.96 
L 145.691457 245.026324 
L 147.220923 326.609521 
L 148.750388 323.91747 
L 150.279854 335.27352 
L 151.809319 339.398109 
L 153.338785 340.254046 
L 154.86825 335.286531 
L 157.927181 341.429009 
L 159.456647 340.870297 
L 160.986112 341.624198 
L 162.515578 343.215996 
L 164.045043 343.20209 
L 165.574509 341.894121 
L 167.103974 346.542135 
L 168.63344 346.465252 
L 170.162905 344.316302 
L 171.692371 346.210312 
L 173.221836 347.58373 
L 174.751302 344.657431 
L 176.280767 165.103517 
L 177.810233 343.054192 
L 179.339698 345.656114 
L 180.869164 342.879938 
L 182.39863 345.011319 
L 183.928095 342.06693 
L 185.457561 345.704568 
L 186.987026 341.481787 
L 188.516492 341.652635 
L 190.045957 340.67642 
L 191.575423 342.707093 
L 193.104888 339.883465 
L 196.163819 339.198483 
L 199.22275 343.749279 
L 200.752216 307.509858 
L 202.281681 341.376427 
L 203.811147 343.688614 
L 205.340612 341.707823 
L 206.870078 342.154559 
L 208.399543 341.801081 
L 209.929009 342.778955 
L 211.458474 345.682114 
L 212.98794 345.663838 
L 214.517405 343.19393 
L 216.046871 346.4235 
L 217.576336 346.683535 
L 219.105802 343.472541 
L 220.635267 304.770405 
L 222.164733 332.026306 
L 223.694198 346.00403 
L 225.223664 347.775206 
L 226.753129 345.97485 
L 228.282595 349.559389 
L 229.81206 347.859968 
L 231.341526 349.366138 
L 232.870991 348.823658 
L 234.400457 348.696473 
L 235.929922 347.587687 
L 237.459388 349.05977 
L 238.988853 254.081707 
L 240.518319 348.941736 
L 242.047784 348.583512 
L 243.57725 350.453343 
L 245.106715 349.148559 
L 248.165646 347.538807 
L 249.695112 349.407823 
L 251.224577 350.663629 
L 252.754043 350.019235 
L 254.283508 351.89927 
L 255.812974 322.574027 
L 257.342439 350.990671 
L 258.871905 351.114453 
L 260.40137 349.562423 
L 261.930836 351.645627 
L 263.460302 349.489256 
L 264.989767 351.354353 
L 266.519233 353.40029 
L 268.048698 352.598789 
L 269.578164 350.222255 
L 271.107629 352.875668 
L 274.16656 352.924966 
L 275.696026 353.920667 
L 277.225491 352.164704 
L 278.754957 352.448775 
L 280.284422 353.516901 
L 281.813888 353.404468 
L 283.343353 354.298692 
L 284.872819 335.150911 
L 286.402284 352.121334 
L 287.93175 353.737343 
L 289.461215 352.816229 
L 290.990681 352.824876 
L 292.520146 354.247761 
L 294.049612 353.876261 
L 295.579077 354.681976 
L 297.108543 333.522895 
L 298.638008 349.248517 
L 300.167474 354.826697 
L 301.696939 353.400922 
L 303.226405 356.154211 
L 304.75587 356.214137 
L 306.285336 355.292139 
L 307.814801 355.794337 
L 309.344267 355.75345 
L 310.873732 318.8198 
L 312.403198 355.729757 
L 313.932663 355.822302 
L 315.462129 356.141083 
L 316.991594 355.629219 
L 318.52106 356.289878 
L 320.050525 355.912344 
L 321.579991 343.24602 
L 323.109456 355.353612 
L 324.638922 356.248755 
L 327.697853 357.015251 
L 329.227318 356.365928 
L 330.756784 357.570459 
L 332.286249 356.953501 
L 335.34518 357.71255 
L 336.874646 357.63087 
L 339.933577 358.333101 
L 341.463042 357.58732 
L 342.992508 357.431683 
L 344.521974 341.457097 
L 346.051439 358.213424 
L 347.580905 358.038347 
L 349.11037 358.592122 
L 350.639836 358.127541 
L 352.169301 358.497374 
L 353.698767 358.594598 
L 355.228232 350.364684 
L 356.757698 358.617744 
L 358.287163 358.89604 
L 359.816629 359.33259 
L 362.87556 359.290808 
L 364.405025 358.461458 
L 365.934491 359.810491 
L 367.463956 359.787196 
L 368.993422 358.706331 
L 370.522887 359.675881 
L 372.052353 360.00744 
L 373.581818 354.634987 
L 373.581818 354.634987 
" style="fill:none;stroke:#4c72b0;stroke-linecap:round;stroke-width:1.5;"/>
   </g>
   <g id="line2d_16">
    <path clip-path="url(#p6b1783a2d7)" d="M 69.218182 369.36 
L 96.748561 369.36 
L 98.278026 367.62669 
L 99.807492 369.36 
L 108.984285 369.36 
L 110.513751 368.48838 
L 112.043216 369.36 
L 113.572682 368.602548 
L 115.102147 369.36 
L 124.27894 369.36 
L 125.808406 365.609904 
L 127.337871 358.686521 
L 130.396802 332.787898 
L 131.926268 321.8981 
L 133.455733 297.098339 
L 134.985199 302.820984 
L 136.514664 293.460801 
L 138.04413 301.854955 
L 139.573595 308.080663 
L 141.103061 315.600502 
L 142.632526 326.762377 
L 144.161992 75.031174 
L 145.691457 242.182935 
L 147.220923 333.071803 
L 148.750388 329.89675 
L 150.279854 340.801058 
L 151.809319 333.405731 
L 153.338785 341.966161 
L 154.86825 337.764601 
L 156.397716 338.853988 
L 157.927181 343.162657 
L 159.456647 343.849612 
L 160.986112 340.903788 
L 162.515578 343.390289 
L 164.045043 347.421108 
L 165.574509 345.163869 
L 167.103974 344.957561 
L 168.63344 349.384716 
L 170.162905 347.893973 
L 171.692371 347.946539 
L 173.221836 345.195365 
L 174.751302 346.431649 
L 176.280767 167.888833 
L 177.810233 346.406893 
L 179.339698 346.659453 
L 180.869164 342.879938 
L 183.928095 347.965008 
L 185.457561 348.182756 
L 186.987026 346.311084 
L 188.516492 342.936374 
L 190.045957 343.805538 
L 191.575423 345.555495 
L 193.104888 342.364655 
L 194.634354 342.821401 
L 196.163819 340.616736 
L 197.693285 341.108365 
L 199.22275 343.118029 
L 200.752216 308.126597 
L 202.281681 344.217836 
L 203.811147 343.772782 
L 205.340612 344.91745 
L 206.870078 344.810712 
L 208.399543 346.604207 
L 209.929009 342.624862 
L 211.458474 344.098561 
L 212.98794 347.656973 
L 214.517405 344.278159 
L 216.046871 345.220042 
L 217.576336 345.782024 
L 219.105802 346.190384 
L 220.635267 302.306678 
L 222.164733 333.788561 
L 223.694198 350.163312 
L 225.223664 350.222319 
L 226.753129 348.682604 
L 228.282595 347.869093 
L 229.81206 350.406804 
L 231.341526 348.7268 
L 232.870991 348.652522 
L 234.400457 349.312459 
L 235.929922 348.027532 
L 237.459388 349.653659 
L 238.988853 255.195251 
L 240.518319 349.723048 
L 242.047784 351.091019 
L 243.57725 350.051073 
L 245.106715 350.631061 
L 246.636181 350.514058 
L 248.165646 349.257763 
L 252.754043 351.108855 
L 254.283508 349.93438 
L 255.812974 321.475765 
L 257.342439 352.50344 
L 258.871905 352.347835 
L 260.40137 350.357675 
L 261.930836 351.604431 
L 263.460302 350.786937 
L 264.989767 351.074886 
L 268.048698 352.405242 
L 269.578164 352.852742 
L 271.107629 352.68792 
L 272.637095 352.01202 
L 274.16656 353.289379 
L 275.696026 352.053585 
L 277.225491 352.766185 
L 278.754957 353.982989 
L 280.284422 354.238604 
L 281.813888 353.709351 
L 283.343353 354.298692 
L 284.872819 334.887511 
L 286.402284 355.335323 
L 287.93175 354.249561 
L 289.461215 354.363261 
L 290.990681 354.78667 
L 294.049612 352.936934 
L 295.579077 354.084093 
L 297.108543 334.55524 
L 298.638008 347.967902 
L 300.167474 354.453312 
L 301.696939 355.101712 
L 303.226405 356.042298 
L 304.75587 354.971355 
L 306.285336 355.646562 
L 307.814801 354.313957 
L 309.344267 355.487697 
L 310.873732 319.554549 
L 312.403198 356.066626 
L 313.932663 355.668755 
L 316.991594 356.07859 
L 318.52106 355.993951 
L 320.050525 356.472663 
L 321.579991 343.462634 
L 323.109456 356.542609 
L 324.638922 356.248755 
L 326.168387 356.427135 
L 327.697853 358.873847 
L 329.227318 357.023569 
L 330.756784 356.427366 
L 332.286249 357.374435 
L 333.815715 356.767605 
L 335.34518 357.409456 
L 336.874646 356.967361 
L 338.404111 358.440575 
L 339.933577 357.517069 
L 341.463042 358.621826 
L 342.992508 359.048042 
L 344.521974 341.315458 
L 346.051439 358.673696 
L 347.580905 358.473795 
L 349.11037 358.6117 
L 350.639836 358.960292 
L 352.169301 358.095055 
L 353.698767 358.007049 
L 355.228232 349.614622 
L 356.757698 358.840382 
L 359.816629 359.096437 
L 361.346094 358.70001 
L 362.87556 359.059537 
L 364.405025 359.535467 
L 365.934491 359.566526 
L 367.463956 359.787196 
L 368.993422 359.099015 
L 370.522887 359.151958 
L 372.052353 359.555706 
L 373.581818 353.839935 
L 373.581818 353.839935 
" style="fill:none;stroke:#dd8452;stroke-linecap:round;stroke-width:1.5;"/>
   </g>
   <g id="line2d_17">
    <path clip-path="url(#p6b1783a2d7)" d="M 69.218182 369.36 
L 107.45482 369.36 
L 108.984285 368.421364 
L 110.513751 369.36 
L 113.572682 369.36 
L 115.102147 368.651399 
L 116.631613 369.36 
L 122.749475 369.36 
L 124.27894 367.875607 
L 125.808406 365.609904 
L 127.337871 355.573423 
L 128.867337 347.390175 
L 130.396802 336.404919 
L 131.926268 329.936002 
L 133.455733 308.047076 
L 134.985199 317.800972 
L 136.514664 317.096078 
L 138.04413 312.999656 
L 139.573595 320.580428 
L 141.103061 325.826493 
L 142.632526 328.163614 
L 144.161992 82.56427 
L 145.691457 255.882903 
L 147.220923 340.031183 
L 148.750388 334.201832 
L 150.279854 337.116033 
L 151.809319 342.949148 
L 153.338785 346.888492 
L 154.86825 343.133754 
L 156.397716 347.028802 
L 157.927181 344.125795 
L 159.456647 347.201342 
L 160.986112 347.027276 
L 162.515578 349.316264 
L 164.045043 344.214654 
L 165.574509 350.231977 
L 167.103974 352.880431 
L 168.63344 346.92622 
L 170.162905 345.657929 
L 171.692371 349.393394 
L 173.221836 349.129143 
L 174.751302 349.980084 
L 176.280767 169.74571 
L 177.810233 348.470094 
L 179.339698 348.540714 
L 180.869164 349.347418 
L 182.39863 350.5937 
L 183.928095 347.84936 
L 185.457561 346.042503 
L 186.987026 348.176948 
L 188.516492 347.536439 
L 190.045957 346.621744 
L 191.575423 345.250309 
L 193.104888 348.518006 
L 194.634354 345.14595 
L 196.163819 347.1407 
L 197.693285 346.370925 
L 199.22275 345.011779 
L 200.752216 313.148617 
L 202.281681 344.303939 
L 203.811147 348.654554 
L 205.340612 346.316519 
L 208.399543 349.360099 
L 209.929009 349.482001 
L 211.458474 349.904921 
L 212.98794 349.05955 
L 214.517405 348.542795 
L 216.046871 351.166542 
L 217.576336 350.01219 
L 219.105802 351.761963 
L 220.635267 307.433894 
L 222.164733 335.616084 
L 223.694198 350.547246 
L 225.223664 349.469361 
L 226.753129 350.59034 
L 228.282595 351.068582 
L 229.81206 349.459144 
L 231.341526 350.877302 
L 232.870991 350.991383 
L 234.400457 351.552407 
L 235.929922 351.931153 
L 237.459388 351.597298 
L 238.988853 258.747986 
L 240.518319 350.139747 
L 242.047784 352.728575 
L 243.57725 350.855612 
L 245.106715 352.90423 
L 246.636181 350.31977 
L 248.165646 352.50468 
L 249.695112 351.520406 
L 251.224577 352.002381 
L 252.754043 351.290459 
L 254.283508 352.613776 
L 255.812974 323.979803 
L 257.342439 352.50344 
L 258.871905 351.327105 
L 260.40137 351.738901 
L 261.930836 352.716729 
L 263.460302 353.422852 
L 264.989767 352.392372 
L 266.519233 352.771336 
L 268.048698 353.372979 
L 269.578164 353.653325 
L 271.107629 354.527856 
L 272.637095 354.527292 
L 274.16656 353.908881 
L 275.696026 354.890113 
L 277.225491 354.85368 
L 278.754957 354.645491 
L 280.284422 355.166508 
L 281.813888 354.488496 
L 283.343353 354.499064 
L 284.872819 335.908187 
L 286.402284 355.400252 
L 287.93175 354.85782 
L 289.461215 354.710554 
L 290.990681 354.973508 
L 292.520146 354.063465 
L 294.049612 355.876118 
L 295.579077 355.130388 
L 297.108543 334.053815 
L 298.638008 350.063454 
L 300.167474 356.176629 
L 301.696939 356.263918 
L 303.226405 355.818471 
L 304.75587 356.766484 
L 306.285336 356.328144 
L 307.814801 356.521069 
L 309.344267 355.248519 
L 310.873732 321.102769 
L 312.403198 356.766278 
L 313.932663 356.641217 
L 315.462129 356.191633 
L 316.991594 356.827542 
L 318.52106 356.141914 
L 320.050525 357.081706 
L 321.579991 342.764656 
L 323.109456 357.065768 
L 324.638922 356.765686 
L 326.168387 357.8667 
L 327.697853 356.510447 
L 329.227318 356.706087 
L 330.756784 357.772181 
L 332.286249 356.931346 
L 333.815715 358.037795 
L 335.34518 356.998115 
L 336.874646 359.193327 
L 338.404111 358.609869 
L 339.933577 359.065438 
L 342.992508 357.493064 
L 344.521974 341.720141 
L 346.051439 357.352916 
L 347.580905 358.57276 
L 349.11037 358.102673 
L 350.639836 357.972611 
L 352.169301 357.999264 
L 353.698767 358.708317 
L 355.228232 350.664709 
L 356.757698 358.896041 
L 358.287163 358.749178 
L 359.816629 358.823953 
L 361.346094 359.724663 
L 362.87556 358.988376 
L 364.405025 359.042479 
L 365.934491 359.793065 
L 367.463956 360.287397 
L 368.993422 359.338039 
L 370.522887 359.371667 
L 372.052353 360.425712 
L 373.581818 354.336842 
L 373.581818 354.336842 
" style="fill:none;stroke:#55a868;stroke-linecap:round;stroke-width:1.5;"/>
   </g>
   <g id="patch_3">
    <path d="M 54 384.48 
L 54 51.84 
" style="fill:none;stroke:#ffffff;stroke-linecap:square;stroke-linejoin:miter;stroke-width:1.25;"/>
   </g>
   <g id="patch_4">
    <path d="M 388.8 384.48 
L 388.8 51.84 
" style="fill:none;stroke:#ffffff;stroke-linecap:square;stroke-linejoin:miter;stroke-width:1.25;"/>
   </g>
   <g id="patch_5">
    <path d="M 54 384.48 
L 388.8 384.48 
" style="fill:none;stroke:#ffffff;stroke-linecap:square;stroke-linejoin:miter;stroke-width:1.25;"/>
   </g>
   <g id="patch_6">
    <path d="M 54 51.84 
L 388.8 51.84 
" style="fill:none;stroke:#ffffff;stroke-linecap:square;stroke-linejoin:miter;stroke-width:1.25;"/>
   </g>
   <g id="legend_1">
    <g id="patch_7">
     <path d="M 219.07 109.101875 
L 381.1 109.101875 
Q 383.3 109.101875 383.3 106.901875 
L 383.3 59.54 
Q 383.3 57.34 381.1 57.34 
L 219.07 57.34 
Q 216.87 57.34 216.87 59.54 
L 216.87 106.901875 
Q 216.87 109.101875 219.07 109.101875 
z
" style="fill:#eaeaf2;opacity:0.8;stroke:#cccccc;stroke-linejoin:miter;"/>
    </g>
    <g id="line2d_18">
     <path d="M 221.27 66.248281 
L 243.27 66.248281 
" style="fill:none;stroke:#4c72b0;stroke-linecap:round;stroke-width:1.5;"/>
    </g>
    <g id="line2d_19"/>
    <g id="text_17">
     <!-- Gas and Solid: $T = 0.3$ -->
     <g style="fill:#262626;" transform="translate(252.07 70.098281)scale(0.11 -0.11)">
      <defs>
       <path d="M 59.515625 10.40625 
L 59.515625 29.984375 
L 43.40625 29.984375 
L 43.40625 38.09375 
L 69.28125 38.09375 
L 69.28125 6.78125 
Q 63.578125 2.734375 56.6875 0.65625 
Q 49.8125 -1.421875 42 -1.421875 
Q 24.90625 -1.421875 15.25 8.5625 
Q 5.609375 18.5625 5.609375 36.375 
Q 5.609375 54.25 15.25 64.234375 
Q 24.90625 74.21875 42 74.21875 
Q 49.125 74.21875 55.546875 72.453125 
Q 61.96875 70.703125 67.390625 67.28125 
L 67.390625 56.78125 
Q 61.921875 61.421875 55.765625 63.765625 
Q 49.609375 66.109375 42.828125 66.109375 
Q 29.4375 66.109375 22.71875 58.640625 
Q 16.015625 51.171875 16.015625 36.375 
Q 16.015625 21.625 22.71875 14.15625 
Q 29.4375 6.6875 42.828125 6.6875 
Q 48.046875 6.6875 52.140625 7.59375 
Q 56.25 8.5 59.515625 10.40625 
z
" id="DejaVuSans-71"/>
       <path d="M 34.28125 27.484375 
Q 23.390625 27.484375 19.1875 25 
Q 14.984375 22.515625 14.984375 16.5 
Q 14.984375 11.71875 18.140625 8.90625 
Q 21.296875 6.109375 26.703125 6.109375 
Q 34.1875 6.109375 38.703125 11.40625 
Q 43.21875 16.703125 43.21875 25.484375 
L 43.21875 27.484375 
z
M 52.203125 31.203125 
L 52.203125 0 
L 43.21875 0 
L 43.21875 8.296875 
Q 40.140625 3.328125 35.546875 0.953125 
Q 30.953125 -1.421875 24.3125 -1.421875 
Q 15.921875 -1.421875 10.953125 3.296875 
Q 6 8.015625 6 15.921875 
Q 6 25.140625 12.171875 29.828125 
Q 18.359375 34.515625 30.609375 34.515625 
L 43.21875 34.515625 
L 43.21875 35.40625 
Q 43.21875 41.609375 39.140625 45 
Q 35.0625 48.390625 27.6875 48.390625 
Q 23 48.390625 18.546875 47.265625 
Q 14.109375 46.140625 10.015625 43.890625 
L 10.015625 52.203125 
Q 14.9375 54.109375 19.578125 55.046875 
Q 24.21875 56 28.609375 56 
Q 40.484375 56 46.34375 49.84375 
Q 52.203125 43.703125 52.203125 31.203125 
z
" id="DejaVuSans-97"/>
       <path d="M 44.28125 53.078125 
L 44.28125 44.578125 
Q 40.484375 46.53125 36.375 47.5 
Q 32.28125 48.484375 27.875 48.484375 
Q 21.1875 48.484375 17.84375 46.4375 
Q 14.5 44.390625 14.5 40.28125 
Q 14.5 37.15625 16.890625 35.375 
Q 19.28125 33.59375 26.515625 31.984375 
L 29.59375 31.296875 
Q 39.15625 29.25 43.1875 25.515625 
Q 47.21875 21.78125 47.21875 15.09375 
Q 47.21875 7.46875 41.1875 3.015625 
Q 35.15625 -1.421875 24.609375 -1.421875 
Q 20.21875 -1.421875 15.453125 -0.5625 
Q 10.6875 0.296875 5.421875 2 
L 5.421875 11.28125 
Q 10.40625 8.6875 15.234375 7.390625 
Q 20.0625 6.109375 24.8125 6.109375 
Q 31.15625 6.109375 34.5625 8.28125 
Q 37.984375 10.453125 37.984375 14.40625 
Q 37.984375 18.0625 35.515625 20.015625 
Q 33.0625 21.96875 24.703125 23.78125 
L 21.578125 24.515625 
Q 13.234375 26.265625 9.515625 29.90625 
Q 5.8125 33.546875 5.8125 39.890625 
Q 5.8125 47.609375 11.28125 51.796875 
Q 16.75 56 26.8125 56 
Q 31.78125 56 36.171875 55.265625 
Q 40.578125 54.546875 44.28125 53.078125 
z
" id="DejaVuSans-115"/>
       <path id="DejaVuSans-32"/>
       <path d="M 54.890625 33.015625 
L 54.890625 0 
L 45.90625 0 
L 45.90625 32.71875 
Q 45.90625 40.484375 42.875 44.328125 
Q 39.84375 48.1875 33.796875 48.1875 
Q 26.515625 48.1875 22.3125 43.546875 
Q 18.109375 38.921875 18.109375 30.90625 
L 18.109375 0 
L 9.078125 0 
L 9.078125 54.6875 
L 18.109375 54.6875 
L 18.109375 46.1875 
Q 21.34375 51.125 25.703125 53.5625 
Q 30.078125 56 35.796875 56 
Q 45.21875 56 50.046875 50.171875 
Q 54.890625 44.34375 54.890625 33.015625 
z
" id="DejaVuSans-110"/>
       <path d="M 45.40625 46.390625 
L 45.40625 75.984375 
L 54.390625 75.984375 
L 54.390625 0 
L 45.40625 0 
L 45.40625 8.203125 
Q 42.578125 3.328125 38.25 0.953125 
Q 33.9375 -1.421875 27.875 -1.421875 
Q 17.96875 -1.421875 11.734375 6.484375 
Q 5.515625 14.40625 5.515625 27.296875 
Q 5.515625 40.1875 11.734375 48.09375 
Q 17.96875 56 27.875 56 
Q 33.9375 56 38.25 53.625 
Q 42.578125 51.265625 45.40625 46.390625 
z
M 14.796875 27.296875 
Q 14.796875 17.390625 18.875 11.75 
Q 22.953125 6.109375 30.078125 6.109375 
Q 37.203125 6.109375 41.296875 11.75 
Q 45.40625 17.390625 45.40625 27.296875 
Q 45.40625 37.203125 41.296875 42.84375 
Q 37.203125 48.484375 30.078125 48.484375 
Q 22.953125 48.484375 18.875 42.84375 
Q 14.796875 37.203125 14.796875 27.296875 
z
" id="DejaVuSans-100"/>
       <path d="M 53.515625 70.515625 
L 53.515625 60.890625 
Q 47.90625 63.578125 42.921875 64.890625 
Q 37.9375 66.21875 33.296875 66.21875 
Q 25.25 66.21875 20.875 63.09375 
Q 16.5 59.96875 16.5 54.203125 
Q 16.5 49.359375 19.40625 46.890625 
Q 22.3125 44.4375 30.421875 42.921875 
L 36.375 41.703125 
Q 47.40625 39.59375 52.65625 34.296875 
Q 57.90625 29 57.90625 20.125 
Q 57.90625 9.515625 50.796875 4.046875 
Q 43.703125 -1.421875 29.984375 -1.421875 
Q 24.8125 -1.421875 18.96875 -0.25 
Q 13.140625 0.921875 6.890625 3.21875 
L 6.890625 13.375 
Q 12.890625 10.015625 18.65625 8.296875 
Q 24.421875 6.59375 29.984375 6.59375 
Q 38.421875 6.59375 43.015625 9.90625 
Q 47.609375 13.234375 47.609375 19.390625 
Q 47.609375 24.75 44.3125 27.78125 
Q 41.015625 30.8125 33.5 32.328125 
L 27.484375 33.5 
Q 16.453125 35.6875 11.515625 40.375 
Q 6.59375 45.0625 6.59375 53.421875 
Q 6.59375 63.09375 13.40625 68.65625 
Q 20.21875 74.21875 32.171875 74.21875 
Q 37.3125 74.21875 42.625 73.28125 
Q 47.953125 72.359375 53.515625 70.515625 
z
" id="DejaVuSans-83"/>
       <path d="M 30.609375 48.390625 
Q 23.390625 48.390625 19.1875 42.75 
Q 14.984375 37.109375 14.984375 27.296875 
Q 14.984375 17.484375 19.15625 11.84375 
Q 23.34375 6.203125 30.609375 6.203125 
Q 37.796875 6.203125 41.984375 11.859375 
Q 46.1875 17.53125 46.1875 27.296875 
Q 46.1875 37.015625 41.984375 42.703125 
Q 37.796875 48.390625 30.609375 48.390625 
z
M 30.609375 56 
Q 42.328125 56 49.015625 48.375 
Q 55.71875 40.765625 55.71875 27.296875 
Q 55.71875 13.875 49.015625 6.21875 
Q 42.328125 -1.421875 30.609375 -1.421875 
Q 18.84375 -1.421875 12.171875 6.21875 
Q 5.515625 13.875 5.515625 27.296875 
Q 5.515625 40.765625 12.171875 48.375 
Q 18.84375 56 30.609375 56 
z
" id="DejaVuSans-111"/>
       <path d="M 9.421875 75.984375 
L 18.40625 75.984375 
L 18.40625 0 
L 9.421875 0 
z
" id="DejaVuSans-108"/>
       <path d="M 9.421875 54.6875 
L 18.40625 54.6875 
L 18.40625 0 
L 9.421875 0 
z
M 9.421875 75.984375 
L 18.40625 75.984375 
L 18.40625 64.59375 
L 9.421875 64.59375 
z
" id="DejaVuSans-105"/>
       <path d="M 11.71875 12.40625 
L 22.015625 12.40625 
L 22.015625 0 
L 11.71875 0 
z
M 11.71875 51.703125 
L 22.015625 51.703125 
L 22.015625 39.3125 
L 11.71875 39.3125 
z
" id="DejaVuSans-58"/>
       <path d="M 5.90625 72.90625 
L 67.578125 72.90625 
L 66.015625 64.59375 
L 39.984375 64.59375 
L 27.484375 0 
L 17.578125 0 
L 30.078125 64.59375 
L 4.296875 64.59375 
z
" id="DejaVuSans-Oblique-84"/>
       <path d="M 10.59375 45.40625 
L 73.1875 45.40625 
L 73.1875 37.203125 
L 10.59375 37.203125 
z
M 10.59375 25.484375 
L 73.1875 25.484375 
L 73.1875 17.1875 
L 10.59375 17.1875 
z
" id="DejaVuSans-61"/>
      </defs>
      <use transform="translate(0 0.015625)" xlink:href="#DejaVuSans-71"/>
      <use transform="translate(77.490234 0.015625)" xlink:href="#DejaVuSans-97"/>
      <use transform="translate(138.769531 0.015625)" xlink:href="#DejaVuSans-115"/>
      <use transform="translate(190.869141 0.015625)" xlink:href="#DejaVuSans-32"/>
      <use transform="translate(222.65625 0.015625)" xlink:href="#DejaVuSans-97"/>
      <use transform="translate(283.935547 0.015625)" xlink:href="#DejaVuSans-110"/>
      <use transform="translate(347.314453 0.015625)" xlink:href="#DejaVuSans-100"/>
      <use transform="translate(410.791016 0.015625)" xlink:href="#DejaVuSans-32"/>
      <use transform="translate(442.578125 0.015625)" xlink:href="#DejaVuSans-83"/>
      <use transform="translate(506.054688 0.015625)" xlink:href="#DejaVuSans-111"/>
      <use transform="translate(567.236328 0.015625)" xlink:href="#DejaVuSans-108"/>
      <use transform="translate(595.019531 0.015625)" xlink:href="#DejaVuSans-105"/>
      <use transform="translate(622.802734 0.015625)" xlink:href="#DejaVuSans-100"/>
      <use transform="translate(686.279297 0.015625)" xlink:href="#DejaVuSans-58"/>
      <use transform="translate(719.970703 0.015625)" xlink:href="#DejaVuSans-32"/>
      <use transform="translate(751.757812 0.015625)" xlink:href="#DejaVuSans-Oblique-84"/>
      <use transform="translate(832.324219 0.015625)" xlink:href="#DejaVuSans-61"/>
      <use transform="translate(935.595703 0.015625)" xlink:href="#DejaVuSans-48"/>
      <use transform="translate(999.21875 0.015625)" xlink:href="#DejaVuSans-46"/>
      <use transform="translate(1031.005859 0.015625)" xlink:href="#DejaVuSans-51"/>
     </g>
    </g>
    <g id="line2d_20">
     <path d="M 221.27 82.395937 
L 243.27 82.395937 
" style="fill:none;stroke:#dd8452;stroke-linecap:round;stroke-width:1.5;"/>
    </g>
    <g id="line2d_21"/>
    <g id="text_18">
     <!-- Gas and Liquid: $T = 1.0$ -->
     <g style="fill:#262626;" transform="translate(252.07 86.245937)scale(0.11 -0.11)">
      <defs>
       <path d="M 9.8125 72.90625 
L 19.671875 72.90625 
L 19.671875 8.296875 
L 55.171875 8.296875 
L 55.171875 0 
L 9.8125 0 
z
" id="DejaVuSans-76"/>
       <path d="M 14.796875 27.296875 
Q 14.796875 17.390625 18.875 11.75 
Q 22.953125 6.109375 30.078125 6.109375 
Q 37.203125 6.109375 41.296875 11.75 
Q 45.40625 17.390625 45.40625 27.296875 
Q 45.40625 37.203125 41.296875 42.84375 
Q 37.203125 48.484375 30.078125 48.484375 
Q 22.953125 48.484375 18.875 42.84375 
Q 14.796875 37.203125 14.796875 27.296875 
z
M 45.40625 8.203125 
Q 42.578125 3.328125 38.25 0.953125 
Q 33.9375 -1.421875 27.875 -1.421875 
Q 17.96875 -1.421875 11.734375 6.484375 
Q 5.515625 14.40625 5.515625 27.296875 
Q 5.515625 40.1875 11.734375 48.09375 
Q 17.96875 56 27.875 56 
Q 33.9375 56 38.25 53.625 
Q 42.578125 51.265625 45.40625 46.390625 
L 45.40625 54.6875 
L 54.390625 54.6875 
L 54.390625 -20.796875 
L 45.40625 -20.796875 
z
" id="DejaVuSans-113"/>
       <path d="M 8.5 21.578125 
L 8.5 54.6875 
L 17.484375 54.6875 
L 17.484375 21.921875 
Q 17.484375 14.15625 20.5 10.265625 
Q 23.53125 6.390625 29.59375 6.390625 
Q 36.859375 6.390625 41.078125 11.03125 
Q 45.3125 15.671875 45.3125 23.6875 
L 45.3125 54.6875 
L 54.296875 54.6875 
L 54.296875 0 
L 45.3125 0 
L 45.3125 8.40625 
Q 42.046875 3.421875 37.71875 1 
Q 33.40625 -1.421875 27.6875 -1.421875 
Q 18.265625 -1.421875 13.375 4.4375 
Q 8.5 10.296875 8.5 21.578125 
z
M 31.109375 56 
z
" id="DejaVuSans-117"/>
      </defs>
      <use transform="translate(0 0.015625)" xlink:href="#DejaVuSans-71"/>
      <use transform="translate(77.490234 0.015625)" xlink:href="#DejaVuSans-97"/>
      <use transform="translate(138.769531 0.015625)" xlink:href="#DejaVuSans-115"/>
      <use transform="translate(190.869141 0.015625)" xlink:href="#DejaVuSans-32"/>
      <use transform="translate(222.65625 0.015625)" xlink:href="#DejaVuSans-97"/>
      <use transform="translate(283.935547 0.015625)" xlink:href="#DejaVuSans-110"/>
      <use transform="translate(347.314453 0.015625)" xlink:href="#DejaVuSans-100"/>
      <use transform="translate(410.791016 0.015625)" xlink:href="#DejaVuSans-32"/>
      <use transform="translate(442.578125 0.015625)" xlink:href="#DejaVuSans-76"/>
      <use transform="translate(498.291016 0.015625)" xlink:href="#DejaVuSans-105"/>
      <use transform="translate(526.074219 0.015625)" xlink:href="#DejaVuSans-113"/>
      <use transform="translate(589.550781 0.015625)" xlink:href="#DejaVuSans-117"/>
      <use transform="translate(652.929688 0.015625)" xlink:href="#DejaVuSans-105"/>
      <use transform="translate(680.712891 0.015625)" xlink:href="#DejaVuSans-100"/>
      <use transform="translate(744.189453 0.015625)" xlink:href="#DejaVuSans-58"/>
      <use transform="translate(777.880859 0.015625)" xlink:href="#DejaVuSans-32"/>
      <use transform="translate(809.667969 0.015625)" xlink:href="#DejaVuSans-Oblique-84"/>
      <use transform="translate(890.234375 0.015625)" xlink:href="#DejaVuSans-61"/>
      <use transform="translate(993.505859 0.015625)" xlink:href="#DejaVuSans-49"/>
      <use transform="translate(1057.128906 0.015625)" xlink:href="#DejaVuSans-46"/>
      <use transform="translate(1088.916016 0.015625)" xlink:href="#DejaVuSans-48"/>
     </g>
    </g>
    <g id="line2d_22">
     <path d="M 221.27 98.564219 
L 243.27 98.564219 
" style="fill:none;stroke:#55a868;stroke-linecap:round;stroke-width:1.5;"/>
    </g>
    <g id="line2d_23"/>
    <g id="text_19">
     <!-- Fluid: $T = 3.0$ -->
     <g style="fill:#262626;" transform="translate(252.07 102.414219)scale(0.11 -0.11)">
      <defs>
       <path d="M 9.8125 72.90625 
L 51.703125 72.90625 
L 51.703125 64.59375 
L 19.671875 64.59375 
L 19.671875 43.109375 
L 48.578125 43.109375 
L 48.578125 34.8125 
L 19.671875 34.8125 
L 19.671875 0 
L 9.8125 0 
z
" id="DejaVuSans-70"/>
      </defs>
      <use transform="translate(0 0.015625)" xlink:href="#DejaVuSans-70"/>
      <use transform="translate(57.519531 0.015625)" xlink:href="#DejaVuSans-108"/>
      <use transform="translate(85.302734 0.015625)" xlink:href="#DejaVuSans-117"/>
      <use transform="translate(148.681641 0.015625)" xlink:href="#DejaVuSans-105"/>
      <use transform="translate(176.464844 0.015625)" xlink:href="#DejaVuSans-100"/>
      <use transform="translate(239.941406 0.015625)" xlink:href="#DejaVuSans-58"/>
      <use transform="translate(273.632812 0.015625)" xlink:href="#DejaVuSans-32"/>
      <use transform="translate(305.419922 0.015625)" xlink:href="#DejaVuSans-Oblique-84"/>
      <use transform="translate(385.986328 0.015625)" xlink:href="#DejaVuSans-61"/>
      <use transform="translate(489.257812 0.015625)" xlink:href="#DejaVuSans-51"/>
      <use transform="translate(552.880859 0.015625)" xlink:href="#DejaVuSans-46"/>
      <use transform="translate(584.667969 0.015625)" xlink:href="#DejaVuSans-48"/>
     </g>
    </g>
   </g>
  </g>
 </g>
 <defs>
  <clipPath id="p6b1783a2d7">
   <rect height="332.64" width="334.8" x="54" y="51.84"/>
  </clipPath>
 </defs>
</svg>
