<?xml version="1.0" encoding="utf-8" standalone="no"?>
<!DOCTYPE svg PUBLIC "-//W3C//DTD SVG 1.1//EN"
  "http://www.w3.org/Graphics/SVG/1.1/DTD/svg11.dtd">
<!-- Created with matplotlib (https://matplotlib.org/) -->
<svg height="432pt" version="1.1" viewBox="0 0 432 432" width="432pt" xmlns="http://www.w3.org/2000/svg" xmlns:xlink="http://www.w3.org/1999/xlink">
 <metadata>
  <rdf:RDF xmlns:cc="http://creativecommons.org/ns#" xmlns:dc="http://purl.org/dc/elements/1.1/" xmlns:rdf="http://www.w3.org/1999/02/22-rdf-syntax-ns#">
   <cc:Work>
    <dc:type rdf:resource="http://purl.org/dc/dcmitype/StillImage"/>
    <dc:date>2021-03-22T15:00:45.207111</dc:date>
    <dc:format>image/svg+xml</dc:format>
    <dc:creator>
     <cc:Agent>
      <dc:title>Matplotlib v3.3.3, https://matplotlib.org/</dc:title>
     </cc:Agent>
    </dc:creator>
   </cc:Work>
  </rdf:RDF>
 </metadata>
 <defs>
  <style type="text/css">*{stroke-linecap:butt;stroke-linejoin:round;}</style>
 </defs>
 <g id="figure_1">
  <g id="patch_1">
   <path d="M 0 432 
L 432 432 
L 432 0 
L 0 0 
z
" style="fill:#ffffff;"/>
  </g>
  <g id="axes_1">
   <g id="patch_2">
    <path d="M 54 384.48 
L 388.8 384.48 
L 388.8 51.84 
L 54 51.84 
z
" style="fill:#eaeaf2;"/>
   </g>
   <g id="matplotlib.axis_1">
    <g id="xtick_1">
     <g id="line2d_1">
      <path clip-path="url(#p5e9d8b82d4)" d="M 54 384.48 
L 54 51.84 
" style="fill:none;stroke:#ffffff;stroke-linecap:round;"/>
     </g>
     <g id="text_1">
      <!-- 3 -->
      <g style="fill:#262626;" transform="translate(50.500625 402.338281)scale(0.11 -0.11)">
       <defs>
        <path d="M 40.578125 39.3125 
Q 47.65625 37.796875 51.625 33 
Q 55.609375 28.21875 55.609375 21.1875 
Q 55.609375 10.40625 48.1875 4.484375 
Q 40.765625 -1.421875 27.09375 -1.421875 
Q 22.515625 -1.421875 17.65625 -0.515625 
Q 12.796875 0.390625 7.625 2.203125 
L 7.625 11.71875 
Q 11.71875 9.328125 16.59375 8.109375 
Q 21.484375 6.890625 26.8125 6.890625 
Q 36.078125 6.890625 40.9375 10.546875 
Q 45.796875 14.203125 45.796875 21.1875 
Q 45.796875 27.640625 41.28125 31.265625 
Q 36.765625 34.90625 28.71875 34.90625 
L 20.21875 34.90625 
L 20.21875 43.015625 
L 29.109375 43.015625 
Q 36.375 43.015625 40.234375 45.921875 
Q 44.09375 48.828125 44.09375 54.296875 
Q 44.09375 59.90625 40.109375 62.90625 
Q 36.140625 65.921875 28.71875 65.921875 
Q 24.65625 65.921875 20.015625 65.03125 
Q 15.375 64.15625 9.8125 62.3125 
L 9.8125 71.09375 
Q 15.4375 72.65625 20.34375 73.4375 
Q 25.25 74.21875 29.59375 74.21875 
Q 40.828125 74.21875 47.359375 69.109375 
Q 53.90625 64.015625 53.90625 55.328125 
Q 53.90625 49.265625 50.4375 45.09375 
Q 46.96875 40.921875 40.578125 39.3125 
z
" id="DejaVuSans-51"/>
       </defs>
       <use xlink:href="#DejaVuSans-51"/>
      </g>
     </g>
    </g>
    <g id="xtick_2">
     <g id="line2d_2">
      <path clip-path="url(#p5e9d8b82d4)" d="M 116.193491 384.48 
L 116.193491 51.84 
" style="fill:none;stroke:#ffffff;stroke-linecap:round;"/>
     </g>
     <g id="text_2">
      <!-- 4 -->
      <g style="fill:#262626;" transform="translate(112.694116 402.338281)scale(0.11 -0.11)">
       <defs>
        <path d="M 37.796875 64.3125 
L 12.890625 25.390625 
L 37.796875 25.390625 
z
M 35.203125 72.90625 
L 47.609375 72.90625 
L 47.609375 25.390625 
L 58.015625 25.390625 
L 58.015625 17.1875 
L 47.609375 17.1875 
L 47.609375 0 
L 37.796875 0 
L 37.796875 17.1875 
L 4.890625 17.1875 
L 4.890625 26.703125 
z
" id="DejaVuSans-52"/>
       </defs>
       <use xlink:href="#DejaVuSans-52"/>
      </g>
     </g>
    </g>
    <g id="xtick_3">
     <g id="line2d_3">
      <path clip-path="url(#p5e9d8b82d4)" d="M 178.386982 384.48 
L 178.386982 51.84 
" style="fill:none;stroke:#ffffff;stroke-linecap:round;"/>
     </g>
     <g id="text_3">
      <!-- 5 -->
      <g style="fill:#262626;" transform="translate(174.887607 402.338281)scale(0.11 -0.11)">
       <defs>
        <path d="M 10.796875 72.90625 
L 49.515625 72.90625 
L 49.515625 64.59375 
L 19.828125 64.59375 
L 19.828125 46.734375 
Q 21.96875 47.46875 24.109375 47.828125 
Q 26.265625 48.1875 28.421875 48.1875 
Q 40.625 48.1875 47.75 41.5 
Q 54.890625 34.8125 54.890625 23.390625 
Q 54.890625 11.625 47.5625 5.09375 
Q 40.234375 -1.421875 26.90625 -1.421875 
Q 22.3125 -1.421875 17.546875 -0.640625 
Q 12.796875 0.140625 7.71875 1.703125 
L 7.71875 11.625 
Q 12.109375 9.234375 16.796875 8.0625 
Q 21.484375 6.890625 26.703125 6.890625 
Q 35.15625 6.890625 40.078125 11.328125 
Q 45.015625 15.765625 45.015625 23.390625 
Q 45.015625 31 40.078125 35.4375 
Q 35.15625 39.890625 26.703125 39.890625 
Q 22.75 39.890625 18.8125 39.015625 
Q 14.890625 38.140625 10.796875 36.28125 
z
" id="DejaVuSans-53"/>
       </defs>
       <use xlink:href="#DejaVuSans-53"/>
      </g>
     </g>
    </g>
    <g id="xtick_4">
     <g id="line2d_4">
      <path clip-path="url(#p5e9d8b82d4)" d="M 240.580473 384.48 
L 240.580473 51.84 
" style="fill:none;stroke:#ffffff;stroke-linecap:round;"/>
     </g>
     <g id="text_4">
      <!-- 6 -->
      <g style="fill:#262626;" transform="translate(237.081098 402.338281)scale(0.11 -0.11)">
       <defs>
        <path d="M 33.015625 40.375 
Q 26.375 40.375 22.484375 35.828125 
Q 18.609375 31.296875 18.609375 23.390625 
Q 18.609375 15.53125 22.484375 10.953125 
Q 26.375 6.390625 33.015625 6.390625 
Q 39.65625 6.390625 43.53125 10.953125 
Q 47.40625 15.53125 47.40625 23.390625 
Q 47.40625 31.296875 43.53125 35.828125 
Q 39.65625 40.375 33.015625 40.375 
z
M 52.59375 71.296875 
L 52.59375 62.3125 
Q 48.875 64.0625 45.09375 64.984375 
Q 41.3125 65.921875 37.59375 65.921875 
Q 27.828125 65.921875 22.671875 59.328125 
Q 17.53125 52.734375 16.796875 39.40625 
Q 19.671875 43.65625 24.015625 45.921875 
Q 28.375 48.1875 33.59375 48.1875 
Q 44.578125 48.1875 50.953125 41.515625 
Q 57.328125 34.859375 57.328125 23.390625 
Q 57.328125 12.15625 50.6875 5.359375 
Q 44.046875 -1.421875 33.015625 -1.421875 
Q 20.359375 -1.421875 13.671875 8.265625 
Q 6.984375 17.96875 6.984375 36.375 
Q 6.984375 53.65625 15.1875 63.9375 
Q 23.390625 74.21875 37.203125 74.21875 
Q 40.921875 74.21875 44.703125 73.484375 
Q 48.484375 72.75 52.59375 71.296875 
z
" id="DejaVuSans-54"/>
       </defs>
       <use xlink:href="#DejaVuSans-54"/>
      </g>
     </g>
    </g>
    <g id="xtick_5">
     <g id="line2d_5">
      <path clip-path="url(#p5e9d8b82d4)" d="M 302.773963 384.48 
L 302.773963 51.84 
" style="fill:none;stroke:#ffffff;stroke-linecap:round;"/>
     </g>
     <g id="text_5">
      <!-- 7 -->
      <g style="fill:#262626;" transform="translate(299.274588 402.338281)scale(0.11 -0.11)">
       <defs>
        <path d="M 8.203125 72.90625 
L 55.078125 72.90625 
L 55.078125 68.703125 
L 28.609375 0 
L 18.3125 0 
L 43.21875 64.59375 
L 8.203125 64.59375 
z
" id="DejaVuSans-55"/>
       </defs>
       <use xlink:href="#DejaVuSans-55"/>
      </g>
     </g>
    </g>
    <g id="xtick_6">
     <g id="line2d_6">
      <path clip-path="url(#p5e9d8b82d4)" d="M 364.967454 384.48 
L 364.967454 51.84 
" style="fill:none;stroke:#ffffff;stroke-linecap:round;"/>
     </g>
     <g id="text_6">
      <!-- 8 -->
      <g style="fill:#262626;" transform="translate(361.468079 402.338281)scale(0.11 -0.11)">
       <defs>
        <path d="M 31.78125 34.625 
Q 24.75 34.625 20.71875 30.859375 
Q 16.703125 27.09375 16.703125 20.515625 
Q 16.703125 13.921875 20.71875 10.15625 
Q 24.75 6.390625 31.78125 6.390625 
Q 38.8125 6.390625 42.859375 10.171875 
Q 46.921875 13.96875 46.921875 20.515625 
Q 46.921875 27.09375 42.890625 30.859375 
Q 38.875 34.625 31.78125 34.625 
z
M 21.921875 38.8125 
Q 15.578125 40.375 12.03125 44.71875 
Q 8.5 49.078125 8.5 55.328125 
Q 8.5 64.0625 14.71875 69.140625 
Q 20.953125 74.21875 31.78125 74.21875 
Q 42.671875 74.21875 48.875 69.140625 
Q 55.078125 64.0625 55.078125 55.328125 
Q 55.078125 49.078125 51.53125 44.71875 
Q 48 40.375 41.703125 38.8125 
Q 48.828125 37.15625 52.796875 32.3125 
Q 56.78125 27.484375 56.78125 20.515625 
Q 56.78125 9.90625 50.3125 4.234375 
Q 43.84375 -1.421875 31.78125 -1.421875 
Q 19.734375 -1.421875 13.25 4.234375 
Q 6.78125 9.90625 6.78125 20.515625 
Q 6.78125 27.484375 10.78125 32.3125 
Q 14.796875 37.15625 21.921875 38.8125 
z
M 18.3125 54.390625 
Q 18.3125 48.734375 21.84375 45.5625 
Q 25.390625 42.390625 31.78125 42.390625 
Q 38.140625 42.390625 41.71875 45.5625 
Q 45.3125 48.734375 45.3125 54.390625 
Q 45.3125 60.0625 41.71875 63.234375 
Q 38.140625 66.40625 31.78125 66.40625 
Q 25.390625 66.40625 21.84375 63.234375 
Q 18.3125 60.0625 18.3125 54.390625 
z
" id="DejaVuSans-56"/>
       </defs>
       <use xlink:href="#DejaVuSans-56"/>
      </g>
     </g>
    </g>
    <g id="text_7">
     <!-- $r (\AA)$ -->
     <g style="fill:#262626;" transform="translate(210.12 418.970312)scale(0.12 -0.12)">
      <defs>
       <path d="M 44.578125 46.390625 
Q 43.21875 47.125 41.453125 47.515625 
Q 39.703125 47.90625 37.703125 47.90625 
Q 30.515625 47.90625 25.140625 42.453125 
Q 19.78125 37.015625 18.015625 27.875 
L 12.5 0 
L 3.515625 0 
L 14.203125 54.6875 
L 23.1875 54.6875 
L 21.484375 46.1875 
Q 25.046875 50.921875 30 53.453125 
Q 34.96875 56 40.578125 56 
Q 42.046875 56 43.453125 55.828125 
Q 44.875 55.671875 46.296875 55.28125 
z
" id="DejaVuSans-Oblique-114"/>
       <path d="M 31 75.875 
Q 24.46875 64.65625 21.28125 53.65625 
Q 18.109375 42.671875 18.109375 31.390625 
Q 18.109375 20.125 21.3125 9.0625 
Q 24.515625 -2 31 -13.1875 
L 23.1875 -13.1875 
Q 15.875 -1.703125 12.234375 9.375 
Q 8.59375 20.453125 8.59375 31.390625 
Q 8.59375 42.28125 12.203125 53.3125 
Q 15.828125 64.359375 23.1875 75.875 
z
" id="DejaVuSans-40"/>
       <path d="M 49.8125 79.390625 
Q 49.8125 82.46875 47.625 84.640625 
Q 45.453125 86.8125 42.390625 86.8125 
Q 39.265625 86.8125 37.140625 84.6875 
Q 35.015625 82.5625 35.015625 79.390625 
Q 35.015625 76.3125 37.140625 74.15625 
Q 39.265625 72.015625 42.390625 72.015625 
Q 45.453125 72.015625 47.625 74.15625 
Q 49.8125 76.3125 49.8125 79.390625 
z
M 34.421875 68.703125 
Q 31.78125 70.515625 30.390625 73.265625 
Q 29 76.03125 29 79.390625 
Q 29 84.96875 32.90625 88.890625 
Q 36.8125 92.828125 42.390625 92.828125 
Q 47.953125 92.828125 51.875 88.890625 
Q 55.8125 84.96875 55.8125 79.390625 
Q 55.8125 75.53125 54.03125 72.546875 
Q 52.25 69.578125 48.875 67.828125 
L 61.53125 0 
L 51.21875 0 
L 48.1875 18.703125 
L 15.375 18.703125 
L 5.078125 0 
L -5.328125 0 
z
M 40.375 63.1875 
L 19.921875 26.90625 
L 46.6875 26.90625 
z
" id="DejaVuSans-Oblique-197"/>
       <path d="M 8.015625 75.875 
L 15.828125 75.875 
Q 23.140625 64.359375 26.78125 53.3125 
Q 30.421875 42.28125 30.421875 31.390625 
Q 30.421875 20.453125 26.78125 9.375 
Q 23.140625 -1.703125 15.828125 -13.1875 
L 8.015625 -13.1875 
Q 14.5 -2 17.703125 9.0625 
Q 20.90625 20.125 20.90625 31.390625 
Q 20.90625 42.671875 17.703125 53.65625 
Q 14.5 64.65625 8.015625 75.875 
z
" id="DejaVuSans-41"/>
      </defs>
      <use transform="translate(0 0.171875)" xlink:href="#DejaVuSans-Oblique-114"/>
      <use transform="translate(41.113281 0.171875)" xlink:href="#DejaVuSans-40"/>
      <use transform="translate(80.126953 0.171875)" xlink:href="#DejaVuSans-Oblique-197"/>
      <use transform="translate(148.535156 0.171875)" xlink:href="#DejaVuSans-41"/>
     </g>
    </g>
   </g>
   <g id="matplotlib.axis_2">
    <g id="ytick_1">
     <g id="line2d_7">
      <path clip-path="url(#p5e9d8b82d4)" d="M 54 384.48 
L 388.8 384.48 
" style="fill:none;stroke:#ffffff;stroke-linecap:round;"/>
     </g>
     <g id="text_8">
      <!-- 0.0 -->
      <g style="fill:#262626;" transform="translate(27.006563 388.659141)scale(0.11 -0.11)">
       <defs>
        <path d="M 31.78125 66.40625 
Q 24.171875 66.40625 20.328125 58.90625 
Q 16.5 51.421875 16.5 36.375 
Q 16.5 21.390625 20.328125 13.890625 
Q 24.171875 6.390625 31.78125 6.390625 
Q 39.453125 6.390625 43.28125 13.890625 
Q 47.125 21.390625 47.125 36.375 
Q 47.125 51.421875 43.28125 58.90625 
Q 39.453125 66.40625 31.78125 66.40625 
z
M 31.78125 74.21875 
Q 44.046875 74.21875 50.515625 64.515625 
Q 56.984375 54.828125 56.984375 36.375 
Q 56.984375 17.96875 50.515625 8.265625 
Q 44.046875 -1.421875 31.78125 -1.421875 
Q 19.53125 -1.421875 13.0625 8.265625 
Q 6.59375 17.96875 6.59375 36.375 
Q 6.59375 54.828125 13.0625 64.515625 
Q 19.53125 74.21875 31.78125 74.21875 
z
" id="DejaVuSans-48"/>
        <path d="M 10.6875 12.40625 
L 21 12.40625 
L 21 0 
L 10.6875 0 
z
" id="DejaVuSans-46"/>
       </defs>
       <use xlink:href="#DejaVuSans-48"/>
       <use x="63.623047" xlink:href="#DejaVuSans-46"/>
       <use x="95.410156" xlink:href="#DejaVuSans-48"/>
      </g>
     </g>
    </g>
    <g id="ytick_2">
     <g id="line2d_8">
      <path clip-path="url(#p5e9d8b82d4)" d="M 54 346.125289 
L 388.8 346.125289 
" style="fill:none;stroke:#ffffff;stroke-linecap:round;"/>
     </g>
     <g id="text_9">
      <!-- 2.5 -->
      <g style="fill:#262626;" transform="translate(27.006563 350.30443)scale(0.11 -0.11)">
       <defs>
        <path d="M 19.1875 8.296875 
L 53.609375 8.296875 
L 53.609375 0 
L 7.328125 0 
L 7.328125 8.296875 
Q 12.9375 14.109375 22.625 23.890625 
Q 32.328125 33.6875 34.8125 36.53125 
Q 39.546875 41.84375 41.421875 45.53125 
Q 43.3125 49.21875 43.3125 52.78125 
Q 43.3125 58.59375 39.234375 62.25 
Q 35.15625 65.921875 28.609375 65.921875 
Q 23.96875 65.921875 18.8125 64.3125 
Q 13.671875 62.703125 7.8125 59.421875 
L 7.8125 69.390625 
Q 13.765625 71.78125 18.9375 73 
Q 24.125 74.21875 28.421875 74.21875 
Q 39.75 74.21875 46.484375 68.546875 
Q 53.21875 62.890625 53.21875 53.421875 
Q 53.21875 48.921875 51.53125 44.890625 
Q 49.859375 40.875 45.40625 35.40625 
Q 44.1875 33.984375 37.640625 27.21875 
Q 31.109375 20.453125 19.1875 8.296875 
z
" id="DejaVuSans-50"/>
       </defs>
       <use xlink:href="#DejaVuSans-50"/>
       <use x="63.623047" xlink:href="#DejaVuSans-46"/>
       <use x="95.410156" xlink:href="#DejaVuSans-53"/>
      </g>
     </g>
    </g>
    <g id="ytick_3">
     <g id="line2d_9">
      <path clip-path="url(#p5e9d8b82d4)" d="M 54 307.770578 
L 388.8 307.770578 
" style="fill:none;stroke:#ffffff;stroke-linecap:round;"/>
     </g>
     <g id="text_10">
      <!-- 5.0 -->
      <g style="fill:#262626;" transform="translate(27.006563 311.949719)scale(0.11 -0.11)">
       <use xlink:href="#DejaVuSans-53"/>
       <use x="63.623047" xlink:href="#DejaVuSans-46"/>
       <use x="95.410156" xlink:href="#DejaVuSans-48"/>
      </g>
     </g>
    </g>
    <g id="ytick_4">
     <g id="line2d_10">
      <path clip-path="url(#p5e9d8b82d4)" d="M 54 269.415867 
L 388.8 269.415867 
" style="fill:none;stroke:#ffffff;stroke-linecap:round;"/>
     </g>
     <g id="text_11">
      <!-- 7.5 -->
      <g style="fill:#262626;" transform="translate(27.006563 273.595008)scale(0.11 -0.11)">
       <use xlink:href="#DejaVuSans-55"/>
       <use x="63.623047" xlink:href="#DejaVuSans-46"/>
       <use x="95.410156" xlink:href="#DejaVuSans-53"/>
      </g>
     </g>
    </g>
    <g id="ytick_5">
     <g id="line2d_11">
      <path clip-path="url(#p5e9d8b82d4)" d="M 54 231.061156 
L 388.8 231.061156 
" style="fill:none;stroke:#ffffff;stroke-linecap:round;"/>
     </g>
     <g id="text_12">
      <!-- 10.0 -->
      <g style="fill:#262626;" transform="translate(20.007812 235.240297)scale(0.11 -0.11)">
       <defs>
        <path d="M 12.40625 8.296875 
L 28.515625 8.296875 
L 28.515625 63.921875 
L 10.984375 60.40625 
L 10.984375 69.390625 
L 28.421875 72.90625 
L 38.28125 72.90625 
L 38.28125 8.296875 
L 54.390625 8.296875 
L 54.390625 0 
L 12.40625 0 
z
" id="DejaVuSans-49"/>
       </defs>
       <use xlink:href="#DejaVuSans-49"/>
       <use x="63.623047" xlink:href="#DejaVuSans-48"/>
       <use x="127.246094" xlink:href="#DejaVuSans-46"/>
       <use x="159.033203" xlink:href="#DejaVuSans-48"/>
      </g>
     </g>
    </g>
    <g id="ytick_6">
     <g id="line2d_12">
      <path clip-path="url(#p5e9d8b82d4)" d="M 54 192.706445 
L 388.8 192.706445 
" style="fill:none;stroke:#ffffff;stroke-linecap:round;"/>
     </g>
     <g id="text_13">
      <!-- 12.5 -->
      <g style="fill:#262626;" transform="translate(20.007812 196.885585)scale(0.11 -0.11)">
       <use xlink:href="#DejaVuSans-49"/>
       <use x="63.623047" xlink:href="#DejaVuSans-50"/>
       <use x="127.246094" xlink:href="#DejaVuSans-46"/>
       <use x="159.033203" xlink:href="#DejaVuSans-53"/>
      </g>
     </g>
    </g>
    <g id="ytick_7">
     <g id="line2d_13">
      <path clip-path="url(#p5e9d8b82d4)" d="M 54 154.351734 
L 388.8 154.351734 
" style="fill:none;stroke:#ffffff;stroke-linecap:round;"/>
     </g>
     <g id="text_14">
      <!-- 15.0 -->
      <g style="fill:#262626;" transform="translate(20.007812 158.530874)scale(0.11 -0.11)">
       <use xlink:href="#DejaVuSans-49"/>
       <use x="63.623047" xlink:href="#DejaVuSans-53"/>
       <use x="127.246094" xlink:href="#DejaVuSans-46"/>
       <use x="159.033203" xlink:href="#DejaVuSans-48"/>
      </g>
     </g>
    </g>
    <g id="ytick_8">
     <g id="line2d_14">
      <path clip-path="url(#p5e9d8b82d4)" d="M 54 115.997023 
L 388.8 115.997023 
" style="fill:none;stroke:#ffffff;stroke-linecap:round;"/>
     </g>
     <g id="text_15">
      <!-- 17.5 -->
      <g style="fill:#262626;" transform="translate(20.007812 120.176163)scale(0.11 -0.11)">
       <use xlink:href="#DejaVuSans-49"/>
       <use x="63.623047" xlink:href="#DejaVuSans-55"/>
       <use x="127.246094" xlink:href="#DejaVuSans-46"/>
       <use x="159.033203" xlink:href="#DejaVuSans-53"/>
      </g>
     </g>
    </g>
    <g id="ytick_9">
     <g id="line2d_15">
      <path clip-path="url(#p5e9d8b82d4)" d="M 54 77.642312 
L 388.8 77.642312 
" style="fill:none;stroke:#ffffff;stroke-linecap:round;"/>
     </g>
     <g id="text_16">
      <!-- 20.0 -->
      <g style="fill:#262626;" transform="translate(20.007812 81.821452)scale(0.11 -0.11)">
       <use xlink:href="#DejaVuSans-50"/>
       <use x="63.623047" xlink:href="#DejaVuSans-48"/>
       <use x="127.246094" xlink:href="#DejaVuSans-46"/>
       <use x="159.033203" xlink:href="#DejaVuSans-48"/>
      </g>
     </g>
    </g>
    <g id="text_17">
     <!-- $g(r)$ -->
     <g style="fill:#262626;" transform="translate(13.487813 229.14)rotate(-90)scale(0.12 -0.12)">
      <defs>
       <path d="M 59.625 54.6875 
L 50.296875 6.78125 
Q 47.609375 -7.125 40.015625 -13.953125 
Q 32.421875 -20.796875 19.578125 -20.796875 
Q 14.84375 -20.796875 10.78125 -20.09375 
Q 6.734375 -19.390625 3.21875 -17.921875 
L 4.890625 -9.1875 
Q 8.203125 -11.328125 11.90625 -12.34375 
Q 15.625 -13.375 19.828125 -13.375 
Q 28.375 -13.375 33.859375 -8.703125 
Q 39.359375 -4.046875 41.109375 4.6875 
L 41.890625 8.796875 
Q 38.140625 4.5 33.15625 2.25 
Q 28.171875 0 22.40625 0 
Q 14.109375 0 9.34375 5.484375 
Q 4.59375 10.984375 4.59375 20.609375 
Q 4.59375 28.171875 7.46875 35.421875 
Q 10.359375 42.671875 15.578125 48.296875 
Q 19.046875 52 23.65625 54 
Q 28.265625 56 33.296875 56 
Q 38.8125 56 42.90625 53.4375 
Q 47.015625 50.875 49.03125 46.1875 
L 50.59375 54.6875 
z
M 46.09375 34.625 
Q 46.09375 41.265625 42.96875 44.875 
Q 39.84375 48.484375 34.078125 48.484375 
Q 30.515625 48.484375 27.296875 47.0625 
Q 24.078125 45.65625 21.78125 43.109375 
Q 18.0625 38.921875 15.984375 33.234375 
Q 13.921875 27.546875 13.921875 21.484375 
Q 13.921875 14.75 17.0625 11.125 
Q 20.21875 7.515625 26.125 7.515625 
Q 34.671875 7.515625 40.375 15.25 
Q 46.09375 23 46.09375 34.625 
z
" id="DejaVuSans-Oblique-103"/>
      </defs>
      <use transform="translate(0 0.125)" xlink:href="#DejaVuSans-Oblique-103"/>
      <use transform="translate(63.476562 0.125)" xlink:href="#DejaVuSans-40"/>
      <use transform="translate(102.490234 0.125)" xlink:href="#DejaVuSans-Oblique-114"/>
      <use transform="translate(143.603516 0.125)" xlink:href="#DejaVuSans-41"/>
     </g>
    </g>
   </g>
   <g id="line2d_16">
    <path clip-path="url(#p5e9d8b82d4)" d="M -1 384.48 
L 56.48774 384.48 
L 58.477931 383.736029 
L 59.473027 383.620982 
L 61.463219 381.955404 
L 63.453411 379.768145 
L 64.448506 376.317125 
L 66.438698 370.649981 
L 67.433794 369.881582 
L 68.42889 361.509524 
L 69.423986 356.630905 
L 70.419082 355.36442 
L 71.414177 345.419571 
L 72.409273 339.762841 
L 73.404369 328.560754 
L 74.399465 319.689014 
L 75.394561 312.349755 
L 77.384753 295.526425 
L 78.379848 291.57926 
L 79.374944 283.07287 
L 80.37004 269.036491 
L 81.365136 263.179607 
L 82.360232 254.298711 
L 84.350424 249.35661 
L 85.345519 239.99928 
L 86.340615 236.203585 
L 87.335711 234.074261 
L 88.330807 229.761622 
L 89.325903 228.29153 
L 90.320999 215.366775 
L 91.316095 67.68 
L 92.31119 220.131397 
L 93.306286 218.28827 
L 94.301382 219.211703 
L 95.296478 227.191589 
L 96.291574 224.488742 
L 97.28667 228.354319 
L 98.281765 222.55442 
L 99.276861 229.163367 
L 100.271957 233.49324 
L 101.267053 230.298963 
L 102.262149 236.529022 
L 103.257245 234.43248 
L 104.252341 237.869089 
L 105.247436 244.137406 
L 106.242532 247.208615 
L 107.237628 247.003773 
L 108.232724 250.869966 
L 109.22782 256.769757 
L 110.222916 257.812284 
L 111.218012 266.618229 
L 112.213107 264.245321 
L 113.208203 266.565121 
L 114.203299 266.916967 
L 115.198395 273.024288 
L 116.193491 283.284996 
L 117.188587 279.221082 
L 118.183683 282.935893 
L 119.178778 285.236964 
L 120.173874 290.555494 
L 121.16897 291.500433 
L 122.164066 291.804978 
L 123.159162 293.840021 
L 124.154258 294.196132 
L 125.149354 302.8056 
L 126.144449 300.113677 
L 127.139545 301.160849 
L 128.134641 308.996096 
L 129.129737 304.73704 
L 130.124833 311.578213 
L 131.119929 312.517445 
L 132.115025 308.98069 
L 133.11012 311.149425 
L 134.105216 318.259336 
L 135.100312 317.421337 
L 136.095408 317.037088 
L 137.090504 320.525035 
L 138.0856 317.095277 
L 139.080695 322.746915 
L 140.075791 325.086237 
L 141.070887 325.516624 
L 142.065983 324.860546 
L 143.061079 323.201085 
L 144.056175 330.393737 
L 145.051271 329.956627 
L 146.046366 330.111099 
L 147.041462 331.540408 
L 148.036558 334.735686 
L 149.031654 333.599603 
L 150.02675 333.559282 
L 151.021846 334.817303 
L 152.016942 336.338921 
L 153.012037 335.005554 
L 154.007133 334.078232 
L 155.002229 337.934555 
L 155.997325 337.492195 
L 156.992421 340.517734 
L 157.987517 338.884436 
L 158.982613 337.861117 
L 159.977708 342.786267 
L 160.972804 338.595272 
L 161.9679 344.705758 
L 162.962996 341.961629 
L 163.958092 340.441161 
L 164.953188 342.681262 
L 165.948284 340.618349 
L 166.943379 342.374674 
L 167.938475 342.301105 
L 168.933571 346.619089 
L 169.928667 344.885136 
L 170.923763 346.325484 
L 171.918859 342.416619 
L 172.913955 347.014561 
L 173.90905 344.794837 
L 174.904146 346.681758 
L 175.899242 346.543562 
L 176.894338 346.976157 
L 177.889434 345.898376 
L 178.88453 347.733655 
L 179.879626 348.431506 
L 180.874721 347.551815 
L 181.869817 346.362861 
L 182.864913 348.015586 
L 183.860009 234.916746 
L 184.855105 325.289673 
L 185.850201 347.397827 
L 187.840392 347.988869 
L 188.835488 348.960514 
L 190.82568 348.918621 
L 191.820776 349.308531 
L 192.815872 350.593977 
L 193.810967 348.032332 
L 194.806063 349.353572 
L 195.801159 351.206362 
L 196.796255 352.619349 
L 197.791351 350.317059 
L 198.786447 349.117022 
L 199.781543 349.246013 
L 200.776638 350.272155 
L 201.771734 349.095498 
L 202.76683 349.506565 
L 203.761926 351.357016 
L 204.757022 349.518763 
L 205.752118 349.327506 
L 206.747214 347.247933 
L 207.742309 349.0318 
L 208.737405 349.588368 
L 209.732501 348.93889 
L 210.727597 347.527665 
L 211.722693 349.654154 
L 212.717789 348.446444 
L 213.712885 346.269513 
L 214.70798 348.180577 
L 216.698172 345.989242 
L 217.693268 347.427608 
L 218.688364 348.335564 
L 219.68346 346.711075 
L 220.678556 347.868541 
L 221.673651 347.350581 
L 222.668747 347.378251 
L 223.663843 346.226406 
L 225.654035 346.190058 
L 226.649131 343.588796 
L 227.644226 345.282679 
L 228.639322 343.898433 
L 229.634418 342.841199 
L 230.629514 343.447075 
L 231.62461 342.439224 
L 232.619706 343.722369 
L 233.614802 341.473177 
L 234.609897 342.277765 
L 235.604993 344.379739 
L 236.600089 342.164964 
L 237.595185 342.160054 
L 238.590281 340.344262 
L 239.585377 339.989946 
L 240.580473 342.279588 
L 241.575568 338.937887 
L 242.570664 338.114838 
L 243.56576 340.412159 
L 244.560856 339.591267 
L 245.555952 339.382593 
L 246.551048 339.871266 
L 247.546144 335.361999 
L 248.541239 340.085399 
L 249.536335 337.487784 
L 250.531431 335.474218 
L 251.526527 335.573684 
L 252.521623 336.37658 
L 253.516719 336.045485 
L 254.511815 334.294944 
L 255.50691 286.853041 
L 256.502006 332.588005 
L 257.497102 334.074931 
L 258.492198 333.64829 
L 259.487294 332.193282 
L 260.48239 332.986101 
L 261.477486 331.696498 
L 262.472581 333.270336 
L 263.467677 332.253925 
L 264.462773 331.018003 
L 265.457869 330.769021 
L 266.452965 330.181139 
L 267.448061 330.166993 
L 268.443156 329.222345 
L 269.438252 329.158236 
L 270.433348 327.75413 
L 271.428444 329.701268 
L 272.42354 330.633875 
L 273.418636 328.529183 
L 274.413732 326.06206 
L 275.408827 329.318456 
L 276.403923 327.388309 
L 277.399019 327.556768 
L 278.394115 326.326872 
L 279.389211 327.409431 
L 280.384307 325.794151 
L 281.379403 329.677883 
L 282.374498 327.673089 
L 283.369594 326.606274 
L 284.36469 325.106399 
L 285.359786 326.194016 
L 286.354882 323.961583 
L 287.349978 326.847491 
L 288.345074 325.377258 
L 289.340169 325.62989 
L 290.335265 326.794432 
L 291.330361 322.315791 
L 292.325457 327.0815 
L 293.320553 325.7225 
L 294.315649 323.355532 
L 295.310745 325.944876 
L 296.30584 322.711633 
L 297.300936 326.288479 
L 298.296032 321.984389 
L 300.286224 324.713241 
L 301.28132 323.274564 
L 302.276416 322.953903 
L 304.266607 324.725756 
L 305.261703 325.399304 
L 306.256799 325.430912 
L 307.251895 323.749815 
L 308.246991 325.775402 
L 309.242086 325.690411 
L 310.237182 324.541825 
L 311.232278 327.737038 
L 312.227374 324.273326 
L 313.22247 327.511021 
L 314.217566 324.466786 
L 315.212662 300.19111 
L 316.207757 319.114381 
L 317.202853 326.269719 
L 318.197949 325.275028 
L 319.193045 327.314733 
L 320.188141 327.255417 
L 321.183237 327.505852 
L 322.178333 328.259556 
L 323.173428 331.345919 
L 324.168524 328.464992 
L 325.16362 328.447997 
L 326.158716 329.812389 
L 327.153812 328.287137 
L 328.148908 330.561194 
L 329.144004 329.366279 
L 330.139099 328.94548 
L 331.134195 331.189112 
L 332.129291 330.323632 
L 333.124387 331.266325 
L 334.119483 332.785137 
L 335.114579 333.710358 
L 336.109675 330.887252 
L 337.10477 334.447957 
L 338.099866 331.625949 
L 339.094962 332.58317 
L 340.090058 334.081508 
L 342.08025 334.361745 
L 343.075346 334.771686 
L 344.070441 336.597535 
L 345.065537 336.159791 
L 346.060633 336.082828 
L 347.055729 334.42799 
L 348.050825 338.290654 
L 349.045921 335.995228 
L 350.041016 337.98815 
L 351.036112 335.946542 
L 352.031208 337.962829 
L 353.026304 337.710224 
L 354.0214 339.761208 
L 355.016496 338.243635 
L 356.011592 339.782037 
L 357.006687 338.618396 
L 358.001783 338.124875 
L 358.996879 338.481281 
L 359.991975 339.808347 
L 360.987071 340.528651 
L 361.982167 341.67051 
L 362.977263 340.529302 
L 363.972358 340.410448 
L 363.972358 340.410448 
" style="fill:none;stroke:#4c72b0;stroke-linecap:round;stroke-width:1.5;"/>
   </g>
   <g id="patch_3">
    <path d="M 54 384.48 
L 54 51.84 
" style="fill:none;stroke:#ffffff;stroke-linecap:square;stroke-linejoin:miter;stroke-width:1.25;"/>
   </g>
   <g id="patch_4">
    <path d="M 388.8 384.48 
L 388.8 51.84 
" style="fill:none;stroke:#ffffff;stroke-linecap:square;stroke-linejoin:miter;stroke-width:1.25;"/>
   </g>
   <g id="patch_5">
    <path d="M 54 384.48 
L 388.8 384.48 
" style="fill:none;stroke:#ffffff;stroke-linecap:square;stroke-linejoin:miter;stroke-width:1.25;"/>
   </g>
   <g id="patch_6">
    <path d="M 54 51.84 
L 388.8 51.84 
" style="fill:none;stroke:#ffffff;stroke-linecap:square;stroke-linejoin:miter;stroke-width:1.25;"/>
   </g>
   <g id="legend_1">
    <g id="patch_7">
     <path d="M 205.32 76.81 
L 381.1 76.81 
Q 383.3 76.81 383.3 74.61 
L 383.3 59.54 
Q 383.3 57.34 381.1 57.34 
L 205.32 57.34 
Q 203.12 57.34 203.12 59.54 
L 203.12 74.61 
Q 203.12 76.81 205.32 76.81 
z
" style="fill:#eaeaf2;opacity:0.8;stroke:#cccccc;stroke-linejoin:miter;"/>
    </g>
    <g id="line2d_17">
     <path d="M 207.52 66.25 
L 229.52 66.25 
" style="fill:none;stroke:#4c72b0;stroke-linecap:round;stroke-width:1.5;"/>
    </g>
    <g id="line2d_18"/>
    <g id="text_18">
     <!-- $T = 1.409, \rho = 0.84$ (Fluid) -->
     <g style="fill:#262626;" transform="translate(238.32 70.1)scale(0.11 -0.11)">
      <defs>
       <path d="M 5.90625 72.90625 
L 67.578125 72.90625 
L 66.015625 64.59375 
L 39.984375 64.59375 
L 27.484375 0 
L 17.578125 0 
L 30.078125 64.59375 
L 4.296875 64.59375 
z
" id="DejaVuSans-Oblique-84"/>
       <path d="M 10.59375 45.40625 
L 73.1875 45.40625 
L 73.1875 37.203125 
L 10.59375 37.203125 
z
M 10.59375 25.484375 
L 73.1875 25.484375 
L 73.1875 17.1875 
L 10.59375 17.1875 
z
" id="DejaVuSans-61"/>
       <path d="M 10.984375 1.515625 
L 10.984375 10.5 
Q 14.703125 8.734375 18.5 7.8125 
Q 22.3125 6.890625 25.984375 6.890625 
Q 35.75 6.890625 40.890625 13.453125 
Q 46.046875 20.015625 46.78125 33.40625 
Q 43.953125 29.203125 39.59375 26.953125 
Q 35.25 24.703125 29.984375 24.703125 
Q 19.046875 24.703125 12.671875 31.3125 
Q 6.296875 37.9375 6.296875 49.421875 
Q 6.296875 60.640625 12.9375 67.421875 
Q 19.578125 74.21875 30.609375 74.21875 
Q 43.265625 74.21875 49.921875 64.515625 
Q 56.59375 54.828125 56.59375 36.375 
Q 56.59375 19.140625 48.40625 8.859375 
Q 40.234375 -1.421875 26.421875 -1.421875 
Q 22.703125 -1.421875 18.890625 -0.6875 
Q 15.09375 0.046875 10.984375 1.515625 
z
M 30.609375 32.421875 
Q 37.25 32.421875 41.125 36.953125 
Q 45.015625 41.5 45.015625 49.421875 
Q 45.015625 57.28125 41.125 61.84375 
Q 37.25 66.40625 30.609375 66.40625 
Q 23.96875 66.40625 20.09375 61.84375 
Q 16.21875 57.28125 16.21875 49.421875 
Q 16.21875 41.5 20.09375 36.953125 
Q 23.96875 32.421875 30.609375 32.421875 
z
" id="DejaVuSans-57"/>
       <path d="M 11.71875 12.40625 
L 22.015625 12.40625 
L 22.015625 4 
L 14.015625 -11.625 
L 7.71875 -11.625 
L 11.71875 4 
z
" id="DejaVuSans-44"/>
       <path d="M 18.796875 44.921875 
Q 22.703125 49.90625 30.953125 54.296875 
Q 34.1875 56 43.0625 56 
Q 53.03125 56 57.71875 48.09375 
Q 62.40625 40.1875 59.90625 27.296875 
Q 57.375 14.40625 49.609375 6.484375 
Q 41.84375 -1.421875 31.890625 -1.421875 
Q 25.875 -1.421875 22.015625 0.984375 
Q 18.171875 3.328125 16.3125 8.203125 
L 10.640625 -20.796875 
L 1.609375 -20.796875 
L 10.890625 26.8125 
Q 13.09375 38.09375 18.796875 44.921875 
z
M 50.59375 27.296875 
Q 52.484375 37.203125 49.515625 42.875 
Q 46.53125 48.484375 39.40625 48.484375 
Q 32.28125 48.484375 27.09375 42.875 
Q 21.921875 37.203125 20.015625 27.296875 
Q 18.0625 17.390625 21.046875 11.71875 
Q 24.03125 6.109375 31.15625 6.109375 
Q 38.28125 6.109375 43.453125 11.71875 
Q 48.640625 17.390625 50.59375 27.296875 
z
" id="DejaVuSans-Oblique-961"/>
       <path id="DejaVuSans-32"/>
       <path d="M 9.8125 72.90625 
L 51.703125 72.90625 
L 51.703125 64.59375 
L 19.671875 64.59375 
L 19.671875 43.109375 
L 48.578125 43.109375 
L 48.578125 34.8125 
L 19.671875 34.8125 
L 19.671875 0 
L 9.8125 0 
z
" id="DejaVuSans-70"/>
       <path d="M 9.421875 75.984375 
L 18.40625 75.984375 
L 18.40625 0 
L 9.421875 0 
z
" id="DejaVuSans-108"/>
       <path d="M 8.5 21.578125 
L 8.5 54.6875 
L 17.484375 54.6875 
L 17.484375 21.921875 
Q 17.484375 14.15625 20.5 10.265625 
Q 23.53125 6.390625 29.59375 6.390625 
Q 36.859375 6.390625 41.078125 11.03125 
Q 45.3125 15.671875 45.3125 23.6875 
L 45.3125 54.6875 
L 54.296875 54.6875 
L 54.296875 0 
L 45.3125 0 
L 45.3125 8.40625 
Q 42.046875 3.421875 37.71875 1 
Q 33.40625 -1.421875 27.6875 -1.421875 
Q 18.265625 -1.421875 13.375 4.4375 
Q 8.5 10.296875 8.5 21.578125 
z
M 31.109375 56 
z
" id="DejaVuSans-117"/>
       <path d="M 9.421875 54.6875 
L 18.40625 54.6875 
L 18.40625 0 
L 9.421875 0 
z
M 9.421875 75.984375 
L 18.40625 75.984375 
L 18.40625 64.59375 
L 9.421875 64.59375 
z
" id="DejaVuSans-105"/>
       <path d="M 45.40625 46.390625 
L 45.40625 75.984375 
L 54.390625 75.984375 
L 54.390625 0 
L 45.40625 0 
L 45.40625 8.203125 
Q 42.578125 3.328125 38.25 0.953125 
Q 33.9375 -1.421875 27.875 -1.421875 
Q 17.96875 -1.421875 11.734375 6.484375 
Q 5.515625 14.40625 5.515625 27.296875 
Q 5.515625 40.1875 11.734375 48.09375 
Q 17.96875 56 27.875 56 
Q 33.9375 56 38.25 53.625 
Q 42.578125 51.265625 45.40625 46.390625 
z
M 14.796875 27.296875 
Q 14.796875 17.390625 18.875 11.75 
Q 22.953125 6.109375 30.078125 6.109375 
Q 37.203125 6.109375 41.296875 11.75 
Q 45.40625 17.390625 45.40625 27.296875 
Q 45.40625 37.203125 41.296875 42.84375 
Q 37.203125 48.484375 30.078125 48.484375 
Q 22.953125 48.484375 18.875 42.84375 
Q 14.796875 37.203125 14.796875 27.296875 
z
" id="DejaVuSans-100"/>
      </defs>
      <use transform="translate(0 0.015625)" xlink:href="#DejaVuSans-Oblique-84"/>
      <use transform="translate(80.566406 0.015625)" xlink:href="#DejaVuSans-61"/>
      <use transform="translate(183.837891 0.015625)" xlink:href="#DejaVuSans-49"/>
      <use transform="translate(247.460938 0.015625)" xlink:href="#DejaVuSans-46"/>
      <use transform="translate(279.248047 0.015625)" xlink:href="#DejaVuSans-52"/>
      <use transform="translate(342.871094 0.015625)" xlink:href="#DejaVuSans-48"/>
      <use transform="translate(406.494141 0.015625)" xlink:href="#DejaVuSans-57"/>
      <use transform="translate(470.117188 0.015625)" xlink:href="#DejaVuSans-44"/>
      <use transform="translate(521.386719 0.015625)" xlink:href="#DejaVuSans-Oblique-961"/>
      <use transform="translate(604.345703 0.015625)" xlink:href="#DejaVuSans-61"/>
      <use transform="translate(707.617188 0.015625)" xlink:href="#DejaVuSans-48"/>
      <use transform="translate(771.240234 0.015625)" xlink:href="#DejaVuSans-46"/>
      <use transform="translate(800.402344 0.015625)" xlink:href="#DejaVuSans-56"/>
      <use transform="translate(864.025391 0.015625)" xlink:href="#DejaVuSans-52"/>
      <use transform="translate(927.648438 0.015625)" xlink:href="#DejaVuSans-32"/>
      <use transform="translate(959.435547 0.015625)" xlink:href="#DejaVuSans-40"/>
      <use transform="translate(998.449219 0.015625)" xlink:href="#DejaVuSans-70"/>
      <use transform="translate(1055.96875 0.015625)" xlink:href="#DejaVuSans-108"/>
      <use transform="translate(1083.751953 0.015625)" xlink:href="#DejaVuSans-117"/>
      <use transform="translate(1147.130859 0.015625)" xlink:href="#DejaVuSans-105"/>
      <use transform="translate(1174.914062 0.015625)" xlink:href="#DejaVuSans-100"/>
      <use transform="translate(1238.390625 0.015625)" xlink:href="#DejaVuSans-41"/>
     </g>
    </g>
   </g>
  </g>
 </g>
 <defs>
  <clipPath id="p5e9d8b82d4">
   <rect height="332.64" width="334.8" x="54" y="51.84"/>
  </clipPath>
 </defs>
</svg>
