<?xml version="1.0" encoding="utf-8" standalone="no"?>
<!DOCTYPE svg PUBLIC "-//W3C//DTD SVG 1.1//EN"
  "http://www.w3.org/Graphics/SVG/1.1/DTD/svg11.dtd">
<!-- Created with matplotlib (https://matplotlib.org/) -->
<svg height="432pt" version="1.1" viewBox="0 0 432 432" width="432pt" xmlns="http://www.w3.org/2000/svg" xmlns:xlink="http://www.w3.org/1999/xlink">
 <metadata>
  <rdf:RDF xmlns:cc="http://creativecommons.org/ns#" xmlns:dc="http://purl.org/dc/elements/1.1/" xmlns:rdf="http://www.w3.org/1999/02/22-rdf-syntax-ns#">
   <cc:Work>
    <dc:type rdf:resource="http://purl.org/dc/dcmitype/StillImage"/>
    <dc:date>2021-03-29T12:27:24.763017</dc:date>
    <dc:format>image/svg+xml</dc:format>
    <dc:creator>
     <cc:Agent>
      <dc:title>Matplotlib v3.3.3, https://matplotlib.org/</dc:title>
     </cc:Agent>
    </dc:creator>
   </cc:Work>
  </rdf:RDF>
 </metadata>
 <defs>
  <style type="text/css">*{stroke-linecap:butt;stroke-linejoin:round;}</style>
 </defs>
 <g id="figure_1">
  <g id="patch_1">
   <path d="M 0 432 
L 432 432 
L 432 0 
L 0 0 
z
" style="fill:#ffffff;"/>
  </g>
  <g id="axes_1">
   <g id="patch_2">
    <path d="M 54 384.48 
L 388.8 384.48 
L 388.8 51.84 
L 54 51.84 
z
" style="fill:#eaeaf2;"/>
   </g>
   <g id="matplotlib.axis_1">
    <g id="xtick_1">
     <g id="line2d_1">
      <path clip-path="url(#p6ad78aca22)" d="M 69.218182 384.48 
L 69.218182 51.84 
" style="fill:none;stroke:#ffffff;stroke-linecap:round;"/>
     </g>
     <g id="text_1">
      <!-- 0 -->
      <g style="fill:#262626;" transform="translate(65.718807 402.338281)scale(0.11 -0.11)">
       <defs>
        <path d="M 31.78125 66.40625 
Q 24.171875 66.40625 20.328125 58.90625 
Q 16.5 51.421875 16.5 36.375 
Q 16.5 21.390625 20.328125 13.890625 
Q 24.171875 6.390625 31.78125 6.390625 
Q 39.453125 6.390625 43.28125 13.890625 
Q 47.125 21.390625 47.125 36.375 
Q 47.125 51.421875 43.28125 58.90625 
Q 39.453125 66.40625 31.78125 66.40625 
z
M 31.78125 74.21875 
Q 44.046875 74.21875 50.515625 64.515625 
Q 56.984375 54.828125 56.984375 36.375 
Q 56.984375 17.96875 50.515625 8.265625 
Q 44.046875 -1.421875 31.78125 -1.421875 
Q 19.53125 -1.421875 13.0625 8.265625 
Q 6.59375 17.96875 6.59375 36.375 
Q 6.59375 54.828125 13.0625 64.515625 
Q 19.53125 74.21875 31.78125 74.21875 
z
" id="DejaVuSans-48"/>
       </defs>
       <use xlink:href="#DejaVuSans-48"/>
      </g>
     </g>
    </g>
    <g id="xtick_2">
     <g id="line2d_2">
      <path clip-path="url(#p6ad78aca22)" d="M 133.976402 384.48 
L 133.976402 51.84 
" style="fill:none;stroke:#ffffff;stroke-linecap:round;"/>
     </g>
     <g id="text_2">
      <!-- 1 -->
      <g style="fill:#262626;" transform="translate(130.477027 402.338281)scale(0.11 -0.11)">
       <defs>
        <path d="M 12.40625 8.296875 
L 28.515625 8.296875 
L 28.515625 63.921875 
L 10.984375 60.40625 
L 10.984375 69.390625 
L 28.421875 72.90625 
L 38.28125 72.90625 
L 38.28125 8.296875 
L 54.390625 8.296875 
L 54.390625 0 
L 12.40625 0 
z
" id="DejaVuSans-49"/>
       </defs>
       <use xlink:href="#DejaVuSans-49"/>
      </g>
     </g>
    </g>
    <g id="xtick_3">
     <g id="line2d_3">
      <path clip-path="url(#p6ad78aca22)" d="M 198.734623 384.48 
L 198.734623 51.84 
" style="fill:none;stroke:#ffffff;stroke-linecap:round;"/>
     </g>
     <g id="text_3">
      <!-- 2 -->
      <g style="fill:#262626;" transform="translate(195.235248 402.338281)scale(0.11 -0.11)">
       <defs>
        <path d="M 19.1875 8.296875 
L 53.609375 8.296875 
L 53.609375 0 
L 7.328125 0 
L 7.328125 8.296875 
Q 12.9375 14.109375 22.625 23.890625 
Q 32.328125 33.6875 34.8125 36.53125 
Q 39.546875 41.84375 41.421875 45.53125 
Q 43.3125 49.21875 43.3125 52.78125 
Q 43.3125 58.59375 39.234375 62.25 
Q 35.15625 65.921875 28.609375 65.921875 
Q 23.96875 65.921875 18.8125 64.3125 
Q 13.671875 62.703125 7.8125 59.421875 
L 7.8125 69.390625 
Q 13.765625 71.78125 18.9375 73 
Q 24.125 74.21875 28.421875 74.21875 
Q 39.75 74.21875 46.484375 68.546875 
Q 53.21875 62.890625 53.21875 53.421875 
Q 53.21875 48.921875 51.53125 44.890625 
Q 49.859375 40.875 45.40625 35.40625 
Q 44.1875 33.984375 37.640625 27.21875 
Q 31.109375 20.453125 19.1875 8.296875 
z
" id="DejaVuSans-50"/>
       </defs>
       <use xlink:href="#DejaVuSans-50"/>
      </g>
     </g>
    </g>
    <g id="xtick_4">
     <g id="line2d_4">
      <path clip-path="url(#p6ad78aca22)" d="M 263.492843 384.48 
L 263.492843 51.84 
" style="fill:none;stroke:#ffffff;stroke-linecap:round;"/>
     </g>
     <g id="text_4">
      <!-- 3 -->
      <g style="fill:#262626;" transform="translate(259.993468 402.338281)scale(0.11 -0.11)">
       <defs>
        <path d="M 40.578125 39.3125 
Q 47.65625 37.796875 51.625 33 
Q 55.609375 28.21875 55.609375 21.1875 
Q 55.609375 10.40625 48.1875 4.484375 
Q 40.765625 -1.421875 27.09375 -1.421875 
Q 22.515625 -1.421875 17.65625 -0.515625 
Q 12.796875 0.390625 7.625 2.203125 
L 7.625 11.71875 
Q 11.71875 9.328125 16.59375 8.109375 
Q 21.484375 6.890625 26.8125 6.890625 
Q 36.078125 6.890625 40.9375 10.546875 
Q 45.796875 14.203125 45.796875 21.1875 
Q 45.796875 27.640625 41.28125 31.265625 
Q 36.765625 34.90625 28.71875 34.90625 
L 20.21875 34.90625 
L 20.21875 43.015625 
L 29.109375 43.015625 
Q 36.375 43.015625 40.234375 45.921875 
Q 44.09375 48.828125 44.09375 54.296875 
Q 44.09375 59.90625 40.109375 62.90625 
Q 36.140625 65.921875 28.71875 65.921875 
Q 24.65625 65.921875 20.015625 65.03125 
Q 15.375 64.15625 9.8125 62.3125 
L 9.8125 71.09375 
Q 15.4375 72.65625 20.34375 73.4375 
Q 25.25 74.21875 29.59375 74.21875 
Q 40.828125 74.21875 47.359375 69.109375 
Q 53.90625 64.015625 53.90625 55.328125 
Q 53.90625 49.265625 50.4375 45.09375 
Q 46.96875 40.921875 40.578125 39.3125 
z
" id="DejaVuSans-51"/>
       </defs>
       <use xlink:href="#DejaVuSans-51"/>
      </g>
     </g>
    </g>
    <g id="xtick_5">
     <g id="line2d_5">
      <path clip-path="url(#p6ad78aca22)" d="M 328.251064 384.48 
L 328.251064 51.84 
" style="fill:none;stroke:#ffffff;stroke-linecap:round;"/>
     </g>
     <g id="text_5">
      <!-- 4 -->
      <g style="fill:#262626;" transform="translate(324.751689 402.338281)scale(0.11 -0.11)">
       <defs>
        <path d="M 37.796875 64.3125 
L 12.890625 25.390625 
L 37.796875 25.390625 
z
M 35.203125 72.90625 
L 47.609375 72.90625 
L 47.609375 25.390625 
L 58.015625 25.390625 
L 58.015625 17.1875 
L 47.609375 17.1875 
L 47.609375 0 
L 37.796875 0 
L 37.796875 17.1875 
L 4.890625 17.1875 
L 4.890625 26.703125 
z
" id="DejaVuSans-52"/>
       </defs>
       <use xlink:href="#DejaVuSans-52"/>
      </g>
     </g>
    </g>
    <g id="text_6">
     <!-- $t$ -->
     <g style="fill:#262626;" transform="translate(219 417.744062)scale(0.12 -0.12)">
      <defs>
       <path d="M 42.28125 54.6875 
L 40.921875 47.703125 
L 23 47.703125 
L 17.1875 18.015625 
Q 16.890625 16.359375 16.75 15.234375 
Q 16.609375 14.109375 16.609375 13.484375 
Q 16.609375 10.359375 18.484375 8.9375 
Q 20.359375 7.515625 24.515625 7.515625 
L 33.59375 7.515625 
L 32.078125 0 
L 23.484375 0 
Q 15.484375 0 11.546875 3.125 
Q 7.625 6.25 7.625 12.59375 
Q 7.625 13.71875 7.765625 15.0625 
Q 7.90625 16.40625 8.203125 18.015625 
L 14.015625 47.703125 
L 6.390625 47.703125 
L 7.8125 54.6875 
L 15.28125 54.6875 
L 18.3125 70.21875 
L 27.296875 70.21875 
L 24.3125 54.6875 
z
" id="DejaVuSans-Oblique-116"/>
      </defs>
      <use transform="translate(0 0.78125)" xlink:href="#DejaVuSans-Oblique-116"/>
     </g>
    </g>
   </g>
   <g id="matplotlib.axis_2">
    <g id="ytick_1">
     <g id="line2d_6">
      <path clip-path="url(#p6ad78aca22)" d="M 54 371.8832 
L 388.8 371.8832 
" style="fill:none;stroke:#ffffff;stroke-linecap:round;"/>
     </g>
     <g id="text_7">
      <!-- 0.0 -->
      <g style="fill:#262626;" transform="translate(27.006563 376.062341)scale(0.11 -0.11)">
       <defs>
        <path d="M 10.6875 12.40625 
L 21 12.40625 
L 21 0 
L 10.6875 0 
z
" id="DejaVuSans-46"/>
       </defs>
       <use xlink:href="#DejaVuSans-48"/>
       <use x="63.623047" xlink:href="#DejaVuSans-46"/>
       <use x="95.410156" xlink:href="#DejaVuSans-48"/>
      </g>
     </g>
    </g>
    <g id="ytick_2">
     <g id="line2d_7">
      <path clip-path="url(#p6ad78aca22)" d="M 54 328.372771 
L 388.8 328.372771 
" style="fill:none;stroke:#ffffff;stroke-linecap:round;"/>
     </g>
     <g id="text_8">
      <!-- 0.5 -->
      <g style="fill:#262626;" transform="translate(27.006563 332.551912)scale(0.11 -0.11)">
       <defs>
        <path d="M 10.796875 72.90625 
L 49.515625 72.90625 
L 49.515625 64.59375 
L 19.828125 64.59375 
L 19.828125 46.734375 
Q 21.96875 47.46875 24.109375 47.828125 
Q 26.265625 48.1875 28.421875 48.1875 
Q 40.625 48.1875 47.75 41.5 
Q 54.890625 34.8125 54.890625 23.390625 
Q 54.890625 11.625 47.5625 5.09375 
Q 40.234375 -1.421875 26.90625 -1.421875 
Q 22.3125 -1.421875 17.546875 -0.640625 
Q 12.796875 0.140625 7.71875 1.703125 
L 7.71875 11.625 
Q 12.109375 9.234375 16.796875 8.0625 
Q 21.484375 6.890625 26.703125 6.890625 
Q 35.15625 6.890625 40.078125 11.328125 
Q 45.015625 15.765625 45.015625 23.390625 
Q 45.015625 31 40.078125 35.4375 
Q 35.15625 39.890625 26.703125 39.890625 
Q 22.75 39.890625 18.8125 39.015625 
Q 14.890625 38.140625 10.796875 36.28125 
z
" id="DejaVuSans-53"/>
       </defs>
       <use xlink:href="#DejaVuSans-48"/>
       <use x="63.623047" xlink:href="#DejaVuSans-46"/>
       <use x="95.410156" xlink:href="#DejaVuSans-53"/>
      </g>
     </g>
    </g>
    <g id="ytick_3">
     <g id="line2d_8">
      <path clip-path="url(#p6ad78aca22)" d="M 54 284.862343 
L 388.8 284.862343 
" style="fill:none;stroke:#ffffff;stroke-linecap:round;"/>
     </g>
     <g id="text_9">
      <!-- 1.0 -->
      <g style="fill:#262626;" transform="translate(27.006563 289.041484)scale(0.11 -0.11)">
       <use xlink:href="#DejaVuSans-49"/>
       <use x="63.623047" xlink:href="#DejaVuSans-46"/>
       <use x="95.410156" xlink:href="#DejaVuSans-48"/>
      </g>
     </g>
    </g>
    <g id="ytick_4">
     <g id="line2d_9">
      <path clip-path="url(#p6ad78aca22)" d="M 54 241.351915 
L 388.8 241.351915 
" style="fill:none;stroke:#ffffff;stroke-linecap:round;"/>
     </g>
     <g id="text_10">
      <!-- 1.5 -->
      <g style="fill:#262626;" transform="translate(27.006563 245.531055)scale(0.11 -0.11)">
       <use xlink:href="#DejaVuSans-49"/>
       <use x="63.623047" xlink:href="#DejaVuSans-46"/>
       <use x="95.410156" xlink:href="#DejaVuSans-53"/>
      </g>
     </g>
    </g>
    <g id="ytick_5">
     <g id="line2d_10">
      <path clip-path="url(#p6ad78aca22)" d="M 54 197.841486 
L 388.8 197.841486 
" style="fill:none;stroke:#ffffff;stroke-linecap:round;"/>
     </g>
     <g id="text_11">
      <!-- 2.0 -->
      <g style="fill:#262626;" transform="translate(27.006563 202.020627)scale(0.11 -0.11)">
       <use xlink:href="#DejaVuSans-50"/>
       <use x="63.623047" xlink:href="#DejaVuSans-46"/>
       <use x="95.410156" xlink:href="#DejaVuSans-48"/>
      </g>
     </g>
    </g>
    <g id="ytick_6">
     <g id="line2d_11">
      <path clip-path="url(#p6ad78aca22)" d="M 54 154.331058 
L 388.8 154.331058 
" style="fill:none;stroke:#ffffff;stroke-linecap:round;"/>
     </g>
     <g id="text_12">
      <!-- 2.5 -->
      <g style="fill:#262626;" transform="translate(27.006563 158.510198)scale(0.11 -0.11)">
       <use xlink:href="#DejaVuSans-50"/>
       <use x="63.623047" xlink:href="#DejaVuSans-46"/>
       <use x="95.410156" xlink:href="#DejaVuSans-53"/>
      </g>
     </g>
    </g>
    <g id="ytick_7">
     <g id="line2d_12">
      <path clip-path="url(#p6ad78aca22)" d="M 54 110.820629 
L 388.8 110.820629 
" style="fill:none;stroke:#ffffff;stroke-linecap:round;"/>
     </g>
     <g id="text_13">
      <!-- 3.0 -->
      <g style="fill:#262626;" transform="translate(27.006563 114.99977)scale(0.11 -0.11)">
       <use xlink:href="#DejaVuSans-51"/>
       <use x="63.623047" xlink:href="#DejaVuSans-46"/>
       <use x="95.410156" xlink:href="#DejaVuSans-48"/>
      </g>
     </g>
    </g>
    <g id="ytick_8">
     <g id="line2d_13">
      <path clip-path="url(#p6ad78aca22)" d="M 54 67.310201 
L 388.8 67.310201 
" style="fill:none;stroke:#ffffff;stroke-linecap:round;"/>
     </g>
     <g id="text_14">
      <!-- 3.5 -->
      <g style="fill:#262626;" transform="translate(27.006563 71.489341)scale(0.11 -0.11)">
       <use xlink:href="#DejaVuSans-51"/>
       <use x="63.623047" xlink:href="#DejaVuSans-46"/>
       <use x="95.410156" xlink:href="#DejaVuSans-53"/>
      </g>
     </g>
    </g>
    <g id="text_15">
     <!-- $&lt;r^2(t)&gt;$ -->
     <g style="fill:#262626;" transform="translate(20.510937 245.52)rotate(-90)scale(0.12 -0.12)">
      <defs>
       <path d="M 73.1875 49.21875 
L 22.796875 31.296875 
L 73.1875 13.484375 
L 73.1875 4.59375 
L 10.59375 27.296875 
L 10.59375 35.40625 
L 73.1875 58.109375 
z
" id="DejaVuSans-60"/>
       <path d="M 44.578125 46.390625 
Q 43.21875 47.125 41.453125 47.515625 
Q 39.703125 47.90625 37.703125 47.90625 
Q 30.515625 47.90625 25.140625 42.453125 
Q 19.78125 37.015625 18.015625 27.875 
L 12.5 0 
L 3.515625 0 
L 14.203125 54.6875 
L 23.1875 54.6875 
L 21.484375 46.1875 
Q 25.046875 50.921875 30 53.453125 
Q 34.96875 56 40.578125 56 
Q 42.046875 56 43.453125 55.828125 
Q 44.875 55.671875 46.296875 55.28125 
z
" id="DejaVuSans-Oblique-114"/>
       <path d="M 31 75.875 
Q 24.46875 64.65625 21.28125 53.65625 
Q 18.109375 42.671875 18.109375 31.390625 
Q 18.109375 20.125 21.3125 9.0625 
Q 24.515625 -2 31 -13.1875 
L 23.1875 -13.1875 
Q 15.875 -1.703125 12.234375 9.375 
Q 8.59375 20.453125 8.59375 31.390625 
Q 8.59375 42.28125 12.203125 53.3125 
Q 15.828125 64.359375 23.1875 75.875 
z
" id="DejaVuSans-40"/>
       <path d="M 8.015625 75.875 
L 15.828125 75.875 
Q 23.140625 64.359375 26.78125 53.3125 
Q 30.421875 42.28125 30.421875 31.390625 
Q 30.421875 20.453125 26.78125 9.375 
Q 23.140625 -1.703125 15.828125 -13.1875 
L 8.015625 -13.1875 
Q 14.5 -2 17.703125 9.0625 
Q 20.90625 20.125 20.90625 31.390625 
Q 20.90625 42.671875 17.703125 53.65625 
Q 14.5 64.65625 8.015625 75.875 
z
" id="DejaVuSans-41"/>
       <path d="M 10.59375 49.21875 
L 10.59375 58.109375 
L 73.1875 35.40625 
L 73.1875 27.296875 
L 10.59375 4.59375 
L 10.59375 13.484375 
L 60.890625 31.296875 
z
" id="DejaVuSans-62"/>
      </defs>
      <use transform="translate(19.482422 0.765625)" xlink:href="#DejaVuSans-60"/>
      <use transform="translate(122.753906 0.765625)" xlink:href="#DejaVuSans-Oblique-114"/>
      <use transform="translate(168.517083 39.046875)scale(0.7)" xlink:href="#DejaVuSans-50"/>
      <use transform="translate(215.787591 0.765625)" xlink:href="#DejaVuSans-40"/>
      <use transform="translate(254.801263 0.765625)" xlink:href="#DejaVuSans-Oblique-116"/>
      <use transform="translate(294.010247 0.765625)" xlink:href="#DejaVuSans-41"/>
      <use transform="translate(352.506341 0.765625)" xlink:href="#DejaVuSans-62"/>
     </g>
    </g>
   </g>
   <g id="line2d_14">
    <path clip-path="url(#p6ad78aca22)" d="M 69.218182 369.36 
L 75.694004 364.244758 
L 82.169826 358.576094 
L 88.645648 352.738244 
L 95.12147 346.858695 
L 101.597292 340.993038 
L 108.073114 335.12996 
L 114.548936 329.279177 
L 121.024758 323.412685 
L 127.50058 317.48278 
L 133.976402 311.435573 
L 140.452224 305.296023 
L 146.928046 299.070587 
L 153.403868 292.810177 
L 159.879691 286.545592 
L 166.355513 280.251066 
L 172.831335 273.918543 
L 179.307157 267.579456 
L 185.782979 261.262567 
L 192.258801 254.950863 
L 198.734623 248.613842 
L 205.210445 242.256799 
L 211.686267 235.901233 
L 218.162089 229.579007 
L 224.637911 223.30027 
L 231.113733 217.100767 
L 237.589555 210.997613 
L 244.065377 204.927092 
L 250.541199 198.876742 
L 257.017021 192.847024 
L 263.492843 186.833121 
L 269.968665 180.826705 
L 276.444487 174.826175 
L 282.920309 168.867323 
L 289.396132 162.948019 
L 295.871954 157.102363 
L 302.347776 151.220337 
L 308.823598 145.394459 
L 315.29942 139.669919 
L 321.775242 133.888316 
L 328.251064 128.030295 
L 334.726886 122.203336 
L 341.202708 116.50012 
L 347.67853 110.843747 
L 354.154352 105.270542 
L 360.630174 99.844995 
L 367.105996 94.431095 
L 373.581818 88.944394 
" style="fill:none;stroke:#4c72b0;stroke-linecap:round;stroke-width:1.5;"/>
   </g>
   <g id="line2d_15">
    <path clip-path="url(#p6ad78aca22)" d="M 289.396132 384.48 
L 289.396132 51.84 
" style="fill:none;stroke:#4c72b0;stroke-linecap:round;stroke-width:1.5;"/>
   </g>
   <g id="line2d_16">
    <path clip-path="url(#p6ad78aca22)" d="M 69.218182 369.358043 
L 75.694004 364.258501 
L 82.169826 358.641193 
L 88.645648 352.849473 
L 95.12147 346.982712 
L 101.597292 341.036354 
L 108.073114 335.01583 
L 114.548936 328.970134 
L 121.024758 322.930352 
L 127.50058 316.871617 
L 133.976402 310.769984 
L 140.452224 304.598622 
L 146.928046 298.349544 
L 153.403868 292.095415 
L 159.879691 285.856656 
L 166.355513 279.583125 
L 172.831335 273.213564 
L 179.307157 266.803456 
L 185.782979 260.393188 
L 192.258801 253.950509 
L 198.734623 247.445414 
L 205.210445 240.935547 
L 211.686267 234.444521 
L 218.162089 227.982258 
L 224.637911 221.488405 
L 231.113733 215.003321 
L 237.589555 208.4764 
L 244.065377 201.83428 
L 250.541199 195.083703 
L 257.017021 188.302764 
L 263.492843 181.565278 
L 269.968665 174.853183 
L 276.444487 168.125722 
L 282.920309 161.454231 
L 289.396132 154.872186 
L 295.871954 148.320739 
L 302.347776 141.701944 
L 308.823598 135.046422 
L 315.29942 128.33763 
L 321.775242 121.567569 
L 328.251064 114.717499 
L 334.726886 107.849248 
L 341.202708 101.008309 
L 347.67853 94.20874 
L 354.154352 87.41581 
L 360.630174 80.598045 
L 367.105996 73.791955 
L 373.581818 66.96 
" style="fill:none;stroke:#dd8452;stroke-linecap:round;stroke-width:1.5;"/>
   </g>
   <g id="line2d_17">
    <path clip-path="url(#p6ad78aca22)" d="M 289.396132 384.48 
L 289.396132 51.84 
" style="fill:none;stroke:#4c72b0;stroke-linecap:round;stroke-width:1.5;"/>
   </g>
   <g id="line2d_18">
    <path clip-path="url(#p6ad78aca22)" d="M 69.218182 369.336952 
L 75.694004 364.145248 
L 82.169826 358.3742 
L 88.645648 352.387656 
L 95.12147 346.292902 
L 101.597292 340.142404 
L 108.073114 333.992833 
L 114.548936 327.856667 
L 121.024758 321.716997 
L 127.50058 315.52676 
L 133.976402 309.260406 
L 140.452224 302.941574 
L 146.928046 296.546642 
L 153.403868 290.14404 
L 159.879691 283.744396 
L 166.355513 277.329287 
L 172.831335 270.808533 
L 179.307157 264.182301 
L 185.782979 257.484764 
L 192.258801 250.740981 
L 198.734623 243.946431 
L 205.210445 237.155907 
L 211.686267 230.400613 
L 218.162089 223.717906 
L 224.637911 217.092751 
L 231.113733 210.506323 
L 237.589555 203.912062 
L 244.065377 197.255741 
L 250.541199 190.528333 
L 257.017021 183.735667 
L 263.492843 176.9446 
L 269.968665 170.152646 
L 276.444487 163.364089 
L 282.920309 156.593533 
L 289.396132 149.928487 
L 295.871954 143.429602 
L 302.347776 137.031181 
L 308.823598 130.741706 
L 315.29942 124.575231 
L 321.775242 118.445837 
L 328.251064 112.357745 
L 334.726886 106.271241 
L 341.202708 100.216502 
L 347.67853 94.196517 
L 354.154352 88.213952 
L 360.630174 82.23211 
L 367.105996 76.232454 
L 373.581818 70.278899 
" style="fill:none;stroke:#55a868;stroke-linecap:round;stroke-width:1.5;"/>
   </g>
   <g id="line2d_19">
    <path clip-path="url(#p6ad78aca22)" d="M 289.396132 384.48 
L 289.396132 51.84 
" style="fill:none;stroke:#4c72b0;stroke-linecap:round;stroke-width:1.5;"/>
   </g>
   <g id="patch_3">
    <path d="M 54 384.48 
L 54 51.84 
" style="fill:none;stroke:#ffffff;stroke-linecap:square;stroke-linejoin:miter;stroke-width:1.25;"/>
   </g>
   <g id="patch_4">
    <path d="M 388.8 384.48 
L 388.8 51.84 
" style="fill:none;stroke:#ffffff;stroke-linecap:square;stroke-linejoin:miter;stroke-width:1.25;"/>
   </g>
   <g id="patch_5">
    <path d="M 54 384.48 
L 388.8 384.48 
" style="fill:none;stroke:#ffffff;stroke-linecap:square;stroke-linejoin:miter;stroke-width:1.25;"/>
   </g>
   <g id="patch_6">
    <path d="M 54 51.84 
L 388.8 51.84 
" style="fill:none;stroke:#ffffff;stroke-linecap:square;stroke-linejoin:miter;stroke-width:1.25;"/>
   </g>
   <g id="legend_1">
    <g id="patch_7">
     <path d="M 61.7 109.077812 
L 205.58 109.077812 
Q 207.78 109.077812 207.78 106.877813 
L 207.78 59.54 
Q 207.78 57.34 205.58 57.34 
L 61.7 57.34 
Q 59.5 57.34 59.5 59.54 
L 59.5 106.877813 
Q 59.5 109.077812 61.7 109.077812 
z
" style="fill:#eaeaf2;opacity:0.8;stroke:#cccccc;stroke-linejoin:miter;"/>
    </g>
    <g id="line2d_20">
     <path d="M 63.9 66.248281 
L 85.9 66.248281 
" style="fill:none;stroke:#4c72b0;stroke-linecap:round;stroke-width:1.5;"/>
    </g>
    <g id="line2d_21"/>
    <g id="text_16">
     <!-- $D = 0.109$, $\tau = 100$ -->
     <g style="fill:#262626;" transform="translate(94.7 70.098281)scale(0.11 -0.11)">
      <defs>
       <path d="M 16.890625 72.90625 
L 38.09375 72.90625 
Q 54.984375 72.90625 63.59375 65.75 
Q 72.21875 58.59375 72.21875 44.484375 
Q 72.21875 35.15625 68.9375 26.53125 
Q 65.671875 17.921875 59.90625 12.015625 
Q 54.109375 5.953125 45.171875 2.96875 
Q 36.234375 0 24.03125 0 
L 2.6875 0 
z
M 25.203125 64.796875 
L 14.203125 8.109375 
L 27.09375 8.109375 
Q 43.65625 8.109375 52.734375 17.625 
Q 61.8125 27.15625 61.8125 44.484375 
Q 61.8125 54.984375 55.953125 59.890625 
Q 50.09375 64.796875 37.59375 64.796875 
z
" id="DejaVuSans-Oblique-68"/>
       <path d="M 10.59375 45.40625 
L 73.1875 45.40625 
L 73.1875 37.203125 
L 10.59375 37.203125 
z
M 10.59375 25.484375 
L 73.1875 25.484375 
L 73.1875 17.1875 
L 10.59375 17.1875 
z
" id="DejaVuSans-61"/>
       <path d="M 10.984375 1.515625 
L 10.984375 10.5 
Q 14.703125 8.734375 18.5 7.8125 
Q 22.3125 6.890625 25.984375 6.890625 
Q 35.75 6.890625 40.890625 13.453125 
Q 46.046875 20.015625 46.78125 33.40625 
Q 43.953125 29.203125 39.59375 26.953125 
Q 35.25 24.703125 29.984375 24.703125 
Q 19.046875 24.703125 12.671875 31.3125 
Q 6.296875 37.9375 6.296875 49.421875 
Q 6.296875 60.640625 12.9375 67.421875 
Q 19.578125 74.21875 30.609375 74.21875 
Q 43.265625 74.21875 49.921875 64.515625 
Q 56.59375 54.828125 56.59375 36.375 
Q 56.59375 19.140625 48.40625 8.859375 
Q 40.234375 -1.421875 26.421875 -1.421875 
Q 22.703125 -1.421875 18.890625 -0.6875 
Q 15.09375 0.046875 10.984375 1.515625 
z
M 30.609375 32.421875 
Q 37.25 32.421875 41.125 36.953125 
Q 45.015625 41.5 45.015625 49.421875 
Q 45.015625 57.28125 41.125 61.84375 
Q 37.25 66.40625 30.609375 66.40625 
Q 23.96875 66.40625 20.09375 61.84375 
Q 16.21875 57.28125 16.21875 49.421875 
Q 16.21875 41.5 20.09375 36.953125 
Q 23.96875 32.421875 30.609375 32.421875 
z
" id="DejaVuSans-57"/>
       <path d="M 11.71875 12.40625 
L 22.015625 12.40625 
L 22.015625 4 
L 14.015625 -11.625 
L 7.71875 -11.625 
L 11.71875 4 
z
" id="DejaVuSans-44"/>
       <path id="DejaVuSans-32"/>
       <path d="M 32.859375 9.96875 
Q 34.1875 7.625 39.453125 7.625 
L 43.75 7.625 
L 42.28125 0 
L 36.921875 0 
Q 28.125 0 25 4.6875 
Q 21.921875 9.46875 23.96875 19.828125 
L 29 45.703125 
L 8.453125 45.703125 
L 10.203125 54.6875 
L 60.640625 54.6875 
L 58.890625 45.703125 
L 38.1875 45.703125 
L 33.015625 19.28125 
Q 31.640625 12.203125 32.859375 9.96875 
z
" id="DejaVuSans-Oblique-964"/>
      </defs>
      <use transform="translate(0 0.78125)" xlink:href="#DejaVuSans-Oblique-68"/>
      <use transform="translate(96.484375 0.78125)" xlink:href="#DejaVuSans-61"/>
      <use transform="translate(199.755859 0.78125)" xlink:href="#DejaVuSans-48"/>
      <use transform="translate(263.378906 0.78125)" xlink:href="#DejaVuSans-46"/>
      <use transform="translate(295.166016 0.78125)" xlink:href="#DejaVuSans-49"/>
      <use transform="translate(358.789062 0.78125)" xlink:href="#DejaVuSans-48"/>
      <use transform="translate(422.412109 0.78125)" xlink:href="#DejaVuSans-57"/>
      <use transform="translate(486.035156 0.78125)" xlink:href="#DejaVuSans-44"/>
      <use transform="translate(517.822266 0.78125)" xlink:href="#DejaVuSans-32"/>
      <use transform="translate(549.609375 0.78125)" xlink:href="#DejaVuSans-Oblique-964"/>
      <use transform="translate(629.296875 0.78125)" xlink:href="#DejaVuSans-61"/>
      <use transform="translate(732.568359 0.78125)" xlink:href="#DejaVuSans-49"/>
      <use transform="translate(796.191406 0.78125)" xlink:href="#DejaVuSans-48"/>
      <use transform="translate(859.814453 0.78125)" xlink:href="#DejaVuSans-48"/>
     </g>
    </g>
    <g id="line2d_22">
     <path d="M 63.9 82.394219 
L 85.9 82.394219 
" style="fill:none;stroke:#dd8452;stroke-linecap:round;stroke-width:1.5;"/>
    </g>
    <g id="line2d_23"/>
    <g id="text_17">
     <!-- $D = 0.130$, $\tau = 600$ -->
     <g style="fill:#262626;" transform="translate(94.7 86.244219)scale(0.11 -0.11)">
      <defs>
       <path d="M 33.015625 40.375 
Q 26.375 40.375 22.484375 35.828125 
Q 18.609375 31.296875 18.609375 23.390625 
Q 18.609375 15.53125 22.484375 10.953125 
Q 26.375 6.390625 33.015625 6.390625 
Q 39.65625 6.390625 43.53125 10.953125 
Q 47.40625 15.53125 47.40625 23.390625 
Q 47.40625 31.296875 43.53125 35.828125 
Q 39.65625 40.375 33.015625 40.375 
z
M 52.59375 71.296875 
L 52.59375 62.3125 
Q 48.875 64.0625 45.09375 64.984375 
Q 41.3125 65.921875 37.59375 65.921875 
Q 27.828125 65.921875 22.671875 59.328125 
Q 17.53125 52.734375 16.796875 39.40625 
Q 19.671875 43.65625 24.015625 45.921875 
Q 28.375 48.1875 33.59375 48.1875 
Q 44.578125 48.1875 50.953125 41.515625 
Q 57.328125 34.859375 57.328125 23.390625 
Q 57.328125 12.15625 50.6875 5.359375 
Q 44.046875 -1.421875 33.015625 -1.421875 
Q 20.359375 -1.421875 13.671875 8.265625 
Q 6.984375 17.96875 6.984375 36.375 
Q 6.984375 53.65625 15.1875 63.9375 
Q 23.390625 74.21875 37.203125 74.21875 
Q 40.921875 74.21875 44.703125 73.484375 
Q 48.484375 72.75 52.59375 71.296875 
z
" id="DejaVuSans-54"/>
      </defs>
      <use transform="translate(0 0.78125)" xlink:href="#DejaVuSans-Oblique-68"/>
      <use transform="translate(96.484375 0.78125)" xlink:href="#DejaVuSans-61"/>
      <use transform="translate(199.755859 0.78125)" xlink:href="#DejaVuSans-48"/>
      <use transform="translate(263.378906 0.78125)" xlink:href="#DejaVuSans-46"/>
      <use transform="translate(295.166016 0.78125)" xlink:href="#DejaVuSans-49"/>
      <use transform="translate(358.789062 0.78125)" xlink:href="#DejaVuSans-51"/>
      <use transform="translate(422.412109 0.78125)" xlink:href="#DejaVuSans-48"/>
      <use transform="translate(486.035156 0.78125)" xlink:href="#DejaVuSans-44"/>
      <use transform="translate(517.822266 0.78125)" xlink:href="#DejaVuSans-32"/>
      <use transform="translate(549.609375 0.78125)" xlink:href="#DejaVuSans-Oblique-964"/>
      <use transform="translate(629.296875 0.78125)" xlink:href="#DejaVuSans-61"/>
      <use transform="translate(732.568359 0.78125)" xlink:href="#DejaVuSans-54"/>
      <use transform="translate(796.191406 0.78125)" xlink:href="#DejaVuSans-48"/>
      <use transform="translate(859.814453 0.78125)" xlink:href="#DejaVuSans-48"/>
     </g>
    </g>
    <g id="line2d_24">
     <path d="M 63.9 98.540156 
L 85.9 98.540156 
" style="fill:none;stroke:#55a868;stroke-linecap:round;stroke-width:1.5;"/>
    </g>
    <g id="line2d_25"/>
    <g id="text_18">
     <!-- $D = 0.117$, $\tau = 1100$ -->
     <g style="fill:#262626;" transform="translate(94.7 102.390156)scale(0.11 -0.11)">
      <defs>
       <path d="M 8.203125 72.90625 
L 55.078125 72.90625 
L 55.078125 68.703125 
L 28.609375 0 
L 18.3125 0 
L 43.21875 64.59375 
L 8.203125 64.59375 
z
" id="DejaVuSans-55"/>
      </defs>
      <use transform="translate(0 0.78125)" xlink:href="#DejaVuSans-Oblique-68"/>
      <use transform="translate(96.484375 0.78125)" xlink:href="#DejaVuSans-61"/>
      <use transform="translate(199.755859 0.78125)" xlink:href="#DejaVuSans-48"/>
      <use transform="translate(263.378906 0.78125)" xlink:href="#DejaVuSans-46"/>
      <use transform="translate(295.166016 0.78125)" xlink:href="#DejaVuSans-49"/>
      <use transform="translate(358.789062 0.78125)" xlink:href="#DejaVuSans-49"/>
      <use transform="translate(422.412109 0.78125)" xlink:href="#DejaVuSans-55"/>
      <use transform="translate(486.035156 0.78125)" xlink:href="#DejaVuSans-44"/>
      <use transform="translate(517.822266 0.78125)" xlink:href="#DejaVuSans-32"/>
      <use transform="translate(549.609375 0.78125)" xlink:href="#DejaVuSans-Oblique-964"/>
      <use transform="translate(629.296875 0.78125)" xlink:href="#DejaVuSans-61"/>
      <use transform="translate(732.568359 0.78125)" xlink:href="#DejaVuSans-49"/>
      <use transform="translate(796.191406 0.78125)" xlink:href="#DejaVuSans-49"/>
      <use transform="translate(859.814453 0.78125)" xlink:href="#DejaVuSans-48"/>
      <use transform="translate(923.4375 0.78125)" xlink:href="#DejaVuSans-48"/>
     </g>
    </g>
   </g>
  </g>
 </g>
 <defs>
  <clipPath id="p6ad78aca22">
   <rect height="332.64" width="334.8" x="54" y="51.84"/>
  </clipPath>
 </defs>
</svg>
