<?xml version="1.0" encoding="utf-8" standalone="no"?>
<!DOCTYPE svg PUBLIC "-//W3C//DTD SVG 1.1//EN"
  "http://www.w3.org/Graphics/SVG/1.1/DTD/svg11.dtd">
<!-- Created with matplotlib (https://matplotlib.org/) -->
<svg height="432pt" version="1.1" viewBox="0 0 432 432" width="432pt" xmlns="http://www.w3.org/2000/svg" xmlns:xlink="http://www.w3.org/1999/xlink">
 <metadata>
  <rdf:RDF xmlns:cc="http://creativecommons.org/ns#" xmlns:dc="http://purl.org/dc/elements/1.1/" xmlns:rdf="http://www.w3.org/1999/02/22-rdf-syntax-ns#">
   <cc:Work>
    <dc:type rdf:resource="http://purl.org/dc/dcmitype/StillImage"/>
    <dc:date>2021-03-29T13:34:01.301086</dc:date>
    <dc:format>image/svg+xml</dc:format>
    <dc:creator>
     <cc:Agent>
      <dc:title>Matplotlib v3.3.3, https://matplotlib.org/</dc:title>
     </cc:Agent>
    </dc:creator>
   </cc:Work>
  </rdf:RDF>
 </metadata>
 <defs>
  <style type="text/css">*{stroke-linecap:butt;stroke-linejoin:round;}</style>
 </defs>
 <g id="figure_1">
  <g id="patch_1">
   <path d="M 0 432 
L 432 432 
L 432 0 
L 0 0 
z
" style="fill:#ffffff;"/>
  </g>
  <g id="axes_1">
   <g id="patch_2">
    <path d="M 54 384.48 
L 388.8 384.48 
L 388.8 51.84 
L 54 51.84 
z
" style="fill:#eaeaf2;"/>
   </g>
   <g id="matplotlib.axis_1">
    <g id="xtick_1">
     <g id="line2d_1">
      <path clip-path="url(#p9150b2c3e5)" d="M 69.218182 384.48 
L 69.218182 51.84 
" style="fill:none;stroke:#ffffff;stroke-linecap:round;"/>
     </g>
     <g id="text_1">
      <!-- 0 -->
      <g style="fill:#262626;" transform="translate(65.718807 402.338281)scale(0.11 -0.11)">
       <defs>
        <path d="M 31.78125 66.40625 
Q 24.171875 66.40625 20.328125 58.90625 
Q 16.5 51.421875 16.5 36.375 
Q 16.5 21.390625 20.328125 13.890625 
Q 24.171875 6.390625 31.78125 6.390625 
Q 39.453125 6.390625 43.28125 13.890625 
Q 47.125 21.390625 47.125 36.375 
Q 47.125 51.421875 43.28125 58.90625 
Q 39.453125 66.40625 31.78125 66.40625 
z
M 31.78125 74.21875 
Q 44.046875 74.21875 50.515625 64.515625 
Q 56.984375 54.828125 56.984375 36.375 
Q 56.984375 17.96875 50.515625 8.265625 
Q 44.046875 -1.421875 31.78125 -1.421875 
Q 19.53125 -1.421875 13.0625 8.265625 
Q 6.59375 17.96875 6.59375 36.375 
Q 6.59375 54.828125 13.0625 64.515625 
Q 19.53125 74.21875 31.78125 74.21875 
z
" id="DejaVuSans-48"/>
       </defs>
       <use xlink:href="#DejaVuSans-48"/>
      </g>
     </g>
    </g>
    <g id="xtick_2">
     <g id="line2d_2">
      <path clip-path="url(#p9150b2c3e5)" d="M 131.973571 384.48 
L 131.973571 51.84 
" style="fill:none;stroke:#ffffff;stroke-linecap:round;"/>
     </g>
     <g id="text_2">
      <!-- 2 -->
      <g style="fill:#262626;" transform="translate(128.474196 402.338281)scale(0.11 -0.11)">
       <defs>
        <path d="M 19.1875 8.296875 
L 53.609375 8.296875 
L 53.609375 0 
L 7.328125 0 
L 7.328125 8.296875 
Q 12.9375 14.109375 22.625 23.890625 
Q 32.328125 33.6875 34.8125 36.53125 
Q 39.546875 41.84375 41.421875 45.53125 
Q 43.3125 49.21875 43.3125 52.78125 
Q 43.3125 58.59375 39.234375 62.25 
Q 35.15625 65.921875 28.609375 65.921875 
Q 23.96875 65.921875 18.8125 64.3125 
Q 13.671875 62.703125 7.8125 59.421875 
L 7.8125 69.390625 
Q 13.765625 71.78125 18.9375 73 
Q 24.125 74.21875 28.421875 74.21875 
Q 39.75 74.21875 46.484375 68.546875 
Q 53.21875 62.890625 53.21875 53.421875 
Q 53.21875 48.921875 51.53125 44.890625 
Q 49.859375 40.875 45.40625 35.40625 
Q 44.1875 33.984375 37.640625 27.21875 
Q 31.109375 20.453125 19.1875 8.296875 
z
" id="DejaVuSans-50"/>
       </defs>
       <use xlink:href="#DejaVuSans-50"/>
      </g>
     </g>
    </g>
    <g id="xtick_3">
     <g id="line2d_3">
      <path clip-path="url(#p9150b2c3e5)" d="M 194.72896 384.48 
L 194.72896 51.84 
" style="fill:none;stroke:#ffffff;stroke-linecap:round;"/>
     </g>
     <g id="text_3">
      <!-- 4 -->
      <g style="fill:#262626;" transform="translate(191.229585 402.338281)scale(0.11 -0.11)">
       <defs>
        <path d="M 37.796875 64.3125 
L 12.890625 25.390625 
L 37.796875 25.390625 
z
M 35.203125 72.90625 
L 47.609375 72.90625 
L 47.609375 25.390625 
L 58.015625 25.390625 
L 58.015625 17.1875 
L 47.609375 17.1875 
L 47.609375 0 
L 37.796875 0 
L 37.796875 17.1875 
L 4.890625 17.1875 
L 4.890625 26.703125 
z
" id="DejaVuSans-52"/>
       </defs>
       <use xlink:href="#DejaVuSans-52"/>
      </g>
     </g>
    </g>
    <g id="xtick_4">
     <g id="line2d_4">
      <path clip-path="url(#p9150b2c3e5)" d="M 257.484349 384.48 
L 257.484349 51.84 
" style="fill:none;stroke:#ffffff;stroke-linecap:round;"/>
     </g>
     <g id="text_4">
      <!-- 6 -->
      <g style="fill:#262626;" transform="translate(253.984974 402.338281)scale(0.11 -0.11)">
       <defs>
        <path d="M 33.015625 40.375 
Q 26.375 40.375 22.484375 35.828125 
Q 18.609375 31.296875 18.609375 23.390625 
Q 18.609375 15.53125 22.484375 10.953125 
Q 26.375 6.390625 33.015625 6.390625 
Q 39.65625 6.390625 43.53125 10.953125 
Q 47.40625 15.53125 47.40625 23.390625 
Q 47.40625 31.296875 43.53125 35.828125 
Q 39.65625 40.375 33.015625 40.375 
z
M 52.59375 71.296875 
L 52.59375 62.3125 
Q 48.875 64.0625 45.09375 64.984375 
Q 41.3125 65.921875 37.59375 65.921875 
Q 27.828125 65.921875 22.671875 59.328125 
Q 17.53125 52.734375 16.796875 39.40625 
Q 19.671875 43.65625 24.015625 45.921875 
Q 28.375 48.1875 33.59375 48.1875 
Q 44.578125 48.1875 50.953125 41.515625 
Q 57.328125 34.859375 57.328125 23.390625 
Q 57.328125 12.15625 50.6875 5.359375 
Q 44.046875 -1.421875 33.015625 -1.421875 
Q 20.359375 -1.421875 13.671875 8.265625 
Q 6.984375 17.96875 6.984375 36.375 
Q 6.984375 53.65625 15.1875 63.9375 
Q 23.390625 74.21875 37.203125 74.21875 
Q 40.921875 74.21875 44.703125 73.484375 
Q 48.484375 72.75 52.59375 71.296875 
z
" id="DejaVuSans-54"/>
       </defs>
       <use xlink:href="#DejaVuSans-54"/>
      </g>
     </g>
    </g>
    <g id="xtick_5">
     <g id="line2d_5">
      <path clip-path="url(#p9150b2c3e5)" d="M 320.239738 384.48 
L 320.239738 51.84 
" style="fill:none;stroke:#ffffff;stroke-linecap:round;"/>
     </g>
     <g id="text_5">
      <!-- 8 -->
      <g style="fill:#262626;" transform="translate(316.740363 402.338281)scale(0.11 -0.11)">
       <defs>
        <path d="M 31.78125 34.625 
Q 24.75 34.625 20.71875 30.859375 
Q 16.703125 27.09375 16.703125 20.515625 
Q 16.703125 13.921875 20.71875 10.15625 
Q 24.75 6.390625 31.78125 6.390625 
Q 38.8125 6.390625 42.859375 10.171875 
Q 46.921875 13.96875 46.921875 20.515625 
Q 46.921875 27.09375 42.890625 30.859375 
Q 38.875 34.625 31.78125 34.625 
z
M 21.921875 38.8125 
Q 15.578125 40.375 12.03125 44.71875 
Q 8.5 49.078125 8.5 55.328125 
Q 8.5 64.0625 14.71875 69.140625 
Q 20.953125 74.21875 31.78125 74.21875 
Q 42.671875 74.21875 48.875 69.140625 
Q 55.078125 64.0625 55.078125 55.328125 
Q 55.078125 49.078125 51.53125 44.71875 
Q 48 40.375 41.703125 38.8125 
Q 48.828125 37.15625 52.796875 32.3125 
Q 56.78125 27.484375 56.78125 20.515625 
Q 56.78125 9.90625 50.3125 4.234375 
Q 43.84375 -1.421875 31.78125 -1.421875 
Q 19.734375 -1.421875 13.25 4.234375 
Q 6.78125 9.90625 6.78125 20.515625 
Q 6.78125 27.484375 10.78125 32.3125 
Q 14.796875 37.15625 21.921875 38.8125 
z
M 18.3125 54.390625 
Q 18.3125 48.734375 21.84375 45.5625 
Q 25.390625 42.390625 31.78125 42.390625 
Q 38.140625 42.390625 41.71875 45.5625 
Q 45.3125 48.734375 45.3125 54.390625 
Q 45.3125 60.0625 41.71875 63.234375 
Q 38.140625 66.40625 31.78125 66.40625 
Q 25.390625 66.40625 21.84375 63.234375 
Q 18.3125 60.0625 18.3125 54.390625 
z
" id="DejaVuSans-56"/>
       </defs>
       <use xlink:href="#DejaVuSans-56"/>
      </g>
     </g>
    </g>
    <g id="xtick_6">
     <g id="line2d_6">
      <path clip-path="url(#p9150b2c3e5)" d="M 382.995127 384.48 
L 382.995127 51.84 
" style="fill:none;stroke:#ffffff;stroke-linecap:round;"/>
     </g>
     <g id="text_6">
      <!-- 10 -->
      <g style="fill:#262626;" transform="translate(375.996377 402.338281)scale(0.11 -0.11)">
       <defs>
        <path d="M 12.40625 8.296875 
L 28.515625 8.296875 
L 28.515625 63.921875 
L 10.984375 60.40625 
L 10.984375 69.390625 
L 28.421875 72.90625 
L 38.28125 72.90625 
L 38.28125 8.296875 
L 54.390625 8.296875 
L 54.390625 0 
L 12.40625 0 
z
" id="DejaVuSans-49"/>
       </defs>
       <use xlink:href="#DejaVuSans-49"/>
       <use x="63.623047" xlink:href="#DejaVuSans-48"/>
      </g>
     </g>
    </g>
    <g id="text_7">
     <!-- $t$ -->
     <g style="fill:#262626;" transform="translate(219 417.744062)scale(0.12 -0.12)">
      <defs>
       <path d="M 42.28125 54.6875 
L 40.921875 47.703125 
L 23 47.703125 
L 17.1875 18.015625 
Q 16.890625 16.359375 16.75 15.234375 
Q 16.609375 14.109375 16.609375 13.484375 
Q 16.609375 10.359375 18.484375 8.9375 
Q 20.359375 7.515625 24.515625 7.515625 
L 33.59375 7.515625 
L 32.078125 0 
L 23.484375 0 
Q 15.484375 0 11.546875 3.125 
Q 7.625 6.25 7.625 12.59375 
Q 7.625 13.71875 7.765625 15.0625 
Q 7.90625 16.40625 8.203125 18.015625 
L 14.015625 47.703125 
L 6.390625 47.703125 
L 7.8125 54.6875 
L 15.28125 54.6875 
L 18.3125 70.21875 
L 27.296875 70.21875 
L 24.3125 54.6875 
z
" id="DejaVuSans-Oblique-116"/>
      </defs>
      <use transform="translate(0 0.78125)" xlink:href="#DejaVuSans-Oblique-116"/>
     </g>
    </g>
   </g>
   <g id="matplotlib.axis_2">
    <g id="ytick_1">
     <g id="line2d_7">
      <path clip-path="url(#p9150b2c3e5)" d="M 54 370.459575 
L 388.8 370.459575 
" style="fill:none;stroke:#ffffff;stroke-linecap:round;"/>
     </g>
     <g id="text_8">
      <!-- 0 -->
      <g style="fill:#262626;" transform="translate(37.50125 374.638716)scale(0.11 -0.11)">
       <use xlink:href="#DejaVuSans-48"/>
      </g>
     </g>
    </g>
    <g id="ytick_2">
     <g id="line2d_8">
      <path clip-path="url(#p9150b2c3e5)" d="M 54 332.121756 
L 388.8 332.121756 
" style="fill:none;stroke:#ffffff;stroke-linecap:round;"/>
     </g>
     <g id="text_9">
      <!-- 1 -->
      <g style="fill:#262626;" transform="translate(37.50125 336.300897)scale(0.11 -0.11)">
       <use xlink:href="#DejaVuSans-49"/>
      </g>
     </g>
    </g>
    <g id="ytick_3">
     <g id="line2d_9">
      <path clip-path="url(#p9150b2c3e5)" d="M 54 293.783938 
L 388.8 293.783938 
" style="fill:none;stroke:#ffffff;stroke-linecap:round;"/>
     </g>
     <g id="text_10">
      <!-- 2 -->
      <g style="fill:#262626;" transform="translate(37.50125 297.963079)scale(0.11 -0.11)">
       <use xlink:href="#DejaVuSans-50"/>
      </g>
     </g>
    </g>
    <g id="ytick_4">
     <g id="line2d_10">
      <path clip-path="url(#p9150b2c3e5)" d="M 54 255.446119 
L 388.8 255.446119 
" style="fill:none;stroke:#ffffff;stroke-linecap:round;"/>
     </g>
     <g id="text_11">
      <!-- 3 -->
      <g style="fill:#262626;" transform="translate(37.50125 259.62526)scale(0.11 -0.11)">
       <defs>
        <path d="M 40.578125 39.3125 
Q 47.65625 37.796875 51.625 33 
Q 55.609375 28.21875 55.609375 21.1875 
Q 55.609375 10.40625 48.1875 4.484375 
Q 40.765625 -1.421875 27.09375 -1.421875 
Q 22.515625 -1.421875 17.65625 -0.515625 
Q 12.796875 0.390625 7.625 2.203125 
L 7.625 11.71875 
Q 11.71875 9.328125 16.59375 8.109375 
Q 21.484375 6.890625 26.8125 6.890625 
Q 36.078125 6.890625 40.9375 10.546875 
Q 45.796875 14.203125 45.796875 21.1875 
Q 45.796875 27.640625 41.28125 31.265625 
Q 36.765625 34.90625 28.71875 34.90625 
L 20.21875 34.90625 
L 20.21875 43.015625 
L 29.109375 43.015625 
Q 36.375 43.015625 40.234375 45.921875 
Q 44.09375 48.828125 44.09375 54.296875 
Q 44.09375 59.90625 40.109375 62.90625 
Q 36.140625 65.921875 28.71875 65.921875 
Q 24.65625 65.921875 20.015625 65.03125 
Q 15.375 64.15625 9.8125 62.3125 
L 9.8125 71.09375 
Q 15.4375 72.65625 20.34375 73.4375 
Q 25.25 74.21875 29.59375 74.21875 
Q 40.828125 74.21875 47.359375 69.109375 
Q 53.90625 64.015625 53.90625 55.328125 
Q 53.90625 49.265625 50.4375 45.09375 
Q 46.96875 40.921875 40.578125 39.3125 
z
" id="DejaVuSans-51"/>
       </defs>
       <use xlink:href="#DejaVuSans-51"/>
      </g>
     </g>
    </g>
    <g id="ytick_5">
     <g id="line2d_11">
      <path clip-path="url(#p9150b2c3e5)" d="M 54 217.108301 
L 388.8 217.108301 
" style="fill:none;stroke:#ffffff;stroke-linecap:round;"/>
     </g>
     <g id="text_12">
      <!-- 4 -->
      <g style="fill:#262626;" transform="translate(37.50125 221.287442)scale(0.11 -0.11)">
       <use xlink:href="#DejaVuSans-52"/>
      </g>
     </g>
    </g>
    <g id="ytick_6">
     <g id="line2d_12">
      <path clip-path="url(#p9150b2c3e5)" d="M 54 178.770482 
L 388.8 178.770482 
" style="fill:none;stroke:#ffffff;stroke-linecap:round;"/>
     </g>
     <g id="text_13">
      <!-- 5 -->
      <g style="fill:#262626;" transform="translate(37.50125 182.949623)scale(0.11 -0.11)">
       <defs>
        <path d="M 10.796875 72.90625 
L 49.515625 72.90625 
L 49.515625 64.59375 
L 19.828125 64.59375 
L 19.828125 46.734375 
Q 21.96875 47.46875 24.109375 47.828125 
Q 26.265625 48.1875 28.421875 48.1875 
Q 40.625 48.1875 47.75 41.5 
Q 54.890625 34.8125 54.890625 23.390625 
Q 54.890625 11.625 47.5625 5.09375 
Q 40.234375 -1.421875 26.90625 -1.421875 
Q 22.3125 -1.421875 17.546875 -0.640625 
Q 12.796875 0.140625 7.71875 1.703125 
L 7.71875 11.625 
Q 12.109375 9.234375 16.796875 8.0625 
Q 21.484375 6.890625 26.703125 6.890625 
Q 35.15625 6.890625 40.078125 11.328125 
Q 45.015625 15.765625 45.015625 23.390625 
Q 45.015625 31 40.078125 35.4375 
Q 35.15625 39.890625 26.703125 39.890625 
Q 22.75 39.890625 18.8125 39.015625 
Q 14.890625 38.140625 10.796875 36.28125 
z
" id="DejaVuSans-53"/>
       </defs>
       <use xlink:href="#DejaVuSans-53"/>
      </g>
     </g>
    </g>
    <g id="ytick_7">
     <g id="line2d_13">
      <path clip-path="url(#p9150b2c3e5)" d="M 54 140.432664 
L 388.8 140.432664 
" style="fill:none;stroke:#ffffff;stroke-linecap:round;"/>
     </g>
     <g id="text_14">
      <!-- 6 -->
      <g style="fill:#262626;" transform="translate(37.50125 144.611804)scale(0.11 -0.11)">
       <use xlink:href="#DejaVuSans-54"/>
      </g>
     </g>
    </g>
    <g id="ytick_8">
     <g id="line2d_14">
      <path clip-path="url(#p9150b2c3e5)" d="M 54 102.094845 
L 388.8 102.094845 
" style="fill:none;stroke:#ffffff;stroke-linecap:round;"/>
     </g>
     <g id="text_15">
      <!-- 7 -->
      <g style="fill:#262626;" transform="translate(37.50125 106.273986)scale(0.11 -0.11)">
       <defs>
        <path d="M 8.203125 72.90625 
L 55.078125 72.90625 
L 55.078125 68.703125 
L 28.609375 0 
L 18.3125 0 
L 43.21875 64.59375 
L 8.203125 64.59375 
z
" id="DejaVuSans-55"/>
       </defs>
       <use xlink:href="#DejaVuSans-55"/>
      </g>
     </g>
    </g>
    <g id="ytick_9">
     <g id="line2d_15">
      <path clip-path="url(#p9150b2c3e5)" d="M 54 63.757027 
L 388.8 63.757027 
" style="fill:none;stroke:#ffffff;stroke-linecap:round;"/>
     </g>
     <g id="text_16">
      <!-- 8 -->
      <g style="fill:#262626;" transform="translate(37.50125 67.936167)scale(0.11 -0.11)">
       <use xlink:href="#DejaVuSans-56"/>
      </g>
     </g>
    </g>
    <g id="text_17">
     <!-- $&lt;r^2(t)&gt;$ -->
     <g style="fill:#262626;" transform="translate(31.005625 245.52)rotate(-90)scale(0.12 -0.12)">
      <defs>
       <path d="M 73.1875 49.21875 
L 22.796875 31.296875 
L 73.1875 13.484375 
L 73.1875 4.59375 
L 10.59375 27.296875 
L 10.59375 35.40625 
L 73.1875 58.109375 
z
" id="DejaVuSans-60"/>
       <path d="M 44.578125 46.390625 
Q 43.21875 47.125 41.453125 47.515625 
Q 39.703125 47.90625 37.703125 47.90625 
Q 30.515625 47.90625 25.140625 42.453125 
Q 19.78125 37.015625 18.015625 27.875 
L 12.5 0 
L 3.515625 0 
L 14.203125 54.6875 
L 23.1875 54.6875 
L 21.484375 46.1875 
Q 25.046875 50.921875 30 53.453125 
Q 34.96875 56 40.578125 56 
Q 42.046875 56 43.453125 55.828125 
Q 44.875 55.671875 46.296875 55.28125 
z
" id="DejaVuSans-Oblique-114"/>
       <path d="M 31 75.875 
Q 24.46875 64.65625 21.28125 53.65625 
Q 18.109375 42.671875 18.109375 31.390625 
Q 18.109375 20.125 21.3125 9.0625 
Q 24.515625 -2 31 -13.1875 
L 23.1875 -13.1875 
Q 15.875 -1.703125 12.234375 9.375 
Q 8.59375 20.453125 8.59375 31.390625 
Q 8.59375 42.28125 12.203125 53.3125 
Q 15.828125 64.359375 23.1875 75.875 
z
" id="DejaVuSans-40"/>
       <path d="M 8.015625 75.875 
L 15.828125 75.875 
Q 23.140625 64.359375 26.78125 53.3125 
Q 30.421875 42.28125 30.421875 31.390625 
Q 30.421875 20.453125 26.78125 9.375 
Q 23.140625 -1.703125 15.828125 -13.1875 
L 8.015625 -13.1875 
Q 14.5 -2 17.703125 9.0625 
Q 20.90625 20.125 20.90625 31.390625 
Q 20.90625 42.671875 17.703125 53.65625 
Q 14.5 64.65625 8.015625 75.875 
z
" id="DejaVuSans-41"/>
       <path d="M 10.59375 49.21875 
L 10.59375 58.109375 
L 73.1875 35.40625 
L 73.1875 27.296875 
L 10.59375 4.59375 
L 10.59375 13.484375 
L 60.890625 31.296875 
z
" id="DejaVuSans-62"/>
      </defs>
      <use transform="translate(19.482422 0.765625)" xlink:href="#DejaVuSans-60"/>
      <use transform="translate(122.753906 0.765625)" xlink:href="#DejaVuSans-Oblique-114"/>
      <use transform="translate(168.517083 39.046875)scale(0.7)" xlink:href="#DejaVuSans-50"/>
      <use transform="translate(215.787591 0.765625)" xlink:href="#DejaVuSans-40"/>
      <use transform="translate(254.801263 0.765625)" xlink:href="#DejaVuSans-Oblique-116"/>
      <use transform="translate(294.010247 0.765625)" xlink:href="#DejaVuSans-41"/>
      <use transform="translate(352.506341 0.765625)" xlink:href="#DejaVuSans-62"/>
     </g>
    </g>
   </g>
   <g id="line2d_16">
    <path clip-path="url(#p9150b2c3e5)" d="M 69.218182 369.36 
L 72.355951 367.136201 
L 75.493721 364.699124 
L 78.63149 362.193953 
L 81.76926 359.647784 
L 84.907029 357.070072 
L 88.044799 354.459079 
L 91.182568 351.81377 
L 94.320337 349.147577 
L 97.458107 346.460528 
L 100.595876 343.737418 
L 103.733646 340.973056 
L 106.871415 338.193459 
L 110.009185 335.432817 
L 113.146954 332.714142 
L 116.284724 330.025312 
L 119.422493 327.336872 
L 122.560262 324.650803 
L 125.698032 321.97714 
L 128.835801 319.305932 
L 131.973571 316.625162 
L 135.11134 313.91739 
L 138.24911 311.166118 
L 141.386879 308.371409 
L 144.524649 305.559381 
L 147.662418 302.73803 
L 150.800187 299.889051 
L 153.937957 297.01647 
L 157.075726 294.141897 
L 160.213496 291.280365 
L 163.351265 288.418364 
L 166.489035 285.553876 
L 169.626804 282.707255 
L 172.764574 279.861007 
L 175.902343 277.006956 
L 179.040112 274.150145 
L 182.177882 271.289643 
L 185.315651 268.408919 
L 188.453421 265.512791 
L 191.59119 262.626394 
L 194.72896 259.743302 
L 197.866729 256.860637 
L 201.004499 253.976488 
L 204.142268 251.091982 
L 207.280037 248.214452 
L 210.417807 245.350913 
L 213.555576 242.502581 
L 216.693346 239.650392 
L 219.831115 236.780735 
L 222.968885 233.898574 
L 226.106654 231.006515 
L 229.244424 228.120514 
L 232.382193 225.262646 
L 235.519963 222.421148 
L 238.657732 219.579605 
L 241.795501 216.727299 
L 244.933271 213.88067 
L 248.07104 211.026345 
L 251.20881 208.169273 
L 254.346579 205.313785 
L 257.484349 202.446428 
L 260.622118 199.578567 
L 263.759888 196.69413 
L 266.897657 193.795385 
L 270.035426 190.892478 
L 273.173196 187.974927 
L 276.310965 185.067203 
L 279.448735 182.194517 
L 282.586504 179.342433 
L 285.724274 176.495271 
L 288.862043 173.654463 
L 291.999813 170.821072 
L 295.137582 168.00775 
L 298.275351 165.219644 
L 301.413121 162.42903 
L 304.55089 159.620832 
L 307.68866 156.768922 
L 310.826429 153.885635 
L 313.964199 150.97681 
L 317.101968 148.050305 
L 320.239738 145.065987 
L 323.377507 142.03093 
L 326.515276 139.000812 
L 329.653046 135.964424 
L 332.790815 132.91904 
L 335.928585 129.876853 
L 339.066354 126.843418 
L 342.204124 123.805228 
L 345.341893 120.762857 
L 348.479663 117.724134 
L 351.617432 114.67634 
L 354.755201 111.628352 
L 357.892971 108.537251 
L 361.03074 105.436353 
L 364.16851 102.347859 
L 367.306279 99.278147 
L 370.444049 96.225589 
L 373.581818 93.198476 
" style="fill:none;stroke:#4c72b0;stroke-linecap:round;stroke-width:1.5;"/>
   </g>
   <g id="line2d_17">
    <path clip-path="url(#p9150b2c3e5)" d="M 317.101968 384.48 
L 317.101968 51.84 
" style="fill:none;stroke:#4c72b0;stroke-linecap:round;stroke-width:1.5;"/>
   </g>
   <g id="line2d_18">
    <path clip-path="url(#p9150b2c3e5)" d="M 69.218182 369.325675 
L 72.355951 367.035345 
L 75.493721 364.507757 
L 78.63149 361.895006 
L 81.76926 359.229947 
L 84.907029 356.530086 
L 88.044799 353.790014 
L 91.182568 351.009269 
L 94.320337 348.214753 
L 97.458107 345.414545 
L 100.595876 342.576831 
L 103.733646 339.686307 
L 106.871415 336.743831 
L 110.009185 333.779897 
L 113.146954 330.817594 
L 116.284724 327.846926 
L 119.422493 324.83956 
L 122.560262 321.798325 
L 125.698032 318.729575 
L 128.835801 315.636088 
L 131.973571 312.512469 
L 135.11134 309.375619 
L 138.24911 306.253616 
L 141.386879 303.174238 
L 144.524649 300.136386 
L 147.662418 297.12615 
L 150.800187 294.122993 
L 153.937957 291.111844 
L 157.075726 288.08989 
L 160.213496 285.064668 
L 163.351265 282.04766 
L 166.489035 279.029579 
L 169.626804 276.015334 
L 172.764574 273.02651 
L 175.902343 270.072622 
L 179.040112 267.15585 
L 182.177882 264.262591 
L 185.315651 261.376623 
L 188.453421 258.489293 
L 191.59119 255.578153 
L 194.72896 252.644876 
L 197.866729 249.708198 
L 201.004499 246.762043 
L 204.142268 243.803679 
L 207.280037 240.854459 
L 210.417807 237.919313 
L 213.555576 234.959469 
L 216.693346 231.968583 
L 219.831115 228.955037 
L 222.968885 225.929019 
L 226.106654 222.900947 
L 229.244424 219.866142 
L 232.382193 216.813821 
L 235.519963 213.755921 
L 238.657732 210.694081 
L 241.795501 207.610315 
L 244.933271 204.500679 
L 248.07104 201.345419 
L 251.20881 198.143137 
L 254.346579 194.906289 
L 257.484349 191.640574 
L 260.622118 188.352941 
L 263.759888 185.037805 
L 266.897657 181.689681 
L 270.035426 178.328729 
L 273.173196 174.964171 
L 276.310965 171.595807 
L 279.448735 168.264028 
L 282.586504 164.973418 
L 285.724274 161.687457 
L 288.862043 158.405845 
L 291.999813 155.123078 
L 295.137582 151.85009 
L 298.275351 148.564837 
L 301.413121 145.247698 
L 304.55089 141.901923 
L 307.68866 138.512747 
L 310.826429 135.081871 
L 313.964199 131.65554 
L 317.101968 128.243813 
L 320.239738 124.828545 
L 323.377507 121.396905 
L 326.515276 117.963201 
L 329.653046 114.490444 
L 332.790815 111.019756 
L 335.928585 107.579459 
L 339.066354 104.109324 
L 342.204124 100.639882 
L 345.341893 97.157204 
L 348.479663 93.669608 
L 351.617432 90.20487 
L 354.755201 86.772319 
L 357.892971 83.373653 
L 361.03074 80.026782 
L 364.16851 76.728658 
L 367.306279 73.468626 
L 370.444049 70.219379 
L 373.581818 66.96 
" style="fill:none;stroke:#dd8452;stroke-linecap:round;stroke-width:1.5;"/>
   </g>
   <g id="line2d_19">
    <path clip-path="url(#p9150b2c3e5)" d="M 317.101968 384.48 
L 317.101968 51.84 
" style="fill:none;stroke:#4c72b0;stroke-linecap:round;stroke-width:1.5;"/>
   </g>
   <g id="line2d_20">
    <path clip-path="url(#p9150b2c3e5)" d="M 69.218182 369.322109 
L 72.355951 367.030516 
L 75.493721 364.523719 
L 78.63149 361.952117 
L 81.76926 359.357155 
L 84.907029 356.766594 
L 88.044799 354.180005 
L 91.182568 351.593215 
L 94.320337 348.999221 
L 97.458107 346.381228 
L 100.595876 343.747736 
L 103.733646 341.108027 
L 106.871415 338.449876 
L 110.009185 335.786208 
L 113.146954 333.115178 
L 116.284724 330.44381 
L 119.422493 327.765719 
L 122.560262 325.091241 
L 125.698032 322.443902 
L 128.835801 319.826099 
L 131.973571 317.218139 
L 135.11134 314.618492 
L 138.24911 312.046264 
L 141.386879 309.506412 
L 144.524649 306.988665 
L 147.662418 304.49176 
L 150.800187 302.003214 
L 153.937957 299.503111 
L 157.075726 296.990734 
L 160.213496 294.484267 
L 163.351265 291.981765 
L 166.489035 289.490804 
L 169.626804 287.023834 
L 172.764574 284.584806 
L 175.902343 282.19345 
L 179.040112 279.842014 
L 182.177882 277.506638 
L 185.315651 275.173553 
L 188.453421 272.845611 
L 191.59119 270.500234 
L 194.72896 268.141099 
L 197.866729 265.793419 
L 201.004499 263.437319 
L 204.142268 261.059957 
L 207.280037 258.670609 
L 210.417807 256.265826 
L 213.555576 253.844582 
L 216.693346 251.402595 
L 219.831115 248.929012 
L 222.968885 246.433495 
L 226.106654 243.930125 
L 229.244424 241.406515 
L 232.382193 238.837818 
L 235.519963 236.256617 
L 238.657732 233.699028 
L 241.795501 231.160239 
L 244.933271 228.645889 
L 248.07104 226.127774 
L 251.20881 223.617608 
L 254.346579 221.123838 
L 257.484349 218.629577 
L 260.622118 216.130022 
L 263.759888 213.635852 
L 266.897657 211.148013 
L 270.035426 208.660415 
L 273.173196 206.19495 
L 276.310965 203.746959 
L 279.448735 201.284892 
L 282.586504 198.816342 
L 285.724274 196.343414 
L 288.862043 193.864098 
L 291.999813 191.361302 
L 295.137582 188.835843 
L 298.275351 186.294786 
L 301.413121 183.740659 
L 304.55089 181.196228 
L 307.68866 178.638907 
L 310.826429 176.069535 
L 313.964199 173.521547 
L 317.101968 170.970989 
L 320.239738 168.430991 
L 323.377507 165.892503 
L 326.515276 163.362082 
L 329.653046 160.841962 
L 332.790815 158.30937 
L 335.928585 155.746374 
L 339.066354 153.170995 
L 342.204124 150.578786 
L 345.341893 147.96825 
L 348.479663 145.344995 
L 351.617432 142.718183 
L 354.755201 140.066189 
L 357.892971 137.409618 
L 361.03074 134.79008 
L 364.16851 132.225665 
L 367.306279 129.695073 
L 370.444049 127.182768 
L 373.581818 124.675181 
" style="fill:none;stroke:#55a868;stroke-linecap:round;stroke-width:1.5;"/>
   </g>
   <g id="line2d_21">
    <path clip-path="url(#p9150b2c3e5)" d="M 317.101968 384.48 
L 317.101968 51.84 
" style="fill:none;stroke:#4c72b0;stroke-linecap:round;stroke-width:1.5;"/>
   </g>
   <g id="line2d_22">
    <path clip-path="url(#p9150b2c3e5)" d="M 69.218182 369.325801 
L 72.355951 367.03462 
L 75.493721 364.52316 
L 78.63149 361.941895 
L 81.76926 359.32085 
L 84.907029 356.680872 
L 88.044799 354.023129 
L 91.182568 351.336335 
L 94.320337 348.619843 
L 97.458107 345.875606 
L 100.595876 343.090344 
L 103.733646 340.268683 
L 106.871415 337.416307 
L 110.009185 334.555309 
L 113.146954 331.689776 
L 116.284724 328.804867 
L 119.422493 325.900258 
L 122.560262 322.975559 
L 125.698032 320.035822 
L 128.835801 317.09107 
L 131.973571 314.134037 
L 135.11134 311.163901 
L 138.24911 308.198864 
L 141.386879 305.259364 
L 144.524649 302.342506 
L 147.662418 299.443138 
L 150.800187 296.539308 
L 153.937957 293.617319 
L 157.075726 290.675746 
L 160.213496 287.735992 
L 163.351265 284.794617 
L 166.489035 281.861851 
L 169.626804 278.934181 
L 172.764574 275.999341 
L 175.902343 273.076855 
L 179.040112 270.183503 
L 182.177882 267.298765 
L 185.315651 264.437318 
L 188.453421 261.579114 
L 191.59119 258.698476 
L 194.72896 255.792175 
L 197.866729 252.890751 
L 201.004499 250.010466 
L 204.142268 247.148006 
L 207.280037 244.305745 
L 210.417807 241.471399 
L 213.555576 238.638342 
L 216.693346 235.825346 
L 219.831115 233.035009 
L 222.968885 230.25195 
L 226.106654 227.483341 
L 229.244424 224.710037 
L 232.382193 221.901158 
L 235.519963 219.083567 
L 238.657732 216.286346 
L 241.795501 213.523586 
L 244.933271 210.791282 
L 248.07104 208.070535 
L 251.20881 205.36488 
L 254.346579 202.676694 
L 257.484349 200.002413 
L 260.622118 197.311252 
L 263.759888 194.616184 
L 266.897657 191.908688 
L 270.035426 189.181962 
L 273.173196 186.455162 
L 276.310965 183.767374 
L 279.448735 181.127378 
L 282.586504 178.504955 
L 285.724274 175.917795 
L 288.862043 173.371103 
L 291.999813 170.828512 
L 295.137582 168.264753 
L 298.275351 165.681793 
L 301.413121 163.08753 
L 304.55089 160.523086 
L 307.68866 157.964951 
L 310.826429 155.383085 
L 313.964199 152.779667 
L 317.101968 150.141957 
L 320.239738 147.468221 
L 323.377507 144.787749 
L 326.515276 142.122775 
L 329.653046 139.499541 
L 332.790815 136.913988 
L 335.928585 134.355995 
L 339.066354 131.802902 
L 342.204124 129.241706 
L 345.341893 126.678424 
L 348.479663 124.099357 
L 351.617432 121.510507 
L 354.755201 118.986451 
L 357.892971 116.515948 
L 361.03074 114.05872 
L 364.16851 111.595409 
L 367.306279 109.12999 
L 370.444049 106.652257 
L 373.581818 104.1602 
" style="fill:none;stroke:#c44e52;stroke-linecap:round;stroke-width:1.5;"/>
   </g>
   <g id="line2d_23">
    <path clip-path="url(#p9150b2c3e5)" d="M 317.101968 384.48 
L 317.101968 51.84 
" style="fill:none;stroke:#4c72b0;stroke-linecap:round;stroke-width:1.5;"/>
   </g>
   <g id="patch_3">
    <path d="M 54 384.48 
L 54 51.84 
" style="fill:none;stroke:#ffffff;stroke-linecap:square;stroke-linejoin:miter;stroke-width:1.25;"/>
   </g>
   <g id="patch_4">
    <path d="M 388.8 384.48 
L 388.8 51.84 
" style="fill:none;stroke:#ffffff;stroke-linecap:square;stroke-linejoin:miter;stroke-width:1.25;"/>
   </g>
   <g id="patch_5">
    <path d="M 54 384.48 
L 388.8 384.48 
" style="fill:none;stroke:#ffffff;stroke-linecap:square;stroke-linejoin:miter;stroke-width:1.25;"/>
   </g>
   <g id="patch_6">
    <path d="M 54 51.84 
L 388.8 51.84 
" style="fill:none;stroke:#ffffff;stroke-linecap:square;stroke-linejoin:miter;stroke-width:1.25;"/>
   </g>
   <g id="legend_1">
    <g id="patch_7">
     <path d="M 61.7 125.22375 
L 205.58 125.22375 
Q 207.78 125.22375 207.78 123.02375 
L 207.78 59.54 
Q 207.78 57.34 205.58 57.34 
L 61.7 57.34 
Q 59.5 57.34 59.5 59.54 
L 59.5 123.02375 
Q 59.5 125.22375 61.7 125.22375 
z
" style="fill:#eaeaf2;opacity:0.8;stroke:#cccccc;stroke-linejoin:miter;"/>
    </g>
    <g id="line2d_24">
     <path d="M 63.9 66.248281 
L 85.9 66.248281 
" style="fill:none;stroke:#4c72b0;stroke-linecap:round;stroke-width:1.5;"/>
    </g>
    <g id="line2d_25"/>
    <g id="text_18">
     <!-- $D = 0.133$, $\tau = 10$ -->
     <g style="fill:#262626;" transform="translate(94.7 70.098281)scale(0.11 -0.11)">
      <defs>
       <path d="M 16.890625 72.90625 
L 38.09375 72.90625 
Q 54.984375 72.90625 63.59375 65.75 
Q 72.21875 58.59375 72.21875 44.484375 
Q 72.21875 35.15625 68.9375 26.53125 
Q 65.671875 17.921875 59.90625 12.015625 
Q 54.109375 5.953125 45.171875 2.96875 
Q 36.234375 0 24.03125 0 
L 2.6875 0 
z
M 25.203125 64.796875 
L 14.203125 8.109375 
L 27.09375 8.109375 
Q 43.65625 8.109375 52.734375 17.625 
Q 61.8125 27.15625 61.8125 44.484375 
Q 61.8125 54.984375 55.953125 59.890625 
Q 50.09375 64.796875 37.59375 64.796875 
z
" id="DejaVuSans-Oblique-68"/>
       <path d="M 10.59375 45.40625 
L 73.1875 45.40625 
L 73.1875 37.203125 
L 10.59375 37.203125 
z
M 10.59375 25.484375 
L 73.1875 25.484375 
L 73.1875 17.1875 
L 10.59375 17.1875 
z
" id="DejaVuSans-61"/>
       <path d="M 10.6875 12.40625 
L 21 12.40625 
L 21 0 
L 10.6875 0 
z
" id="DejaVuSans-46"/>
       <path d="M 11.71875 12.40625 
L 22.015625 12.40625 
L 22.015625 4 
L 14.015625 -11.625 
L 7.71875 -11.625 
L 11.71875 4 
z
" id="DejaVuSans-44"/>
       <path id="DejaVuSans-32"/>
       <path d="M 32.859375 9.96875 
Q 34.1875 7.625 39.453125 7.625 
L 43.75 7.625 
L 42.28125 0 
L 36.921875 0 
Q 28.125 0 25 4.6875 
Q 21.921875 9.46875 23.96875 19.828125 
L 29 45.703125 
L 8.453125 45.703125 
L 10.203125 54.6875 
L 60.640625 54.6875 
L 58.890625 45.703125 
L 38.1875 45.703125 
L 33.015625 19.28125 
Q 31.640625 12.203125 32.859375 9.96875 
z
" id="DejaVuSans-Oblique-964"/>
      </defs>
      <use transform="translate(0 0.78125)" xlink:href="#DejaVuSans-Oblique-68"/>
      <use transform="translate(96.484375 0.78125)" xlink:href="#DejaVuSans-61"/>
      <use transform="translate(199.755859 0.78125)" xlink:href="#DejaVuSans-48"/>
      <use transform="translate(263.378906 0.78125)" xlink:href="#DejaVuSans-46"/>
      <use transform="translate(295.166016 0.78125)" xlink:href="#DejaVuSans-49"/>
      <use transform="translate(358.789062 0.78125)" xlink:href="#DejaVuSans-51"/>
      <use transform="translate(422.412109 0.78125)" xlink:href="#DejaVuSans-51"/>
      <use transform="translate(486.035156 0.78125)" xlink:href="#DejaVuSans-44"/>
      <use transform="translate(517.822266 0.78125)" xlink:href="#DejaVuSans-32"/>
      <use transform="translate(549.609375 0.78125)" xlink:href="#DejaVuSans-Oblique-964"/>
      <use transform="translate(629.296875 0.78125)" xlink:href="#DejaVuSans-61"/>
      <use transform="translate(732.568359 0.78125)" xlink:href="#DejaVuSans-49"/>
      <use transform="translate(796.191406 0.78125)" xlink:href="#DejaVuSans-48"/>
     </g>
    </g>
    <g id="line2d_26">
     <path d="M 63.9 82.394219 
L 85.9 82.394219 
" style="fill:none;stroke:#dd8452;stroke-linecap:round;stroke-width:1.5;"/>
    </g>
    <g id="line2d_27"/>
    <g id="text_19">
     <!-- $D = 0.149$, $\tau = 510$ -->
     <g style="fill:#262626;" transform="translate(94.7 86.244219)scale(0.11 -0.11)">
      <defs>
       <path d="M 10.984375 1.515625 
L 10.984375 10.5 
Q 14.703125 8.734375 18.5 7.8125 
Q 22.3125 6.890625 25.984375 6.890625 
Q 35.75 6.890625 40.890625 13.453125 
Q 46.046875 20.015625 46.78125 33.40625 
Q 43.953125 29.203125 39.59375 26.953125 
Q 35.25 24.703125 29.984375 24.703125 
Q 19.046875 24.703125 12.671875 31.3125 
Q 6.296875 37.9375 6.296875 49.421875 
Q 6.296875 60.640625 12.9375 67.421875 
Q 19.578125 74.21875 30.609375 74.21875 
Q 43.265625 74.21875 49.921875 64.515625 
Q 56.59375 54.828125 56.59375 36.375 
Q 56.59375 19.140625 48.40625 8.859375 
Q 40.234375 -1.421875 26.421875 -1.421875 
Q 22.703125 -1.421875 18.890625 -0.6875 
Q 15.09375 0.046875 10.984375 1.515625 
z
M 30.609375 32.421875 
Q 37.25 32.421875 41.125 36.953125 
Q 45.015625 41.5 45.015625 49.421875 
Q 45.015625 57.28125 41.125 61.84375 
Q 37.25 66.40625 30.609375 66.40625 
Q 23.96875 66.40625 20.09375 61.84375 
Q 16.21875 57.28125 16.21875 49.421875 
Q 16.21875 41.5 20.09375 36.953125 
Q 23.96875 32.421875 30.609375 32.421875 
z
" id="DejaVuSans-57"/>
      </defs>
      <use transform="translate(0 0.78125)" xlink:href="#DejaVuSans-Oblique-68"/>
      <use transform="translate(96.484375 0.78125)" xlink:href="#DejaVuSans-61"/>
      <use transform="translate(199.755859 0.78125)" xlink:href="#DejaVuSans-48"/>
      <use transform="translate(263.378906 0.78125)" xlink:href="#DejaVuSans-46"/>
      <use transform="translate(295.166016 0.78125)" xlink:href="#DejaVuSans-49"/>
      <use transform="translate(358.789062 0.78125)" xlink:href="#DejaVuSans-52"/>
      <use transform="translate(422.412109 0.78125)" xlink:href="#DejaVuSans-57"/>
      <use transform="translate(486.035156 0.78125)" xlink:href="#DejaVuSans-44"/>
      <use transform="translate(517.822266 0.78125)" xlink:href="#DejaVuSans-32"/>
      <use transform="translate(549.609375 0.78125)" xlink:href="#DejaVuSans-Oblique-964"/>
      <use transform="translate(629.296875 0.78125)" xlink:href="#DejaVuSans-61"/>
      <use transform="translate(732.568359 0.78125)" xlink:href="#DejaVuSans-53"/>
      <use transform="translate(796.191406 0.78125)" xlink:href="#DejaVuSans-49"/>
      <use transform="translate(859.814453 0.78125)" xlink:href="#DejaVuSans-48"/>
     </g>
    </g>
    <g id="line2d_28">
     <path d="M 63.9 98.540156 
L 85.9 98.540156 
" style="fill:none;stroke:#55a868;stroke-linecap:round;stroke-width:1.5;"/>
    </g>
    <g id="line2d_29"/>
    <g id="text_20">
     <!-- $D = 0.112$, $\tau = 1010$ -->
     <g style="fill:#262626;" transform="translate(94.7 102.390156)scale(0.11 -0.11)">
      <use transform="translate(0 0.78125)" xlink:href="#DejaVuSans-Oblique-68"/>
      <use transform="translate(96.484375 0.78125)" xlink:href="#DejaVuSans-61"/>
      <use transform="translate(199.755859 0.78125)" xlink:href="#DejaVuSans-48"/>
      <use transform="translate(263.378906 0.78125)" xlink:href="#DejaVuSans-46"/>
      <use transform="translate(295.166016 0.78125)" xlink:href="#DejaVuSans-49"/>
      <use transform="translate(358.789062 0.78125)" xlink:href="#DejaVuSans-49"/>
      <use transform="translate(422.412109 0.78125)" xlink:href="#DejaVuSans-50"/>
      <use transform="translate(486.035156 0.78125)" xlink:href="#DejaVuSans-44"/>
      <use transform="translate(517.822266 0.78125)" xlink:href="#DejaVuSans-32"/>
      <use transform="translate(549.609375 0.78125)" xlink:href="#DejaVuSans-Oblique-964"/>
      <use transform="translate(629.296875 0.78125)" xlink:href="#DejaVuSans-61"/>
      <use transform="translate(732.568359 0.78125)" xlink:href="#DejaVuSans-49"/>
      <use transform="translate(796.191406 0.78125)" xlink:href="#DejaVuSans-48"/>
      <use transform="translate(859.814453 0.78125)" xlink:href="#DejaVuSans-49"/>
      <use transform="translate(923.4375 0.78125)" xlink:href="#DejaVuSans-48"/>
     </g>
    </g>
    <g id="line2d_30">
     <path d="M 63.9 114.686094 
L 85.9 114.686094 
" style="fill:none;stroke:#c44e52;stroke-linecap:round;stroke-width:1.5;"/>
    </g>
    <g id="line2d_31"/>
    <g id="text_21">
     <!-- $D = 0.111$, $\tau = 1510$ -->
     <g style="fill:#262626;" transform="translate(94.7 118.536094)scale(0.11 -0.11)">
      <use transform="translate(0 0.78125)" xlink:href="#DejaVuSans-Oblique-68"/>
      <use transform="translate(96.484375 0.78125)" xlink:href="#DejaVuSans-61"/>
      <use transform="translate(199.755859 0.78125)" xlink:href="#DejaVuSans-48"/>
      <use transform="translate(263.378906 0.78125)" xlink:href="#DejaVuSans-46"/>
      <use transform="translate(295.166016 0.78125)" xlink:href="#DejaVuSans-49"/>
      <use transform="translate(358.789062 0.78125)" xlink:href="#DejaVuSans-49"/>
      <use transform="translate(422.412109 0.78125)" xlink:href="#DejaVuSans-49"/>
      <use transform="translate(486.035156 0.78125)" xlink:href="#DejaVuSans-44"/>
      <use transform="translate(517.822266 0.78125)" xlink:href="#DejaVuSans-32"/>
      <use transform="translate(549.609375 0.78125)" xlink:href="#DejaVuSans-Oblique-964"/>
      <use transform="translate(629.296875 0.78125)" xlink:href="#DejaVuSans-61"/>
      <use transform="translate(732.568359 0.78125)" xlink:href="#DejaVuSans-49"/>
      <use transform="translate(796.191406 0.78125)" xlink:href="#DejaVuSans-53"/>
      <use transform="translate(859.814453 0.78125)" xlink:href="#DejaVuSans-49"/>
      <use transform="translate(923.4375 0.78125)" xlink:href="#DejaVuSans-48"/>
     </g>
    </g>
   </g>
  </g>
 </g>
 <defs>
  <clipPath id="p9150b2c3e5">
   <rect height="332.64" width="334.8" x="54" y="51.84"/>
  </clipPath>
 </defs>
</svg>
