<?xml version="1.0" encoding="utf-8" standalone="no"?>
<!DOCTYPE svg PUBLIC "-//W3C//DTD SVG 1.1//EN"
  "http://www.w3.org/Graphics/SVG/1.1/DTD/svg11.dtd">
<!-- Created with matplotlib (https://matplotlib.org/) -->
<svg height="432pt" version="1.1" viewBox="0 0 432 432" width="432pt" xmlns="http://www.w3.org/2000/svg" xmlns:xlink="http://www.w3.org/1999/xlink">
 <metadata>
  <rdf:RDF xmlns:cc="http://creativecommons.org/ns#" xmlns:dc="http://purl.org/dc/elements/1.1/" xmlns:rdf="http://www.w3.org/1999/02/22-rdf-syntax-ns#">
   <cc:Work>
    <dc:type rdf:resource="http://purl.org/dc/dcmitype/StillImage"/>
    <dc:date>2021-03-15T21:06:19.272526</dc:date>
    <dc:format>image/svg+xml</dc:format>
    <dc:creator>
     <cc:Agent>
      <dc:title>Matplotlib v3.3.3, https://matplotlib.org/</dc:title>
     </cc:Agent>
    </dc:creator>
   </cc:Work>
  </rdf:RDF>
 </metadata>
 <defs>
  <style type="text/css">*{stroke-linecap:butt;stroke-linejoin:round;}</style>
 </defs>
 <g id="figure_1">
  <g id="patch_1">
   <path d="M 0 432 
L 432 432 
L 432 0 
L 0 0 
z
" style="fill:#ffffff;"/>
  </g>
  <g id="axes_1">
   <g id="patch_2">
    <path d="M 54 384.48 
L 388.8 384.48 
L 388.8 51.84 
L 54 51.84 
z
" style="fill:#eaeaf2;"/>
   </g>
   <g id="matplotlib.axis_1">
    <g id="xtick_1">
     <g id="line2d_1">
      <path clip-path="url(#pa6ba748805)" d="M 69.218182 384.48 
L 69.218182 51.84 
" style="fill:none;stroke:#ffffff;stroke-linecap:round;"/>
     </g>
     <g id="text_1">
      <!-- 0 -->
      <g style="fill:#262626;" transform="translate(65.718807 402.338281)scale(0.11 -0.11)">
       <defs>
        <path d="M 31.78125 66.40625 
Q 24.171875 66.40625 20.328125 58.90625 
Q 16.5 51.421875 16.5 36.375 
Q 16.5 21.390625 20.328125 13.890625 
Q 24.171875 6.390625 31.78125 6.390625 
Q 39.453125 6.390625 43.28125 13.890625 
Q 47.125 21.390625 47.125 36.375 
Q 47.125 51.421875 43.28125 58.90625 
Q 39.453125 66.40625 31.78125 66.40625 
z
M 31.78125 74.21875 
Q 44.046875 74.21875 50.515625 64.515625 
Q 56.984375 54.828125 56.984375 36.375 
Q 56.984375 17.96875 50.515625 8.265625 
Q 44.046875 -1.421875 31.78125 -1.421875 
Q 19.53125 -1.421875 13.0625 8.265625 
Q 6.59375 17.96875 6.59375 36.375 
Q 6.59375 54.828125 13.0625 64.515625 
Q 19.53125 74.21875 31.78125 74.21875 
z
" id="DejaVuSans-48"/>
       </defs>
       <use xlink:href="#DejaVuSans-48"/>
      </g>
     </g>
    </g>
    <g id="xtick_2">
     <g id="line2d_2">
      <path clip-path="url(#pa6ba748805)" d="M 130.705785 384.48 
L 130.705785 51.84 
" style="fill:none;stroke:#ffffff;stroke-linecap:round;"/>
     </g>
     <g id="text_2">
      <!-- 2 -->
      <g style="fill:#262626;" transform="translate(127.20641 402.338281)scale(0.11 -0.11)">
       <defs>
        <path d="M 19.1875 8.296875 
L 53.609375 8.296875 
L 53.609375 0 
L 7.328125 0 
L 7.328125 8.296875 
Q 12.9375 14.109375 22.625 23.890625 
Q 32.328125 33.6875 34.8125 36.53125 
Q 39.546875 41.84375 41.421875 45.53125 
Q 43.3125 49.21875 43.3125 52.78125 
Q 43.3125 58.59375 39.234375 62.25 
Q 35.15625 65.921875 28.609375 65.921875 
Q 23.96875 65.921875 18.8125 64.3125 
Q 13.671875 62.703125 7.8125 59.421875 
L 7.8125 69.390625 
Q 13.765625 71.78125 18.9375 73 
Q 24.125 74.21875 28.421875 74.21875 
Q 39.75 74.21875 46.484375 68.546875 
Q 53.21875 62.890625 53.21875 53.421875 
Q 53.21875 48.921875 51.53125 44.890625 
Q 49.859375 40.875 45.40625 35.40625 
Q 44.1875 33.984375 37.640625 27.21875 
Q 31.109375 20.453125 19.1875 8.296875 
z
" id="DejaVuSans-50"/>
       </defs>
       <use xlink:href="#DejaVuSans-50"/>
      </g>
     </g>
    </g>
    <g id="xtick_3">
     <g id="line2d_3">
      <path clip-path="url(#pa6ba748805)" d="M 192.193388 384.48 
L 192.193388 51.84 
" style="fill:none;stroke:#ffffff;stroke-linecap:round;"/>
     </g>
     <g id="text_3">
      <!-- 4 -->
      <g style="fill:#262626;" transform="translate(188.694013 402.338281)scale(0.11 -0.11)">
       <defs>
        <path d="M 37.796875 64.3125 
L 12.890625 25.390625 
L 37.796875 25.390625 
z
M 35.203125 72.90625 
L 47.609375 72.90625 
L 47.609375 25.390625 
L 58.015625 25.390625 
L 58.015625 17.1875 
L 47.609375 17.1875 
L 47.609375 0 
L 37.796875 0 
L 37.796875 17.1875 
L 4.890625 17.1875 
L 4.890625 26.703125 
z
" id="DejaVuSans-52"/>
       </defs>
       <use xlink:href="#DejaVuSans-52"/>
      </g>
     </g>
    </g>
    <g id="xtick_4">
     <g id="line2d_4">
      <path clip-path="url(#pa6ba748805)" d="M 253.680992 384.48 
L 253.680992 51.84 
" style="fill:none;stroke:#ffffff;stroke-linecap:round;"/>
     </g>
     <g id="text_4">
      <!-- 6 -->
      <g style="fill:#262626;" transform="translate(250.181617 402.338281)scale(0.11 -0.11)">
       <defs>
        <path d="M 33.015625 40.375 
Q 26.375 40.375 22.484375 35.828125 
Q 18.609375 31.296875 18.609375 23.390625 
Q 18.609375 15.53125 22.484375 10.953125 
Q 26.375 6.390625 33.015625 6.390625 
Q 39.65625 6.390625 43.53125 10.953125 
Q 47.40625 15.53125 47.40625 23.390625 
Q 47.40625 31.296875 43.53125 35.828125 
Q 39.65625 40.375 33.015625 40.375 
z
M 52.59375 71.296875 
L 52.59375 62.3125 
Q 48.875 64.0625 45.09375 64.984375 
Q 41.3125 65.921875 37.59375 65.921875 
Q 27.828125 65.921875 22.671875 59.328125 
Q 17.53125 52.734375 16.796875 39.40625 
Q 19.671875 43.65625 24.015625 45.921875 
Q 28.375 48.1875 33.59375 48.1875 
Q 44.578125 48.1875 50.953125 41.515625 
Q 57.328125 34.859375 57.328125 23.390625 
Q 57.328125 12.15625 50.6875 5.359375 
Q 44.046875 -1.421875 33.015625 -1.421875 
Q 20.359375 -1.421875 13.671875 8.265625 
Q 6.984375 17.96875 6.984375 36.375 
Q 6.984375 53.65625 15.1875 63.9375 
Q 23.390625 74.21875 37.203125 74.21875 
Q 40.921875 74.21875 44.703125 73.484375 
Q 48.484375 72.75 52.59375 71.296875 
z
" id="DejaVuSans-54"/>
       </defs>
       <use xlink:href="#DejaVuSans-54"/>
      </g>
     </g>
    </g>
    <g id="xtick_5">
     <g id="line2d_5">
      <path clip-path="url(#pa6ba748805)" d="M 315.168595 384.48 
L 315.168595 51.84 
" style="fill:none;stroke:#ffffff;stroke-linecap:round;"/>
     </g>
     <g id="text_5">
      <!-- 8 -->
      <g style="fill:#262626;" transform="translate(311.66922 402.338281)scale(0.11 -0.11)">
       <defs>
        <path d="M 31.78125 34.625 
Q 24.75 34.625 20.71875 30.859375 
Q 16.703125 27.09375 16.703125 20.515625 
Q 16.703125 13.921875 20.71875 10.15625 
Q 24.75 6.390625 31.78125 6.390625 
Q 38.8125 6.390625 42.859375 10.171875 
Q 46.921875 13.96875 46.921875 20.515625 
Q 46.921875 27.09375 42.890625 30.859375 
Q 38.875 34.625 31.78125 34.625 
z
M 21.921875 38.8125 
Q 15.578125 40.375 12.03125 44.71875 
Q 8.5 49.078125 8.5 55.328125 
Q 8.5 64.0625 14.71875 69.140625 
Q 20.953125 74.21875 31.78125 74.21875 
Q 42.671875 74.21875 48.875 69.140625 
Q 55.078125 64.0625 55.078125 55.328125 
Q 55.078125 49.078125 51.53125 44.71875 
Q 48 40.375 41.703125 38.8125 
Q 48.828125 37.15625 52.796875 32.3125 
Q 56.78125 27.484375 56.78125 20.515625 
Q 56.78125 9.90625 50.3125 4.234375 
Q 43.84375 -1.421875 31.78125 -1.421875 
Q 19.734375 -1.421875 13.25 4.234375 
Q 6.78125 9.90625 6.78125 20.515625 
Q 6.78125 27.484375 10.78125 32.3125 
Q 14.796875 37.15625 21.921875 38.8125 
z
M 18.3125 54.390625 
Q 18.3125 48.734375 21.84375 45.5625 
Q 25.390625 42.390625 31.78125 42.390625 
Q 38.140625 42.390625 41.71875 45.5625 
Q 45.3125 48.734375 45.3125 54.390625 
Q 45.3125 60.0625 41.71875 63.234375 
Q 38.140625 66.40625 31.78125 66.40625 
Q 25.390625 66.40625 21.84375 63.234375 
Q 18.3125 60.0625 18.3125 54.390625 
z
" id="DejaVuSans-56"/>
       </defs>
       <use xlink:href="#DejaVuSans-56"/>
      </g>
     </g>
    </g>
    <g id="xtick_6">
     <g id="line2d_6">
      <path clip-path="url(#pa6ba748805)" d="M 376.656198 384.48 
L 376.656198 51.84 
" style="fill:none;stroke:#ffffff;stroke-linecap:round;"/>
     </g>
     <g id="text_6">
      <!-- 10 -->
      <g style="fill:#262626;" transform="translate(369.657448 402.338281)scale(0.11 -0.11)">
       <defs>
        <path d="M 12.40625 8.296875 
L 28.515625 8.296875 
L 28.515625 63.921875 
L 10.984375 60.40625 
L 10.984375 69.390625 
L 28.421875 72.90625 
L 38.28125 72.90625 
L 38.28125 8.296875 
L 54.390625 8.296875 
L 54.390625 0 
L 12.40625 0 
z
" id="DejaVuSans-49"/>
       </defs>
       <use xlink:href="#DejaVuSans-49"/>
       <use x="63.623047" xlink:href="#DejaVuSans-48"/>
      </g>
     </g>
    </g>
    <g id="text_7">
     <!-- $t$ -->
     <g style="fill:#262626;" transform="translate(219 417.744062)scale(0.12 -0.12)">
      <defs>
       <path d="M 42.28125 54.6875 
L 40.921875 47.703125 
L 23 47.703125 
L 17.1875 18.015625 
Q 16.890625 16.359375 16.75 15.234375 
Q 16.609375 14.109375 16.609375 13.484375 
Q 16.609375 10.359375 18.484375 8.9375 
Q 20.359375 7.515625 24.515625 7.515625 
L 33.59375 7.515625 
L 32.078125 0 
L 23.484375 0 
Q 15.484375 0 11.546875 3.125 
Q 7.625 6.25 7.625 12.59375 
Q 7.625 13.71875 7.765625 15.0625 
Q 7.90625 16.40625 8.203125 18.015625 
L 14.015625 47.703125 
L 6.390625 47.703125 
L 7.8125 54.6875 
L 15.28125 54.6875 
L 18.3125 70.21875 
L 27.296875 70.21875 
L 24.3125 54.6875 
z
" id="DejaVuSans-Oblique-116"/>
      </defs>
      <use transform="translate(0 0.78125)" xlink:href="#DejaVuSans-Oblique-116"/>
     </g>
    </g>
   </g>
   <g id="matplotlib.axis_2">
    <g id="ytick_1">
     <g id="line2d_7">
      <path clip-path="url(#pa6ba748805)" d="M 54 350.235655 
L 388.8 350.235655 
" style="fill:none;stroke:#ffffff;stroke-linecap:round;"/>
     </g>
     <g id="text_8">
      <!-- $\mathdefault{10^{-6}}$ -->
      <g style="fill:#262626;" transform="translate(18.65 354.414796)scale(0.11 -0.11)">
       <defs>
        <path d="M 10.59375 35.5 
L 73.1875 35.5 
L 73.1875 27.203125 
L 10.59375 27.203125 
z
" id="DejaVuSans-8722"/>
       </defs>
       <use transform="translate(0 0.765625)" xlink:href="#DejaVuSans-49"/>
       <use transform="translate(63.623047 0.765625)" xlink:href="#DejaVuSans-48"/>
       <use transform="translate(128.203125 39.046875)scale(0.7)" xlink:href="#DejaVuSans-8722"/>
       <use transform="translate(186.855469 39.046875)scale(0.7)" xlink:href="#DejaVuSans-54"/>
      </g>
     </g>
    </g>
    <g id="ytick_2">
     <g id="line2d_8">
      <path clip-path="url(#pa6ba748805)" d="M 54 309.820914 
L 388.8 309.820914 
" style="fill:none;stroke:#ffffff;stroke-linecap:round;"/>
     </g>
     <g id="text_9">
      <!-- $\mathdefault{10^{-5}}$ -->
      <g style="fill:#262626;" transform="translate(18.65 314.000055)scale(0.11 -0.11)">
       <defs>
        <path d="M 10.796875 72.90625 
L 49.515625 72.90625 
L 49.515625 64.59375 
L 19.828125 64.59375 
L 19.828125 46.734375 
Q 21.96875 47.46875 24.109375 47.828125 
Q 26.265625 48.1875 28.421875 48.1875 
Q 40.625 48.1875 47.75 41.5 
Q 54.890625 34.8125 54.890625 23.390625 
Q 54.890625 11.625 47.5625 5.09375 
Q 40.234375 -1.421875 26.90625 -1.421875 
Q 22.3125 -1.421875 17.546875 -0.640625 
Q 12.796875 0.140625 7.71875 1.703125 
L 7.71875 11.625 
Q 12.109375 9.234375 16.796875 8.0625 
Q 21.484375 6.890625 26.703125 6.890625 
Q 35.15625 6.890625 40.078125 11.328125 
Q 45.015625 15.765625 45.015625 23.390625 
Q 45.015625 31 40.078125 35.4375 
Q 35.15625 39.890625 26.703125 39.890625 
Q 22.75 39.890625 18.8125 39.015625 
Q 14.890625 38.140625 10.796875 36.28125 
z
" id="DejaVuSans-53"/>
       </defs>
       <use transform="translate(0 0.684375)" xlink:href="#DejaVuSans-49"/>
       <use transform="translate(63.623047 0.684375)" xlink:href="#DejaVuSans-48"/>
       <use transform="translate(128.203125 38.965625)scale(0.7)" xlink:href="#DejaVuSans-8722"/>
       <use transform="translate(186.855469 38.965625)scale(0.7)" xlink:href="#DejaVuSans-53"/>
      </g>
     </g>
    </g>
    <g id="ytick_3">
     <g id="line2d_9">
      <path clip-path="url(#pa6ba748805)" d="M 54 269.406173 
L 388.8 269.406173 
" style="fill:none;stroke:#ffffff;stroke-linecap:round;"/>
     </g>
     <g id="text_10">
      <!-- $\mathdefault{10^{-4}}$ -->
      <g style="fill:#262626;" transform="translate(18.65 273.585314)scale(0.11 -0.11)">
       <use transform="translate(0 0.684375)" xlink:href="#DejaVuSans-49"/>
       <use transform="translate(63.623047 0.684375)" xlink:href="#DejaVuSans-48"/>
       <use transform="translate(128.203125 38.965625)scale(0.7)" xlink:href="#DejaVuSans-8722"/>
       <use transform="translate(186.855469 38.965625)scale(0.7)" xlink:href="#DejaVuSans-52"/>
      </g>
     </g>
    </g>
    <g id="ytick_4">
     <g id="line2d_10">
      <path clip-path="url(#pa6ba748805)" d="M 54 228.991432 
L 388.8 228.991432 
" style="fill:none;stroke:#ffffff;stroke-linecap:round;"/>
     </g>
     <g id="text_11">
      <!-- $\mathdefault{10^{-3}}$ -->
      <g style="fill:#262626;" transform="translate(18.65 233.170572)scale(0.11 -0.11)">
       <defs>
        <path d="M 40.578125 39.3125 
Q 47.65625 37.796875 51.625 33 
Q 55.609375 28.21875 55.609375 21.1875 
Q 55.609375 10.40625 48.1875 4.484375 
Q 40.765625 -1.421875 27.09375 -1.421875 
Q 22.515625 -1.421875 17.65625 -0.515625 
Q 12.796875 0.390625 7.625 2.203125 
L 7.625 11.71875 
Q 11.71875 9.328125 16.59375 8.109375 
Q 21.484375 6.890625 26.8125 6.890625 
Q 36.078125 6.890625 40.9375 10.546875 
Q 45.796875 14.203125 45.796875 21.1875 
Q 45.796875 27.640625 41.28125 31.265625 
Q 36.765625 34.90625 28.71875 34.90625 
L 20.21875 34.90625 
L 20.21875 43.015625 
L 29.109375 43.015625 
Q 36.375 43.015625 40.234375 45.921875 
Q 44.09375 48.828125 44.09375 54.296875 
Q 44.09375 59.90625 40.109375 62.90625 
Q 36.140625 65.921875 28.71875 65.921875 
Q 24.65625 65.921875 20.015625 65.03125 
Q 15.375 64.15625 9.8125 62.3125 
L 9.8125 71.09375 
Q 15.4375 72.65625 20.34375 73.4375 
Q 25.25 74.21875 29.59375 74.21875 
Q 40.828125 74.21875 47.359375 69.109375 
Q 53.90625 64.015625 53.90625 55.328125 
Q 53.90625 49.265625 50.4375 45.09375 
Q 46.96875 40.921875 40.578125 39.3125 
z
" id="DejaVuSans-51"/>
       </defs>
       <use transform="translate(0 0.765625)" xlink:href="#DejaVuSans-49"/>
       <use transform="translate(63.623047 0.765625)" xlink:href="#DejaVuSans-48"/>
       <use transform="translate(128.203125 39.046875)scale(0.7)" xlink:href="#DejaVuSans-8722"/>
       <use transform="translate(186.855469 39.046875)scale(0.7)" xlink:href="#DejaVuSans-51"/>
      </g>
     </g>
    </g>
    <g id="ytick_5">
     <g id="line2d_11">
      <path clip-path="url(#pa6ba748805)" d="M 54 188.576691 
L 388.8 188.576691 
" style="fill:none;stroke:#ffffff;stroke-linecap:round;"/>
     </g>
     <g id="text_12">
      <!-- $\mathdefault{10^{-2}}$ -->
      <g style="fill:#262626;" transform="translate(18.65 192.755831)scale(0.11 -0.11)">
       <use transform="translate(0 0.765625)" xlink:href="#DejaVuSans-49"/>
       <use transform="translate(63.623047 0.765625)" xlink:href="#DejaVuSans-48"/>
       <use transform="translate(128.203125 39.046875)scale(0.7)" xlink:href="#DejaVuSans-8722"/>
       <use transform="translate(186.855469 39.046875)scale(0.7)" xlink:href="#DejaVuSans-50"/>
      </g>
     </g>
    </g>
    <g id="ytick_6">
     <g id="line2d_12">
      <path clip-path="url(#pa6ba748805)" d="M 54 148.161949 
L 388.8 148.161949 
" style="fill:none;stroke:#ffffff;stroke-linecap:round;"/>
     </g>
     <g id="text_13">
      <!-- $\mathdefault{10^{-1}}$ -->
      <g style="fill:#262626;" transform="translate(18.65 152.34109)scale(0.11 -0.11)">
       <use transform="translate(0 0.684375)" xlink:href="#DejaVuSans-49"/>
       <use transform="translate(63.623047 0.684375)" xlink:href="#DejaVuSans-48"/>
       <use transform="translate(128.203125 38.965625)scale(0.7)" xlink:href="#DejaVuSans-8722"/>
       <use transform="translate(186.855469 38.965625)scale(0.7)" xlink:href="#DejaVuSans-49"/>
      </g>
     </g>
    </g>
    <g id="ytick_7">
     <g id="line2d_13">
      <path clip-path="url(#pa6ba748805)" d="M 54 107.747208 
L 388.8 107.747208 
" style="fill:none;stroke:#ffffff;stroke-linecap:round;"/>
     </g>
     <g id="text_14">
      <!-- $\mathdefault{10^{0}}$ -->
      <g style="fill:#262626;" transform="translate(25.14 111.926349)scale(0.11 -0.11)">
       <use transform="translate(0 0.765625)" xlink:href="#DejaVuSans-49"/>
       <use transform="translate(63.623047 0.765625)" xlink:href="#DejaVuSans-48"/>
       <use transform="translate(128.203125 39.046875)scale(0.7)" xlink:href="#DejaVuSans-48"/>
      </g>
     </g>
    </g>
    <g id="ytick_8">
     <g id="line2d_14">
      <path clip-path="url(#pa6ba748805)" d="M 54 67.332467 
L 388.8 67.332467 
" style="fill:none;stroke:#ffffff;stroke-linecap:round;"/>
     </g>
     <g id="text_15">
      <!-- $\mathdefault{10^{1}}$ -->
      <g style="fill:#262626;" transform="translate(25.14 71.511608)scale(0.11 -0.11)">
       <use transform="translate(0 0.684375)" xlink:href="#DejaVuSans-49"/>
       <use transform="translate(63.623047 0.684375)" xlink:href="#DejaVuSans-48"/>
       <use transform="translate(128.203125 38.965625)scale(0.7)" xlink:href="#DejaVuSans-49"/>
      </g>
     </g>
    </g>
    <g id="ytick_9"/>
    <g id="ytick_10"/>
    <g id="ytick_11"/>
    <g id="ytick_12"/>
    <g id="ytick_13"/>
    <g id="ytick_14"/>
    <g id="ytick_15"/>
    <g id="ytick_16"/>
    <g id="ytick_17"/>
    <g id="ytick_18"/>
    <g id="ytick_19"/>
    <g id="ytick_20"/>
    <g id="ytick_21"/>
    <g id="ytick_22"/>
    <g id="ytick_23"/>
    <g id="ytick_24"/>
    <g id="ytick_25"/>
    <g id="ytick_26"/>
    <g id="ytick_27"/>
    <g id="ytick_28"/>
    <g id="ytick_29"/>
    <g id="ytick_30"/>
    <g id="ytick_31"/>
    <g id="ytick_32"/>
    <g id="ytick_33"/>
    <g id="ytick_34"/>
    <g id="ytick_35"/>
    <g id="ytick_36"/>
    <g id="ytick_37"/>
    <g id="ytick_38"/>
    <g id="ytick_39"/>
    <g id="ytick_40"/>
    <g id="ytick_41"/>
    <g id="ytick_42"/>
    <g id="ytick_43"/>
    <g id="ytick_44"/>
    <g id="ytick_45"/>
    <g id="ytick_46"/>
    <g id="ytick_47"/>
    <g id="ytick_48"/>
    <g id="ytick_49"/>
    <g id="ytick_50"/>
    <g id="ytick_51"/>
    <g id="ytick_52"/>
    <g id="ytick_53"/>
    <g id="ytick_54"/>
    <g id="ytick_55"/>
    <g id="ytick_56"/>
    <g id="ytick_57"/>
    <g id="ytick_58"/>
    <g id="ytick_59"/>
    <g id="ytick_60"/>
    <g id="ytick_61"/>
    <g id="ytick_62"/>
    <g id="ytick_63"/>
    <g id="ytick_64"/>
    <g id="ytick_65"/>
    <g id="ytick_66"/>
    <g id="ytick_67"/>
    <g id="ytick_68"/>
    <g id="ytick_69"/>
    <g id="ytick_70"/>
    <g id="ytick_71"/>
    <g id="ytick_72"/>
    <g id="ytick_73"/>
   </g>
   <g id="line2d_15">
    <path clip-path="url(#pa6ba748805)" d="M 72.286737 433 
L 72.292562 356.894377 
L 75.366942 357.65722 
L 78.441322 357.226918 
L 81.515702 353.661874 
L 84.590083 353.604061 
L 87.664463 350.552016 
L 90.738843 349.578134 
L 93.813223 347.401284 
L 96.887603 346.376303 
L 99.961983 345.214593 
L 103.036364 344.532573 
L 106.110744 339.616627 
L 109.185124 335.788006 
L 112.259504 330.929254 
L 115.333884 320.496422 
L 118.408264 309.423798 
L 121.482645 299.760511 
L 124.557025 286.299199 
L 127.631405 273.065147 
L 130.705785 260.863925 
L 133.780165 247.439481 
L 136.854545 235.218166 
L 139.928926 224.068213 
L 143.003306 211.781499 
L 146.077686 199.492149 
L 149.152066 185.60958 
L 152.226446 172.731748 
L 155.300826 161.660544 
L 158.375207 150.905092 
L 161.449587 143.501009 
L 164.523967 136.907961 
L 167.598347 131.552221 
L 170.672727 126.278084 
L 173.747107 121.048345 
L 176.821488 116.976116 
L 179.895868 113.62296 
L 182.970248 110.648544 
L 186.044628 107.939912 
L 189.119008 105.601757 
L 192.193388 103.86255 
L 195.267769 102.551228 
L 198.342149 101.180173 
L 201.416529 99.736862 
L 204.490909 98.682178 
L 207.565289 97.629561 
L 210.639669 96.054415 
L 213.71405 94.191637 
L 216.78843 92.691611 
L 219.86281 91.350019 
L 222.93719 89.962589 
L 226.01157 88.792307 
L 229.08595 87.843149 
L 232.160331 87.029616 
L 235.234711 86.435522 
L 238.309091 85.587595 
L 241.383471 84.699276 
L 244.457851 83.91484 
L 247.532231 83.453172 
L 250.606612 83.176993 
L 253.680992 82.922025 
L 256.755372 82.560872 
L 259.829752 82.189954 
L 262.904132 81.860682 
L 265.978512 81.428163 
L 269.052893 80.718432 
L 272.127273 80.074848 
L 275.201653 79.575183 
L 278.276033 78.917008 
L 281.350413 78.05487 
L 284.424793 77.534716 
L 287.499174 77.117195 
L 290.573554 76.746016 
L 293.647934 76.304097 
L 296.722314 76.043396 
L 299.796694 75.769728 
L 302.871074 75.319136 
L 305.945455 74.691832 
L 309.019835 74.089203 
L 312.094215 73.625391 
L 315.168595 73.17532 
L 318.242975 72.806356 
L 321.317355 72.433194 
L 324.391736 72.128005 
L 327.466116 71.691287 
L 330.540496 71.257396 
L 333.614876 70.853852 
L 336.689256 70.452095 
L 339.763636 69.825444 
L 342.838017 69.198072 
L 345.912397 68.78755 
L 348.986777 68.418202 
L 352.061157 68.151754 
L 355.135537 67.88413 
L 358.209917 67.714387 
L 361.284298 67.599469 
L 364.358678 67.40891 
L 367.433058 67.102421 
L 370.507438 66.96 
L 373.581818 67.01604 
" style="fill:none;stroke:#4c72b0;stroke-linecap:round;stroke-width:1.5;"/>
   </g>
   <g id="line2d_16">
    <path clip-path="url(#pa6ba748805)" d="M 72.287689 433 
L 72.292562 369.36 
L 75.366942 291.75608 
L 78.441322 283.736423 
L 81.515702 271.239876 
L 84.590083 268.080067 
L 87.664463 271.346841 
L 90.738843 266.380306 
L 93.813223 272.266608 
L 96.887603 269.685745 
L 99.961983 266.473694 
L 103.036364 256.032978 
L 106.110744 262.33475 
L 109.185124 254.848116 
L 112.259504 247.678933 
L 115.333884 250.099812 
L 118.408264 242.449394 
L 121.482645 217.327496 
L 124.557025 213.105155 
L 127.631405 205.841146 
L 130.705785 187.478247 
L 133.780165 175.084104 
L 136.854545 153.240701 
L 139.928926 151.396655 
L 143.003306 144.471444 
L 146.077686 126.553168 
L 149.152066 119.010977 
L 152.226446 112.467597 
L 155.300826 100.604153 
L 158.375207 96.526784 
L 161.449587 88.688108 
L 164.523967 87.435415 
L 167.598347 85.329185 
L 170.672727 83.70164 
L 173.747107 83.655321 
L 176.821488 85.100139 
L 179.895868 84.343209 
L 182.970248 85.552566 
L 186.044628 83.066855 
L 189.119008 83.862062 
L 192.193388 83.328102 
L 195.267769 84.158008 
L 198.342149 83.132668 
L 201.416529 85.945821 
L 204.490909 86.63065 
L 207.565289 85.080215 
L 210.639669 84.388109 
L 213.71405 83.989121 
L 216.78843 84.189024 
L 219.86281 82.607647 
L 222.93719 85.630826 
L 226.01157 89.15054 
L 229.08595 86.292044 
L 232.160331 85.095979 
L 235.234711 84.228832 
L 238.309091 83.270916 
L 241.383471 85.327387 
L 244.457851 85.371061 
L 247.532231 83.703475 
L 250.606612 83.319149 
L 253.680992 84.565039 
L 256.755372 87.412993 
L 259.829752 85.96073 
L 262.904132 84.853181 
L 265.978512 84.312926 
L 269.052893 83.111951 
L 272.127273 82.529363 
L 275.201653 84.451314 
L 278.276033 84.240005 
L 281.350413 87.58121 
L 284.424793 83.533032 
L 287.499174 83.469427 
L 290.573554 84.633211 
L 293.647934 82.442693 
L 296.722314 83.894622 
L 299.796694 84.877927 
L 302.871074 85.571226 
L 305.945455 81.858222 
L 309.019835 85.18174 
L 312.094215 84.74381 
L 315.168595 84.415401 
L 318.242975 83.249346 
L 321.317355 85.076756 
L 324.391736 85.457317 
L 327.466116 85.896616 
L 330.540496 84.925716 
L 333.614876 84.166789 
L 336.689256 84.071476 
L 339.763636 82.907045 
L 342.838017 83.956871 
L 345.912397 86.534723 
L 348.986777 84.652674 
L 352.061157 83.51074 
L 355.135537 84.520146 
L 358.209917 83.472759 
L 361.284298 83.257385 
L 364.358678 84.035267 
L 367.433058 85.238245 
L 370.507438 84.075904 
L 373.581818 84.897388 
" style="fill:none;stroke:#dd8452;stroke-linecap:round;stroke-width:1.5;"/>
   </g>
   <g id="line2d_17">
    <path clip-path="url(#pa6ba748805)" d="M 161.449587 384.48 
L 161.449587 51.84 
" style="fill:none;stroke:#55a868;stroke-linecap:round;stroke-width:1.5;"/>
   </g>
   <g id="patch_3">
    <path d="M 54 384.48 
L 54 51.84 
" style="fill:none;stroke:#ffffff;stroke-linecap:square;stroke-linejoin:miter;stroke-width:1.25;"/>
   </g>
   <g id="patch_4">
    <path d="M 388.8 384.48 
L 388.8 51.84 
" style="fill:none;stroke:#ffffff;stroke-linecap:square;stroke-linejoin:miter;stroke-width:1.25;"/>
   </g>
   <g id="patch_5">
    <path d="M 54 384.48 
L 388.8 384.48 
" style="fill:none;stroke:#ffffff;stroke-linecap:square;stroke-linejoin:miter;stroke-width:1.25;"/>
   </g>
   <g id="patch_6">
    <path d="M 54 51.84 
L 388.8 51.84 
" style="fill:none;stroke:#ffffff;stroke-linecap:square;stroke-linejoin:miter;stroke-width:1.25;"/>
   </g>
   <g id="legend_1">
    <g id="patch_7">
     <path d="M 286.17 378.98 
L 381.1 378.98 
Q 383.3 378.98 383.3 376.78 
L 383.3 327.634063 
Q 383.3 325.434062 381.1 325.434062 
L 286.17 325.434062 
Q 283.97 325.434062 283.97 327.634063 
L 283.97 376.78 
Q 283.97 378.98 286.17 378.98 
z
" style="fill:#eaeaf2;opacity:0.8;stroke:#cccccc;stroke-linejoin:miter;"/>
    </g>
    <g id="line2d_18">
     <path d="M 288.37 335.246406 
L 310.37 335.246406 
" style="fill:none;stroke:#4c72b0;stroke-linecap:round;stroke-width:1.5;"/>
    </g>
    <g id="line2d_19"/>
    <g id="text_16">
     <!-- $&lt;\Delta r^2(t)&gt;$ -->
     <g style="fill:#262626;" transform="translate(319.17 339.096406)scale(0.11 -0.11)">
      <defs>
       <path d="M 73.1875 49.21875 
L 22.796875 31.296875 
L 73.1875 13.484375 
L 73.1875 4.59375 
L 10.59375 27.296875 
L 10.59375 35.40625 
L 73.1875 58.109375 
z
" id="DejaVuSans-60"/>
       <path d="M 34.1875 63.1875 
L 14.15625 8.203125 
L 54.25 8.203125 
z
M 0.78125 0 
L 28.609375 72.90625 
L 39.796875 72.90625 
L 67.578125 0 
z
" id="DejaVuSans-916"/>
       <path d="M 44.578125 46.390625 
Q 43.21875 47.125 41.453125 47.515625 
Q 39.703125 47.90625 37.703125 47.90625 
Q 30.515625 47.90625 25.140625 42.453125 
Q 19.78125 37.015625 18.015625 27.875 
L 12.5 0 
L 3.515625 0 
L 14.203125 54.6875 
L 23.1875 54.6875 
L 21.484375 46.1875 
Q 25.046875 50.921875 30 53.453125 
Q 34.96875 56 40.578125 56 
Q 42.046875 56 43.453125 55.828125 
Q 44.875 55.671875 46.296875 55.28125 
z
" id="DejaVuSans-Oblique-114"/>
       <path d="M 31 75.875 
Q 24.46875 64.65625 21.28125 53.65625 
Q 18.109375 42.671875 18.109375 31.390625 
Q 18.109375 20.125 21.3125 9.0625 
Q 24.515625 -2 31 -13.1875 
L 23.1875 -13.1875 
Q 15.875 -1.703125 12.234375 9.375 
Q 8.59375 20.453125 8.59375 31.390625 
Q 8.59375 42.28125 12.203125 53.3125 
Q 15.828125 64.359375 23.1875 75.875 
z
" id="DejaVuSans-40"/>
       <path d="M 8.015625 75.875 
L 15.828125 75.875 
Q 23.140625 64.359375 26.78125 53.3125 
Q 30.421875 42.28125 30.421875 31.390625 
Q 30.421875 20.453125 26.78125 9.375 
Q 23.140625 -1.703125 15.828125 -13.1875 
L 8.015625 -13.1875 
Q 14.5 -2 17.703125 9.0625 
Q 20.90625 20.125 20.90625 31.390625 
Q 20.90625 42.671875 17.703125 53.65625 
Q 14.5 64.65625 8.015625 75.875 
z
" id="DejaVuSans-41"/>
       <path d="M 10.59375 49.21875 
L 10.59375 58.109375 
L 73.1875 35.40625 
L 73.1875 27.296875 
L 10.59375 4.59375 
L 10.59375 13.484375 
L 60.890625 31.296875 
z
" id="DejaVuSans-62"/>
      </defs>
      <use transform="translate(19.482422 0.765625)" xlink:href="#DejaVuSans-60"/>
      <use transform="translate(122.753906 0.765625)" xlink:href="#DejaVuSans-916"/>
      <use transform="translate(191.162109 0.765625)" xlink:href="#DejaVuSans-Oblique-114"/>
      <use transform="translate(236.925286 39.046875)scale(0.7)" xlink:href="#DejaVuSans-50"/>
      <use transform="translate(284.195794 0.765625)" xlink:href="#DejaVuSans-40"/>
      <use transform="translate(323.209466 0.765625)" xlink:href="#DejaVuSans-Oblique-116"/>
      <use transform="translate(362.418451 0.765625)" xlink:href="#DejaVuSans-41"/>
      <use transform="translate(420.914544 0.765625)" xlink:href="#DejaVuSans-62"/>
     </g>
    </g>
    <g id="line2d_20">
     <path d="M 288.37 352.296406 
L 310.37 352.296406 
" style="fill:none;stroke:#dd8452;stroke-linecap:round;stroke-width:1.5;"/>
    </g>
    <g id="line2d_21"/>
    <g id="text_17">
     <!-- $&lt;\Delta v^2(t)&gt;$ -->
     <g style="fill:#262626;" transform="translate(319.17 356.146406)scale(0.11 -0.11)">
      <defs>
       <path d="M 7.171875 54.6875 
L 16.703125 54.6875 
L 24.703125 8.203125 
L 50.875 54.6875 
L 60.40625 54.6875 
L 29.296875 0 
L 17.1875 0 
z
" id="DejaVuSans-Oblique-118"/>
      </defs>
      <use transform="translate(19.482422 0.765625)" xlink:href="#DejaVuSans-60"/>
      <use transform="translate(122.753906 0.765625)" xlink:href="#DejaVuSans-916"/>
      <use transform="translate(191.162109 0.765625)" xlink:href="#DejaVuSans-Oblique-118"/>
      <use transform="translate(254.807943 39.046875)scale(0.7)" xlink:href="#DejaVuSans-50"/>
      <use transform="translate(302.078451 0.765625)" xlink:href="#DejaVuSans-40"/>
      <use transform="translate(341.092122 0.765625)" xlink:href="#DejaVuSans-Oblique-116"/>
      <use transform="translate(380.301107 0.765625)" xlink:href="#DejaVuSans-41"/>
      <use transform="translate(438.797201 0.765625)" xlink:href="#DejaVuSans-62"/>
     </g>
    </g>
    <g id="line2d_22">
     <path d="M 288.37 368.442344 
L 310.37 368.442344 
" style="fill:none;stroke:#55a868;stroke-linecap:round;stroke-width:1.5;"/>
    </g>
    <g id="line2d_23"/>
    <g id="text_18">
     <!-- $t_m \approx 3$ -->
     <g style="fill:#262626;" transform="translate(319.17 372.292344)scale(0.11 -0.11)">
      <defs>
       <path d="M 89.796875 33.015625 
L 83.40625 0 
L 74.421875 0 
L 80.71875 32.71875 
Q 81.109375 34.8125 81.296875 36.328125 
Q 81.5 37.84375 81.5 38.921875 
Q 81.5 43.3125 79.046875 45.75 
Q 76.609375 48.1875 72.21875 48.1875 
Q 65.671875 48.1875 60.546875 43.28125 
Q 55.421875 38.375 53.90625 30.515625 
L 47.90625 0 
L 38.921875 0 
L 45.3125 32.71875 
Q 45.703125 34.515625 45.890625 36.046875 
Q 46.09375 37.59375 46.09375 38.8125 
Q 46.09375 43.265625 43.65625 45.71875 
Q 41.21875 48.1875 36.921875 48.1875 
Q 30.28125 48.1875 25.140625 43.28125 
Q 20.015625 38.375 18.5 30.515625 
L 12.5 0 
L 3.515625 0 
L 14.203125 54.6875 
L 23.1875 54.6875 
L 21.484375 46.1875 
Q 25.140625 50.984375 30.046875 53.484375 
Q 34.96875 56 40.578125 56 
Q 46.53125 56 50.359375 52.875 
Q 54.203125 49.75 54.984375 44.1875 
Q 59.078125 49.953125 64.46875 52.96875 
Q 69.875 56 75.875 56 
Q 82.90625 56 86.734375 51.953125 
Q 90.578125 47.90625 90.578125 40.484375 
Q 90.578125 38.875 90.375 36.9375 
Q 90.1875 35.015625 89.796875 33.015625 
z
" id="DejaVuSans-Oblique-109"/>
       <path d="M 73.1875 30.421875 
L 73.1875 21.6875 
Q 68.0625 17.875 63.6875 16.1875 
Q 59.328125 14.5 54.59375 14.5 
Q 49.21875 14.5 42.09375 17.390625 
Q 41.609375 17.578125 41.265625 17.71875 
Q 40.96875 17.828125 40.234375 18.109375 
Q 32.671875 21.09375 28.078125 21.09375 
Q 23.78125 21.09375 19.578125 19.234375 
Q 15.375 17.390625 10.59375 13.28125 
L 10.59375 22.015625 
Q 15.71875 25.828125 20.09375 27.515625 
Q 24.46875 29.203125 29.203125 29.203125 
Q 34.578125 29.203125 41.75 26.3125 
Q 42.28125 26.078125 42.53125 25.984375 
Q 42.828125 25.875 43.5625 25.59375 
Q 51.125 22.609375 55.71875 22.609375 
Q 59.90625 22.609375 64.03125 24.4375 
Q 68.171875 26.265625 73.1875 30.421875 
z
M 73.1875 49.421875 
L 73.1875 40.71875 
Q 68.0625 36.859375 63.6875 35.171875 
Q 59.328125 33.5 54.59375 33.5 
Q 49.21875 33.5 42.09375 36.375 
Q 41.609375 36.578125 41.265625 36.71875 
Q 40.96875 36.8125 40.234375 37.109375 
Q 32.671875 40.09375 28.078125 40.09375 
Q 23.78125 40.09375 19.578125 38.234375 
Q 15.375 36.375 10.59375 32.328125 
L 10.59375 41.015625 
Q 15.71875 44.828125 20.09375 46.5 
Q 24.46875 48.1875 29.203125 48.1875 
Q 34.578125 48.1875 41.75 45.3125 
Q 42.234375 45.125 42.484375 45.015625 
Q 42.828125 44.875 43.5625 44.578125 
Q 51.125 41.609375 55.71875 41.609375 
Q 59.90625 41.609375 64.03125 43.4375 
Q 68.171875 45.265625 73.1875 49.421875 
z
" id="DejaVuSans-8776"/>
      </defs>
      <use transform="translate(0 0.78125)" xlink:href="#DejaVuSans-Oblique-116"/>
      <use transform="translate(39.208984 -15.625)scale(0.7)" xlink:href="#DejaVuSans-Oblique-109"/>
      <use transform="translate(129.614258 0.78125)" xlink:href="#DejaVuSans-8776"/>
      <use transform="translate(232.885742 0.78125)" xlink:href="#DejaVuSans-51"/>
     </g>
    </g>
   </g>
  </g>
 </g>
 <defs>
  <clipPath id="pa6ba748805">
   <rect height="332.64" width="334.8" x="54" y="51.84"/>
  </clipPath>
 </defs>
</svg>
