<?xml version="1.0" encoding="utf-8" standalone="no"?>
<!DOCTYPE svg PUBLIC "-//W3C//DTD SVG 1.1//EN"
  "http://www.w3.org/Graphics/SVG/1.1/DTD/svg11.dtd">
<!-- Created with matplotlib (https://matplotlib.org/) -->
<svg height="432pt" version="1.1" viewBox="0 0 432 432" width="432pt" xmlns="http://www.w3.org/2000/svg" xmlns:xlink="http://www.w3.org/1999/xlink">
 <metadata>
  <rdf:RDF xmlns:cc="http://creativecommons.org/ns#" xmlns:dc="http://purl.org/dc/elements/1.1/" xmlns:rdf="http://www.w3.org/1999/02/22-rdf-syntax-ns#">
   <cc:Work>
    <dc:type rdf:resource="http://purl.org/dc/dcmitype/StillImage"/>
    <dc:date>2021-03-29T03:30:01.674599</dc:date>
    <dc:format>image/svg+xml</dc:format>
    <dc:creator>
     <cc:Agent>
      <dc:title>Matplotlib v3.3.3, https://matplotlib.org/</dc:title>
     </cc:Agent>
    </dc:creator>
   </cc:Work>
  </rdf:RDF>
 </metadata>
 <defs>
  <style type="text/css">*{stroke-linecap:butt;stroke-linejoin:round;}</style>
 </defs>
 <g id="figure_1">
  <g id="patch_1">
   <path d="M 0 432 
L 432 432 
L 432 0 
L 0 0 
z
" style="fill:#ffffff;"/>
  </g>
  <g id="axes_1">
   <g id="patch_2">
    <path d="M 54 384.48 
L 388.8 384.48 
L 388.8 51.84 
L 54 51.84 
z
" style="fill:#eaeaf2;"/>
   </g>
   <g id="matplotlib.axis_1">
    <g id="xtick_1">
     <g id="line2d_1">
      <path clip-path="url(#pad1c0add03)" d="M 69.218182 384.48 
L 69.218182 51.84 
" style="fill:none;stroke:#ffffff;stroke-linecap:round;"/>
     </g>
     <g id="text_1">
      <!-- 0 -->
      <g style="fill:#262626;" transform="translate(65.718807 402.338281)scale(0.11 -0.11)">
       <defs>
        <path d="M 31.78125 66.40625 
Q 24.171875 66.40625 20.328125 58.90625 
Q 16.5 51.421875 16.5 36.375 
Q 16.5 21.390625 20.328125 13.890625 
Q 24.171875 6.390625 31.78125 6.390625 
Q 39.453125 6.390625 43.28125 13.890625 
Q 47.125 21.390625 47.125 36.375 
Q 47.125 51.421875 43.28125 58.90625 
Q 39.453125 66.40625 31.78125 66.40625 
z
M 31.78125 74.21875 
Q 44.046875 74.21875 50.515625 64.515625 
Q 56.984375 54.828125 56.984375 36.375 
Q 56.984375 17.96875 50.515625 8.265625 
Q 44.046875 -1.421875 31.78125 -1.421875 
Q 19.53125 -1.421875 13.0625 8.265625 
Q 6.59375 17.96875 6.59375 36.375 
Q 6.59375 54.828125 13.0625 64.515625 
Q 19.53125 74.21875 31.78125 74.21875 
z
" id="DejaVuSans-48"/>
       </defs>
       <use xlink:href="#DejaVuSans-48"/>
      </g>
     </g>
    </g>
    <g id="xtick_2">
     <g id="line2d_2">
      <path clip-path="url(#pad1c0add03)" d="M 130.705785 384.48 
L 130.705785 51.84 
" style="fill:none;stroke:#ffffff;stroke-linecap:round;"/>
     </g>
     <g id="text_2">
      <!-- 2 -->
      <g style="fill:#262626;" transform="translate(127.20641 402.338281)scale(0.11 -0.11)">
       <defs>
        <path d="M 19.1875 8.296875 
L 53.609375 8.296875 
L 53.609375 0 
L 7.328125 0 
L 7.328125 8.296875 
Q 12.9375 14.109375 22.625 23.890625 
Q 32.328125 33.6875 34.8125 36.53125 
Q 39.546875 41.84375 41.421875 45.53125 
Q 43.3125 49.21875 43.3125 52.78125 
Q 43.3125 58.59375 39.234375 62.25 
Q 35.15625 65.921875 28.609375 65.921875 
Q 23.96875 65.921875 18.8125 64.3125 
Q 13.671875 62.703125 7.8125 59.421875 
L 7.8125 69.390625 
Q 13.765625 71.78125 18.9375 73 
Q 24.125 74.21875 28.421875 74.21875 
Q 39.75 74.21875 46.484375 68.546875 
Q 53.21875 62.890625 53.21875 53.421875 
Q 53.21875 48.921875 51.53125 44.890625 
Q 49.859375 40.875 45.40625 35.40625 
Q 44.1875 33.984375 37.640625 27.21875 
Q 31.109375 20.453125 19.1875 8.296875 
z
" id="DejaVuSans-50"/>
       </defs>
       <use xlink:href="#DejaVuSans-50"/>
      </g>
     </g>
    </g>
    <g id="xtick_3">
     <g id="line2d_3">
      <path clip-path="url(#pad1c0add03)" d="M 192.193388 384.48 
L 192.193388 51.84 
" style="fill:none;stroke:#ffffff;stroke-linecap:round;"/>
     </g>
     <g id="text_3">
      <!-- 4 -->
      <g style="fill:#262626;" transform="translate(188.694013 402.338281)scale(0.11 -0.11)">
       <defs>
        <path d="M 37.796875 64.3125 
L 12.890625 25.390625 
L 37.796875 25.390625 
z
M 35.203125 72.90625 
L 47.609375 72.90625 
L 47.609375 25.390625 
L 58.015625 25.390625 
L 58.015625 17.1875 
L 47.609375 17.1875 
L 47.609375 0 
L 37.796875 0 
L 37.796875 17.1875 
L 4.890625 17.1875 
L 4.890625 26.703125 
z
" id="DejaVuSans-52"/>
       </defs>
       <use xlink:href="#DejaVuSans-52"/>
      </g>
     </g>
    </g>
    <g id="xtick_4">
     <g id="line2d_4">
      <path clip-path="url(#pad1c0add03)" d="M 253.680992 384.48 
L 253.680992 51.84 
" style="fill:none;stroke:#ffffff;stroke-linecap:round;"/>
     </g>
     <g id="text_4">
      <!-- 6 -->
      <g style="fill:#262626;" transform="translate(250.181617 402.338281)scale(0.11 -0.11)">
       <defs>
        <path d="M 33.015625 40.375 
Q 26.375 40.375 22.484375 35.828125 
Q 18.609375 31.296875 18.609375 23.390625 
Q 18.609375 15.53125 22.484375 10.953125 
Q 26.375 6.390625 33.015625 6.390625 
Q 39.65625 6.390625 43.53125 10.953125 
Q 47.40625 15.53125 47.40625 23.390625 
Q 47.40625 31.296875 43.53125 35.828125 
Q 39.65625 40.375 33.015625 40.375 
z
M 52.59375 71.296875 
L 52.59375 62.3125 
Q 48.875 64.0625 45.09375 64.984375 
Q 41.3125 65.921875 37.59375 65.921875 
Q 27.828125 65.921875 22.671875 59.328125 
Q 17.53125 52.734375 16.796875 39.40625 
Q 19.671875 43.65625 24.015625 45.921875 
Q 28.375 48.1875 33.59375 48.1875 
Q 44.578125 48.1875 50.953125 41.515625 
Q 57.328125 34.859375 57.328125 23.390625 
Q 57.328125 12.15625 50.6875 5.359375 
Q 44.046875 -1.421875 33.015625 -1.421875 
Q 20.359375 -1.421875 13.671875 8.265625 
Q 6.984375 17.96875 6.984375 36.375 
Q 6.984375 53.65625 15.1875 63.9375 
Q 23.390625 74.21875 37.203125 74.21875 
Q 40.921875 74.21875 44.703125 73.484375 
Q 48.484375 72.75 52.59375 71.296875 
z
" id="DejaVuSans-54"/>
       </defs>
       <use xlink:href="#DejaVuSans-54"/>
      </g>
     </g>
    </g>
    <g id="xtick_5">
     <g id="line2d_5">
      <path clip-path="url(#pad1c0add03)" d="M 315.168595 384.48 
L 315.168595 51.84 
" style="fill:none;stroke:#ffffff;stroke-linecap:round;"/>
     </g>
     <g id="text_5">
      <!-- 8 -->
      <g style="fill:#262626;" transform="translate(311.66922 402.338281)scale(0.11 -0.11)">
       <defs>
        <path d="M 31.78125 34.625 
Q 24.75 34.625 20.71875 30.859375 
Q 16.703125 27.09375 16.703125 20.515625 
Q 16.703125 13.921875 20.71875 10.15625 
Q 24.75 6.390625 31.78125 6.390625 
Q 38.8125 6.390625 42.859375 10.171875 
Q 46.921875 13.96875 46.921875 20.515625 
Q 46.921875 27.09375 42.890625 30.859375 
Q 38.875 34.625 31.78125 34.625 
z
M 21.921875 38.8125 
Q 15.578125 40.375 12.03125 44.71875 
Q 8.5 49.078125 8.5 55.328125 
Q 8.5 64.0625 14.71875 69.140625 
Q 20.953125 74.21875 31.78125 74.21875 
Q 42.671875 74.21875 48.875 69.140625 
Q 55.078125 64.0625 55.078125 55.328125 
Q 55.078125 49.078125 51.53125 44.71875 
Q 48 40.375 41.703125 38.8125 
Q 48.828125 37.15625 52.796875 32.3125 
Q 56.78125 27.484375 56.78125 20.515625 
Q 56.78125 9.90625 50.3125 4.234375 
Q 43.84375 -1.421875 31.78125 -1.421875 
Q 19.734375 -1.421875 13.25 4.234375 
Q 6.78125 9.90625 6.78125 20.515625 
Q 6.78125 27.484375 10.78125 32.3125 
Q 14.796875 37.15625 21.921875 38.8125 
z
M 18.3125 54.390625 
Q 18.3125 48.734375 21.84375 45.5625 
Q 25.390625 42.390625 31.78125 42.390625 
Q 38.140625 42.390625 41.71875 45.5625 
Q 45.3125 48.734375 45.3125 54.390625 
Q 45.3125 60.0625 41.71875 63.234375 
Q 38.140625 66.40625 31.78125 66.40625 
Q 25.390625 66.40625 21.84375 63.234375 
Q 18.3125 60.0625 18.3125 54.390625 
z
" id="DejaVuSans-56"/>
       </defs>
       <use xlink:href="#DejaVuSans-56"/>
      </g>
     </g>
    </g>
    <g id="xtick_6">
     <g id="line2d_6">
      <path clip-path="url(#pad1c0add03)" d="M 376.656198 384.48 
L 376.656198 51.84 
" style="fill:none;stroke:#ffffff;stroke-linecap:round;"/>
     </g>
     <g id="text_6">
      <!-- 10 -->
      <g style="fill:#262626;" transform="translate(369.657448 402.338281)scale(0.11 -0.11)">
       <defs>
        <path d="M 12.40625 8.296875 
L 28.515625 8.296875 
L 28.515625 63.921875 
L 10.984375 60.40625 
L 10.984375 69.390625 
L 28.421875 72.90625 
L 38.28125 72.90625 
L 38.28125 8.296875 
L 54.390625 8.296875 
L 54.390625 0 
L 12.40625 0 
z
" id="DejaVuSans-49"/>
       </defs>
       <use xlink:href="#DejaVuSans-49"/>
       <use x="63.623047" xlink:href="#DejaVuSans-48"/>
      </g>
     </g>
    </g>
    <g id="text_7">
     <!-- $t$ -->
     <g style="fill:#262626;" transform="translate(219 417.744062)scale(0.12 -0.12)">
      <defs>
       <path d="M 42.28125 54.6875 
L 40.921875 47.703125 
L 23 47.703125 
L 17.1875 18.015625 
Q 16.890625 16.359375 16.75 15.234375 
Q 16.609375 14.109375 16.609375 13.484375 
Q 16.609375 10.359375 18.484375 8.9375 
Q 20.359375 7.515625 24.515625 7.515625 
L 33.59375 7.515625 
L 32.078125 0 
L 23.484375 0 
Q 15.484375 0 11.546875 3.125 
Q 7.625 6.25 7.625 12.59375 
Q 7.625 13.71875 7.765625 15.0625 
Q 7.90625 16.40625 8.203125 18.015625 
L 14.015625 47.703125 
L 6.390625 47.703125 
L 7.8125 54.6875 
L 15.28125 54.6875 
L 18.3125 70.21875 
L 27.296875 70.21875 
L 24.3125 54.6875 
z
" id="DejaVuSans-Oblique-116"/>
      </defs>
      <use transform="translate(0 0.78125)" xlink:href="#DejaVuSans-Oblique-116"/>
     </g>
    </g>
   </g>
   <g id="matplotlib.axis_2">
    <g id="ytick_1">
     <g id="line2d_7">
      <path clip-path="url(#pad1c0add03)" d="M 54 319.076065 
L 388.8 319.076065 
" style="fill:none;stroke:#ffffff;stroke-linecap:round;"/>
     </g>
     <g id="text_8">
      <!-- $\mathdefault{10^{-6}}$ -->
      <g style="fill:#262626;" transform="translate(18.65 323.255206)scale(0.11 -0.11)">
       <defs>
        <path d="M 10.59375 35.5 
L 73.1875 35.5 
L 73.1875 27.203125 
L 10.59375 27.203125 
z
" id="DejaVuSans-8722"/>
       </defs>
       <use transform="translate(0 0.765625)" xlink:href="#DejaVuSans-49"/>
       <use transform="translate(63.623047 0.765625)" xlink:href="#DejaVuSans-48"/>
       <use transform="translate(128.203125 39.046875)scale(0.7)" xlink:href="#DejaVuSans-8722"/>
       <use transform="translate(186.855469 39.046875)scale(0.7)" xlink:href="#DejaVuSans-54"/>
      </g>
     </g>
    </g>
    <g id="ytick_2">
     <g id="line2d_8">
      <path clip-path="url(#pad1c0add03)" d="M 54 243.699511 
L 388.8 243.699511 
" style="fill:none;stroke:#ffffff;stroke-linecap:round;"/>
     </g>
     <g id="text_9">
      <!-- $\mathdefault{10^{-4}}$ -->
      <g style="fill:#262626;" transform="translate(18.65 247.878652)scale(0.11 -0.11)">
       <use transform="translate(0 0.684375)" xlink:href="#DejaVuSans-49"/>
       <use transform="translate(63.623047 0.684375)" xlink:href="#DejaVuSans-48"/>
       <use transform="translate(128.203125 38.965625)scale(0.7)" xlink:href="#DejaVuSans-8722"/>
       <use transform="translate(186.855469 38.965625)scale(0.7)" xlink:href="#DejaVuSans-52"/>
      </g>
     </g>
    </g>
    <g id="ytick_3">
     <g id="line2d_9">
      <path clip-path="url(#pad1c0add03)" d="M 54 168.322958 
L 388.8 168.322958 
" style="fill:none;stroke:#ffffff;stroke-linecap:round;"/>
     </g>
     <g id="text_10">
      <!-- $\mathdefault{10^{-2}}$ -->
      <g style="fill:#262626;" transform="translate(18.65 172.502098)scale(0.11 -0.11)">
       <use transform="translate(0 0.765625)" xlink:href="#DejaVuSans-49"/>
       <use transform="translate(63.623047 0.765625)" xlink:href="#DejaVuSans-48"/>
       <use transform="translate(128.203125 39.046875)scale(0.7)" xlink:href="#DejaVuSans-8722"/>
       <use transform="translate(186.855469 39.046875)scale(0.7)" xlink:href="#DejaVuSans-50"/>
      </g>
     </g>
    </g>
    <g id="ytick_4">
     <g id="line2d_10">
      <path clip-path="url(#pad1c0add03)" d="M 54 92.946404 
L 388.8 92.946404 
" style="fill:none;stroke:#ffffff;stroke-linecap:round;"/>
     </g>
     <g id="text_11">
      <!-- $\mathdefault{10^{0}}$ -->
      <g style="fill:#262626;" transform="translate(25.14 97.125545)scale(0.11 -0.11)">
       <use transform="translate(0 0.765625)" xlink:href="#DejaVuSans-49"/>
       <use transform="translate(63.623047 0.765625)" xlink:href="#DejaVuSans-48"/>
       <use transform="translate(128.203125 39.046875)scale(0.7)" xlink:href="#DejaVuSans-48"/>
      </g>
     </g>
    </g>
   </g>
   <g id="line2d_11">
    <path clip-path="url(#pad1c0add03)" d="M 72.282621 433 
L 72.292562 311.847937 
L 75.366942 319.95236 
L 78.441322 315.663069 
L 81.515702 311.891394 
L 84.590083 314.545512 
L 87.664463 313.96676 
L 90.738843 313.34234 
L 93.813223 312.785758 
L 96.887603 313.034387 
L 99.961983 311.439531 
L 103.036364 309.128889 
L 106.110744 306.080157 
L 109.185124 298.849573 
L 112.259504 291.864122 
L 115.333884 279.549898 
L 118.408264 266.671199 
L 121.482645 251.487744 
L 124.557025 236.315884 
L 127.631405 223.05362 
L 130.705785 210.548143 
L 133.780165 197.004935 
L 136.854545 185.297685 
L 139.928926 171.131643 
L 143.003306 158.259022 
L 146.077686 145.704463 
L 149.152066 135.927955 
L 152.226446 128.282087 
L 155.300826 120.577921 
L 158.375207 114.766048 
L 161.449587 112.060497 
L 164.523967 109.632633 
L 167.598347 106.507422 
L 170.672727 104.133697 
L 173.747107 102.964346 
L 176.821488 101.551832 
L 179.895868 100.138361 
L 182.970248 98.505579 
L 186.044628 97.090431 
L 189.119008 95.834501 
L 192.193388 93.95805 
L 195.267769 92.617478 
L 198.342149 91.551484 
L 201.416529 90.61789 
L 204.490909 89.52451 
L 207.565289 88.50728 
L 210.639669 87.957193 
L 213.71405 87.210719 
L 216.78843 86.433559 
L 219.86281 85.847305 
L 222.93719 85.140991 
L 226.01157 84.857529 
L 229.08595 84.482399 
L 232.160331 83.858423 
L 235.234711 83.559518 
L 238.309091 82.738232 
L 241.383471 82.221516 
L 244.457851 81.334911 
L 247.532231 80.265912 
L 250.606612 79.69128 
L 253.680992 79.257979 
L 256.755372 78.648509 
L 259.829752 78.001978 
L 262.904132 77.388008 
L 265.978512 76.769679 
L 269.052893 76.572168 
L 272.127273 76.337772 
L 275.201653 76.326659 
L 278.276033 75.901641 
L 281.350413 75.468206 
L 284.424793 75.326069 
L 287.499174 75.175321 
L 290.573554 74.878299 
L 293.647934 74.755327 
L 296.722314 74.910743 
L 299.796694 74.593726 
L 302.871074 74.315284 
L 305.945455 74.101474 
L 309.019835 73.978599 
L 312.094215 73.530916 
L 315.168595 73.048193 
L 318.242975 72.792786 
L 321.317355 72.585303 
L 324.391736 72.597938 
L 327.466116 72.369864 
L 330.540496 72.065386 
L 333.614876 71.822874 
L 336.689256 71.77825 
L 339.763636 71.691255 
L 342.838017 71.395785 
L 345.912397 71.063318 
L 348.986777 70.779518 
L 352.061157 70.334413 
L 355.135537 70.071931 
L 358.209917 69.840467 
L 361.284298 69.687147 
L 364.358678 69.634356 
L 367.433058 69.592166 
L 370.507438 69.540627 
L 373.581818 69.48219 
" style="fill:none;stroke:#4c72b0;stroke-linecap:round;stroke-width:1.5;"/>
   </g>
   <g id="line2d_12">
    <path clip-path="url(#pad1c0add03)" d="M 72.287332 433 
L 72.292562 369.36 
L 75.366942 229.618435 
L 78.441322 229.090529 
L 81.515702 232.272986 
L 84.590083 222.844472 
L 87.664463 229.290757 
L 90.738843 223.995478 
L 93.813223 228.011261 
L 96.887603 217.432147 
L 99.961983 223.715977 
L 103.036364 224.230562 
L 106.110744 217.935786 
L 109.185124 221.932359 
L 112.259504 208.329148 
L 115.333884 206.219689 
L 118.408264 192.469575 
L 121.482645 179.173552 
L 124.557025 165.139983 
L 127.631405 155.707264 
L 130.705785 139.753571 
L 133.780165 131.714363 
L 136.854545 116.84742 
L 139.928926 104.855332 
L 143.003306 91.429428 
L 146.077686 83.961172 
L 149.152066 76.821075 
L 152.226446 72.457392 
L 155.300826 71.822766 
L 158.375207 72.167397 
L 161.449587 72.650751 
L 164.523967 73.853236 
L 167.598347 71.210008 
L 170.672727 73.425895 
L 173.747107 73.168096 
L 176.821488 72.446852 
L 179.895868 73.816772 
L 182.970248 71.219927 
L 186.044628 72.171169 
L 189.119008 72.136984 
L 192.193388 71.745917 
L 195.267769 70.81534 
L 198.342149 71.824848 
L 201.416529 70.156474 
L 204.490909 70.462904 
L 207.565289 72.701069 
L 210.639669 72.223358 
L 213.71405 69.703401 
L 216.78843 71.568722 
L 219.86281 69.540246 
L 222.93719 70.492499 
L 226.01157 72.304236 
L 229.08595 70.749037 
L 232.160331 71.560764 
L 235.234711 71.650254 
L 238.309091 72.516202 
L 241.383471 71.121171 
L 244.457851 70.831185 
L 247.532231 69.145241 
L 250.606612 69.647203 
L 253.680992 68.617599 
L 256.755372 70.952391 
L 259.829752 70.284955 
L 262.904132 70.152356 
L 265.978512 70.900006 
L 269.052893 69.797499 
L 272.127273 71.248027 
L 275.201653 70.443483 
L 278.276033 70.964501 
L 281.350413 70.803668 
L 284.424793 70.888008 
L 287.499174 72.162274 
L 290.573554 71.533676 
L 293.647934 72.168873 
L 296.722314 70.872206 
L 299.796694 71.085593 
L 302.871074 66.96 
L 305.945455 71.036107 
L 309.019835 70.376379 
L 312.094215 73.198121 
L 315.168595 70.647293 
L 318.242975 70.75909 
L 321.317355 72.129265 
L 324.391736 72.544613 
L 327.466116 72.5186 
L 330.540496 69.12854 
L 333.614876 70.240052 
L 336.689256 69.598732 
L 339.763636 72.118006 
L 342.838017 70.558178 
L 345.912397 71.458117 
L 348.986777 70.967296 
L 352.061157 72.622958 
L 355.135537 72.564819 
L 358.209917 69.362412 
L 361.284298 72.10207 
L 364.358678 70.65742 
L 367.433058 72.847182 
L 370.507438 72.786862 
L 373.581818 72.957754 
" style="fill:none;stroke:#dd8452;stroke-linecap:round;stroke-width:1.5;"/>
   </g>
   <g id="line2d_13">
    <path clip-path="url(#pad1c0add03)" d="M 161.449587 384.48 
L 161.449587 51.84 
" style="fill:none;stroke:#55a868;stroke-linecap:round;stroke-width:1.5;"/>
   </g>
   <g id="patch_3">
    <path d="M 54 384.48 
L 54 51.84 
" style="fill:none;stroke:#ffffff;stroke-linecap:square;stroke-linejoin:miter;stroke-width:1.25;"/>
   </g>
   <g id="patch_4">
    <path d="M 388.8 384.48 
L 388.8 51.84 
" style="fill:none;stroke:#ffffff;stroke-linecap:square;stroke-linejoin:miter;stroke-width:1.25;"/>
   </g>
   <g id="patch_5">
    <path d="M 54 384.48 
L 388.8 384.48 
" style="fill:none;stroke:#ffffff;stroke-linecap:square;stroke-linejoin:miter;stroke-width:1.25;"/>
   </g>
   <g id="patch_6">
    <path d="M 54 51.84 
L 388.8 51.84 
" style="fill:none;stroke:#ffffff;stroke-linecap:square;stroke-linejoin:miter;stroke-width:1.25;"/>
   </g>
   <g id="legend_1">
    <g id="patch_7">
     <path d="M 218.41 378.98 
L 381.1 378.98 
Q 383.3 378.98 383.3 376.78 
L 383.3 327.634063 
Q 383.3 325.434062 381.1 325.434062 
L 218.41 325.434062 
Q 216.21 325.434062 216.21 327.634063 
L 216.21 376.78 
Q 216.21 378.98 218.41 378.98 
z
" style="fill:#eaeaf2;opacity:0.8;stroke:#cccccc;stroke-linejoin:miter;"/>
    </g>
    <g id="line2d_14">
     <path d="M 220.61 335.246406 
L 242.61 335.246406 
" style="fill:none;stroke:#4c72b0;stroke-linecap:round;stroke-width:1.5;"/>
    </g>
    <g id="line2d_15"/>
    <g id="text_12">
     <!-- $&lt;\Delta r^2(t)&gt;, \quad D = 0.079$ -->
     <g style="fill:#262626;" transform="translate(251.41 339.096406)scale(0.11 -0.11)">
      <defs>
       <path d="M 73.1875 49.21875 
L 22.796875 31.296875 
L 73.1875 13.484375 
L 73.1875 4.59375 
L 10.59375 27.296875 
L 10.59375 35.40625 
L 73.1875 58.109375 
z
" id="DejaVuSans-60"/>
       <path d="M 34.1875 63.1875 
L 14.15625 8.203125 
L 54.25 8.203125 
z
M 0.78125 0 
L 28.609375 72.90625 
L 39.796875 72.90625 
L 67.578125 0 
z
" id="DejaVuSans-916"/>
       <path d="M 44.578125 46.390625 
Q 43.21875 47.125 41.453125 47.515625 
Q 39.703125 47.90625 37.703125 47.90625 
Q 30.515625 47.90625 25.140625 42.453125 
Q 19.78125 37.015625 18.015625 27.875 
L 12.5 0 
L 3.515625 0 
L 14.203125 54.6875 
L 23.1875 54.6875 
L 21.484375 46.1875 
Q 25.046875 50.921875 30 53.453125 
Q 34.96875 56 40.578125 56 
Q 42.046875 56 43.453125 55.828125 
Q 44.875 55.671875 46.296875 55.28125 
z
" id="DejaVuSans-Oblique-114"/>
       <path d="M 31 75.875 
Q 24.46875 64.65625 21.28125 53.65625 
Q 18.109375 42.671875 18.109375 31.390625 
Q 18.109375 20.125 21.3125 9.0625 
Q 24.515625 -2 31 -13.1875 
L 23.1875 -13.1875 
Q 15.875 -1.703125 12.234375 9.375 
Q 8.59375 20.453125 8.59375 31.390625 
Q 8.59375 42.28125 12.203125 53.3125 
Q 15.828125 64.359375 23.1875 75.875 
z
" id="DejaVuSans-40"/>
       <path d="M 8.015625 75.875 
L 15.828125 75.875 
Q 23.140625 64.359375 26.78125 53.3125 
Q 30.421875 42.28125 30.421875 31.390625 
Q 30.421875 20.453125 26.78125 9.375 
Q 23.140625 -1.703125 15.828125 -13.1875 
L 8.015625 -13.1875 
Q 14.5 -2 17.703125 9.0625 
Q 20.90625 20.125 20.90625 31.390625 
Q 20.90625 42.671875 17.703125 53.65625 
Q 14.5 64.65625 8.015625 75.875 
z
" id="DejaVuSans-41"/>
       <path d="M 10.59375 49.21875 
L 10.59375 58.109375 
L 73.1875 35.40625 
L 73.1875 27.296875 
L 10.59375 4.59375 
L 10.59375 13.484375 
L 60.890625 31.296875 
z
" id="DejaVuSans-62"/>
       <path d="M 11.71875 12.40625 
L 22.015625 12.40625 
L 22.015625 4 
L 14.015625 -11.625 
L 7.71875 -11.625 
L 11.71875 4 
z
" id="DejaVuSans-44"/>
       <path d="M 16.890625 72.90625 
L 38.09375 72.90625 
Q 54.984375 72.90625 63.59375 65.75 
Q 72.21875 58.59375 72.21875 44.484375 
Q 72.21875 35.15625 68.9375 26.53125 
Q 65.671875 17.921875 59.90625 12.015625 
Q 54.109375 5.953125 45.171875 2.96875 
Q 36.234375 0 24.03125 0 
L 2.6875 0 
z
M 25.203125 64.796875 
L 14.203125 8.109375 
L 27.09375 8.109375 
Q 43.65625 8.109375 52.734375 17.625 
Q 61.8125 27.15625 61.8125 44.484375 
Q 61.8125 54.984375 55.953125 59.890625 
Q 50.09375 64.796875 37.59375 64.796875 
z
" id="DejaVuSans-Oblique-68"/>
       <path d="M 10.59375 45.40625 
L 73.1875 45.40625 
L 73.1875 37.203125 
L 10.59375 37.203125 
z
M 10.59375 25.484375 
L 73.1875 25.484375 
L 73.1875 17.1875 
L 10.59375 17.1875 
z
" id="DejaVuSans-61"/>
       <path d="M 10.6875 12.40625 
L 21 12.40625 
L 21 0 
L 10.6875 0 
z
" id="DejaVuSans-46"/>
       <path d="M 8.203125 72.90625 
L 55.078125 72.90625 
L 55.078125 68.703125 
L 28.609375 0 
L 18.3125 0 
L 43.21875 64.59375 
L 8.203125 64.59375 
z
" id="DejaVuSans-55"/>
       <path d="M 10.984375 1.515625 
L 10.984375 10.5 
Q 14.703125 8.734375 18.5 7.8125 
Q 22.3125 6.890625 25.984375 6.890625 
Q 35.75 6.890625 40.890625 13.453125 
Q 46.046875 20.015625 46.78125 33.40625 
Q 43.953125 29.203125 39.59375 26.953125 
Q 35.25 24.703125 29.984375 24.703125 
Q 19.046875 24.703125 12.671875 31.3125 
Q 6.296875 37.9375 6.296875 49.421875 
Q 6.296875 60.640625 12.9375 67.421875 
Q 19.578125 74.21875 30.609375 74.21875 
Q 43.265625 74.21875 49.921875 64.515625 
Q 56.59375 54.828125 56.59375 36.375 
Q 56.59375 19.140625 48.40625 8.859375 
Q 40.234375 -1.421875 26.421875 -1.421875 
Q 22.703125 -1.421875 18.890625 -0.6875 
Q 15.09375 0.046875 10.984375 1.515625 
z
M 30.609375 32.421875 
Q 37.25 32.421875 41.125 36.953125 
Q 45.015625 41.5 45.015625 49.421875 
Q 45.015625 57.28125 41.125 61.84375 
Q 37.25 66.40625 30.609375 66.40625 
Q 23.96875 66.40625 20.09375 61.84375 
Q 16.21875 57.28125 16.21875 49.421875 
Q 16.21875 41.5 20.09375 36.953125 
Q 23.96875 32.421875 30.609375 32.421875 
z
" id="DejaVuSans-57"/>
      </defs>
      <use transform="translate(19.482422 0.765625)" xlink:href="#DejaVuSans-60"/>
      <use transform="translate(122.753906 0.765625)" xlink:href="#DejaVuSans-916"/>
      <use transform="translate(191.162109 0.765625)" xlink:href="#DejaVuSans-Oblique-114"/>
      <use transform="translate(236.925286 39.046875)scale(0.7)" xlink:href="#DejaVuSans-50"/>
      <use transform="translate(284.195794 0.765625)" xlink:href="#DejaVuSans-40"/>
      <use transform="translate(323.209466 0.765625)" xlink:href="#DejaVuSans-Oblique-116"/>
      <use transform="translate(362.418451 0.765625)" xlink:href="#DejaVuSans-41"/>
      <use transform="translate(420.914544 0.765625)" xlink:href="#DejaVuSans-62"/>
      <use transform="translate(524.186029 0.765625)" xlink:href="#DejaVuSans-44"/>
      <use transform="translate(672.867669 0.765625)" xlink:href="#DejaVuSans-Oblique-68"/>
      <use transform="translate(769.352044 0.765625)" xlink:href="#DejaVuSans-61"/>
      <use transform="translate(872.623529 0.765625)" xlink:href="#DejaVuSans-48"/>
      <use transform="translate(936.246576 0.765625)" xlink:href="#DejaVuSans-46"/>
      <use transform="translate(968.033685 0.765625)" xlink:href="#DejaVuSans-48"/>
      <use transform="translate(1031.656732 0.765625)" xlink:href="#DejaVuSans-55"/>
      <use transform="translate(1095.279779 0.765625)" xlink:href="#DejaVuSans-57"/>
     </g>
    </g>
    <g id="line2d_16">
     <path d="M 220.61 352.296406 
L 242.61 352.296406 
" style="fill:none;stroke:#dd8452;stroke-linecap:round;stroke-width:1.5;"/>
    </g>
    <g id="line2d_17"/>
    <g id="text_13">
     <!-- $&lt;\Delta v^2(t)&gt;$ -->
     <g style="fill:#262626;" transform="translate(251.41 356.146406)scale(0.11 -0.11)">
      <defs>
       <path d="M 7.171875 54.6875 
L 16.703125 54.6875 
L 24.703125 8.203125 
L 50.875 54.6875 
L 60.40625 54.6875 
L 29.296875 0 
L 17.1875 0 
z
" id="DejaVuSans-Oblique-118"/>
      </defs>
      <use transform="translate(19.482422 0.765625)" xlink:href="#DejaVuSans-60"/>
      <use transform="translate(122.753906 0.765625)" xlink:href="#DejaVuSans-916"/>
      <use transform="translate(191.162109 0.765625)" xlink:href="#DejaVuSans-Oblique-118"/>
      <use transform="translate(254.807943 39.046875)scale(0.7)" xlink:href="#DejaVuSans-50"/>
      <use transform="translate(302.078451 0.765625)" xlink:href="#DejaVuSans-40"/>
      <use transform="translate(341.092122 0.765625)" xlink:href="#DejaVuSans-Oblique-116"/>
      <use transform="translate(380.301107 0.765625)" xlink:href="#DejaVuSans-41"/>
      <use transform="translate(438.797201 0.765625)" xlink:href="#DejaVuSans-62"/>
     </g>
    </g>
    <g id="line2d_18">
     <path d="M 220.61 368.442344 
L 242.61 368.442344 
" style="fill:none;stroke:#55a868;stroke-linecap:round;stroke-width:1.5;"/>
    </g>
    <g id="line2d_19"/>
    <g id="text_14">
     <!-- $t_m \approx 3$ -->
     <g style="fill:#262626;" transform="translate(251.41 372.292344)scale(0.11 -0.11)">
      <defs>
       <path d="M 89.796875 33.015625 
L 83.40625 0 
L 74.421875 0 
L 80.71875 32.71875 
Q 81.109375 34.8125 81.296875 36.328125 
Q 81.5 37.84375 81.5 38.921875 
Q 81.5 43.3125 79.046875 45.75 
Q 76.609375 48.1875 72.21875 48.1875 
Q 65.671875 48.1875 60.546875 43.28125 
Q 55.421875 38.375 53.90625 30.515625 
L 47.90625 0 
L 38.921875 0 
L 45.3125 32.71875 
Q 45.703125 34.515625 45.890625 36.046875 
Q 46.09375 37.59375 46.09375 38.8125 
Q 46.09375 43.265625 43.65625 45.71875 
Q 41.21875 48.1875 36.921875 48.1875 
Q 30.28125 48.1875 25.140625 43.28125 
Q 20.015625 38.375 18.5 30.515625 
L 12.5 0 
L 3.515625 0 
L 14.203125 54.6875 
L 23.1875 54.6875 
L 21.484375 46.1875 
Q 25.140625 50.984375 30.046875 53.484375 
Q 34.96875 56 40.578125 56 
Q 46.53125 56 50.359375 52.875 
Q 54.203125 49.75 54.984375 44.1875 
Q 59.078125 49.953125 64.46875 52.96875 
Q 69.875 56 75.875 56 
Q 82.90625 56 86.734375 51.953125 
Q 90.578125 47.90625 90.578125 40.484375 
Q 90.578125 38.875 90.375 36.9375 
Q 90.1875 35.015625 89.796875 33.015625 
z
" id="DejaVuSans-Oblique-109"/>
       <path d="M 73.1875 30.421875 
L 73.1875 21.6875 
Q 68.0625 17.875 63.6875 16.1875 
Q 59.328125 14.5 54.59375 14.5 
Q 49.21875 14.5 42.09375 17.390625 
Q 41.609375 17.578125 41.265625 17.71875 
Q 40.96875 17.828125 40.234375 18.109375 
Q 32.671875 21.09375 28.078125 21.09375 
Q 23.78125 21.09375 19.578125 19.234375 
Q 15.375 17.390625 10.59375 13.28125 
L 10.59375 22.015625 
Q 15.71875 25.828125 20.09375 27.515625 
Q 24.46875 29.203125 29.203125 29.203125 
Q 34.578125 29.203125 41.75 26.3125 
Q 42.28125 26.078125 42.53125 25.984375 
Q 42.828125 25.875 43.5625 25.59375 
Q 51.125 22.609375 55.71875 22.609375 
Q 59.90625 22.609375 64.03125 24.4375 
Q 68.171875 26.265625 73.1875 30.421875 
z
M 73.1875 49.421875 
L 73.1875 40.71875 
Q 68.0625 36.859375 63.6875 35.171875 
Q 59.328125 33.5 54.59375 33.5 
Q 49.21875 33.5 42.09375 36.375 
Q 41.609375 36.578125 41.265625 36.71875 
Q 40.96875 36.8125 40.234375 37.109375 
Q 32.671875 40.09375 28.078125 40.09375 
Q 23.78125 40.09375 19.578125 38.234375 
Q 15.375 36.375 10.59375 32.328125 
L 10.59375 41.015625 
Q 15.71875 44.828125 20.09375 46.5 
Q 24.46875 48.1875 29.203125 48.1875 
Q 34.578125 48.1875 41.75 45.3125 
Q 42.234375 45.125 42.484375 45.015625 
Q 42.828125 44.875 43.5625 44.578125 
Q 51.125 41.609375 55.71875 41.609375 
Q 59.90625 41.609375 64.03125 43.4375 
Q 68.171875 45.265625 73.1875 49.421875 
z
" id="DejaVuSans-8776"/>
       <path d="M 40.578125 39.3125 
Q 47.65625 37.796875 51.625 33 
Q 55.609375 28.21875 55.609375 21.1875 
Q 55.609375 10.40625 48.1875 4.484375 
Q 40.765625 -1.421875 27.09375 -1.421875 
Q 22.515625 -1.421875 17.65625 -0.515625 
Q 12.796875 0.390625 7.625 2.203125 
L 7.625 11.71875 
Q 11.71875 9.328125 16.59375 8.109375 
Q 21.484375 6.890625 26.8125 6.890625 
Q 36.078125 6.890625 40.9375 10.546875 
Q 45.796875 14.203125 45.796875 21.1875 
Q 45.796875 27.640625 41.28125 31.265625 
Q 36.765625 34.90625 28.71875 34.90625 
L 20.21875 34.90625 
L 20.21875 43.015625 
L 29.109375 43.015625 
Q 36.375 43.015625 40.234375 45.921875 
Q 44.09375 48.828125 44.09375 54.296875 
Q 44.09375 59.90625 40.109375 62.90625 
Q 36.140625 65.921875 28.71875 65.921875 
Q 24.65625 65.921875 20.015625 65.03125 
Q 15.375 64.15625 9.8125 62.3125 
L 9.8125 71.09375 
Q 15.4375 72.65625 20.34375 73.4375 
Q 25.25 74.21875 29.59375 74.21875 
Q 40.828125 74.21875 47.359375 69.109375 
Q 53.90625 64.015625 53.90625 55.328125 
Q 53.90625 49.265625 50.4375 45.09375 
Q 46.96875 40.921875 40.578125 39.3125 
z
" id="DejaVuSans-51"/>
      </defs>
      <use transform="translate(0 0.78125)" xlink:href="#DejaVuSans-Oblique-116"/>
      <use transform="translate(39.208984 -15.625)scale(0.7)" xlink:href="#DejaVuSans-Oblique-109"/>
      <use transform="translate(129.614258 0.78125)" xlink:href="#DejaVuSans-8776"/>
      <use transform="translate(232.885742 0.78125)" xlink:href="#DejaVuSans-51"/>
     </g>
    </g>
   </g>
  </g>
 </g>
 <defs>
  <clipPath id="pad1c0add03">
   <rect height="332.64" width="334.8" x="54" y="51.84"/>
  </clipPath>
 </defs>
</svg>
