<?xml version="1.0" encoding="utf-8" standalone="no"?>
<!DOCTYPE svg PUBLIC "-//W3C//DTD SVG 1.1//EN"
  "http://www.w3.org/Graphics/SVG/1.1/DTD/svg11.dtd">
<!-- Created with matplotlib (https://matplotlib.org/) -->
<svg height="432pt" version="1.1" viewBox="0 0 432 432" width="432pt" xmlns="http://www.w3.org/2000/svg" xmlns:xlink="http://www.w3.org/1999/xlink">
 <metadata>
  <rdf:RDF xmlns:cc="http://creativecommons.org/ns#" xmlns:dc="http://purl.org/dc/elements/1.1/" xmlns:rdf="http://www.w3.org/1999/02/22-rdf-syntax-ns#">
   <cc:Work>
    <dc:type rdf:resource="http://purl.org/dc/dcmitype/StillImage"/>
    <dc:date>2021-03-29T03:48:01.796138</dc:date>
    <dc:format>image/svg+xml</dc:format>
    <dc:creator>
     <cc:Agent>
      <dc:title>Matplotlib v3.3.3, https://matplotlib.org/</dc:title>
     </cc:Agent>
    </dc:creator>
   </cc:Work>
  </rdf:RDF>
 </metadata>
 <defs>
  <style type="text/css">*{stroke-linecap:butt;stroke-linejoin:round;}</style>
 </defs>
 <g id="figure_1">
  <g id="patch_1">
   <path d="M 0 432 
L 432 432 
L 432 0 
L 0 0 
z
" style="fill:#ffffff;"/>
  </g>
  <g id="axes_1">
   <g id="patch_2">
    <path d="M 54 384.48 
L 388.8 384.48 
L 388.8 51.84 
L 54 51.84 
z
" style="fill:#eaeaf2;"/>
   </g>
   <g id="matplotlib.axis_1">
    <g id="xtick_1">
     <g id="line2d_1">
      <path clip-path="url(#pa8bf544e49)" d="M 69.218182 384.48 
L 69.218182 51.84 
" style="fill:none;stroke:#ffffff;stroke-linecap:round;"/>
     </g>
     <g id="text_1">
      <!-- 0.0 -->
      <g style="fill:#262626;" transform="translate(60.471463 402.338281)scale(0.11 -0.11)">
       <defs>
        <path d="M 31.78125 66.40625 
Q 24.171875 66.40625 20.328125 58.90625 
Q 16.5 51.421875 16.5 36.375 
Q 16.5 21.390625 20.328125 13.890625 
Q 24.171875 6.390625 31.78125 6.390625 
Q 39.453125 6.390625 43.28125 13.890625 
Q 47.125 21.390625 47.125 36.375 
Q 47.125 51.421875 43.28125 58.90625 
Q 39.453125 66.40625 31.78125 66.40625 
z
M 31.78125 74.21875 
Q 44.046875 74.21875 50.515625 64.515625 
Q 56.984375 54.828125 56.984375 36.375 
Q 56.984375 17.96875 50.515625 8.265625 
Q 44.046875 -1.421875 31.78125 -1.421875 
Q 19.53125 -1.421875 13.0625 8.265625 
Q 6.59375 17.96875 6.59375 36.375 
Q 6.59375 54.828125 13.0625 64.515625 
Q 19.53125 74.21875 31.78125 74.21875 
z
" id="DejaVuSans-48"/>
        <path d="M 10.6875 12.40625 
L 21 12.40625 
L 21 0 
L 10.6875 0 
z
" id="DejaVuSans-46"/>
       </defs>
       <use xlink:href="#DejaVuSans-48"/>
       <use x="63.623047" xlink:href="#DejaVuSans-46"/>
       <use x="95.410156" xlink:href="#DejaVuSans-48"/>
      </g>
     </g>
    </g>
    <g id="xtick_2">
     <g id="line2d_2">
      <path clip-path="url(#pa8bf544e49)" d="M 133.976402 384.48 
L 133.976402 51.84 
" style="fill:none;stroke:#ffffff;stroke-linecap:round;"/>
     </g>
     <g id="text_2">
      <!-- 0.1 -->
      <g style="fill:#262626;" transform="translate(125.229684 402.338281)scale(0.11 -0.11)">
       <defs>
        <path d="M 12.40625 8.296875 
L 28.515625 8.296875 
L 28.515625 63.921875 
L 10.984375 60.40625 
L 10.984375 69.390625 
L 28.421875 72.90625 
L 38.28125 72.90625 
L 38.28125 8.296875 
L 54.390625 8.296875 
L 54.390625 0 
L 12.40625 0 
z
" id="DejaVuSans-49"/>
       </defs>
       <use xlink:href="#DejaVuSans-48"/>
       <use x="63.623047" xlink:href="#DejaVuSans-46"/>
       <use x="95.410156" xlink:href="#DejaVuSans-49"/>
      </g>
     </g>
    </g>
    <g id="xtick_3">
     <g id="line2d_3">
      <path clip-path="url(#pa8bf544e49)" d="M 198.734623 384.48 
L 198.734623 51.84 
" style="fill:none;stroke:#ffffff;stroke-linecap:round;"/>
     </g>
     <g id="text_3">
      <!-- 0.2 -->
      <g style="fill:#262626;" transform="translate(189.987904 402.338281)scale(0.11 -0.11)">
       <defs>
        <path d="M 19.1875 8.296875 
L 53.609375 8.296875 
L 53.609375 0 
L 7.328125 0 
L 7.328125 8.296875 
Q 12.9375 14.109375 22.625 23.890625 
Q 32.328125 33.6875 34.8125 36.53125 
Q 39.546875 41.84375 41.421875 45.53125 
Q 43.3125 49.21875 43.3125 52.78125 
Q 43.3125 58.59375 39.234375 62.25 
Q 35.15625 65.921875 28.609375 65.921875 
Q 23.96875 65.921875 18.8125 64.3125 
Q 13.671875 62.703125 7.8125 59.421875 
L 7.8125 69.390625 
Q 13.765625 71.78125 18.9375 73 
Q 24.125 74.21875 28.421875 74.21875 
Q 39.75 74.21875 46.484375 68.546875 
Q 53.21875 62.890625 53.21875 53.421875 
Q 53.21875 48.921875 51.53125 44.890625 
Q 49.859375 40.875 45.40625 35.40625 
Q 44.1875 33.984375 37.640625 27.21875 
Q 31.109375 20.453125 19.1875 8.296875 
z
" id="DejaVuSans-50"/>
       </defs>
       <use xlink:href="#DejaVuSans-48"/>
       <use x="63.623047" xlink:href="#DejaVuSans-46"/>
       <use x="95.410156" xlink:href="#DejaVuSans-50"/>
      </g>
     </g>
    </g>
    <g id="xtick_4">
     <g id="line2d_4">
      <path clip-path="url(#pa8bf544e49)" d="M 263.492843 384.48 
L 263.492843 51.84 
" style="fill:none;stroke:#ffffff;stroke-linecap:round;"/>
     </g>
     <g id="text_4">
      <!-- 0.3 -->
      <g style="fill:#262626;" transform="translate(254.746125 402.338281)scale(0.11 -0.11)">
       <defs>
        <path d="M 40.578125 39.3125 
Q 47.65625 37.796875 51.625 33 
Q 55.609375 28.21875 55.609375 21.1875 
Q 55.609375 10.40625 48.1875 4.484375 
Q 40.765625 -1.421875 27.09375 -1.421875 
Q 22.515625 -1.421875 17.65625 -0.515625 
Q 12.796875 0.390625 7.625 2.203125 
L 7.625 11.71875 
Q 11.71875 9.328125 16.59375 8.109375 
Q 21.484375 6.890625 26.8125 6.890625 
Q 36.078125 6.890625 40.9375 10.546875 
Q 45.796875 14.203125 45.796875 21.1875 
Q 45.796875 27.640625 41.28125 31.265625 
Q 36.765625 34.90625 28.71875 34.90625 
L 20.21875 34.90625 
L 20.21875 43.015625 
L 29.109375 43.015625 
Q 36.375 43.015625 40.234375 45.921875 
Q 44.09375 48.828125 44.09375 54.296875 
Q 44.09375 59.90625 40.109375 62.90625 
Q 36.140625 65.921875 28.71875 65.921875 
Q 24.65625 65.921875 20.015625 65.03125 
Q 15.375 64.15625 9.8125 62.3125 
L 9.8125 71.09375 
Q 15.4375 72.65625 20.34375 73.4375 
Q 25.25 74.21875 29.59375 74.21875 
Q 40.828125 74.21875 47.359375 69.109375 
Q 53.90625 64.015625 53.90625 55.328125 
Q 53.90625 49.265625 50.4375 45.09375 
Q 46.96875 40.921875 40.578125 39.3125 
z
" id="DejaVuSans-51"/>
       </defs>
       <use xlink:href="#DejaVuSans-48"/>
       <use x="63.623047" xlink:href="#DejaVuSans-46"/>
       <use x="95.410156" xlink:href="#DejaVuSans-51"/>
      </g>
     </g>
    </g>
    <g id="xtick_5">
     <g id="line2d_5">
      <path clip-path="url(#pa8bf544e49)" d="M 328.251064 384.48 
L 328.251064 51.84 
" style="fill:none;stroke:#ffffff;stroke-linecap:round;"/>
     </g>
     <g id="text_5">
      <!-- 0.4 -->
      <g style="fill:#262626;" transform="translate(319.504345 402.338281)scale(0.11 -0.11)">
       <defs>
        <path d="M 37.796875 64.3125 
L 12.890625 25.390625 
L 37.796875 25.390625 
z
M 35.203125 72.90625 
L 47.609375 72.90625 
L 47.609375 25.390625 
L 58.015625 25.390625 
L 58.015625 17.1875 
L 47.609375 17.1875 
L 47.609375 0 
L 37.796875 0 
L 37.796875 17.1875 
L 4.890625 17.1875 
L 4.890625 26.703125 
z
" id="DejaVuSans-52"/>
       </defs>
       <use xlink:href="#DejaVuSans-48"/>
       <use x="63.623047" xlink:href="#DejaVuSans-46"/>
       <use x="95.410156" xlink:href="#DejaVuSans-52"/>
      </g>
     </g>
    </g>
    <g id="text_6">
     <!-- $t$ -->
     <g style="fill:#262626;" transform="translate(219 417.744062)scale(0.12 -0.12)">
      <defs>
       <path d="M 42.28125 54.6875 
L 40.921875 47.703125 
L 23 47.703125 
L 17.1875 18.015625 
Q 16.890625 16.359375 16.75 15.234375 
Q 16.609375 14.109375 16.609375 13.484375 
Q 16.609375 10.359375 18.484375 8.9375 
Q 20.359375 7.515625 24.515625 7.515625 
L 33.59375 7.515625 
L 32.078125 0 
L 23.484375 0 
Q 15.484375 0 11.546875 3.125 
Q 7.625 6.25 7.625 12.59375 
Q 7.625 13.71875 7.765625 15.0625 
Q 7.90625 16.40625 8.203125 18.015625 
L 14.015625 47.703125 
L 6.390625 47.703125 
L 7.8125 54.6875 
L 15.28125 54.6875 
L 18.3125 70.21875 
L 27.296875 70.21875 
L 24.3125 54.6875 
z
" id="DejaVuSans-Oblique-116"/>
      </defs>
      <use transform="translate(0 0.78125)" xlink:href="#DejaVuSans-Oblique-116"/>
     </g>
    </g>
   </g>
   <g id="matplotlib.axis_2">
    <g id="ytick_1">
     <g id="line2d_6">
      <path clip-path="url(#pa8bf544e49)" d="M 54 355.496263 
L 388.8 355.496263 
" style="fill:none;stroke:#ffffff;stroke-linecap:round;"/>
     </g>
     <g id="text_7">
      <!-- 0.0 -->
      <g style="fill:#262626;" transform="translate(27.006563 359.675404)scale(0.11 -0.11)">
       <use xlink:href="#DejaVuSans-48"/>
       <use x="63.623047" xlink:href="#DejaVuSans-46"/>
       <use x="95.410156" xlink:href="#DejaVuSans-48"/>
      </g>
     </g>
    </g>
    <g id="ytick_2">
     <g id="line2d_7">
      <path clip-path="url(#pa8bf544e49)" d="M 54 304.718437 
L 388.8 304.718437 
" style="fill:none;stroke:#ffffff;stroke-linecap:round;"/>
     </g>
     <g id="text_8">
      <!-- 0.1 -->
      <g style="fill:#262626;" transform="translate(27.006563 308.897577)scale(0.11 -0.11)">
       <use xlink:href="#DejaVuSans-48"/>
       <use x="63.623047" xlink:href="#DejaVuSans-46"/>
       <use x="95.410156" xlink:href="#DejaVuSans-49"/>
      </g>
     </g>
    </g>
    <g id="ytick_3">
     <g id="line2d_8">
      <path clip-path="url(#pa8bf544e49)" d="M 54 253.94061 
L 388.8 253.94061 
" style="fill:none;stroke:#ffffff;stroke-linecap:round;"/>
     </g>
     <g id="text_9">
      <!-- 0.2 -->
      <g style="fill:#262626;" transform="translate(27.006563 258.11975)scale(0.11 -0.11)">
       <use xlink:href="#DejaVuSans-48"/>
       <use x="63.623047" xlink:href="#DejaVuSans-46"/>
       <use x="95.410156" xlink:href="#DejaVuSans-50"/>
      </g>
     </g>
    </g>
    <g id="ytick_4">
     <g id="line2d_9">
      <path clip-path="url(#pa8bf544e49)" d="M 54 203.162783 
L 388.8 203.162783 
" style="fill:none;stroke:#ffffff;stroke-linecap:round;"/>
     </g>
     <g id="text_10">
      <!-- 0.3 -->
      <g style="fill:#262626;" transform="translate(27.006563 207.341923)scale(0.11 -0.11)">
       <use xlink:href="#DejaVuSans-48"/>
       <use x="63.623047" xlink:href="#DejaVuSans-46"/>
       <use x="95.410156" xlink:href="#DejaVuSans-51"/>
      </g>
     </g>
    </g>
    <g id="ytick_5">
     <g id="line2d_10">
      <path clip-path="url(#pa8bf544e49)" d="M 54 152.384956 
L 388.8 152.384956 
" style="fill:none;stroke:#ffffff;stroke-linecap:round;"/>
     </g>
     <g id="text_11">
      <!-- 0.4 -->
      <g style="fill:#262626;" transform="translate(27.006563 156.564096)scale(0.11 -0.11)">
       <use xlink:href="#DejaVuSans-48"/>
       <use x="63.623047" xlink:href="#DejaVuSans-46"/>
       <use x="95.410156" xlink:href="#DejaVuSans-52"/>
      </g>
     </g>
    </g>
    <g id="ytick_6">
     <g id="line2d_11">
      <path clip-path="url(#pa8bf544e49)" d="M 54 101.607129 
L 388.8 101.607129 
" style="fill:none;stroke:#ffffff;stroke-linecap:round;"/>
     </g>
     <g id="text_12">
      <!-- 0.5 -->
      <g style="fill:#262626;" transform="translate(27.006563 105.786269)scale(0.11 -0.11)">
       <defs>
        <path d="M 10.796875 72.90625 
L 49.515625 72.90625 
L 49.515625 64.59375 
L 19.828125 64.59375 
L 19.828125 46.734375 
Q 21.96875 47.46875 24.109375 47.828125 
Q 26.265625 48.1875 28.421875 48.1875 
Q 40.625 48.1875 47.75 41.5 
Q 54.890625 34.8125 54.890625 23.390625 
Q 54.890625 11.625 47.5625 5.09375 
Q 40.234375 -1.421875 26.90625 -1.421875 
Q 22.3125 -1.421875 17.546875 -0.640625 
Q 12.796875 0.140625 7.71875 1.703125 
L 7.71875 11.625 
Q 12.109375 9.234375 16.796875 8.0625 
Q 21.484375 6.890625 26.703125 6.890625 
Q 35.15625 6.890625 40.078125 11.328125 
Q 45.015625 15.765625 45.015625 23.390625 
Q 45.015625 31 40.078125 35.4375 
Q 35.15625 39.890625 26.703125 39.890625 
Q 22.75 39.890625 18.8125 39.015625 
Q 14.890625 38.140625 10.796875 36.28125 
z
" id="DejaVuSans-53"/>
       </defs>
       <use xlink:href="#DejaVuSans-48"/>
       <use x="63.623047" xlink:href="#DejaVuSans-46"/>
       <use x="95.410156" xlink:href="#DejaVuSans-53"/>
      </g>
     </g>
    </g>
    <g id="text_13">
     <!-- $&lt;\vec{v}(0) \cdot \vec{v}(t)&gt;$ -->
     <g style="fill:#262626;" transform="translate(20.510937 259.8)rotate(-90)scale(0.12 -0.12)">
      <defs>
       <path d="M 73.1875 49.21875 
L 22.796875 31.296875 
L 73.1875 13.484375 
L 73.1875 4.59375 
L 10.59375 27.296875 
L 10.59375 35.40625 
L 73.1875 58.109375 
z
" id="DejaVuSans-60"/>
       <path d="M -47.015625 63.53125 
L -47.015625 68.40625 
L -10.84375 68.40625 
L -17.28125 75.984375 
L -11.140625 75.984375 
L -2.59375 65.96875 
L -11.140625 55.953125 
L -17.28125 55.953125 
L -10.84375 63.53125 
z
" id="DejaVuSans-8407"/>
       <path d="M 7.171875 54.6875 
L 16.703125 54.6875 
L 24.703125 8.203125 
L 50.875 54.6875 
L 60.40625 54.6875 
L 29.296875 0 
L 17.1875 0 
z
" id="DejaVuSans-Oblique-118"/>
       <path d="M 31 75.875 
Q 24.46875 64.65625 21.28125 53.65625 
Q 18.109375 42.671875 18.109375 31.390625 
Q 18.109375 20.125 21.3125 9.0625 
Q 24.515625 -2 31 -13.1875 
L 23.1875 -13.1875 
Q 15.875 -1.703125 12.234375 9.375 
Q 8.59375 20.453125 8.59375 31.390625 
Q 8.59375 42.28125 12.203125 53.3125 
Q 15.828125 64.359375 23.1875 75.875 
z
" id="DejaVuSans-40"/>
       <path d="M 8.015625 75.875 
L 15.828125 75.875 
Q 23.140625 64.359375 26.78125 53.3125 
Q 30.421875 42.28125 30.421875 31.390625 
Q 30.421875 20.453125 26.78125 9.375 
Q 23.140625 -1.703125 15.828125 -13.1875 
L 8.015625 -13.1875 
Q 14.5 -2 17.703125 9.0625 
Q 20.90625 20.125 20.90625 31.390625 
Q 20.90625 42.671875 17.703125 53.65625 
Q 14.5 64.65625 8.015625 75.875 
z
" id="DejaVuSans-41"/>
       <path d="M 10.6875 40.921875 
L 21 40.921875 
L 21 28.515625 
L 10.6875 28.515625 
z
" id="DejaVuSans-8901"/>
       <path d="M 10.59375 49.21875 
L 10.59375 58.109375 
L 73.1875 35.40625 
L 73.1875 27.296875 
L 10.59375 4.59375 
L 10.59375 13.484375 
L 60.890625 31.296875 
z
" id="DejaVuSans-62"/>
      </defs>
      <use transform="translate(19.482422 0.78125)" xlink:href="#DejaVuSans-60"/>
      <use transform="translate(184.564453 12.015625)" xlink:href="#DejaVuSans-8407"/>
      <use transform="translate(122.753906 0.78125)" xlink:href="#DejaVuSans-Oblique-118"/>
      <use transform="translate(181.933594 0.78125)" xlink:href="#DejaVuSans-40"/>
      <use transform="translate(220.947266 0.78125)" xlink:href="#DejaVuSans-48"/>
      <use transform="translate(284.570312 0.78125)" xlink:href="#DejaVuSans-41"/>
      <use transform="translate(343.066406 0.78125)" xlink:href="#DejaVuSans-8901"/>
      <use transform="translate(456.146484 12.015625)" xlink:href="#DejaVuSans-8407"/>
      <use transform="translate(394.335938 0.78125)" xlink:href="#DejaVuSans-Oblique-118"/>
      <use transform="translate(453.515625 0.78125)" xlink:href="#DejaVuSans-40"/>
      <use transform="translate(492.529297 0.78125)" xlink:href="#DejaVuSans-Oblique-116"/>
      <use transform="translate(531.738281 0.78125)" xlink:href="#DejaVuSans-41"/>
      <use transform="translate(590.234375 0.78125)" xlink:href="#DejaVuSans-62"/>
     </g>
    </g>
   </g>
   <g id="line2d_12">
    <path clip-path="url(#pa8bf544e49)" d="M 69.218182 164.419269 
L 75.694004 328.100345 
L 82.169826 346.856543 
L 88.645648 344.447431 
L 95.12147 346.94156 
L 101.597292 351.775765 
L 108.073114 353.409356 
L 114.548936 350.823274 
L 121.024758 349.558918 
L 127.50058 354.174111 
L 133.976402 356.169031 
L 140.452224 355.849786 
L 146.928046 354.671099 
L 153.403868 353.386934 
L 159.879691 349.702644 
L 166.355513 351.91152 
L 172.831335 355.278494 
L 179.307157 356.838066 
L 185.782979 356.962702 
L 192.258801 355.346843 
L 198.734623 355.812339 
L 205.210445 355.182161 
L 211.686267 356.588082 
L 218.162089 357.184923 
L 224.637911 355.487481 
L 231.113733 356.187502 
L 237.589555 356.394232 
L 244.065377 356.351577 
L 250.541199 357.235972 
L 257.017021 357.212832 
L 263.492843 356.809556 
L 269.968665 354.720201 
L 276.444487 354.733807 
L 282.920309 355.504262 
L 289.396132 355.616293 
L 295.871954 356.107316 
L 302.347776 356.120548 
L 308.823598 355.753904 
L 315.29942 357.153091 
L 321.775242 357.350375 
L 328.251064 356.071143 
L 334.726886 355.801662 
L 341.202708 355.842534 
L 347.67853 355.271636 
L 354.154352 353.645816 
L 360.630174 352.882836 
L 367.105996 353.409187 
L 373.581818 351.897609 
" style="fill:none;stroke:#4c72b0;stroke-linecap:round;stroke-width:1.5;"/>
   </g>
   <g id="line2d_13">
    <path clip-path="url(#pa8bf544e49)" d="M 69.218182 113.003832 
L 75.694004 319.312632 
L 82.169826 340.081891 
L 88.645648 346.860871 
L 95.12147 348.262621 
L 101.597292 347.911127 
L 108.073114 348.415134 
L 114.548936 348.538156 
L 121.024758 347.116364 
L 127.50058 349.631232 
L 133.976402 353.46976 
L 140.452224 352.633117 
L 146.928046 353.227356 
L 153.403868 351.988606 
L 159.879691 352.795372 
L 166.355513 356.018281 
L 172.831335 357.770056 
L 179.307157 356.876201 
L 185.782979 355.9093 
L 192.258801 355.241238 
L 198.734623 354.632754 
L 205.210445 356.524694 
L 211.686267 358.323912 
L 218.162089 356.929352 
L 224.637911 355.132329 
L 231.113733 357.114598 
L 237.589555 354.746215 
L 244.065377 355.339677 
L 250.541199 358.328015 
L 257.017021 359.411949 
L 263.492843 356.572445 
L 269.968665 354.225418 
L 276.444487 358.347829 
L 282.920309 357.553164 
L 289.396132 355.948832 
L 295.871954 351.762882 
L 302.347776 347.452887 
L 308.823598 350.110846 
L 315.29942 353.185051 
L 321.775242 356.362099 
L 328.251064 356.363955 
L 334.726886 357.394398 
L 341.202708 355.306003 
L 347.67853 355.985265 
L 354.154352 354.959327 
L 360.630174 350.947407 
L 367.105996 354.191423 
L 373.581818 356.941492 
" style="fill:none;stroke:#dd8452;stroke-linecap:round;stroke-width:1.5;"/>
   </g>
   <g id="line2d_14">
    <path clip-path="url(#pa8bf544e49)" d="M 69.218182 66.96 
L 75.694004 308.001028 
L 82.169826 325.977399 
L 88.645648 340.087115 
L 95.12147 344.003283 
L 101.597292 343.20422 
L 108.073114 354.093311 
L 114.548936 354.92986 
L 121.024758 359.069933 
L 127.50058 364.399332 
L 133.976402 369.36 
L 140.452224 364.98643 
L 146.928046 361.906998 
L 153.403868 362.068449 
L 159.879691 362.96797 
L 166.355513 357.63455 
L 172.831335 356.071881 
L 179.307157 357.502674 
L 185.782979 356.838041 
L 192.258801 354.807499 
L 198.734623 352.600855 
L 205.210445 358.772573 
L 211.686267 358.851043 
L 218.162089 361.781167 
L 224.637911 358.073556 
L 231.113733 353.197206 
L 237.589555 353.664679 
L 244.065377 356.364007 
L 250.541199 353.99636 
L 257.017021 349.005916 
L 263.492843 347.069184 
L 269.968665 346.35709 
L 276.444487 348.15837 
L 282.920309 351.484419 
L 289.396132 355.919951 
L 295.871954 354.985861 
L 302.347776 354.25038 
L 308.823598 354.21139 
L 315.29942 355.175066 
L 321.775242 350.876272 
L 328.251064 357.171344 
L 334.726886 363.221217 
L 341.202708 356.387517 
L 347.67853 353.396801 
L 354.154352 356.872786 
L 360.630174 363.712952 
L 367.105996 357.381986 
L 373.581818 358.311287 
" style="fill:none;stroke:#55a868;stroke-linecap:round;stroke-width:1.5;"/>
   </g>
   <g id="patch_3">
    <path d="M 54 384.48 
L 54 51.84 
" style="fill:none;stroke:#ffffff;stroke-linecap:square;stroke-linejoin:miter;stroke-width:1.25;"/>
   </g>
   <g id="patch_4">
    <path d="M 388.8 384.48 
L 388.8 51.84 
" style="fill:none;stroke:#ffffff;stroke-linecap:square;stroke-linejoin:miter;stroke-width:1.25;"/>
   </g>
   <g id="patch_5">
    <path d="M 54 384.48 
L 388.8 384.48 
" style="fill:none;stroke:#ffffff;stroke-linecap:square;stroke-linejoin:miter;stroke-width:1.25;"/>
   </g>
   <g id="patch_6">
    <path d="M 54 51.84 
L 388.8 51.84 
" style="fill:none;stroke:#ffffff;stroke-linecap:square;stroke-linejoin:miter;stroke-width:1.25;"/>
   </g>
   <g id="legend_1">
    <g id="patch_7">
     <path d="M 206.31 109.144844 
L 381.1 109.144844 
Q 383.3 109.144844 383.3 106.944844 
L 383.3 59.54 
Q 383.3 57.34 381.1 57.34 
L 206.31 57.34 
Q 204.11 57.34 204.11 59.54 
L 204.11 106.944844 
Q 204.11 109.144844 206.31 109.144844 
z
" style="fill:#eaeaf2;opacity:0.8;stroke:#cccccc;stroke-linejoin:miter;"/>
    </g>
    <g id="line2d_15">
     <path d="M 208.51 66.248281 
L 230.51 66.248281 
" style="fill:none;stroke:#4c72b0;stroke-linecap:round;stroke-width:1.5;"/>
    </g>
    <g id="line2d_16"/>
    <g id="text_14">
     <!-- $ T = 1.0, \rho = 0.7, D = 0.005$ -->
     <g style="fill:#262626;" transform="translate(239.31 70.098281)scale(0.11 -0.11)">
      <defs>
       <path d="M 5.90625 72.90625 
L 67.578125 72.90625 
L 66.015625 64.59375 
L 39.984375 64.59375 
L 27.484375 0 
L 17.578125 0 
L 30.078125 64.59375 
L 4.296875 64.59375 
z
" id="DejaVuSans-Oblique-84"/>
       <path d="M 10.59375 45.40625 
L 73.1875 45.40625 
L 73.1875 37.203125 
L 10.59375 37.203125 
z
M 10.59375 25.484375 
L 73.1875 25.484375 
L 73.1875 17.1875 
L 10.59375 17.1875 
z
" id="DejaVuSans-61"/>
       <path d="M 11.71875 12.40625 
L 22.015625 12.40625 
L 22.015625 4 
L 14.015625 -11.625 
L 7.71875 -11.625 
L 11.71875 4 
z
" id="DejaVuSans-44"/>
       <path d="M 18.796875 44.921875 
Q 22.703125 49.90625 30.953125 54.296875 
Q 34.1875 56 43.0625 56 
Q 53.03125 56 57.71875 48.09375 
Q 62.40625 40.1875 59.90625 27.296875 
Q 57.375 14.40625 49.609375 6.484375 
Q 41.84375 -1.421875 31.890625 -1.421875 
Q 25.875 -1.421875 22.015625 0.984375 
Q 18.171875 3.328125 16.3125 8.203125 
L 10.640625 -20.796875 
L 1.609375 -20.796875 
L 10.890625 26.8125 
Q 13.09375 38.09375 18.796875 44.921875 
z
M 50.59375 27.296875 
Q 52.484375 37.203125 49.515625 42.875 
Q 46.53125 48.484375 39.40625 48.484375 
Q 32.28125 48.484375 27.09375 42.875 
Q 21.921875 37.203125 20.015625 27.296875 
Q 18.0625 17.390625 21.046875 11.71875 
Q 24.03125 6.109375 31.15625 6.109375 
Q 38.28125 6.109375 43.453125 11.71875 
Q 48.640625 17.390625 50.59375 27.296875 
z
" id="DejaVuSans-Oblique-961"/>
       <path d="M 8.203125 72.90625 
L 55.078125 72.90625 
L 55.078125 68.703125 
L 28.609375 0 
L 18.3125 0 
L 43.21875 64.59375 
L 8.203125 64.59375 
z
" id="DejaVuSans-55"/>
       <path d="M 16.890625 72.90625 
L 38.09375 72.90625 
Q 54.984375 72.90625 63.59375 65.75 
Q 72.21875 58.59375 72.21875 44.484375 
Q 72.21875 35.15625 68.9375 26.53125 
Q 65.671875 17.921875 59.90625 12.015625 
Q 54.109375 5.953125 45.171875 2.96875 
Q 36.234375 0 24.03125 0 
L 2.6875 0 
z
M 25.203125 64.796875 
L 14.203125 8.109375 
L 27.09375 8.109375 
Q 43.65625 8.109375 52.734375 17.625 
Q 61.8125 27.15625 61.8125 44.484375 
Q 61.8125 54.984375 55.953125 59.890625 
Q 50.09375 64.796875 37.59375 64.796875 
z
" id="DejaVuSans-Oblique-68"/>
      </defs>
      <use transform="translate(0 0.78125)" xlink:href="#DejaVuSans-Oblique-84"/>
      <use transform="translate(80.566406 0.78125)" xlink:href="#DejaVuSans-61"/>
      <use transform="translate(183.837891 0.78125)" xlink:href="#DejaVuSans-49"/>
      <use transform="translate(247.460938 0.78125)" xlink:href="#DejaVuSans-46"/>
      <use transform="translate(279.248047 0.78125)" xlink:href="#DejaVuSans-48"/>
      <use transform="translate(342.871094 0.78125)" xlink:href="#DejaVuSans-44"/>
      <use transform="translate(394.140625 0.78125)" xlink:href="#DejaVuSans-Oblique-961"/>
      <use transform="translate(477.099609 0.78125)" xlink:href="#DejaVuSans-61"/>
      <use transform="translate(580.371094 0.78125)" xlink:href="#DejaVuSans-48"/>
      <use transform="translate(643.994141 0.78125)" xlink:href="#DejaVuSans-46"/>
      <use transform="translate(668.03125 0.78125)" xlink:href="#DejaVuSans-55"/>
      <use transform="translate(731.654297 0.78125)" xlink:href="#DejaVuSans-44"/>
      <use transform="translate(782.923828 0.78125)" xlink:href="#DejaVuSans-Oblique-68"/>
      <use transform="translate(879.408203 0.78125)" xlink:href="#DejaVuSans-61"/>
      <use transform="translate(982.679688 0.78125)" xlink:href="#DejaVuSans-48"/>
      <use transform="translate(1046.302734 0.78125)" xlink:href="#DejaVuSans-46"/>
      <use transform="translate(1078.089844 0.78125)" xlink:href="#DejaVuSans-48"/>
      <use transform="translate(1141.712891 0.78125)" xlink:href="#DejaVuSans-48"/>
      <use transform="translate(1205.335938 0.78125)" xlink:href="#DejaVuSans-53"/>
     </g>
    </g>
    <g id="line2d_17">
     <path d="M 208.51 82.416562 
L 230.51 82.416562 
" style="fill:none;stroke:#dd8452;stroke-linecap:round;stroke-width:1.5;"/>
    </g>
    <g id="line2d_18"/>
    <g id="text_15">
     <!-- $ T = 1.5, \rho = 0.7, D = 0.007$ -->
     <g style="fill:#262626;" transform="translate(239.31 86.266562)scale(0.11 -0.11)">
      <use transform="translate(0 0.78125)" xlink:href="#DejaVuSans-Oblique-84"/>
      <use transform="translate(80.566406 0.78125)" xlink:href="#DejaVuSans-61"/>
      <use transform="translate(183.837891 0.78125)" xlink:href="#DejaVuSans-49"/>
      <use transform="translate(247.460938 0.78125)" xlink:href="#DejaVuSans-46"/>
      <use transform="translate(279.248047 0.78125)" xlink:href="#DejaVuSans-53"/>
      <use transform="translate(342.871094 0.78125)" xlink:href="#DejaVuSans-44"/>
      <use transform="translate(394.140625 0.78125)" xlink:href="#DejaVuSans-Oblique-961"/>
      <use transform="translate(477.099609 0.78125)" xlink:href="#DejaVuSans-61"/>
      <use transform="translate(580.371094 0.78125)" xlink:href="#DejaVuSans-48"/>
      <use transform="translate(643.994141 0.78125)" xlink:href="#DejaVuSans-46"/>
      <use transform="translate(668.03125 0.78125)" xlink:href="#DejaVuSans-55"/>
      <use transform="translate(731.654297 0.78125)" xlink:href="#DejaVuSans-44"/>
      <use transform="translate(782.923828 0.78125)" xlink:href="#DejaVuSans-Oblique-68"/>
      <use transform="translate(879.408203 0.78125)" xlink:href="#DejaVuSans-61"/>
      <use transform="translate(982.679688 0.78125)" xlink:href="#DejaVuSans-48"/>
      <use transform="translate(1046.302734 0.78125)" xlink:href="#DejaVuSans-46"/>
      <use transform="translate(1078.089844 0.78125)" xlink:href="#DejaVuSans-48"/>
      <use transform="translate(1141.712891 0.78125)" xlink:href="#DejaVuSans-48"/>
      <use transform="translate(1205.335938 0.78125)" xlink:href="#DejaVuSans-55"/>
     </g>
    </g>
    <g id="line2d_19">
     <path d="M 208.51 98.584844 
L 230.51 98.584844 
" style="fill:none;stroke:#55a868;stroke-linecap:round;stroke-width:1.5;"/>
    </g>
    <g id="line2d_20"/>
    <g id="text_16">
     <!-- $ T = 2.0, \rho = 0.7, D = 0.007$ -->
     <g style="fill:#262626;" transform="translate(239.31 102.434844)scale(0.11 -0.11)">
      <use transform="translate(0 0.78125)" xlink:href="#DejaVuSans-Oblique-84"/>
      <use transform="translate(80.566406 0.78125)" xlink:href="#DejaVuSans-61"/>
      <use transform="translate(183.837891 0.78125)" xlink:href="#DejaVuSans-50"/>
      <use transform="translate(247.460938 0.78125)" xlink:href="#DejaVuSans-46"/>
      <use transform="translate(279.248047 0.78125)" xlink:href="#DejaVuSans-48"/>
      <use transform="translate(342.871094 0.78125)" xlink:href="#DejaVuSans-44"/>
      <use transform="translate(394.140625 0.78125)" xlink:href="#DejaVuSans-Oblique-961"/>
      <use transform="translate(477.099609 0.78125)" xlink:href="#DejaVuSans-61"/>
      <use transform="translate(580.371094 0.78125)" xlink:href="#DejaVuSans-48"/>
      <use transform="translate(643.994141 0.78125)" xlink:href="#DejaVuSans-46"/>
      <use transform="translate(668.03125 0.78125)" xlink:href="#DejaVuSans-55"/>
      <use transform="translate(731.654297 0.78125)" xlink:href="#DejaVuSans-44"/>
      <use transform="translate(782.923828 0.78125)" xlink:href="#DejaVuSans-Oblique-68"/>
      <use transform="translate(879.408203 0.78125)" xlink:href="#DejaVuSans-61"/>
      <use transform="translate(982.679688 0.78125)" xlink:href="#DejaVuSans-48"/>
      <use transform="translate(1046.302734 0.78125)" xlink:href="#DejaVuSans-46"/>
      <use transform="translate(1078.089844 0.78125)" xlink:href="#DejaVuSans-48"/>
      <use transform="translate(1141.712891 0.78125)" xlink:href="#DejaVuSans-48"/>
      <use transform="translate(1205.335938 0.78125)" xlink:href="#DejaVuSans-55"/>
     </g>
    </g>
   </g>
  </g>
 </g>
 <defs>
  <clipPath id="pa8bf544e49">
   <rect height="332.64" width="334.8" x="54" y="51.84"/>
  </clipPath>
 </defs>
</svg>
