<?xml version="1.0" encoding="utf-8" standalone="no"?>
<!DOCTYPE svg PUBLIC "-//W3C//DTD SVG 1.1//EN"
  "http://www.w3.org/Graphics/SVG/1.1/DTD/svg11.dtd">
<!-- Created with matplotlib (https://matplotlib.org/) -->
<svg height="432pt" version="1.1" viewBox="0 0 432 432" width="432pt" xmlns="http://www.w3.org/2000/svg" xmlns:xlink="http://www.w3.org/1999/xlink">
 <metadata>
  <rdf:RDF xmlns:cc="http://creativecommons.org/ns#" xmlns:dc="http://purl.org/dc/elements/1.1/" xmlns:rdf="http://www.w3.org/1999/02/22-rdf-syntax-ns#">
   <cc:Work>
    <dc:type rdf:resource="http://purl.org/dc/dcmitype/StillImage"/>
    <dc:date>2021-03-29T12:30:46.210632</dc:date>
    <dc:format>image/svg+xml</dc:format>
    <dc:creator>
     <cc:Agent>
      <dc:title>Matplotlib v3.3.3, https://matplotlib.org/</dc:title>
     </cc:Agent>
    </dc:creator>
   </cc:Work>
  </rdf:RDF>
 </metadata>
 <defs>
  <style type="text/css">*{stroke-linecap:butt;stroke-linejoin:round;}</style>
 </defs>
 <g id="figure_1">
  <g id="patch_1">
   <path d="M 0 432 
L 432 432 
L 432 0 
L 0 0 
z
" style="fill:#ffffff;"/>
  </g>
  <g id="axes_1">
   <g id="patch_2">
    <path d="M 54 384.48 
L 388.8 384.48 
L 388.8 51.84 
L 54 51.84 
z
" style="fill:#eaeaf2;"/>
   </g>
   <g id="matplotlib.axis_1">
    <g id="xtick_1">
     <g id="line2d_1">
      <path clip-path="url(#pb88991b3e3)" d="M 69.218182 384.48 
L 69.218182 51.84 
" style="fill:none;stroke:#ffffff;stroke-linecap:round;"/>
     </g>
     <g id="text_1">
      <!-- 0.0 -->
      <g style="fill:#262626;" transform="translate(60.471463 402.338281)scale(0.11 -0.11)">
       <defs>
        <path d="M 31.78125 66.40625 
Q 24.171875 66.40625 20.328125 58.90625 
Q 16.5 51.421875 16.5 36.375 
Q 16.5 21.390625 20.328125 13.890625 
Q 24.171875 6.390625 31.78125 6.390625 
Q 39.453125 6.390625 43.28125 13.890625 
Q 47.125 21.390625 47.125 36.375 
Q 47.125 51.421875 43.28125 58.90625 
Q 39.453125 66.40625 31.78125 66.40625 
z
M 31.78125 74.21875 
Q 44.046875 74.21875 50.515625 64.515625 
Q 56.984375 54.828125 56.984375 36.375 
Q 56.984375 17.96875 50.515625 8.265625 
Q 44.046875 -1.421875 31.78125 -1.421875 
Q 19.53125 -1.421875 13.0625 8.265625 
Q 6.59375 17.96875 6.59375 36.375 
Q 6.59375 54.828125 13.0625 64.515625 
Q 19.53125 74.21875 31.78125 74.21875 
z
" id="DejaVuSans-48"/>
        <path d="M 10.6875 12.40625 
L 21 12.40625 
L 21 0 
L 10.6875 0 
z
" id="DejaVuSans-46"/>
       </defs>
       <use xlink:href="#DejaVuSans-48"/>
       <use x="63.623047" xlink:href="#DejaVuSans-46"/>
       <use x="95.410156" xlink:href="#DejaVuSans-48"/>
      </g>
     </g>
    </g>
    <g id="xtick_2">
     <g id="line2d_2">
      <path clip-path="url(#pb88991b3e3)" d="M 130.45835 384.48 
L 130.45835 51.84 
" style="fill:none;stroke:#ffffff;stroke-linecap:round;"/>
     </g>
     <g id="text_2">
      <!-- 0.1 -->
      <g style="fill:#262626;" transform="translate(121.711631 402.338281)scale(0.11 -0.11)">
       <defs>
        <path d="M 12.40625 8.296875 
L 28.515625 8.296875 
L 28.515625 63.921875 
L 10.984375 60.40625 
L 10.984375 69.390625 
L 28.421875 72.90625 
L 38.28125 72.90625 
L 38.28125 8.296875 
L 54.390625 8.296875 
L 54.390625 0 
L 12.40625 0 
z
" id="DejaVuSans-49"/>
       </defs>
       <use xlink:href="#DejaVuSans-48"/>
       <use x="63.623047" xlink:href="#DejaVuSans-46"/>
       <use x="95.410156" xlink:href="#DejaVuSans-49"/>
      </g>
     </g>
    </g>
    <g id="xtick_3">
     <g id="line2d_3">
      <path clip-path="url(#pb88991b3e3)" d="M 191.698518 384.48 
L 191.698518 51.84 
" style="fill:none;stroke:#ffffff;stroke-linecap:round;"/>
     </g>
     <g id="text_3">
      <!-- 0.2 -->
      <g style="fill:#262626;" transform="translate(182.9518 402.338281)scale(0.11 -0.11)">
       <defs>
        <path d="M 19.1875 8.296875 
L 53.609375 8.296875 
L 53.609375 0 
L 7.328125 0 
L 7.328125 8.296875 
Q 12.9375 14.109375 22.625 23.890625 
Q 32.328125 33.6875 34.8125 36.53125 
Q 39.546875 41.84375 41.421875 45.53125 
Q 43.3125 49.21875 43.3125 52.78125 
Q 43.3125 58.59375 39.234375 62.25 
Q 35.15625 65.921875 28.609375 65.921875 
Q 23.96875 65.921875 18.8125 64.3125 
Q 13.671875 62.703125 7.8125 59.421875 
L 7.8125 69.390625 
Q 13.765625 71.78125 18.9375 73 
Q 24.125 74.21875 28.421875 74.21875 
Q 39.75 74.21875 46.484375 68.546875 
Q 53.21875 62.890625 53.21875 53.421875 
Q 53.21875 48.921875 51.53125 44.890625 
Q 49.859375 40.875 45.40625 35.40625 
Q 44.1875 33.984375 37.640625 27.21875 
Q 31.109375 20.453125 19.1875 8.296875 
z
" id="DejaVuSans-50"/>
       </defs>
       <use xlink:href="#DejaVuSans-48"/>
       <use x="63.623047" xlink:href="#DejaVuSans-46"/>
       <use x="95.410156" xlink:href="#DejaVuSans-50"/>
      </g>
     </g>
    </g>
    <g id="xtick_4">
     <g id="line2d_4">
      <path clip-path="url(#pb88991b3e3)" d="M 252.938687 384.48 
L 252.938687 51.84 
" style="fill:none;stroke:#ffffff;stroke-linecap:round;"/>
     </g>
     <g id="text_4">
      <!-- 0.3 -->
      <g style="fill:#262626;" transform="translate(244.191968 402.338281)scale(0.11 -0.11)">
       <defs>
        <path d="M 40.578125 39.3125 
Q 47.65625 37.796875 51.625 33 
Q 55.609375 28.21875 55.609375 21.1875 
Q 55.609375 10.40625 48.1875 4.484375 
Q 40.765625 -1.421875 27.09375 -1.421875 
Q 22.515625 -1.421875 17.65625 -0.515625 
Q 12.796875 0.390625 7.625 2.203125 
L 7.625 11.71875 
Q 11.71875 9.328125 16.59375 8.109375 
Q 21.484375 6.890625 26.8125 6.890625 
Q 36.078125 6.890625 40.9375 10.546875 
Q 45.796875 14.203125 45.796875 21.1875 
Q 45.796875 27.640625 41.28125 31.265625 
Q 36.765625 34.90625 28.71875 34.90625 
L 20.21875 34.90625 
L 20.21875 43.015625 
L 29.109375 43.015625 
Q 36.375 43.015625 40.234375 45.921875 
Q 44.09375 48.828125 44.09375 54.296875 
Q 44.09375 59.90625 40.109375 62.90625 
Q 36.140625 65.921875 28.71875 65.921875 
Q 24.65625 65.921875 20.015625 65.03125 
Q 15.375 64.15625 9.8125 62.3125 
L 9.8125 71.09375 
Q 15.4375 72.65625 20.34375 73.4375 
Q 25.25 74.21875 29.59375 74.21875 
Q 40.828125 74.21875 47.359375 69.109375 
Q 53.90625 64.015625 53.90625 55.328125 
Q 53.90625 49.265625 50.4375 45.09375 
Q 46.96875 40.921875 40.578125 39.3125 
z
" id="DejaVuSans-51"/>
       </defs>
       <use xlink:href="#DejaVuSans-48"/>
       <use x="63.623047" xlink:href="#DejaVuSans-46"/>
       <use x="95.410156" xlink:href="#DejaVuSans-51"/>
      </g>
     </g>
    </g>
    <g id="xtick_5">
     <g id="line2d_5">
      <path clip-path="url(#pb88991b3e3)" d="M 314.178855 384.48 
L 314.178855 51.84 
" style="fill:none;stroke:#ffffff;stroke-linecap:round;"/>
     </g>
     <g id="text_5">
      <!-- 0.4 -->
      <g style="fill:#262626;" transform="translate(305.432136 402.338281)scale(0.11 -0.11)">
       <defs>
        <path d="M 37.796875 64.3125 
L 12.890625 25.390625 
L 37.796875 25.390625 
z
M 35.203125 72.90625 
L 47.609375 72.90625 
L 47.609375 25.390625 
L 58.015625 25.390625 
L 58.015625 17.1875 
L 47.609375 17.1875 
L 47.609375 0 
L 37.796875 0 
L 37.796875 17.1875 
L 4.890625 17.1875 
L 4.890625 26.703125 
z
" id="DejaVuSans-52"/>
       </defs>
       <use xlink:href="#DejaVuSans-48"/>
       <use x="63.623047" xlink:href="#DejaVuSans-46"/>
       <use x="95.410156" xlink:href="#DejaVuSans-52"/>
      </g>
     </g>
    </g>
    <g id="xtick_6">
     <g id="line2d_6">
      <path clip-path="url(#pb88991b3e3)" d="M 375.419023 384.48 
L 375.419023 51.84 
" style="fill:none;stroke:#ffffff;stroke-linecap:round;"/>
     </g>
     <g id="text_6">
      <!-- 0.5 -->
      <g style="fill:#262626;" transform="translate(366.672304 402.338281)scale(0.11 -0.11)">
       <defs>
        <path d="M 10.796875 72.90625 
L 49.515625 72.90625 
L 49.515625 64.59375 
L 19.828125 64.59375 
L 19.828125 46.734375 
Q 21.96875 47.46875 24.109375 47.828125 
Q 26.265625 48.1875 28.421875 48.1875 
Q 40.625 48.1875 47.75 41.5 
Q 54.890625 34.8125 54.890625 23.390625 
Q 54.890625 11.625 47.5625 5.09375 
Q 40.234375 -1.421875 26.90625 -1.421875 
Q 22.3125 -1.421875 17.546875 -0.640625 
Q 12.796875 0.140625 7.71875 1.703125 
L 7.71875 11.625 
Q 12.109375 9.234375 16.796875 8.0625 
Q 21.484375 6.890625 26.703125 6.890625 
Q 35.15625 6.890625 40.078125 11.328125 
Q 45.015625 15.765625 45.015625 23.390625 
Q 45.015625 31 40.078125 35.4375 
Q 35.15625 39.890625 26.703125 39.890625 
Q 22.75 39.890625 18.8125 39.015625 
Q 14.890625 38.140625 10.796875 36.28125 
z
" id="DejaVuSans-53"/>
       </defs>
       <use xlink:href="#DejaVuSans-48"/>
       <use x="63.623047" xlink:href="#DejaVuSans-46"/>
       <use x="95.410156" xlink:href="#DejaVuSans-53"/>
      </g>
     </g>
    </g>
    <g id="text_7">
     <!-- $t$ -->
     <g style="fill:#262626;" transform="translate(219 417.744062)scale(0.12 -0.12)">
      <defs>
       <path d="M 42.28125 54.6875 
L 40.921875 47.703125 
L 23 47.703125 
L 17.1875 18.015625 
Q 16.890625 16.359375 16.75 15.234375 
Q 16.609375 14.109375 16.609375 13.484375 
Q 16.609375 10.359375 18.484375 8.9375 
Q 20.359375 7.515625 24.515625 7.515625 
L 33.59375 7.515625 
L 32.078125 0 
L 23.484375 0 
Q 15.484375 0 11.546875 3.125 
Q 7.625 6.25 7.625 12.59375 
Q 7.625 13.71875 7.765625 15.0625 
Q 7.90625 16.40625 8.203125 18.015625 
L 14.015625 47.703125 
L 6.390625 47.703125 
L 7.8125 54.6875 
L 15.28125 54.6875 
L 18.3125 70.21875 
L 27.296875 70.21875 
L 24.3125 54.6875 
z
" id="DejaVuSans-Oblique-116"/>
      </defs>
      <use transform="translate(0 0.78125)" xlink:href="#DejaVuSans-Oblique-116"/>
     </g>
    </g>
   </g>
   <g id="matplotlib.axis_2">
    <g id="ytick_1">
     <g id="line2d_7">
      <path clip-path="url(#pb88991b3e3)" d="M 54 365.523177 
L 388.8 365.523177 
" style="fill:none;stroke:#ffffff;stroke-linecap:round;"/>
     </g>
     <g id="text_8">
      <!-- 0 -->
      <g style="fill:#262626;" transform="translate(37.50125 369.702318)scale(0.11 -0.11)">
       <use xlink:href="#DejaVuSans-48"/>
      </g>
     </g>
    </g>
    <g id="ytick_2">
     <g id="line2d_8">
      <path clip-path="url(#pb88991b3e3)" d="M 54 299.202935 
L 388.8 299.202935 
" style="fill:none;stroke:#ffffff;stroke-linecap:round;"/>
     </g>
     <g id="text_9">
      <!-- 1 -->
      <g style="fill:#262626;" transform="translate(37.50125 303.382075)scale(0.11 -0.11)">
       <use xlink:href="#DejaVuSans-49"/>
      </g>
     </g>
    </g>
    <g id="ytick_3">
     <g id="line2d_9">
      <path clip-path="url(#pb88991b3e3)" d="M 54 232.882692 
L 388.8 232.882692 
" style="fill:none;stroke:#ffffff;stroke-linecap:round;"/>
     </g>
     <g id="text_10">
      <!-- 2 -->
      <g style="fill:#262626;" transform="translate(37.50125 237.061833)scale(0.11 -0.11)">
       <use xlink:href="#DejaVuSans-50"/>
      </g>
     </g>
    </g>
    <g id="ytick_4">
     <g id="line2d_10">
      <path clip-path="url(#pb88991b3e3)" d="M 54 166.56245 
L 388.8 166.56245 
" style="fill:none;stroke:#ffffff;stroke-linecap:round;"/>
     </g>
     <g id="text_11">
      <!-- 3 -->
      <g style="fill:#262626;" transform="translate(37.50125 170.741591)scale(0.11 -0.11)">
       <use xlink:href="#DejaVuSans-51"/>
      </g>
     </g>
    </g>
    <g id="ytick_5">
     <g id="line2d_11">
      <path clip-path="url(#pb88991b3e3)" d="M 54 100.242208 
L 388.8 100.242208 
" style="fill:none;stroke:#ffffff;stroke-linecap:round;"/>
     </g>
     <g id="text_12">
      <!-- 4 -->
      <g style="fill:#262626;" transform="translate(37.50125 104.421348)scale(0.11 -0.11)">
       <use xlink:href="#DejaVuSans-52"/>
      </g>
     </g>
    </g>
    <g id="text_13">
     <!-- $&lt;\vec{v}(0) \cdot \vec{v}(t)&gt;$ -->
     <g style="fill:#262626;" transform="translate(31.005625 259.8)rotate(-90)scale(0.12 -0.12)">
      <defs>
       <path d="M 73.1875 49.21875 
L 22.796875 31.296875 
L 73.1875 13.484375 
L 73.1875 4.59375 
L 10.59375 27.296875 
L 10.59375 35.40625 
L 73.1875 58.109375 
z
" id="DejaVuSans-60"/>
       <path d="M -47.015625 63.53125 
L -47.015625 68.40625 
L -10.84375 68.40625 
L -17.28125 75.984375 
L -11.140625 75.984375 
L -2.59375 65.96875 
L -11.140625 55.953125 
L -17.28125 55.953125 
L -10.84375 63.53125 
z
" id="DejaVuSans-8407"/>
       <path d="M 7.171875 54.6875 
L 16.703125 54.6875 
L 24.703125 8.203125 
L 50.875 54.6875 
L 60.40625 54.6875 
L 29.296875 0 
L 17.1875 0 
z
" id="DejaVuSans-Oblique-118"/>
       <path d="M 31 75.875 
Q 24.46875 64.65625 21.28125 53.65625 
Q 18.109375 42.671875 18.109375 31.390625 
Q 18.109375 20.125 21.3125 9.0625 
Q 24.515625 -2 31 -13.1875 
L 23.1875 -13.1875 
Q 15.875 -1.703125 12.234375 9.375 
Q 8.59375 20.453125 8.59375 31.390625 
Q 8.59375 42.28125 12.203125 53.3125 
Q 15.828125 64.359375 23.1875 75.875 
z
" id="DejaVuSans-40"/>
       <path d="M 8.015625 75.875 
L 15.828125 75.875 
Q 23.140625 64.359375 26.78125 53.3125 
Q 30.421875 42.28125 30.421875 31.390625 
Q 30.421875 20.453125 26.78125 9.375 
Q 23.140625 -1.703125 15.828125 -13.1875 
L 8.015625 -13.1875 
Q 14.5 -2 17.703125 9.0625 
Q 20.90625 20.125 20.90625 31.390625 
Q 20.90625 42.671875 17.703125 53.65625 
Q 14.5 64.65625 8.015625 75.875 
z
" id="DejaVuSans-41"/>
       <path d="M 10.6875 40.921875 
L 21 40.921875 
L 21 28.515625 
L 10.6875 28.515625 
z
" id="DejaVuSans-8901"/>
       <path d="M 10.59375 49.21875 
L 10.59375 58.109375 
L 73.1875 35.40625 
L 73.1875 27.296875 
L 10.59375 4.59375 
L 10.59375 13.484375 
L 60.890625 31.296875 
z
" id="DejaVuSans-62"/>
      </defs>
      <use transform="translate(19.482422 0.78125)" xlink:href="#DejaVuSans-60"/>
      <use transform="translate(184.564453 12.015625)" xlink:href="#DejaVuSans-8407"/>
      <use transform="translate(122.753906 0.78125)" xlink:href="#DejaVuSans-Oblique-118"/>
      <use transform="translate(181.933594 0.78125)" xlink:href="#DejaVuSans-40"/>
      <use transform="translate(220.947266 0.78125)" xlink:href="#DejaVuSans-48"/>
      <use transform="translate(284.570312 0.78125)" xlink:href="#DejaVuSans-41"/>
      <use transform="translate(343.066406 0.78125)" xlink:href="#DejaVuSans-8901"/>
      <use transform="translate(456.146484 12.015625)" xlink:href="#DejaVuSans-8407"/>
      <use transform="translate(394.335938 0.78125)" xlink:href="#DejaVuSans-Oblique-118"/>
      <use transform="translate(453.515625 0.78125)" xlink:href="#DejaVuSans-40"/>
      <use transform="translate(492.529297 0.78125)" xlink:href="#DejaVuSans-Oblique-116"/>
      <use transform="translate(531.738281 0.78125)" xlink:href="#DejaVuSans-41"/>
      <use transform="translate(590.234375 0.78125)" xlink:href="#DejaVuSans-62"/>
     </g>
    </g>
   </g>
   <g id="line2d_12">
    <path clip-path="url(#pb88991b3e3)" d="M 69.218182 204.770601 
L 69.830584 209.263228 
L 70.442985 216.369113 
L 71.667789 236.453642 
L 75.9546 317.413231 
L 77.179404 334.077174 
L 78.404207 346.726113 
L 79.62901 355.711155 
L 80.241412 359.006617 
L 80.853814 361.613206 
L 81.466215 363.615434 
L 82.078617 365.096607 
L 82.691019 366.136877 
L 83.303421 366.811665 
L 83.915822 367.190338 
L 84.528224 367.335332 
L 85.140626 367.301827 
L 86.365429 366.884241 
L 91.877044 364.216515 
L 95.551454 363.116081 
L 99.225864 362.162631 
L 102.287873 361.647615 
L 104.737479 361.418936 
L 106.574684 361.484943 
L 107.799488 361.709274 
L 109.636693 362.327739 
L 115.76071 364.859127 
L 117.597915 365.198443 
L 119.43512 365.219598 
L 121.884727 364.876453 
L 123.721932 364.663561 
L 124.946735 364.693859 
L 126.78394 365.016904 
L 131.070752 365.996155 
L 132.907957 366.10229 
L 135.357564 365.951174 
L 138.419572 365.548666 
L 142.093982 364.80972 
L 145.768392 364.136204 
L 147.605597 363.99197 
L 150.055204 364.039239 
L 154.954417 364.219711 
L 158.628828 364.291931 
L 161.078434 364.603472 
L 162.915639 365.046265 
L 164.752844 365.701097 
L 170.264459 367.937224 
L 172.101665 368.284412 
L 173.326468 368.310774 
L 174.551271 368.166989 
L 176.388476 367.696627 
L 180.062886 366.613527 
L 183.737297 365.906744 
L 187.411707 365.36895 
L 191.086117 365.094587 
L 194.760527 364.978884 
L 196.597732 365.167294 
L 199.047339 365.725125 
L 201.496945 366.256295 
L 203.33415 366.433417 
L 205.783757 366.365029 
L 213.744979 365.664668 
L 215.582184 365.54218 
L 218.031791 365.650357 
L 221.706201 365.886812 
L 224.155808 365.766528 
L 229.055021 365.193372 
L 234.566636 364.294417 
L 236.403841 364.322769 
L 238.853448 364.62637 
L 241.303055 364.945448 
L 243.14026 364.974229 
L 244.977465 364.754526 
L 248.039473 364.050324 
L 250.48908 363.573592 
L 251.713883 363.497069 
L 252.938687 363.580957 
L 254.775892 364.00352 
L 257.8379 365.132142 
L 259.675105 365.71164 
L 261.51231 366.027829 
L 263.349515 366.038791 
L 265.799122 365.706757 
L 268.86113 365.305047 
L 271.310737 365.240667 
L 278.659557 365.547636 
L 281.109164 365.862505 
L 286.620779 366.986404 
L 293.969599 368.409932 
L 295.806804 368.503437 
L 297.64401 368.414763 
L 299.481215 368.141779 
L 301.930821 367.513287 
L 305.605231 366.4368 
L 307.442436 366.121445 
L 309.279641 365.993476 
L 311.729248 366.082894 
L 316.628462 366.445706 
L 318.465667 366.234842 
L 320.915273 365.647335 
L 324.589684 364.79226 
L 326.426889 364.527184 
L 328.264094 364.490808 
L 330.7137 364.771041 
L 333.775709 365.182273 
L 339.899726 365.735244 
L 342.961734 366.473598 
L 345.411341 366.978278 
L 347.248546 367.121598 
L 349.085751 367.057257 
L 352.147759 366.690416 
L 362.558588 365.240562 
L 364.395793 365.288222 
L 366.8454 365.609866 
L 372.357015 366.406527 
L 373.581818 366.562307 
L 373.581818 366.562307 
" style="fill:none;stroke:#4c72b0;stroke-linecap:round;stroke-width:1.5;"/>
   </g>
   <g id="line2d_13">
    <path clip-path="url(#pb88991b3e3)" d="M 69.218182 135.030548 
L 69.830584 142.548248 
L 70.442985 154.237703 
L 71.667789 186.115205 
L 74.117395 257.536896 
L 75.342199 287.529843 
L 76.567002 311.322263 
L 77.791805 328.997003 
L 79.016609 341.333994 
L 79.62901 345.82027 
L 80.241412 349.361189 
L 80.853814 352.084763 
L 81.466215 354.113684 
L 82.078617 355.5634 
L 82.691019 356.540372 
L 83.303421 357.141943 
L 83.915822 357.456648 
L 84.528224 357.563518 
L 85.753027 357.416982 
L 88.202634 356.893363 
L 89.427437 356.826591 
L 91.264642 356.96298 
L 94.939052 357.533065 
L 103.512676 359.115073 
L 105.349881 359.88435 
L 112.0863 363.049381 
L 113.311103 363.33569 
L 115.148308 363.488746 
L 116.985513 363.372791 
L 119.43512 362.947112 
L 123.721932 362.017752 
L 124.946735 362.013923 
L 126.171538 362.25314 
L 127.396342 362.762759 
L 128.621145 363.513324 
L 131.683153 365.57983 
L 132.907957 365.986306 
L 133.520359 366.02828 
L 134.745162 365.780905 
L 135.969965 365.167254 
L 139.031974 363.273024 
L 140.256777 362.87489 
L 141.48158 362.823589 
L 142.706384 363.099047 
L 143.931187 363.633174 
L 146.380794 365.086328 
L 148.217999 366.110481 
L 149.442802 366.614791 
L 150.667606 366.923184 
L 151.892409 367.015855 
L 153.117212 366.899196 
L 154.954417 366.412496 
L 157.404024 365.415421 
L 161.078434 363.739628 
L 162.303238 363.401177 
L 163.528041 363.311551 
L 164.752844 363.511903 
L 165.977648 363.991879 
L 167.814853 365.056686 
L 169.652058 366.08638 
L 170.876861 366.51679 
L 172.101665 366.68663 
L 173.326468 366.611812 
L 175.163673 366.158691 
L 180.062886 364.560396 
L 181.28769 364.530338 
L 182.512493 364.768048 
L 184.349698 365.449287 
L 186.799305 366.398122 
L 188.024108 366.664661 
L 189.248912 366.699397 
L 190.473715 366.507089 
L 192.31092 365.935125 
L 197.210134 364.234003 
L 200.884544 363.29189 
L 202.721749 362.98245 
L 204.558954 362.912131 
L 205.783757 363.073131 
L 207.00856 363.452974 
L 208.233364 364.044112 
L 211.295372 365.721881 
L 212.520176 366.1031 
L 213.744979 366.212931 
L 214.969782 366.08222 
L 216.806987 365.571502 
L 219.868996 364.5779 
L 221.706201 364.215399 
L 223.543406 364.06865 
L 224.768209 364.124048 
L 225.993013 364.33599 
L 227.830218 364.900273 
L 230.892226 365.915634 
L 232.729431 366.231187 
L 235.179038 366.354439 
L 241.915456 366.384445 
L 244.977465 366.140128 
L 246.81467 366.039615 
L 248.651875 366.185186 
L 251.101482 366.523078 
L 252.326285 366.489432 
L 253.551088 366.19805 
L 254.775892 365.668246 
L 259.062703 363.479 
L 260.287507 363.098298 
L 261.51231 362.909303 
L 262.737114 362.93411 
L 263.961917 363.177501 
L 265.18672 363.625138 
L 269.473532 365.55377 
L 270.698335 365.752186 
L 271.923139 365.715092 
L 274.372746 365.262809 
L 279.271959 364.349677 
L 281.109164 364.161938 
L 282.946369 364.225387 
L 287.845583 364.808726 
L 289.682788 364.631056 
L 296.419206 363.429414 
L 298.256411 363.444073 
L 300.093616 363.708046 
L 305.605231 365.016361 
L 309.892043 366.119917 
L 311.116847 366.167012 
L 312.34165 366.005736 
L 314.178855 365.489102 
L 318.465667 364.139927 
L 320.915273 363.67762 
L 322.752479 363.630192 
L 325.202085 363.944858 
L 327.03929 364.145832 
L 328.876495 364.111207 
L 331.326102 363.956248 
L 332.550905 364.031736 
L 334.38811 364.42628 
L 339.287324 365.885451 
L 341.124529 365.962858 
L 344.186537 365.704718 
L 347.860948 365.431618 
L 349.698153 365.523887 
L 351.535358 365.900088 
L 353.984964 366.708739 
L 360.108981 368.893651 
L 361.946186 369.304692 
L 363.17099 369.36 
L 364.395793 369.201687 
L 365.620596 368.842389 
L 372.357015 366.326232 
L 373.581818 366.066891 
L 373.581818 366.066891 
" style="fill:none;stroke:#dd8452;stroke-linecap:round;stroke-width:1.5;"/>
   </g>
   <g id="line2d_14">
    <path clip-path="url(#pb88991b3e3)" d="M 69.218182 66.96 
L 69.830584 78.424135 
L 70.442985 95.98198 
L 71.667789 142.357882 
L 73.504994 217.067668 
L 74.729797 259.36469 
L 75.9546 292.491709 
L 77.179404 316.664014 
L 77.791805 325.802701 
L 78.404207 333.255773 
L 79.016609 339.24091 
L 79.62901 343.971964 
L 80.241412 347.653595 
L 80.853814 350.475271 
L 81.466215 352.60626 
L 82.078617 354.193996 
L 82.691019 355.363272 
L 83.303421 356.216095 
L 83.915822 356.833557 
L 85.140626 357.59992 
L 86.365429 357.990194 
L 88.202634 358.202573 
L 90.652241 358.417486 
L 94.326651 358.886348 
L 98.613463 359.040687 
L 102.287873 359.647102 
L 104.125078 360.125795 
L 105.349881 360.651065 
L 106.574684 361.39901 
L 108.41189 362.83973 
L 110.861496 364.783544 
L 112.0863 365.46834 
L 113.311103 365.833407 
L 114.535906 365.920317 
L 116.373111 365.759625 
L 120.659923 365.198191 
L 122.497128 365.296736 
L 124.334333 365.704681 
L 128.621145 367.032565 
L 129.845948 367.126817 
L 131.683153 367.008948 
L 137.194769 366.316834 
L 139.644375 366.006304 
L 140.869179 366.092697 
L 142.093982 366.387793 
L 144.543589 367.312059 
L 146.993196 368.137444 
L 148.217999 368.347303 
L 149.442802 368.321335 
L 150.667606 368.061712 
L 155.566819 366.627182 
L 157.404024 366.134142 
L 159.241229 365.335257 
L 161.690836 364.107169 
L 162.915639 363.693283 
L 164.752844 363.377423 
L 166.590049 363.151223 
L 167.814853 362.821133 
L 169.652058 361.97932 
L 171.489263 361.074833 
L 172.714066 360.657099 
L 173.93887 360.446342 
L 175.163673 360.44148 
L 176.388476 360.619615 
L 178.225681 361.145661 
L 181.900091 362.449315 
L 184.349698 362.934203 
L 189.248912 363.795475 
L 190.473715 364.267567 
L 191.698518 364.986449 
L 195.372928 367.545107 
L 196.597732 368.083346 
L 197.822535 368.425979 
L 199.047339 368.594944 
L 200.272142 368.597559 
L 201.496945 368.415898 
L 202.721749 368.029344 
L 206.396159 366.567875 
L 208.233364 366.162002 
L 210.070569 366.003728 
L 211.295372 366.12265 
L 213.132577 366.600586 
L 215.582184 367.284376 
L 216.806987 367.337476 
L 218.031791 367.056679 
L 219.256594 366.386941 
L 220.481397 365.327754 
L 224.155808 361.508691 
L 225.380611 360.711723 
L 226.605414 360.249172 
L 227.830218 360.058728 
L 229.055021 360.093952 
L 230.279824 360.324735 
L 232.117029 360.976853 
L 233.954234 361.699632 
L 235.179038 361.979041 
L 236.403841 361.998241 
L 240.078251 361.578543 
L 241.303055 361.830504 
L 242.527858 362.31837 
L 244.977465 363.634127 
L 246.81467 364.63659 
L 248.039473 365.104773 
L 249.264277 365.322531 
L 253.551088 365.681578 
L 254.775892 366.156315 
L 258.450302 367.943325 
L 259.675105 368.162023 
L 260.899909 368.10324 
L 262.124712 367.791852 
L 263.349515 367.202658 
L 264.574319 366.341991 
L 268.248729 363.357902 
L 269.473532 362.883885 
L 270.085934 362.829724 
L 271.310737 363.058103 
L 273.147942 363.875032 
L 274.372746 364.409661 
L 275.597549 364.71387 
L 276.822352 364.661146 
L 278.047156 364.229653 
L 281.721566 362.321449 
L 282.333967 362.219008 
L 282.946369 362.230951 
L 284.171172 362.603941 
L 285.395976 363.372466 
L 288.457984 365.662458 
L 289.682788 366.167962 
L 290.907591 366.281042 
L 292.132394 366.044532 
L 293.357198 365.56519 
L 296.419206 363.953467 
L 297.64401 363.388336 
L 298.868813 363.045616 
L 300.093616 363.024565 
L 301.31842 363.293789 
L 307.442436 365.230147 
L 311.116847 366.19306 
L 312.34165 366.317221 
L 313.566453 366.253334 
L 315.403658 365.83101 
L 317.240863 365.37291 
L 318.465667 365.2912 
L 319.69047 365.478474 
L 321.527675 366.1457 
L 323.977282 367.140266 
L 325.814487 367.629446 
L 327.651692 367.835787 
L 329.488897 367.759947 
L 333.163307 367.238815 
L 335.000512 367.031015 
L 336.225316 367.035126 
L 337.450119 367.212641 
L 339.287324 367.765175 
L 341.736931 368.550978 
L 342.961734 368.697911 
L 344.186537 368.578906 
L 345.411341 368.186067 
L 346.636144 367.565031 
L 348.473349 366.336454 
L 353.372563 362.652422 
L 354.597366 362.285034 
L 355.822169 362.244966 
L 357.659374 362.588274 
L 359.496579 362.940527 
L 361.333785 362.995056 
L 363.17099 363.06112 
L 364.395793 363.338878 
L 366.232998 364.091313 
L 368.070203 364.828483 
L 369.907408 365.267245 
L 371.744613 365.50557 
L 372.969416 365.495416 
L 373.581818 365.417487 
L 373.581818 365.417487 
" style="fill:none;stroke:#55a868;stroke-linecap:round;stroke-width:1.5;"/>
   </g>
   <g id="patch_3">
    <path d="M 54 384.48 
L 54 51.84 
" style="fill:none;stroke:#ffffff;stroke-linecap:square;stroke-linejoin:miter;stroke-width:1.25;"/>
   </g>
   <g id="patch_4">
    <path d="M 388.8 384.48 
L 388.8 51.84 
" style="fill:none;stroke:#ffffff;stroke-linecap:square;stroke-linejoin:miter;stroke-width:1.25;"/>
   </g>
   <g id="patch_5">
    <path d="M 54 384.48 
L 388.8 384.48 
" style="fill:none;stroke:#ffffff;stroke-linecap:square;stroke-linejoin:miter;stroke-width:1.25;"/>
   </g>
   <g id="patch_6">
    <path d="M 54 51.84 
L 388.8 51.84 
" style="fill:none;stroke:#ffffff;stroke-linecap:square;stroke-linejoin:miter;stroke-width:1.25;"/>
   </g>
   <g id="legend_1">
    <g id="patch_7">
     <path d="M 192.23 109.144844 
L 381.1 109.144844 
Q 383.3 109.144844 383.3 106.944844 
L 383.3 59.54 
Q 383.3 57.34 381.1 57.34 
L 192.23 57.34 
Q 190.03 57.34 190.03 59.54 
L 190.03 106.944844 
Q 190.03 109.144844 192.23 109.144844 
z
" style="fill:#eaeaf2;opacity:0.8;stroke:#cccccc;stroke-linejoin:miter;"/>
    </g>
    <g id="line2d_15">
     <path d="M 194.43 66.248281 
L 216.43 66.248281 
" style="fill:none;stroke:#4c72b0;stroke-linecap:round;stroke-width:1.5;"/>
    </g>
    <g id="line2d_16"/>
    <g id="text_14">
     <!-- $ T = 1.0, \rho = 0.7, D = 0.00743$ -->
     <g style="fill:#262626;" transform="translate(225.23 70.098281)scale(0.11 -0.11)">
      <defs>
       <path d="M 5.90625 72.90625 
L 67.578125 72.90625 
L 66.015625 64.59375 
L 39.984375 64.59375 
L 27.484375 0 
L 17.578125 0 
L 30.078125 64.59375 
L 4.296875 64.59375 
z
" id="DejaVuSans-Oblique-84"/>
       <path d="M 10.59375 45.40625 
L 73.1875 45.40625 
L 73.1875 37.203125 
L 10.59375 37.203125 
z
M 10.59375 25.484375 
L 73.1875 25.484375 
L 73.1875 17.1875 
L 10.59375 17.1875 
z
" id="DejaVuSans-61"/>
       <path d="M 11.71875 12.40625 
L 22.015625 12.40625 
L 22.015625 4 
L 14.015625 -11.625 
L 7.71875 -11.625 
L 11.71875 4 
z
" id="DejaVuSans-44"/>
       <path d="M 18.796875 44.921875 
Q 22.703125 49.90625 30.953125 54.296875 
Q 34.1875 56 43.0625 56 
Q 53.03125 56 57.71875 48.09375 
Q 62.40625 40.1875 59.90625 27.296875 
Q 57.375 14.40625 49.609375 6.484375 
Q 41.84375 -1.421875 31.890625 -1.421875 
Q 25.875 -1.421875 22.015625 0.984375 
Q 18.171875 3.328125 16.3125 8.203125 
L 10.640625 -20.796875 
L 1.609375 -20.796875 
L 10.890625 26.8125 
Q 13.09375 38.09375 18.796875 44.921875 
z
M 50.59375 27.296875 
Q 52.484375 37.203125 49.515625 42.875 
Q 46.53125 48.484375 39.40625 48.484375 
Q 32.28125 48.484375 27.09375 42.875 
Q 21.921875 37.203125 20.015625 27.296875 
Q 18.0625 17.390625 21.046875 11.71875 
Q 24.03125 6.109375 31.15625 6.109375 
Q 38.28125 6.109375 43.453125 11.71875 
Q 48.640625 17.390625 50.59375 27.296875 
z
" id="DejaVuSans-Oblique-961"/>
       <path d="M 8.203125 72.90625 
L 55.078125 72.90625 
L 55.078125 68.703125 
L 28.609375 0 
L 18.3125 0 
L 43.21875 64.59375 
L 8.203125 64.59375 
z
" id="DejaVuSans-55"/>
       <path d="M 16.890625 72.90625 
L 38.09375 72.90625 
Q 54.984375 72.90625 63.59375 65.75 
Q 72.21875 58.59375 72.21875 44.484375 
Q 72.21875 35.15625 68.9375 26.53125 
Q 65.671875 17.921875 59.90625 12.015625 
Q 54.109375 5.953125 45.171875 2.96875 
Q 36.234375 0 24.03125 0 
L 2.6875 0 
z
M 25.203125 64.796875 
L 14.203125 8.109375 
L 27.09375 8.109375 
Q 43.65625 8.109375 52.734375 17.625 
Q 61.8125 27.15625 61.8125 44.484375 
Q 61.8125 54.984375 55.953125 59.890625 
Q 50.09375 64.796875 37.59375 64.796875 
z
" id="DejaVuSans-Oblique-68"/>
      </defs>
      <use transform="translate(0 0.78125)" xlink:href="#DejaVuSans-Oblique-84"/>
      <use transform="translate(80.566406 0.78125)" xlink:href="#DejaVuSans-61"/>
      <use transform="translate(183.837891 0.78125)" xlink:href="#DejaVuSans-49"/>
      <use transform="translate(247.460938 0.78125)" xlink:href="#DejaVuSans-46"/>
      <use transform="translate(279.248047 0.78125)" xlink:href="#DejaVuSans-48"/>
      <use transform="translate(342.871094 0.78125)" xlink:href="#DejaVuSans-44"/>
      <use transform="translate(394.140625 0.78125)" xlink:href="#DejaVuSans-Oblique-961"/>
      <use transform="translate(477.099609 0.78125)" xlink:href="#DejaVuSans-61"/>
      <use transform="translate(580.371094 0.78125)" xlink:href="#DejaVuSans-48"/>
      <use transform="translate(643.994141 0.78125)" xlink:href="#DejaVuSans-46"/>
      <use transform="translate(668.03125 0.78125)" xlink:href="#DejaVuSans-55"/>
      <use transform="translate(731.654297 0.78125)" xlink:href="#DejaVuSans-44"/>
      <use transform="translate(782.923828 0.78125)" xlink:href="#DejaVuSans-Oblique-68"/>
      <use transform="translate(879.408203 0.78125)" xlink:href="#DejaVuSans-61"/>
      <use transform="translate(982.679688 0.78125)" xlink:href="#DejaVuSans-48"/>
      <use transform="translate(1046.302734 0.78125)" xlink:href="#DejaVuSans-46"/>
      <use transform="translate(1078.089844 0.78125)" xlink:href="#DejaVuSans-48"/>
      <use transform="translate(1141.712891 0.78125)" xlink:href="#DejaVuSans-48"/>
      <use transform="translate(1205.335938 0.78125)" xlink:href="#DejaVuSans-55"/>
      <use transform="translate(1268.958984 0.78125)" xlink:href="#DejaVuSans-52"/>
      <use transform="translate(1332.582031 0.78125)" xlink:href="#DejaVuSans-51"/>
     </g>
    </g>
    <g id="line2d_17">
     <path d="M 194.43 82.416562 
L 216.43 82.416562 
" style="fill:none;stroke:#dd8452;stroke-linecap:round;stroke-width:1.5;"/>
    </g>
    <g id="line2d_18"/>
    <g id="text_15">
     <!-- $ T = 1.5, \rho = 0.7, D = 0.01308$ -->
     <g style="fill:#262626;" transform="translate(225.23 86.266562)scale(0.11 -0.11)">
      <defs>
       <path d="M 31.78125 34.625 
Q 24.75 34.625 20.71875 30.859375 
Q 16.703125 27.09375 16.703125 20.515625 
Q 16.703125 13.921875 20.71875 10.15625 
Q 24.75 6.390625 31.78125 6.390625 
Q 38.8125 6.390625 42.859375 10.171875 
Q 46.921875 13.96875 46.921875 20.515625 
Q 46.921875 27.09375 42.890625 30.859375 
Q 38.875 34.625 31.78125 34.625 
z
M 21.921875 38.8125 
Q 15.578125 40.375 12.03125 44.71875 
Q 8.5 49.078125 8.5 55.328125 
Q 8.5 64.0625 14.71875 69.140625 
Q 20.953125 74.21875 31.78125 74.21875 
Q 42.671875 74.21875 48.875 69.140625 
Q 55.078125 64.0625 55.078125 55.328125 
Q 55.078125 49.078125 51.53125 44.71875 
Q 48 40.375 41.703125 38.8125 
Q 48.828125 37.15625 52.796875 32.3125 
Q 56.78125 27.484375 56.78125 20.515625 
Q 56.78125 9.90625 50.3125 4.234375 
Q 43.84375 -1.421875 31.78125 -1.421875 
Q 19.734375 -1.421875 13.25 4.234375 
Q 6.78125 9.90625 6.78125 20.515625 
Q 6.78125 27.484375 10.78125 32.3125 
Q 14.796875 37.15625 21.921875 38.8125 
z
M 18.3125 54.390625 
Q 18.3125 48.734375 21.84375 45.5625 
Q 25.390625 42.390625 31.78125 42.390625 
Q 38.140625 42.390625 41.71875 45.5625 
Q 45.3125 48.734375 45.3125 54.390625 
Q 45.3125 60.0625 41.71875 63.234375 
Q 38.140625 66.40625 31.78125 66.40625 
Q 25.390625 66.40625 21.84375 63.234375 
Q 18.3125 60.0625 18.3125 54.390625 
z
" id="DejaVuSans-56"/>
      </defs>
      <use transform="translate(0 0.78125)" xlink:href="#DejaVuSans-Oblique-84"/>
      <use transform="translate(80.566406 0.78125)" xlink:href="#DejaVuSans-61"/>
      <use transform="translate(183.837891 0.78125)" xlink:href="#DejaVuSans-49"/>
      <use transform="translate(247.460938 0.78125)" xlink:href="#DejaVuSans-46"/>
      <use transform="translate(279.248047 0.78125)" xlink:href="#DejaVuSans-53"/>
      <use transform="translate(342.871094 0.78125)" xlink:href="#DejaVuSans-44"/>
      <use transform="translate(394.140625 0.78125)" xlink:href="#DejaVuSans-Oblique-961"/>
      <use transform="translate(477.099609 0.78125)" xlink:href="#DejaVuSans-61"/>
      <use transform="translate(580.371094 0.78125)" xlink:href="#DejaVuSans-48"/>
      <use transform="translate(643.994141 0.78125)" xlink:href="#DejaVuSans-46"/>
      <use transform="translate(668.03125 0.78125)" xlink:href="#DejaVuSans-55"/>
      <use transform="translate(731.654297 0.78125)" xlink:href="#DejaVuSans-44"/>
      <use transform="translate(782.923828 0.78125)" xlink:href="#DejaVuSans-Oblique-68"/>
      <use transform="translate(879.408203 0.78125)" xlink:href="#DejaVuSans-61"/>
      <use transform="translate(982.679688 0.78125)" xlink:href="#DejaVuSans-48"/>
      <use transform="translate(1046.302734 0.78125)" xlink:href="#DejaVuSans-46"/>
      <use transform="translate(1078.089844 0.78125)" xlink:href="#DejaVuSans-48"/>
      <use transform="translate(1141.712891 0.78125)" xlink:href="#DejaVuSans-49"/>
      <use transform="translate(1205.335938 0.78125)" xlink:href="#DejaVuSans-51"/>
      <use transform="translate(1268.958984 0.78125)" xlink:href="#DejaVuSans-48"/>
      <use transform="translate(1332.582031 0.78125)" xlink:href="#DejaVuSans-56"/>
     </g>
    </g>
    <g id="line2d_19">
     <path d="M 194.43 98.584844 
L 216.43 98.584844 
" style="fill:none;stroke:#55a868;stroke-linecap:round;stroke-width:1.5;"/>
    </g>
    <g id="line2d_20"/>
    <g id="text_16">
     <!-- $ T = 2.0, \rho = 0.7, D = 0.01515$ -->
     <g style="fill:#262626;" transform="translate(225.23 102.434844)scale(0.11 -0.11)">
      <use transform="translate(0 0.78125)" xlink:href="#DejaVuSans-Oblique-84"/>
      <use transform="translate(80.566406 0.78125)" xlink:href="#DejaVuSans-61"/>
      <use transform="translate(183.837891 0.78125)" xlink:href="#DejaVuSans-50"/>
      <use transform="translate(247.460938 0.78125)" xlink:href="#DejaVuSans-46"/>
      <use transform="translate(279.248047 0.78125)" xlink:href="#DejaVuSans-48"/>
      <use transform="translate(342.871094 0.78125)" xlink:href="#DejaVuSans-44"/>
      <use transform="translate(394.140625 0.78125)" xlink:href="#DejaVuSans-Oblique-961"/>
      <use transform="translate(477.099609 0.78125)" xlink:href="#DejaVuSans-61"/>
      <use transform="translate(580.371094 0.78125)" xlink:href="#DejaVuSans-48"/>
      <use transform="translate(643.994141 0.78125)" xlink:href="#DejaVuSans-46"/>
      <use transform="translate(668.03125 0.78125)" xlink:href="#DejaVuSans-55"/>
      <use transform="translate(731.654297 0.78125)" xlink:href="#DejaVuSans-44"/>
      <use transform="translate(782.923828 0.78125)" xlink:href="#DejaVuSans-Oblique-68"/>
      <use transform="translate(879.408203 0.78125)" xlink:href="#DejaVuSans-61"/>
      <use transform="translate(982.679688 0.78125)" xlink:href="#DejaVuSans-48"/>
      <use transform="translate(1046.302734 0.78125)" xlink:href="#DejaVuSans-46"/>
      <use transform="translate(1078.089844 0.78125)" xlink:href="#DejaVuSans-48"/>
      <use transform="translate(1141.712891 0.78125)" xlink:href="#DejaVuSans-49"/>
      <use transform="translate(1205.335938 0.78125)" xlink:href="#DejaVuSans-53"/>
      <use transform="translate(1268.958984 0.78125)" xlink:href="#DejaVuSans-49"/>
      <use transform="translate(1332.582031 0.78125)" xlink:href="#DejaVuSans-53"/>
     </g>
    </g>
   </g>
  </g>
 </g>
 <defs>
  <clipPath id="pb88991b3e3">
   <rect height="332.64" width="334.8" x="54" y="51.84"/>
  </clipPath>
 </defs>
</svg>
