<?xml version="1.0" encoding="utf-8" standalone="no"?>
<!DOCTYPE svg PUBLIC "-//W3C//DTD SVG 1.1//EN"
  "http://www.w3.org/Graphics/SVG/1.1/DTD/svg11.dtd">
<!-- Created with matplotlib (https://matplotlib.org/) -->
<svg height="432pt" version="1.1" viewBox="0 0 432 432" width="432pt" xmlns="http://www.w3.org/2000/svg" xmlns:xlink="http://www.w3.org/1999/xlink">
 <metadata>
  <rdf:RDF xmlns:cc="http://creativecommons.org/ns#" xmlns:dc="http://purl.org/dc/elements/1.1/" xmlns:rdf="http://www.w3.org/1999/02/22-rdf-syntax-ns#">
   <cc:Work>
    <dc:type rdf:resource="http://purl.org/dc/dcmitype/StillImage"/>
    <dc:date>2021-03-29T06:08:45.101043</dc:date>
    <dc:format>image/svg+xml</dc:format>
    <dc:creator>
     <cc:Agent>
      <dc:title>Matplotlib v3.3.3, https://matplotlib.org/</dc:title>
     </cc:Agent>
    </dc:creator>
   </cc:Work>
  </rdf:RDF>
 </metadata>
 <defs>
  <style type="text/css">*{stroke-linecap:butt;stroke-linejoin:round;}</style>
 </defs>
 <g id="figure_1">
  <g id="patch_1">
   <path d="M 0 432 
L 432 432 
L 432 0 
L 0 0 
z
" style="fill:#ffffff;"/>
  </g>
  <g id="axes_1">
   <g id="patch_2">
    <path d="M 54 384.48 
L 388.8 384.48 
L 388.8 51.84 
L 54 51.84 
z
" style="fill:#eaeaf2;"/>
   </g>
   <g id="matplotlib.axis_1">
    <g id="xtick_1">
     <g id="line2d_1">
      <path clip-path="url(#pe1d6e9400d)" d="M 69.218182 384.48 
L 69.218182 51.84 
" style="fill:none;stroke:#ffffff;stroke-linecap:round;"/>
     </g>
     <g id="text_1">
      <!-- 0 -->
      <g style="fill:#262626;" transform="translate(65.718807 402.338281)scale(0.11 -0.11)">
       <defs>
        <path d="M 31.78125 66.40625 
Q 24.171875 66.40625 20.328125 58.90625 
Q 16.5 51.421875 16.5 36.375 
Q 16.5 21.390625 20.328125 13.890625 
Q 24.171875 6.390625 31.78125 6.390625 
Q 39.453125 6.390625 43.28125 13.890625 
Q 47.125 21.390625 47.125 36.375 
Q 47.125 51.421875 43.28125 58.90625 
Q 39.453125 66.40625 31.78125 66.40625 
z
M 31.78125 74.21875 
Q 44.046875 74.21875 50.515625 64.515625 
Q 56.984375 54.828125 56.984375 36.375 
Q 56.984375 17.96875 50.515625 8.265625 
Q 44.046875 -1.421875 31.78125 -1.421875 
Q 19.53125 -1.421875 13.0625 8.265625 
Q 6.59375 17.96875 6.59375 36.375 
Q 6.59375 54.828125 13.0625 64.515625 
Q 19.53125 74.21875 31.78125 74.21875 
z
" id="DejaVuSans-48"/>
       </defs>
       <use xlink:href="#DejaVuSans-48"/>
      </g>
     </g>
    </g>
    <g id="xtick_2">
     <g id="line2d_2">
      <path clip-path="url(#pe1d6e9400d)" d="M 130.45835 384.48 
L 130.45835 51.84 
" style="fill:none;stroke:#ffffff;stroke-linecap:round;"/>
     </g>
     <g id="text_2">
      <!-- 1 -->
      <g style="fill:#262626;" transform="translate(126.958975 402.338281)scale(0.11 -0.11)">
       <defs>
        <path d="M 12.40625 8.296875 
L 28.515625 8.296875 
L 28.515625 63.921875 
L 10.984375 60.40625 
L 10.984375 69.390625 
L 28.421875 72.90625 
L 38.28125 72.90625 
L 38.28125 8.296875 
L 54.390625 8.296875 
L 54.390625 0 
L 12.40625 0 
z
" id="DejaVuSans-49"/>
       </defs>
       <use xlink:href="#DejaVuSans-49"/>
      </g>
     </g>
    </g>
    <g id="xtick_3">
     <g id="line2d_3">
      <path clip-path="url(#pe1d6e9400d)" d="M 191.698518 384.48 
L 191.698518 51.84 
" style="fill:none;stroke:#ffffff;stroke-linecap:round;"/>
     </g>
     <g id="text_3">
      <!-- 2 -->
      <g style="fill:#262626;" transform="translate(188.199143 402.338281)scale(0.11 -0.11)">
       <defs>
        <path d="M 19.1875 8.296875 
L 53.609375 8.296875 
L 53.609375 0 
L 7.328125 0 
L 7.328125 8.296875 
Q 12.9375 14.109375 22.625 23.890625 
Q 32.328125 33.6875 34.8125 36.53125 
Q 39.546875 41.84375 41.421875 45.53125 
Q 43.3125 49.21875 43.3125 52.78125 
Q 43.3125 58.59375 39.234375 62.25 
Q 35.15625 65.921875 28.609375 65.921875 
Q 23.96875 65.921875 18.8125 64.3125 
Q 13.671875 62.703125 7.8125 59.421875 
L 7.8125 69.390625 
Q 13.765625 71.78125 18.9375 73 
Q 24.125 74.21875 28.421875 74.21875 
Q 39.75 74.21875 46.484375 68.546875 
Q 53.21875 62.890625 53.21875 53.421875 
Q 53.21875 48.921875 51.53125 44.890625 
Q 49.859375 40.875 45.40625 35.40625 
Q 44.1875 33.984375 37.640625 27.21875 
Q 31.109375 20.453125 19.1875 8.296875 
z
" id="DejaVuSans-50"/>
       </defs>
       <use xlink:href="#DejaVuSans-50"/>
      </g>
     </g>
    </g>
    <g id="xtick_4">
     <g id="line2d_4">
      <path clip-path="url(#pe1d6e9400d)" d="M 252.938687 384.48 
L 252.938687 51.84 
" style="fill:none;stroke:#ffffff;stroke-linecap:round;"/>
     </g>
     <g id="text_4">
      <!-- 3 -->
      <g style="fill:#262626;" transform="translate(249.439312 402.338281)scale(0.11 -0.11)">
       <defs>
        <path d="M 40.578125 39.3125 
Q 47.65625 37.796875 51.625 33 
Q 55.609375 28.21875 55.609375 21.1875 
Q 55.609375 10.40625 48.1875 4.484375 
Q 40.765625 -1.421875 27.09375 -1.421875 
Q 22.515625 -1.421875 17.65625 -0.515625 
Q 12.796875 0.390625 7.625 2.203125 
L 7.625 11.71875 
Q 11.71875 9.328125 16.59375 8.109375 
Q 21.484375 6.890625 26.8125 6.890625 
Q 36.078125 6.890625 40.9375 10.546875 
Q 45.796875 14.203125 45.796875 21.1875 
Q 45.796875 27.640625 41.28125 31.265625 
Q 36.765625 34.90625 28.71875 34.90625 
L 20.21875 34.90625 
L 20.21875 43.015625 
L 29.109375 43.015625 
Q 36.375 43.015625 40.234375 45.921875 
Q 44.09375 48.828125 44.09375 54.296875 
Q 44.09375 59.90625 40.109375 62.90625 
Q 36.140625 65.921875 28.71875 65.921875 
Q 24.65625 65.921875 20.015625 65.03125 
Q 15.375 64.15625 9.8125 62.3125 
L 9.8125 71.09375 
Q 15.4375 72.65625 20.34375 73.4375 
Q 25.25 74.21875 29.59375 74.21875 
Q 40.828125 74.21875 47.359375 69.109375 
Q 53.90625 64.015625 53.90625 55.328125 
Q 53.90625 49.265625 50.4375 45.09375 
Q 46.96875 40.921875 40.578125 39.3125 
z
" id="DejaVuSans-51"/>
       </defs>
       <use xlink:href="#DejaVuSans-51"/>
      </g>
     </g>
    </g>
    <g id="xtick_5">
     <g id="line2d_5">
      <path clip-path="url(#pe1d6e9400d)" d="M 314.178855 384.48 
L 314.178855 51.84 
" style="fill:none;stroke:#ffffff;stroke-linecap:round;"/>
     </g>
     <g id="text_5">
      <!-- 4 -->
      <g style="fill:#262626;" transform="translate(310.67948 402.338281)scale(0.11 -0.11)">
       <defs>
        <path d="M 37.796875 64.3125 
L 12.890625 25.390625 
L 37.796875 25.390625 
z
M 35.203125 72.90625 
L 47.609375 72.90625 
L 47.609375 25.390625 
L 58.015625 25.390625 
L 58.015625 17.1875 
L 47.609375 17.1875 
L 47.609375 0 
L 37.796875 0 
L 37.796875 17.1875 
L 4.890625 17.1875 
L 4.890625 26.703125 
z
" id="DejaVuSans-52"/>
       </defs>
       <use xlink:href="#DejaVuSans-52"/>
      </g>
     </g>
    </g>
    <g id="xtick_6">
     <g id="line2d_6">
      <path clip-path="url(#pe1d6e9400d)" d="M 375.419023 384.48 
L 375.419023 51.84 
" style="fill:none;stroke:#ffffff;stroke-linecap:round;"/>
     </g>
     <g id="text_6">
      <!-- 5 -->
      <g style="fill:#262626;" transform="translate(371.919648 402.338281)scale(0.11 -0.11)">
       <defs>
        <path d="M 10.796875 72.90625 
L 49.515625 72.90625 
L 49.515625 64.59375 
L 19.828125 64.59375 
L 19.828125 46.734375 
Q 21.96875 47.46875 24.109375 47.828125 
Q 26.265625 48.1875 28.421875 48.1875 
Q 40.625 48.1875 47.75 41.5 
Q 54.890625 34.8125 54.890625 23.390625 
Q 54.890625 11.625 47.5625 5.09375 
Q 40.234375 -1.421875 26.90625 -1.421875 
Q 22.3125 -1.421875 17.546875 -0.640625 
Q 12.796875 0.140625 7.71875 1.703125 
L 7.71875 11.625 
Q 12.109375 9.234375 16.796875 8.0625 
Q 21.484375 6.890625 26.703125 6.890625 
Q 35.15625 6.890625 40.078125 11.328125 
Q 45.015625 15.765625 45.015625 23.390625 
Q 45.015625 31 40.078125 35.4375 
Q 35.15625 39.890625 26.703125 39.890625 
Q 22.75 39.890625 18.8125 39.015625 
Q 14.890625 38.140625 10.796875 36.28125 
z
" id="DejaVuSans-53"/>
       </defs>
       <use xlink:href="#DejaVuSans-53"/>
      </g>
     </g>
    </g>
    <g id="text_7">
     <!-- $t$ -->
     <g style="fill:#262626;" transform="translate(219 417.744062)scale(0.12 -0.12)">
      <defs>
       <path d="M 42.28125 54.6875 
L 40.921875 47.703125 
L 23 47.703125 
L 17.1875 18.015625 
Q 16.890625 16.359375 16.75 15.234375 
Q 16.609375 14.109375 16.609375 13.484375 
Q 16.609375 10.359375 18.484375 8.9375 
Q 20.359375 7.515625 24.515625 7.515625 
L 33.59375 7.515625 
L 32.078125 0 
L 23.484375 0 
Q 15.484375 0 11.546875 3.125 
Q 7.625 6.25 7.625 12.59375 
Q 7.625 13.71875 7.765625 15.0625 
Q 7.90625 16.40625 8.203125 18.015625 
L 14.015625 47.703125 
L 6.390625 47.703125 
L 7.8125 54.6875 
L 15.28125 54.6875 
L 18.3125 70.21875 
L 27.296875 70.21875 
L 24.3125 54.6875 
z
" id="DejaVuSans-Oblique-116"/>
      </defs>
      <use transform="translate(0 0.78125)" xlink:href="#DejaVuSans-Oblique-116"/>
     </g>
    </g>
   </g>
   <g id="matplotlib.axis_2">
    <g id="ytick_1">
     <g id="line2d_7">
      <path clip-path="url(#pe1d6e9400d)" d="M 54 365.536499 
L 388.8 365.536499 
" style="fill:none;stroke:#ffffff;stroke-linecap:round;"/>
     </g>
     <g id="text_8">
      <!-- 0.0 -->
      <g style="fill:#262626;" transform="translate(27.006563 369.715639)scale(0.11 -0.11)">
       <defs>
        <path d="M 10.6875 12.40625 
L 21 12.40625 
L 21 0 
L 10.6875 0 
z
" id="DejaVuSans-46"/>
       </defs>
       <use xlink:href="#DejaVuSans-48"/>
       <use x="63.623047" xlink:href="#DejaVuSans-46"/>
       <use x="95.410156" xlink:href="#DejaVuSans-48"/>
      </g>
     </g>
    </g>
    <g id="ytick_2">
     <g id="line2d_8">
      <path clip-path="url(#pe1d6e9400d)" d="M 54 310.987212 
L 388.8 310.987212 
" style="fill:none;stroke:#ffffff;stroke-linecap:round;"/>
     </g>
     <g id="text_9">
      <!-- 0.1 -->
      <g style="fill:#262626;" transform="translate(27.006563 315.166353)scale(0.11 -0.11)">
       <use xlink:href="#DejaVuSans-48"/>
       <use x="63.623047" xlink:href="#DejaVuSans-46"/>
       <use x="95.410156" xlink:href="#DejaVuSans-49"/>
      </g>
     </g>
    </g>
    <g id="ytick_3">
     <g id="line2d_9">
      <path clip-path="url(#pe1d6e9400d)" d="M 54 256.437926 
L 388.8 256.437926 
" style="fill:none;stroke:#ffffff;stroke-linecap:round;"/>
     </g>
     <g id="text_10">
      <!-- 0.2 -->
      <g style="fill:#262626;" transform="translate(27.006563 260.617066)scale(0.11 -0.11)">
       <use xlink:href="#DejaVuSans-48"/>
       <use x="63.623047" xlink:href="#DejaVuSans-46"/>
       <use x="95.410156" xlink:href="#DejaVuSans-50"/>
      </g>
     </g>
    </g>
    <g id="ytick_4">
     <g id="line2d_10">
      <path clip-path="url(#pe1d6e9400d)" d="M 54 201.888639 
L 388.8 201.888639 
" style="fill:none;stroke:#ffffff;stroke-linecap:round;"/>
     </g>
     <g id="text_11">
      <!-- 0.3 -->
      <g style="fill:#262626;" transform="translate(27.006563 206.06778)scale(0.11 -0.11)">
       <use xlink:href="#DejaVuSans-48"/>
       <use x="63.623047" xlink:href="#DejaVuSans-46"/>
       <use x="95.410156" xlink:href="#DejaVuSans-51"/>
      </g>
     </g>
    </g>
    <g id="ytick_5">
     <g id="line2d_11">
      <path clip-path="url(#pe1d6e9400d)" d="M 54 147.339353 
L 388.8 147.339353 
" style="fill:none;stroke:#ffffff;stroke-linecap:round;"/>
     </g>
     <g id="text_12">
      <!-- 0.4 -->
      <g style="fill:#262626;" transform="translate(27.006563 151.518493)scale(0.11 -0.11)">
       <use xlink:href="#DejaVuSans-48"/>
       <use x="63.623047" xlink:href="#DejaVuSans-46"/>
       <use x="95.410156" xlink:href="#DejaVuSans-52"/>
      </g>
     </g>
    </g>
    <g id="ytick_6">
     <g id="line2d_12">
      <path clip-path="url(#pe1d6e9400d)" d="M 54 92.790066 
L 388.8 92.790066 
" style="fill:none;stroke:#ffffff;stroke-linecap:round;"/>
     </g>
     <g id="text_13">
      <!-- 0.5 -->
      <g style="fill:#262626;" transform="translate(27.006563 96.969207)scale(0.11 -0.11)">
       <use xlink:href="#DejaVuSans-48"/>
       <use x="63.623047" xlink:href="#DejaVuSans-46"/>
       <use x="95.410156" xlink:href="#DejaVuSans-53"/>
      </g>
     </g>
    </g>
    <g id="text_14">
     <!-- $&lt;\vec{v}(0) \cdot \vec{v}(t)&gt;$ -->
     <g style="fill:#262626;" transform="translate(20.510937 259.8)rotate(-90)scale(0.12 -0.12)">
      <defs>
       <path d="M 73.1875 49.21875 
L 22.796875 31.296875 
L 73.1875 13.484375 
L 73.1875 4.59375 
L 10.59375 27.296875 
L 10.59375 35.40625 
L 73.1875 58.109375 
z
" id="DejaVuSans-60"/>
       <path d="M -47.015625 63.53125 
L -47.015625 68.40625 
L -10.84375 68.40625 
L -17.28125 75.984375 
L -11.140625 75.984375 
L -2.59375 65.96875 
L -11.140625 55.953125 
L -17.28125 55.953125 
L -10.84375 63.53125 
z
" id="DejaVuSans-8407"/>
       <path d="M 7.171875 54.6875 
L 16.703125 54.6875 
L 24.703125 8.203125 
L 50.875 54.6875 
L 60.40625 54.6875 
L 29.296875 0 
L 17.1875 0 
z
" id="DejaVuSans-Oblique-118"/>
       <path d="M 31 75.875 
Q 24.46875 64.65625 21.28125 53.65625 
Q 18.109375 42.671875 18.109375 31.390625 
Q 18.109375 20.125 21.3125 9.0625 
Q 24.515625 -2 31 -13.1875 
L 23.1875 -13.1875 
Q 15.875 -1.703125 12.234375 9.375 
Q 8.59375 20.453125 8.59375 31.390625 
Q 8.59375 42.28125 12.203125 53.3125 
Q 15.828125 64.359375 23.1875 75.875 
z
" id="DejaVuSans-40"/>
       <path d="M 8.015625 75.875 
L 15.828125 75.875 
Q 23.140625 64.359375 26.78125 53.3125 
Q 30.421875 42.28125 30.421875 31.390625 
Q 30.421875 20.453125 26.78125 9.375 
Q 23.140625 -1.703125 15.828125 -13.1875 
L 8.015625 -13.1875 
Q 14.5 -2 17.703125 9.0625 
Q 20.90625 20.125 20.90625 31.390625 
Q 20.90625 42.671875 17.703125 53.65625 
Q 14.5 64.65625 8.015625 75.875 
z
" id="DejaVuSans-41"/>
       <path d="M 10.6875 40.921875 
L 21 40.921875 
L 21 28.515625 
L 10.6875 28.515625 
z
" id="DejaVuSans-8901"/>
       <path d="M 10.59375 49.21875 
L 10.59375 58.109375 
L 73.1875 35.40625 
L 73.1875 27.296875 
L 10.59375 4.59375 
L 10.59375 13.484375 
L 60.890625 31.296875 
z
" id="DejaVuSans-62"/>
      </defs>
      <use transform="translate(19.482422 0.78125)" xlink:href="#DejaVuSans-60"/>
      <use transform="translate(184.564453 12.015625)" xlink:href="#DejaVuSans-8407"/>
      <use transform="translate(122.753906 0.78125)" xlink:href="#DejaVuSans-Oblique-118"/>
      <use transform="translate(181.933594 0.78125)" xlink:href="#DejaVuSans-40"/>
      <use transform="translate(220.947266 0.78125)" xlink:href="#DejaVuSans-48"/>
      <use transform="translate(284.570312 0.78125)" xlink:href="#DejaVuSans-41"/>
      <use transform="translate(343.066406 0.78125)" xlink:href="#DejaVuSans-8901"/>
      <use transform="translate(456.146484 12.015625)" xlink:href="#DejaVuSans-8407"/>
      <use transform="translate(394.335938 0.78125)" xlink:href="#DejaVuSans-Oblique-118"/>
      <use transform="translate(453.515625 0.78125)" xlink:href="#DejaVuSans-40"/>
      <use transform="translate(492.529297 0.78125)" xlink:href="#DejaVuSans-Oblique-116"/>
      <use transform="translate(531.738281 0.78125)" xlink:href="#DejaVuSans-41"/>
      <use transform="translate(590.234375 0.78125)" xlink:href="#DejaVuSans-62"/>
     </g>
    </g>
   </g>
   <g id="line2d_13">
    <path clip-path="url(#pe1d6e9400d)" d="M 69.218182 168.214749 
L 69.830584 344.711642 
L 70.442985 361.726253 
L 71.055387 359.473505 
L 72.28019 362.214637 
L 72.892592 363.184069 
L 73.504994 363.279873 
L 74.117395 362.59504 
L 74.729797 363.17363 
L 75.342199 364.299291 
L 76.567002 365.287401 
L 77.791805 365.071321 
L 78.404207 364.670654 
L 79.016609 364.731885 
L 79.62901 364.528835 
L 80.241412 365.31913 
L 80.853814 365.205636 
L 81.466215 364.16402 
L 82.078617 364.834387 
L 82.691019 364.845809 
L 83.303421 365.266835 
L 83.915822 365.475642 
L 84.528224 365.927737 
L 85.753027 366.303928 
L 86.365429 367.201523 
L 86.977831 367.281609 
L 88.202634 365.861548 
L 88.815036 365.826136 
L 89.427437 365.601939 
L 90.039839 365.586617 
L 90.652241 365.78327 
L 91.264642 365.427035 
L 91.877044 365.341586 
L 92.489446 365.383541 
L 93.101847 366.052028 
L 93.714249 366.465054 
L 94.326651 366.155536 
L 95.551454 365.03942 
L 96.163856 365.384246 
L 96.776258 365.307317 
L 97.388659 365.101847 
L 98.001061 364.457897 
L 98.613463 364.821272 
L 99.225864 365.481071 
L 100.450668 365.872004 
L 101.063069 365.07135 
L 101.675471 364.512801 
L 102.900274 365.779642 
L 103.512676 364.820273 
L 104.125078 364.158297 
L 104.737479 364.543276 
L 105.962283 364.843488 
L 106.574684 365.358185 
L 107.187086 364.690772 
L 107.799488 365.147273 
L 108.41189 365.077327 
L 109.024291 365.176755 
L 109.636693 365.54596 
L 110.861496 365.298894 
L 111.473898 365.524891 
L 112.0863 365.412176 
L 112.698701 364.899766 
L 113.311103 364.922326 
L 113.923505 364.313193 
L 114.535906 363.946073 
L 115.76071 366.963367 
L 116.373111 366.888025 
L 116.985513 365.49705 
L 117.597915 364.936275 
L 118.210316 365.42275 
L 118.822718 366.179963 
L 119.43512 365.288908 
L 120.047521 364.825893 
L 120.659923 364.734354 
L 121.272325 365.453537 
L 121.884727 365.066602 
L 122.497128 364.222593 
L 123.721932 365.176734 
L 124.334333 366.007911 
L 124.946735 365.01743 
L 125.559137 364.479835 
L 126.171538 365.018023 
L 126.78394 365.248515 
L 127.396342 364.497696 
L 128.008743 365.605349 
L 128.621145 366.101499 
L 129.233547 365.032816 
L 129.845948 364.387192 
L 130.45835 365.119916 
L 131.070752 365.657848 
L 131.683153 365.617942 
L 132.295555 365.46635 
L 132.907957 365.956343 
L 134.13276 365.262691 
L 134.745162 365.033023 
L 135.357564 365.445696 
L 136.582367 364.700124 
L 137.80717 367.74194 
L 138.419572 366.727284 
L 139.031974 364.89117 
L 139.644375 364.544579 
L 140.256777 364.926911 
L 140.869179 365.140419 
L 141.48158 365.232801 
L 142.093982 364.089843 
L 142.706384 363.546889 
L 143.318785 365.16795 
L 143.931187 364.778792 
L 144.543589 363.944766 
L 145.15599 363.863748 
L 145.768392 365.538002 
L 146.380794 366.260101 
L 147.605597 365.554434 
L 148.217999 365.661925 
L 149.442802 366.094193 
L 150.055204 365.702961 
L 150.667606 365.489258 
L 151.280007 366.512732 
L 153.117212 365.287002 
L 153.729614 366.453196 
L 154.342016 366.3669 
L 155.566819 366.460618 
L 156.179221 365.244522 
L 156.791622 364.298947 
L 158.628828 365.948177 
L 159.241229 365.469866 
L 159.853631 364.813852 
L 160.466033 365.357027 
L 161.078434 365.680306 
L 161.690836 365.340665 
L 162.303238 365.97232 
L 163.528041 365.949063 
L 164.140443 365.665084 
L 164.752844 366.505976 
L 165.365246 367.540711 
L 165.977648 366.870661 
L 166.590049 367.019759 
L 167.202451 366.907625 
L 167.814853 365.718778 
L 168.427254 365.167952 
L 169.039656 365.506666 
L 169.652058 366.280184 
L 170.264459 366.577353 
L 170.876861 365.087469 
L 171.489263 364.263267 
L 172.101665 365.526759 
L 172.714066 365.990095 
L 173.93887 365.756647 
L 174.551271 366.488544 
L 175.163673 366.968666 
L 175.776075 366.693217 
L 176.388476 365.488637 
L 177.61328 365.420269 
L 178.225681 364.548573 
L 178.838083 364.713465 
L 179.450485 365.547048 
L 180.062886 365.817894 
L 180.675288 365.245775 
L 181.28769 364.943156 
L 181.900091 365.218717 
L 182.512493 366.075242 
L 183.124895 366.407266 
L 183.737297 366.086334 
L 184.349698 364.974332 
L 185.574502 365.287489 
L 186.186903 365.135739 
L 186.799305 365.413916 
L 187.411707 365.32807 
L 188.024108 366.07918 
L 188.63651 365.278526 
L 189.248912 364.868025 
L 190.473715 365.417209 
L 191.086117 365.079454 
L 191.698518 364.467804 
L 192.31092 364.64697 
L 192.923322 365.187369 
L 194.148125 365.492995 
L 194.760527 366.012125 
L 195.372928 365.848527 
L 195.98533 366.379291 
L 196.597732 366.645119 
L 197.210134 366.069979 
L 197.822535 364.97067 
L 198.434937 365.735174 
L 199.047339 365.718926 
L 200.272142 364.650922 
L 202.109347 364.764969 
L 202.721749 365.526861 
L 203.33415 365.266167 
L 203.946552 365.503356 
L 204.558954 365.157192 
L 205.171355 365.625536 
L 205.783757 365.611287 
L 207.00856 364.75739 
L 207.620962 364.441732 
L 208.233364 366.009978 
L 208.845766 365.905652 
L 209.458167 365.260404 
L 210.070569 364.856388 
L 210.682971 365.097849 
L 211.295372 366.151609 
L 211.907774 366.006454 
L 212.520176 365.548401 
L 213.132577 365.701016 
L 213.744979 365.361828 
L 214.969782 365.557625 
L 215.582184 365.032002 
L 216.194586 365.375697 
L 216.806987 366.210749 
L 217.419389 365.974535 
L 218.031791 365.200841 
L 218.644192 366.555873 
L 219.256594 366.614653 
L 219.868996 365.303725 
L 220.481397 365.11939 
L 221.706201 367.14898 
L 222.318603 366.736933 
L 223.543406 365.179116 
L 224.155808 365.021754 
L 224.768209 365.476504 
L 225.380611 366.266788 
L 226.605414 366.111257 
L 227.217816 366.521407 
L 227.830218 366.768236 
L 228.442619 366.811386 
L 229.055021 366.420313 
L 229.667423 367.251222 
L 230.279824 366.962134 
L 230.892226 366.844748 
L 231.504628 365.826712 
L 232.729431 365.057716 
L 233.341833 364.902653 
L 233.954234 365.681276 
L 234.566636 366.857154 
L 235.179038 366.819967 
L 235.79144 366.42711 
L 237.016243 364.545998 
L 237.628645 365.136449 
L 238.853448 365.444237 
L 240.690653 365.050351 
L 241.303055 364.742297 
L 241.915456 363.991078 
L 242.527858 364.348651 
L 243.752661 366.889785 
L 244.977465 364.890672 
L 245.589866 365.402562 
L 246.202268 366.627258 
L 246.81467 366.991912 
L 247.427072 365.946808 
L 249.264277 365.428992 
L 249.876678 366.360626 
L 250.48908 366.531149 
L 251.101482 366.169375 
L 251.713883 366.731419 
L 252.326285 366.556636 
L 252.938687 366.216118 
L 254.16349 364.591543 
L 254.775892 365.529751 
L 255.388293 365.781743 
L 256.000695 365.197626 
L 256.613097 365.169706 
L 257.8379 365.710584 
L 258.450302 365.666805 
L 259.062703 365.31573 
L 259.675105 366.273203 
L 260.287507 366.678743 
L 260.899909 366.087405 
L 261.51231 364.588155 
L 262.124712 364.079911 
L 262.737114 364.884934 
L 263.349515 365.23311 
L 264.574319 365.292174 
L 265.18672 366.35042 
L 265.799122 366.153307 
L 266.411524 365.613429 
L 267.023925 365.756742 
L 267.636327 365.483517 
L 268.248729 365.760924 
L 268.86113 366.372623 
L 269.473532 366.272859 
L 270.085934 365.783372 
L 270.698335 365.442037 
L 271.310737 364.904107 
L 271.923139 365.907729 
L 272.535541 366.337501 
L 273.760344 364.904247 
L 274.372746 364.620691 
L 274.985147 365.56781 
L 276.209951 366.788315 
L 276.822352 366.827249 
L 277.434754 366.238296 
L 278.047156 366.605507 
L 278.659557 366.501133 
L 279.884361 365.29961 
L 280.496762 364.839898 
L 281.109164 365.22281 
L 281.721566 365.198329 
L 282.333967 364.941532 
L 282.946369 365.371402 
L 284.171172 365.468179 
L 284.783574 365.685361 
L 285.395976 365.513128 
L 286.008378 365.874435 
L 286.620779 365.935922 
L 287.233181 365.341001 
L 287.845583 365.131949 
L 288.457984 365.192822 
L 289.070386 365.782561 
L 289.682788 365.739739 
L 290.295189 365.321778 
L 290.907591 365.073368 
L 291.519993 364.458072 
L 292.132394 364.793279 
L 292.744796 365.288233 
L 293.357198 365.34055 
L 293.969599 365.069993 
L 294.582001 365.120991 
L 295.194403 365.378095 
L 295.806804 365.403504 
L 296.419206 365.967713 
L 297.031608 365.499594 
L 297.64401 364.28139 
L 298.256411 364.539178 
L 298.868813 364.556751 
L 299.481215 366.028512 
L 300.093616 366.825687 
L 301.31842 365.737225 
L 301.930821 366.234971 
L 302.543223 366.45292 
L 303.155625 365.987281 
L 303.768026 366.385929 
L 304.380428 366.955118 
L 304.99283 367.180047 
L 305.605231 367.655802 
L 306.217633 367.813541 
L 306.830035 366.330683 
L 307.442436 365.891079 
L 308.66724 365.466656 
L 309.279641 365.041062 
L 309.892043 364.258685 
L 310.504445 364.05394 
L 311.116847 363.665048 
L 311.729248 365.136886 
L 312.34165 366.070672 
L 312.954052 365.998069 
L 313.566453 365.042848 
L 314.178855 364.832543 
L 314.791257 364.369702 
L 315.403658 364.152399 
L 316.01606 364.777226 
L 316.628462 364.931198 
L 317.240863 366.196801 
L 317.853265 365.756792 
L 318.465667 364.585924 
L 319.078068 364.981349 
L 319.69047 365.601101 
L 320.302872 365.1378 
L 320.915273 365.096736 
L 321.527675 365.586874 
L 322.140077 364.280444 
L 322.752479 363.861594 
L 323.36488 364.358575 
L 323.977282 366.007104 
L 324.589684 366.908529 
L 325.202085 366.118016 
L 326.426889 365.361192 
L 327.03929 365.400066 
L 327.651692 365.804409 
L 328.264094 365.268784 
L 328.876495 365.100768 
L 329.488897 366.17196 
L 330.101299 365.59105 
L 330.7137 364.571617 
L 331.938504 366.266724 
L 332.550905 366.36036 
L 333.163307 366.149777 
L 333.775709 366.204121 
L 334.38811 366.014117 
L 335.000512 364.684658 
L 335.612914 364.210509 
L 336.225316 363.89956 
L 336.837717 364.274275 
L 337.450119 364.059993 
L 338.062521 364.029422 
L 339.287324 366.004981 
L 339.899726 365.817006 
L 340.512127 366.156768 
L 341.124529 366.073771 
L 342.349332 364.576514 
L 343.574136 363.610742 
L 344.798939 365.573446 
L 345.411341 365.511045 
L 346.023742 366.023561 
L 346.636144 365.642946 
L 347.248546 365.125117 
L 347.860948 365.882362 
L 348.473349 365.268666 
L 349.085751 365.077489 
L 349.698153 365.931751 
L 350.310554 365.712847 
L 350.922956 365.187529 
L 351.535358 364.418496 
L 352.147759 364.376367 
L 352.760161 364.775943 
L 353.372563 364.259973 
L 353.984964 364.294216 
L 354.597366 364.485752 
L 355.209768 365.439049 
L 355.822169 365.97899 
L 356.434571 365.022013 
L 357.046973 364.732652 
L 358.271776 365.814753 
L 358.884178 366.034484 
L 359.496579 366.017571 
L 360.721383 364.877154 
L 361.333785 364.887226 
L 361.946186 365.023324 
L 362.558588 364.056407 
L 363.17099 363.454343 
L 363.783391 363.522338 
L 364.395793 365.32739 
L 365.008195 366.047433 
L 365.620596 366.043183 
L 366.232998 366.25644 
L 366.8454 365.221714 
L 367.457801 365.173998 
L 368.070203 365.812818 
L 368.682605 365.720524 
L 369.295006 365.386504 
L 369.907408 366.382822 
L 370.51981 366.2688 
L 371.132211 365.214056 
L 371.744613 364.608645 
L 372.357015 364.910631 
L 372.969416 365.724619 
L 373.581818 365.966254 
L 373.581818 365.966254 
" style="fill:none;stroke:#4c72b0;stroke-linecap:round;stroke-width:1.5;"/>
   </g>
   <g id="line2d_14">
    <path clip-path="url(#pe1d6e9400d)" d="M 69.218182 116.645044 
L 69.830584 333.327148 
L 70.442985 350.360039 
L 71.055387 353.312694 
L 71.667789 358.071717 
L 72.28019 360.965219 
L 73.504994 359.754978 
L 74.117395 360.931202 
L 74.729797 364.029683 
L 75.342199 363.928012 
L 76.567002 361.347724 
L 77.179404 360.773046 
L 77.791805 362.108669 
L 78.404207 362.333735 
L 79.016609 361.644331 
L 80.241412 363.406783 
L 80.853814 362.390336 
L 81.466215 363.338677 
L 82.078617 365.47837 
L 82.691019 366.005176 
L 83.303421 366.691601 
L 83.915822 366.583665 
L 84.528224 365.634584 
L 85.140626 365.479288 
L 86.365429 365.798025 
L 86.977831 365.518187 
L 87.590232 364.934217 
L 88.202634 365.023944 
L 88.815036 365.480807 
L 89.427437 366.733818 
L 90.039839 366.697194 
L 91.264642 365.063457 
L 91.877044 366.659933 
L 92.489446 367.571036 
L 93.714249 367.054713 
L 94.326651 367.115155 
L 94.939052 367.8543 
L 95.551454 367.972678 
L 96.776258 365.332232 
L 97.388659 365.360363 
L 98.001061 366.7247 
L 98.613463 365.927483 
L 99.225864 364.149502 
L 99.838266 364.726296 
L 100.450668 364.935386 
L 101.063069 362.602982 
L 102.287873 365.861613 
L 102.900274 365.35415 
L 103.512676 365.084562 
L 104.125078 365.622091 
L 104.737479 366.620971 
L 105.349881 365.762286 
L 106.574684 364.943826 
L 107.187086 364.837673 
L 107.799488 365.5757 
L 108.41189 365.098011 
L 109.024291 365.014423 
L 109.636693 364.6203 
L 110.861496 365.782444 
L 111.473898 365.906585 
L 112.0863 365.428892 
L 112.698701 365.626561 
L 113.311103 366.094744 
L 113.923505 366.350495 
L 114.535906 365.882236 
L 115.148308 365.166799 
L 115.76071 365.539542 
L 116.985513 367.086811 
L 117.597915 366.44752 
L 118.210316 364.989791 
L 118.822718 363.859382 
L 119.43512 365.773502 
L 120.047521 365.557067 
L 120.659923 363.9658 
L 121.272325 364.350687 
L 121.884727 365.529772 
L 123.721932 366.136088 
L 124.334333 365.769574 
L 124.946735 365.833131 
L 125.559137 365.458658 
L 126.171538 364.409547 
L 126.78394 365.58428 
L 127.396342 365.118142 
L 128.008743 365.075819 
L 128.621145 366.395307 
L 129.233547 365.43752 
L 129.845948 365.130633 
L 130.45835 364.509879 
L 131.683153 365.950888 
L 132.295555 364.84822 
L 132.907957 365.682521 
L 133.520359 366.779504 
L 134.13276 367.148083 
L 134.745162 365.88882 
L 135.357564 365.532792 
L 135.969965 364.612944 
L 136.582367 365.232024 
L 137.194769 367.045512 
L 137.80717 366.150446 
L 139.031974 365.723161 
L 139.644375 364.857808 
L 140.256777 365.068437 
L 140.869179 364.768729 
L 141.48158 365.654693 
L 142.093982 366.24183 
L 142.706384 366.587243 
L 143.318785 365.130903 
L 143.931187 364.174807 
L 144.543589 364.674162 
L 145.768392 366.666748 
L 146.380794 366.380405 
L 146.993196 365.914802 
L 147.605597 366.851105 
L 148.217999 366.346101 
L 148.830401 366.149442 
L 149.442802 364.717004 
L 150.055204 363.760534 
L 151.280007 366.533102 
L 151.892409 366.374205 
L 153.117212 365.330945 
L 153.729614 365.846052 
L 154.342016 365.941991 
L 154.954417 366.264542 
L 155.566819 366.265749 
L 156.179221 365.661541 
L 157.404024 367.112634 
L 158.016426 367.885653 
L 158.628828 365.956709 
L 159.241229 365.559607 
L 159.853631 365.749908 
L 160.466033 366.184144 
L 161.078434 365.980045 
L 161.690836 365.084296 
L 162.303238 364.926073 
L 162.915639 364.257972 
L 163.528041 364.919125 
L 164.140443 364.604329 
L 165.977648 365.444074 
L 166.590049 365.794339 
L 167.202451 365.658954 
L 167.814853 365.366167 
L 168.427254 364.739427 
L 169.039656 364.769073 
L 169.652058 365.802464 
L 170.264459 365.564538 
L 170.876861 365.82665 
L 172.101665 364.976882 
L 172.714066 365.745103 
L 173.326468 367.199519 
L 173.93887 367.002905 
L 175.163673 365.149384 
L 175.776075 366.104452 
L 177.000878 364.856917 
L 177.61328 365.721447 
L 178.225681 365.532454 
L 178.838083 364.617638 
L 179.450485 365.304709 
L 180.062886 366.181062 
L 180.675288 365.320582 
L 181.900091 364.472483 
L 182.512493 366.114298 
L 183.124895 366.893492 
L 183.737297 366.727183 
L 184.349698 364.856128 
L 184.9621 363.808011 
L 185.574502 363.161509 
L 186.799305 365.678839 
L 187.411707 366.051866 
L 188.63651 364.334361 
L 189.248912 363.813151 
L 189.861313 364.85107 
L 190.473715 364.985569 
L 191.086117 364.980719 
L 191.698518 365.585986 
L 192.31092 365.329046 
L 192.923322 364.782639 
L 194.148125 367.6255 
L 194.760527 366.743844 
L 195.372928 365.666061 
L 195.98533 365.629601 
L 196.597732 366.686887 
L 197.822535 366.021592 
L 199.047339 365.426887 
L 199.65974 365.700567 
L 200.272142 364.898165 
L 200.884544 365.026708 
L 201.496945 365.909257 
L 202.109347 365.859484 
L 202.721749 366.936638 
L 203.33415 366.935189 
L 203.946552 365.690654 
L 204.558954 365.085755 
L 205.171355 365.937954 
L 205.783757 365.96142 
L 206.396159 367.48544 
L 207.00856 366.980413 
L 207.620962 365.664598 
L 208.845766 366.634951 
L 209.458167 366.050481 
L 210.070569 365.753372 
L 210.682971 365.960457 
L 211.295372 366.5455 
L 211.907774 368.199621 
L 213.132577 365.874442 
L 213.744979 366.283227 
L 214.357381 366.244126 
L 214.969782 364.874149 
L 216.194586 364.588958 
L 216.806987 364.277969 
L 217.419389 365.789845 
L 218.031791 366.58005 
L 218.644192 365.362655 
L 219.256594 365.73249 
L 219.868996 365.433882 
L 220.481397 364.156419 
L 221.093799 364.393522 
L 222.318603 366.14824 
L 222.931004 366.374982 
L 223.543406 365.69804 
L 224.155808 364.16492 
L 224.768209 364.606197 
L 225.380611 364.584459 
L 225.993013 364.330629 
L 226.605414 365.497611 
L 227.217816 366.388266 
L 227.830218 367.003343 
L 228.442619 366.730749 
L 229.055021 366.102135 
L 229.667423 364.439743 
L 230.279824 364.863975 
L 230.892226 365.568062 
L 231.504628 364.410231 
L 232.729431 366.224765 
L 233.341833 366.246797 
L 233.954234 364.922016 
L 234.566636 365.285955 
L 235.179038 365.956038 
L 235.79144 365.625931 
L 236.403841 365.005701 
L 237.016243 365.589023 
L 237.628645 363.795543 
L 238.241046 364.049278 
L 238.853448 364.57191 
L 239.46585 365.597089 
L 240.078251 365.810861 
L 240.690653 365.770642 
L 241.303055 366.506794 
L 242.527858 363.975964 
L 243.752661 365.273559 
L 244.365063 365.347412 
L 245.589866 364.075977 
L 246.81467 365.981484 
L 247.427072 364.947974 
L 248.039473 364.441373 
L 248.651875 364.158114 
L 249.876678 367.472326 
L 250.48908 367.006634 
L 251.101482 365.647222 
L 251.713883 365.275423 
L 252.326285 366.781682 
L 252.938687 366.106848 
L 253.551088 364.973615 
L 254.16349 365.26354 
L 254.775892 365.759552 
L 256.000695 365.825301 
L 256.613097 365.384983 
L 257.225498 365.602099 
L 257.8379 364.994449 
L 258.450302 365.012538 
L 259.062703 365.502609 
L 259.675105 365.680613 
L 260.287507 365.633948 
L 260.899909 364.566044 
L 261.51231 365.10569 
L 262.124712 364.812836 
L 262.737114 364.769276 
L 263.349515 366.079396 
L 263.961917 365.376427 
L 264.574319 366.116864 
L 265.18672 365.804717 
L 266.411524 367.035146 
L 267.023925 367.640476 
L 267.636327 366.12112 
L 268.86113 366.025214 
L 269.473532 366.52194 
L 270.085934 366.86326 
L 270.698335 365.324399 
L 271.310737 365.274581 
L 272.535541 364.607797 
L 273.147942 365.551657 
L 273.760344 365.95624 
L 274.372746 365.276925 
L 275.597549 364.2747 
L 276.209951 365.132276 
L 276.822352 365.092208 
L 277.434754 365.724999 
L 278.047156 365.701992 
L 278.659557 366.52626 
L 279.271959 366.21353 
L 279.884361 365.417661 
L 280.496762 365.336194 
L 281.109164 366.638289 
L 281.721566 365.762998 
L 282.333967 365.233312 
L 282.946369 364.449551 
L 283.558771 364.624827 
L 284.171172 364.228036 
L 284.783574 364.305221 
L 285.395976 366.054981 
L 286.008378 365.986768 
L 286.620779 365.25724 
L 287.233181 365.253621 
L 287.845583 367.168296 
L 288.457984 366.652386 
L 289.070386 367.060914 
L 289.682788 367.243439 
L 290.295189 365.298785 
L 290.907591 365.326047 
L 291.519993 366.266347 
L 292.132394 366.740964 
L 292.744796 366.448999 
L 293.357198 365.033771 
L 293.969599 365.744114 
L 294.582001 365.717802 
L 295.194403 364.003427 
L 295.806804 363.021654 
L 296.419206 364.066515 
L 297.031608 364.769286 
L 297.64401 363.491051 
L 298.256411 364.024183 
L 298.868813 365.478743 
L 300.093616 365.688855 
L 300.706018 365.284176 
L 301.31842 365.61229 
L 301.930821 364.214926 
L 302.543223 363.413608 
L 303.155625 363.873264 
L 303.768026 365.23175 
L 304.380428 365.265733 
L 304.99283 365.451671 
L 305.605231 364.801622 
L 306.217633 364.52731 
L 306.830035 362.862105 
L 307.442436 362.712661 
L 308.054838 363.328376 
L 308.66724 364.370119 
L 309.279641 364.867348 
L 310.504445 364.613165 
L 311.729248 363.586903 
L 312.34165 364.438453 
L 312.954052 364.851623 
L 313.566453 366.610373 
L 314.178855 367.281921 
L 314.791257 367.084115 
L 315.403658 366.171775 
L 316.01606 364.117897 
L 316.628462 364.823251 
L 317.240863 364.524524 
L 317.853265 363.610404 
L 318.465667 363.878864 
L 319.69047 365.638994 
L 320.302872 366.335355 
L 320.915273 366.394641 
L 321.527675 365.930016 
L 322.140077 367.356663 
L 322.752479 366.205062 
L 323.36488 364.559645 
L 323.977282 364.206459 
L 324.589684 364.756041 
L 325.202085 364.990347 
L 325.814487 363.899064 
L 326.426889 364.911571 
L 327.03929 364.983616 
L 327.651692 363.782056 
L 328.264094 364.65493 
L 328.876495 366.261227 
L 329.488897 366.746392 
L 330.101299 366.102165 
L 330.7137 365.634016 
L 331.326102 365.398414 
L 331.938504 364.546784 
L 332.550905 364.442118 
L 333.163307 365.565139 
L 333.775709 366.320618 
L 335.000512 363.762313 
L 335.612914 364.969396 
L 336.225316 365.29507 
L 336.837717 364.961365 
L 337.450119 365.13562 
L 338.062521 363.736291 
L 339.287324 367.375946 
L 339.899726 367.742288 
L 340.512127 366.253404 
L 341.124529 365.159482 
L 341.736931 366.379093 
L 342.961734 366.810313 
L 344.186537 364.327687 
L 344.798939 365.650892 
L 346.023742 364.594305 
L 346.636144 364.936698 
L 347.248546 366.330911 
L 347.860948 365.990932 
L 348.473349 366.167313 
L 349.085751 364.657243 
L 349.698153 364.664411 
L 350.310554 366.588452 
L 350.922956 367.762267 
L 351.535358 366.504839 
L 352.147759 366.135019 
L 352.760161 365.257129 
L 353.372563 364.833118 
L 353.984964 365.930568 
L 354.597366 365.367652 
L 355.209768 365.654098 
L 355.822169 365.388008 
L 356.434571 364.573635 
L 357.046973 365.484161 
L 358.884178 366.131096 
L 359.496579 365.310305 
L 360.108981 364.291295 
L 360.721383 364.719791 
L 361.333785 364.075806 
L 361.946186 364.840362 
L 362.558588 365.901088 
L 363.17099 365.31379 
L 364.395793 363.215409 
L 365.008195 363.118393 
L 365.620596 364.399233 
L 366.232998 365.3627 
L 366.8454 365.936108 
L 367.457801 365.431094 
L 368.070203 366.968548 
L 368.682605 365.694635 
L 369.295006 365.53868 
L 369.907408 366.308307 
L 370.51981 366.326426 
L 371.132211 366.193438 
L 371.744613 366.747238 
L 372.357015 367.044556 
L 372.969416 366.98501 
L 373.581818 366.232856 
L 373.581818 366.232856 
" style="fill:none;stroke:#dd8452;stroke-linecap:round;stroke-width:1.5;"/>
   </g>
   <g id="line2d_15">
    <path clip-path="url(#pe1d6e9400d)" d="M 69.218182 66.96 
L 69.830584 319.509855 
L 70.442985 338.607885 
L 71.667789 350.760416 
L 72.892592 357.507485 
L 73.504994 360.787627 
L 74.117395 360.11094 
L 74.729797 360.933633 
L 75.342199 360.848827 
L 75.9546 359.571779 
L 76.567002 362.664392 
L 77.179404 363.908705 
L 77.791805 365.676772 
L 78.404207 364.169588 
L 79.016609 364.04715 
L 79.62901 364.839137 
L 80.241412 364.640425 
L 80.853814 363.42328 
L 81.466215 365.257026 
L 82.078617 366.139719 
L 82.691019 365.230337 
L 83.303421 365.388866 
L 84.528224 366.051383 
L 85.140626 367.76381 
L 85.753027 366.494631 
L 86.365429 364.312975 
L 86.977831 364.592951 
L 87.590232 365.197575 
L 88.202634 364.413513 
L 88.815036 365.50344 
L 89.427437 368.504787 
L 90.039839 369.143875 
L 90.652241 367.32457 
L 91.264642 363.207796 
L 91.877044 362.011291 
L 93.101847 366.24829 
L 93.714249 367.924553 
L 94.326651 368.939099 
L 94.939052 365.715208 
L 95.551454 364.39925 
L 96.163856 366.181828 
L 96.776258 365.258949 
L 97.388659 364.704386 
L 98.001061 365.343626 
L 98.613463 363.884921 
L 99.225864 364.144074 
L 99.838266 366.720505 
L 100.450668 367.266344 
L 101.063069 367.061742 
L 101.675471 366.710411 
L 102.287873 366.940937 
L 102.900274 365.414285 
L 103.512676 367.690575 
L 104.125078 369.026285 
L 104.737479 368.135752 
L 105.349881 366.380203 
L 105.962283 366.248963 
L 106.574684 366.586903 
L 107.187086 365.684911 
L 107.799488 365.796169 
L 109.024291 368.638597 
L 110.249095 364.425149 
L 110.861496 363.343247 
L 112.0863 365.586886 
L 112.698701 366.13614 
L 113.311103 365.141395 
L 113.923505 365.509662 
L 114.535906 365.228806 
L 115.148308 365.550017 
L 115.76071 364.796931 
L 116.373111 364.483882 
L 116.985513 365.665729 
L 117.597915 367.182764 
L 118.210316 367.484606 
L 118.822718 367.203959 
L 119.43512 365.593479 
L 120.047521 365.463494 
L 120.659923 365.895479 
L 121.272325 366.777681 
L 121.884727 364.057098 
L 123.10953 364.537556 
L 123.721932 364.62712 
L 124.334333 363.853793 
L 124.946735 364.657659 
L 125.559137 366.188554 
L 126.171538 366.369974 
L 127.396342 365.354578 
L 128.008743 366.182684 
L 128.621145 366.600765 
L 129.233547 366.195053 
L 129.845948 365.350494 
L 130.45835 365.557243 
L 131.070752 365.047713 
L 131.683153 366.663874 
L 132.295555 365.81083 
L 132.907957 365.754037 
L 133.520359 366.296107 
L 134.13276 366.118199 
L 134.745162 366.788513 
L 135.357564 365.99684 
L 135.969965 367.764292 
L 137.194769 367.135681 
L 137.80717 368.08132 
L 138.419572 367.571332 
L 139.031974 368.259913 
L 139.644375 368.055488 
L 140.256777 366.785601 
L 141.48158 366.089209 
L 142.093982 365.181761 
L 142.706384 365.606278 
L 143.318785 365.398464 
L 143.931187 365.921155 
L 144.543589 365.677442 
L 145.15599 364.096971 
L 145.768392 364.150118 
L 146.380794 363.853567 
L 146.993196 365.310385 
L 147.605597 365.697956 
L 148.217999 366.777956 
L 148.830401 365.68851 
L 149.442802 365.221171 
L 150.055204 364.524771 
L 150.667606 364.853019 
L 151.280007 366.307164 
L 151.892409 365.163346 
L 152.504811 362.407491 
L 153.117212 361.912486 
L 153.729614 362.594495 
L 154.342016 364.715549 
L 154.954417 365.548345 
L 155.566819 366.009733 
L 156.179221 366.056601 
L 156.791622 363.857576 
L 157.404024 366.116918 
L 158.016426 367.497919 
L 158.628828 366.823293 
L 159.241229 367.344229 
L 159.853631 365.42309 
L 161.078434 363.531165 
L 161.690836 364.772427 
L 162.303238 363.603896 
L 162.915639 363.665913 
L 163.528041 362.38766 
L 164.140443 364.29398 
L 164.752844 364.704451 
L 165.365246 366.081762 
L 165.977648 365.914229 
L 166.590049 365.442473 
L 167.202451 366.871618 
L 167.814853 365.607361 
L 168.427254 364.879788 
L 169.039656 364.569275 
L 169.652058 364.839421 
L 170.264459 365.323796 
L 170.876861 364.548658 
L 171.489263 364.538588 
L 172.101665 364.170279 
L 172.714066 365.693354 
L 173.326468 364.90775 
L 173.93887 365.334417 
L 174.551271 367.530741 
L 175.163673 367.64577 
L 175.776075 364.447734 
L 176.388476 362.782651 
L 177.000878 363.117428 
L 177.61328 363.842377 
L 178.225681 366.324625 
L 178.838083 365.446494 
L 179.450485 364.945235 
L 180.062886 365.383345 
L 180.675288 365.226431 
L 181.28769 365.865233 
L 181.900091 366.722658 
L 182.512493 364.752385 
L 183.124895 366.51769 
L 183.737297 364.772744 
L 184.349698 363.434842 
L 184.9621 363.638369 
L 185.574502 364.872151 
L 186.186903 364.924776 
L 186.799305 363.646971 
L 187.411707 363.785172 
L 188.024108 363.790526 
L 188.63651 365.870486 
L 189.248912 366.712884 
L 189.861313 365.755261 
L 190.473715 366.941086 
L 191.086117 367.136305 
L 191.698518 365.719994 
L 192.923322 364.962185 
L 193.535723 364.009848 
L 194.148125 364.790496 
L 194.760527 367.946824 
L 195.372928 367.934442 
L 195.98533 366.785123 
L 196.597732 364.820483 
L 197.210134 365.21191 
L 198.434937 366.634814 
L 199.047339 366.672801 
L 199.65974 365.839816 
L 200.272142 368.220953 
L 200.884544 367.973891 
L 201.496945 367.006719 
L 202.109347 365.465733 
L 202.721749 365.879446 
L 203.33415 368.588524 
L 203.946552 369.36 
L 204.558954 367.59314 
L 205.171355 365.411799 
L 205.783757 364.989442 
L 206.396159 363.829543 
L 207.00856 363.196648 
L 207.620962 362.329248 
L 208.233364 364.897034 
L 210.070569 366.289758 
L 210.682971 367.80141 
L 211.295372 367.921859 
L 211.907774 367.502751 
L 212.520176 366.31122 
L 213.132577 364.771064 
L 213.744979 365.320191 
L 214.969782 365.490008 
L 215.582184 365.471577 
L 216.194586 365.243426 
L 216.806987 364.372798 
L 217.419389 365.920478 
L 218.031791 365.436575 
L 218.644192 363.537115 
L 219.256594 363.898649 
L 220.481397 367.377588 
L 221.093799 368.545813 
L 221.706201 365.51462 
L 222.318603 365.104079 
L 222.931004 365.087824 
L 223.543406 366.079059 
L 224.155808 366.56408 
L 224.768209 365.95154 
L 225.380611 363.89864 
L 225.993013 364.254674 
L 226.605414 365.004399 
L 227.217816 366.46712 
L 227.830218 364.504675 
L 228.442619 364.70786 
L 229.055021 363.948994 
L 230.279824 364.3039 
L 230.892226 363.711508 
L 231.504628 364.754331 
L 232.117029 367.374739 
L 232.729431 366.21347 
L 233.341833 364.609269 
L 233.954234 362.553787 
L 234.566636 361.445391 
L 235.179038 364.440765 
L 235.79144 364.849378 
L 237.016243 363.070556 
L 237.628645 363.982819 
L 238.241046 363.855928 
L 238.853448 363.882806 
L 239.46585 365.558589 
L 240.078251 364.247735 
L 240.690653 364.549199 
L 241.303055 366.333049 
L 241.915456 365.081019 
L 242.527858 364.790447 
L 243.14026 364.850345 
L 243.752661 365.979186 
L 244.365063 365.527 
L 244.977465 366.408233 
L 245.589866 366.096752 
L 246.202268 365.162708 
L 246.81467 365.793502 
L 247.427072 367.043871 
L 248.039473 366.758775 
L 248.651875 367.796838 
L 249.264277 368.40814 
L 249.876678 368.546898 
L 250.48908 367.339178 
L 251.101482 368.45392 
L 251.713883 368.105032 
L 252.326285 365.196292 
L 252.938687 365.527824 
L 253.551088 366.213542 
L 254.16349 366.388503 
L 254.775892 366.086315 
L 255.388293 366.436094 
L 256.000695 366.302161 
L 257.225498 363.827409 
L 257.8379 365.791316 
L 259.062703 366.432117 
L 259.675105 366.417731 
L 260.287507 364.329803 
L 260.899909 362.8644 
L 261.51231 364.989356 
L 262.737114 367.237639 
L 263.349515 366.968511 
L 264.574319 369.307215 
L 266.411524 367.830941 
L 267.023925 364.978768 
L 268.248729 366.349512 
L 268.86113 363.879811 
L 269.473532 364.662707 
L 270.085934 367.191066 
L 270.698335 369.110166 
L 271.310737 367.847666 
L 271.923139 365.973487 
L 273.147942 368.225326 
L 273.760344 367.326696 
L 274.372746 365.902422 
L 274.985147 365.094394 
L 275.597549 366.664168 
L 276.209951 365.817994 
L 276.822352 364.673165 
L 277.434754 365.468233 
L 278.047156 364.247206 
L 278.659557 364.879062 
L 279.271959 364.600137 
L 279.884361 364.646816 
L 280.496762 363.797724 
L 281.721566 363.422626 
L 282.333967 364.234116 
L 282.946369 364.16918 
L 283.558771 365.798755 
L 284.171172 365.687832 
L 284.783574 366.068585 
L 285.395976 366.86913 
L 286.008378 367.338904 
L 286.620779 367.283231 
L 287.233181 366.672285 
L 288.457984 364.562255 
L 289.682788 366.83315 
L 290.295189 367.398943 
L 290.907591 368.672971 
L 291.519993 368.82447 
L 292.132394 366.97003 
L 292.744796 364.650573 
L 293.357198 364.231171 
L 294.582001 368.473975 
L 295.194403 367.279714 
L 295.806804 367.787497 
L 296.419206 367.484207 
L 297.031608 367.688314 
L 297.64401 365.874142 
L 298.256411 365.674885 
L 298.868813 365.148725 
L 299.481215 366.042189 
L 300.093616 366.203764 
L 300.706018 365.798942 
L 301.31842 366.052499 
L 301.930821 366.882124 
L 302.543223 365.963123 
L 303.155625 364.144319 
L 303.768026 363.831904 
L 304.380428 366.33713 
L 304.99283 367.278994 
L 305.605231 366.697978 
L 306.217633 369.150279 
L 306.830035 368.223941 
L 307.442436 365.926054 
L 309.279641 363.726431 
L 309.892043 363.751855 
L 310.504445 365.58275 
L 311.116847 366.906777 
L 311.729248 365.419274 
L 312.34165 365.797339 
L 313.566453 363.228236 
L 314.178855 364.323556 
L 314.791257 364.123498 
L 315.403658 365.769288 
L 316.01606 367.045698 
L 316.628462 366.785626 
L 317.240863 364.918381 
L 317.853265 363.513441 
L 318.465667 366.071997 
L 319.078068 366.372378 
L 319.69047 365.493944 
L 320.302872 364.156223 
L 320.915273 364.376317 
L 321.527675 364.206108 
L 322.140077 364.610683 
L 322.752479 364.838245 
L 323.977282 366.893412 
L 324.589684 366.074982 
L 325.202085 366.215727 
L 325.814487 364.509791 
L 326.426889 365.012291 
L 327.03929 366.062593 
L 327.651692 364.641871 
L 328.264094 365.136085 
L 329.488897 364.845339 
L 330.101299 365.05992 
L 330.7137 365.572385 
L 331.326102 364.780882 
L 331.938504 363.027144 
L 332.550905 366.475004 
L 333.163307 367.638784 
L 333.775709 364.655609 
L 334.38811 362.682135 
L 335.612914 365.799264 
L 336.225316 366.166286 
L 336.837717 368.08589 
L 337.450119 367.931778 
L 338.062521 368.569729 
L 338.674922 367.579113 
L 339.287324 368.079457 
L 339.899726 366.001952 
L 340.512127 365.146872 
L 341.124529 365.993703 
L 341.736931 365.447449 
L 342.349332 366.526446 
L 342.961734 365.798314 
L 343.574136 364.282377 
L 344.186537 364.018319 
L 345.411341 366.512042 
L 346.636144 365.125128 
L 347.860948 367.618526 
L 348.473349 365.739781 
L 349.698153 367.286458 
L 350.310554 367.66059 
L 350.922956 366.126805 
L 351.535358 364.236819 
L 352.147759 365.565017 
L 352.760161 366.288907 
L 353.372563 365.424857 
L 353.984964 365.975987 
L 354.597366 364.306344 
L 355.209768 365.622255 
L 355.822169 367.393963 
L 356.434571 366.622446 
L 357.046973 365.26828 
L 357.659374 365.626611 
L 358.271776 367.583803 
L 358.884178 365.829006 
L 359.496579 365.977287 
L 360.108981 365.785232 
L 360.721383 366.620966 
L 361.333785 367.193996 
L 361.946186 364.366671 
L 362.558588 364.478561 
L 363.17099 366.619019 
L 363.783391 366.698993 
L 364.395793 367.050443 
L 365.008195 367.546408 
L 365.620596 367.482965 
L 366.232998 366.163018 
L 367.457801 368.468787 
L 368.070203 367.941452 
L 369.295006 367.359466 
L 369.907408 367.659796 
L 370.51981 366.947649 
L 371.132211 366.964445 
L 371.744613 366.785254 
L 372.357015 367.333425 
L 372.969416 366.81321 
L 373.581818 366.777639 
L 373.581818 366.777639 
" style="fill:none;stroke:#55a868;stroke-linecap:round;stroke-width:1.5;"/>
   </g>
   <g id="patch_3">
    <path d="M 54 384.48 
L 54 51.84 
" style="fill:none;stroke:#ffffff;stroke-linecap:square;stroke-linejoin:miter;stroke-width:1.25;"/>
   </g>
   <g id="patch_4">
    <path d="M 388.8 384.48 
L 388.8 51.84 
" style="fill:none;stroke:#ffffff;stroke-linecap:square;stroke-linejoin:miter;stroke-width:1.25;"/>
   </g>
   <g id="patch_5">
    <path d="M 54 384.48 
L 388.8 384.48 
" style="fill:none;stroke:#ffffff;stroke-linecap:square;stroke-linejoin:miter;stroke-width:1.25;"/>
   </g>
   <g id="patch_6">
    <path d="M 54 51.84 
L 388.8 51.84 
" style="fill:none;stroke:#ffffff;stroke-linecap:square;stroke-linejoin:miter;stroke-width:1.25;"/>
   </g>
   <g id="legend_1">
    <g id="patch_7">
     <path d="M 192.23 109.144844 
L 381.1 109.144844 
Q 383.3 109.144844 383.3 106.944844 
L 383.3 59.54 
Q 383.3 57.34 381.1 57.34 
L 192.23 57.34 
Q 190.03 57.34 190.03 59.54 
L 190.03 106.944844 
Q 190.03 109.144844 192.23 109.144844 
z
" style="fill:#eaeaf2;opacity:0.8;stroke:#cccccc;stroke-linejoin:miter;"/>
    </g>
    <g id="line2d_16">
     <path d="M 194.43 66.248281 
L 216.43 66.248281 
" style="fill:none;stroke:#4c72b0;stroke-linecap:round;stroke-width:1.5;"/>
    </g>
    <g id="line2d_17"/>
    <g id="text_15">
     <!-- $ T = 1.0, \rho = 0.7, D = 0.00166$ -->
     <g style="fill:#262626;" transform="translate(225.23 70.098281)scale(0.11 -0.11)">
      <defs>
       <path d="M 5.90625 72.90625 
L 67.578125 72.90625 
L 66.015625 64.59375 
L 39.984375 64.59375 
L 27.484375 0 
L 17.578125 0 
L 30.078125 64.59375 
L 4.296875 64.59375 
z
" id="DejaVuSans-Oblique-84"/>
       <path d="M 10.59375 45.40625 
L 73.1875 45.40625 
L 73.1875 37.203125 
L 10.59375 37.203125 
z
M 10.59375 25.484375 
L 73.1875 25.484375 
L 73.1875 17.1875 
L 10.59375 17.1875 
z
" id="DejaVuSans-61"/>
       <path d="M 11.71875 12.40625 
L 22.015625 12.40625 
L 22.015625 4 
L 14.015625 -11.625 
L 7.71875 -11.625 
L 11.71875 4 
z
" id="DejaVuSans-44"/>
       <path d="M 18.796875 44.921875 
Q 22.703125 49.90625 30.953125 54.296875 
Q 34.1875 56 43.0625 56 
Q 53.03125 56 57.71875 48.09375 
Q 62.40625 40.1875 59.90625 27.296875 
Q 57.375 14.40625 49.609375 6.484375 
Q 41.84375 -1.421875 31.890625 -1.421875 
Q 25.875 -1.421875 22.015625 0.984375 
Q 18.171875 3.328125 16.3125 8.203125 
L 10.640625 -20.796875 
L 1.609375 -20.796875 
L 10.890625 26.8125 
Q 13.09375 38.09375 18.796875 44.921875 
z
M 50.59375 27.296875 
Q 52.484375 37.203125 49.515625 42.875 
Q 46.53125 48.484375 39.40625 48.484375 
Q 32.28125 48.484375 27.09375 42.875 
Q 21.921875 37.203125 20.015625 27.296875 
Q 18.0625 17.390625 21.046875 11.71875 
Q 24.03125 6.109375 31.15625 6.109375 
Q 38.28125 6.109375 43.453125 11.71875 
Q 48.640625 17.390625 50.59375 27.296875 
z
" id="DejaVuSans-Oblique-961"/>
       <path d="M 8.203125 72.90625 
L 55.078125 72.90625 
L 55.078125 68.703125 
L 28.609375 0 
L 18.3125 0 
L 43.21875 64.59375 
L 8.203125 64.59375 
z
" id="DejaVuSans-55"/>
       <path d="M 16.890625 72.90625 
L 38.09375 72.90625 
Q 54.984375 72.90625 63.59375 65.75 
Q 72.21875 58.59375 72.21875 44.484375 
Q 72.21875 35.15625 68.9375 26.53125 
Q 65.671875 17.921875 59.90625 12.015625 
Q 54.109375 5.953125 45.171875 2.96875 
Q 36.234375 0 24.03125 0 
L 2.6875 0 
z
M 25.203125 64.796875 
L 14.203125 8.109375 
L 27.09375 8.109375 
Q 43.65625 8.109375 52.734375 17.625 
Q 61.8125 27.15625 61.8125 44.484375 
Q 61.8125 54.984375 55.953125 59.890625 
Q 50.09375 64.796875 37.59375 64.796875 
z
" id="DejaVuSans-Oblique-68"/>
       <path d="M 33.015625 40.375 
Q 26.375 40.375 22.484375 35.828125 
Q 18.609375 31.296875 18.609375 23.390625 
Q 18.609375 15.53125 22.484375 10.953125 
Q 26.375 6.390625 33.015625 6.390625 
Q 39.65625 6.390625 43.53125 10.953125 
Q 47.40625 15.53125 47.40625 23.390625 
Q 47.40625 31.296875 43.53125 35.828125 
Q 39.65625 40.375 33.015625 40.375 
z
M 52.59375 71.296875 
L 52.59375 62.3125 
Q 48.875 64.0625 45.09375 64.984375 
Q 41.3125 65.921875 37.59375 65.921875 
Q 27.828125 65.921875 22.671875 59.328125 
Q 17.53125 52.734375 16.796875 39.40625 
Q 19.671875 43.65625 24.015625 45.921875 
Q 28.375 48.1875 33.59375 48.1875 
Q 44.578125 48.1875 50.953125 41.515625 
Q 57.328125 34.859375 57.328125 23.390625 
Q 57.328125 12.15625 50.6875 5.359375 
Q 44.046875 -1.421875 33.015625 -1.421875 
Q 20.359375 -1.421875 13.671875 8.265625 
Q 6.984375 17.96875 6.984375 36.375 
Q 6.984375 53.65625 15.1875 63.9375 
Q 23.390625 74.21875 37.203125 74.21875 
Q 40.921875 74.21875 44.703125 73.484375 
Q 48.484375 72.75 52.59375 71.296875 
z
" id="DejaVuSans-54"/>
      </defs>
      <use transform="translate(0 0.78125)" xlink:href="#DejaVuSans-Oblique-84"/>
      <use transform="translate(80.566406 0.78125)" xlink:href="#DejaVuSans-61"/>
      <use transform="translate(183.837891 0.78125)" xlink:href="#DejaVuSans-49"/>
      <use transform="translate(247.460938 0.78125)" xlink:href="#DejaVuSans-46"/>
      <use transform="translate(279.248047 0.78125)" xlink:href="#DejaVuSans-48"/>
      <use transform="translate(342.871094 0.78125)" xlink:href="#DejaVuSans-44"/>
      <use transform="translate(394.140625 0.78125)" xlink:href="#DejaVuSans-Oblique-961"/>
      <use transform="translate(477.099609 0.78125)" xlink:href="#DejaVuSans-61"/>
      <use transform="translate(580.371094 0.78125)" xlink:href="#DejaVuSans-48"/>
      <use transform="translate(643.994141 0.78125)" xlink:href="#DejaVuSans-46"/>
      <use transform="translate(668.03125 0.78125)" xlink:href="#DejaVuSans-55"/>
      <use transform="translate(731.654297 0.78125)" xlink:href="#DejaVuSans-44"/>
      <use transform="translate(782.923828 0.78125)" xlink:href="#DejaVuSans-Oblique-68"/>
      <use transform="translate(879.408203 0.78125)" xlink:href="#DejaVuSans-61"/>
      <use transform="translate(982.679688 0.78125)" xlink:href="#DejaVuSans-48"/>
      <use transform="translate(1046.302734 0.78125)" xlink:href="#DejaVuSans-46"/>
      <use transform="translate(1078.089844 0.78125)" xlink:href="#DejaVuSans-48"/>
      <use transform="translate(1141.712891 0.78125)" xlink:href="#DejaVuSans-48"/>
      <use transform="translate(1205.335938 0.78125)" xlink:href="#DejaVuSans-49"/>
      <use transform="translate(1268.958984 0.78125)" xlink:href="#DejaVuSans-54"/>
      <use transform="translate(1332.582031 0.78125)" xlink:href="#DejaVuSans-54"/>
     </g>
    </g>
    <g id="line2d_18">
     <path d="M 194.43 82.416562 
L 216.43 82.416562 
" style="fill:none;stroke:#dd8452;stroke-linecap:round;stroke-width:1.5;"/>
    </g>
    <g id="line2d_19"/>
    <g id="text_16">
     <!-- $ T = 1.5, \rho = 0.7, D = 0.00234$ -->
     <g style="fill:#262626;" transform="translate(225.23 86.266562)scale(0.11 -0.11)">
      <use transform="translate(0 0.78125)" xlink:href="#DejaVuSans-Oblique-84"/>
      <use transform="translate(80.566406 0.78125)" xlink:href="#DejaVuSans-61"/>
      <use transform="translate(183.837891 0.78125)" xlink:href="#DejaVuSans-49"/>
      <use transform="translate(247.460938 0.78125)" xlink:href="#DejaVuSans-46"/>
      <use transform="translate(279.248047 0.78125)" xlink:href="#DejaVuSans-53"/>
      <use transform="translate(342.871094 0.78125)" xlink:href="#DejaVuSans-44"/>
      <use transform="translate(394.140625 0.78125)" xlink:href="#DejaVuSans-Oblique-961"/>
      <use transform="translate(477.099609 0.78125)" xlink:href="#DejaVuSans-61"/>
      <use transform="translate(580.371094 0.78125)" xlink:href="#DejaVuSans-48"/>
      <use transform="translate(643.994141 0.78125)" xlink:href="#DejaVuSans-46"/>
      <use transform="translate(668.03125 0.78125)" xlink:href="#DejaVuSans-55"/>
      <use transform="translate(731.654297 0.78125)" xlink:href="#DejaVuSans-44"/>
      <use transform="translate(782.923828 0.78125)" xlink:href="#DejaVuSans-Oblique-68"/>
      <use transform="translate(879.408203 0.78125)" xlink:href="#DejaVuSans-61"/>
      <use transform="translate(982.679688 0.78125)" xlink:href="#DejaVuSans-48"/>
      <use transform="translate(1046.302734 0.78125)" xlink:href="#DejaVuSans-46"/>
      <use transform="translate(1078.089844 0.78125)" xlink:href="#DejaVuSans-48"/>
      <use transform="translate(1141.712891 0.78125)" xlink:href="#DejaVuSans-48"/>
      <use transform="translate(1205.335938 0.78125)" xlink:href="#DejaVuSans-50"/>
      <use transform="translate(1268.958984 0.78125)" xlink:href="#DejaVuSans-51"/>
      <use transform="translate(1332.582031 0.78125)" xlink:href="#DejaVuSans-52"/>
     </g>
    </g>
    <g id="line2d_20">
     <path d="M 194.43 98.584844 
L 216.43 98.584844 
" style="fill:none;stroke:#55a868;stroke-linecap:round;stroke-width:1.5;"/>
    </g>
    <g id="line2d_21"/>
    <g id="text_17">
     <!-- $ T = 2.0, \rho = 0.7, D = 0.00213$ -->
     <g style="fill:#262626;" transform="translate(225.23 102.434844)scale(0.11 -0.11)">
      <use transform="translate(0 0.78125)" xlink:href="#DejaVuSans-Oblique-84"/>
      <use transform="translate(80.566406 0.78125)" xlink:href="#DejaVuSans-61"/>
      <use transform="translate(183.837891 0.78125)" xlink:href="#DejaVuSans-50"/>
      <use transform="translate(247.460938 0.78125)" xlink:href="#DejaVuSans-46"/>
      <use transform="translate(279.248047 0.78125)" xlink:href="#DejaVuSans-48"/>
      <use transform="translate(342.871094 0.78125)" xlink:href="#DejaVuSans-44"/>
      <use transform="translate(394.140625 0.78125)" xlink:href="#DejaVuSans-Oblique-961"/>
      <use transform="translate(477.099609 0.78125)" xlink:href="#DejaVuSans-61"/>
      <use transform="translate(580.371094 0.78125)" xlink:href="#DejaVuSans-48"/>
      <use transform="translate(643.994141 0.78125)" xlink:href="#DejaVuSans-46"/>
      <use transform="translate(668.03125 0.78125)" xlink:href="#DejaVuSans-55"/>
      <use transform="translate(731.654297 0.78125)" xlink:href="#DejaVuSans-44"/>
      <use transform="translate(782.923828 0.78125)" xlink:href="#DejaVuSans-Oblique-68"/>
      <use transform="translate(879.408203 0.78125)" xlink:href="#DejaVuSans-61"/>
      <use transform="translate(982.679688 0.78125)" xlink:href="#DejaVuSans-48"/>
      <use transform="translate(1046.302734 0.78125)" xlink:href="#DejaVuSans-46"/>
      <use transform="translate(1078.089844 0.78125)" xlink:href="#DejaVuSans-48"/>
      <use transform="translate(1141.712891 0.78125)" xlink:href="#DejaVuSans-48"/>
      <use transform="translate(1205.335938 0.78125)" xlink:href="#DejaVuSans-50"/>
      <use transform="translate(1268.958984 0.78125)" xlink:href="#DejaVuSans-49"/>
      <use transform="translate(1332.582031 0.78125)" xlink:href="#DejaVuSans-51"/>
     </g>
    </g>
   </g>
  </g>
 </g>
 <defs>
  <clipPath id="pe1d6e9400d">
   <rect height="332.64" width="334.8" x="54" y="51.84"/>
  </clipPath>
 </defs>
</svg>
